<svg id="eeKuiZ2vdom1" xmlns="http://www.w3.org/2000/svg" xmlns:xlink="http://www.w3.org/1999/xlink" viewBox="0 0 1103 489" shape-rendering="geometricPrecision" text-rendering="geometricPrecision"><defs><linearGradient id="eeKuiZ2vdom2-stroke" x1="290" y1="423" x2="477" y2="240" spreadMethod="pad" gradientUnits="userSpaceOnUse" gradientTransform="translate(0 0)"><stop id="eeKuiZ2vdom2-stroke-0" offset="12.0464%" stop-color="#fff"/><stop id="eeKuiZ2vdom2-stroke-1" offset="100%" stop-color="#fff"/></linearGradient><linearGradient id="eeKuiZ2vdom3-stroke" x1="222" y1="84" x2="658" y2="453" spreadMethod="pad" gradientUnits="userSpaceOnUse" gradientTransform="translate(0 0)"><stop id="eeKuiZ2vdom3-stroke-0" offset="0%" stop-color="#fff"/><stop id="eeKuiZ2vdom3-stroke-1" offset="88.623%" stop-color="rgba(255,255,255,0)"/></linearGradient><linearGradient id="eeKuiZ2vdom4-stroke" x1="1039" y1="468" x2="575" y2="219" spreadMethod="pad" gradientUnits="userSpaceOnUse" gradientTransform="translate(0 0)"><stop id="eeKuiZ2vdom4-stroke-0" offset="48.0856%" stop-color="#fff"/><stop id="eeKuiZ2vdom4-stroke-1" offset="96.2207%" stop-color="rgba(75,194,236,0)"/></linearGradient><linearGradient id="eeKuiZ2vdom5-stroke" x1="1070" y1="32" x2="633" y2="246" spreadMethod="pad" gradientUnits="userSpaceOnUse" gradientTransform="translate(0 0)"><stop id="eeKuiZ2vdom5-stroke-0" offset="75.6793%" stop-color="#fff"/><stop id="eeKuiZ2vdom5-stroke-1" offset="100%" stop-color="rgba(255,255,255,0)"/></linearGradient><linearGradient id="eeKuiZ2vdom6-stroke" x1="258" y1="197" x2="484" y2="271" spreadMethod="pad" gradientUnits="userSpaceOnUse" gradientTransform="translate(0 0)"><stop id="eeKuiZ2vdom6-stroke-0" offset="0%" stop-color="#fff"/><stop id="eeKuiZ2vdom6-stroke-1" offset="100%" stop-color="rgba(255,255,255,0)"/></linearGradient><linearGradient id="eeKuiZ2vdom7-stroke" x1="266.25" y1="316.048" x2="501" y2="246" spreadMethod="pad" gradientUnits="userSpaceOnUse" gradientTransform="translate(0 0)"><stop id="eeKuiZ2vdom7-stroke-0" offset="0%" stop-color="#fff"/><stop id="eeKuiZ2vdom7-stroke-1" offset="100%" stop-color="#fff"/></linearGradient><linearGradient id="eeKuiZ2vdom8-stroke" x1="1065" y1="187" x2="591" y2="261" spreadMethod="pad" gradientUnits="userSpaceOnUse" gradientTransform="translate(0 0)"><stop id="eeKuiZ2vdom8-stroke-0" offset="57.1831%" stop-color="#fff"/><stop id="eeKuiZ2vdom8-stroke-1" offset="100%" stop-color="rgba(255,255,255,0)"/></linearGradient><linearGradient id="eeKuiZ2vdom9-stroke" x1="1060" y1="316" x2="613" y2="210" spreadMethod="pad" gradientUnits="userSpaceOnUse" gradientTransform="translate(0 0)"><stop id="eeKuiZ2vdom9-stroke-0" offset="61.6153%" stop-color="#fff"/><stop id="eeKuiZ2vdom9-stroke-1" offset="100%" stop-color="#fff"/></linearGradient><linearGradient id="eeKuiZ2vdom10-fill" x1="188" y1="35" x2="-230" y2="29" spreadMethod="pad" gradientUnits="userSpaceOnUse" gradientTransform="translate(0 0)"><stop id="eeKuiZ2vdom10-fill-0" offset="0%" stop-color="#fff"/><stop id="eeKuiZ2vdom10-fill-1" offset="49.3436%" stop-color="#274f9e"/><stop id="eeKuiZ2vdom10-fill-2" offset="83.2154%" stop-color="#223f93"/></linearGradient><linearGradient id="eeKuiZ2vdom11-stroke" x1="0" y1="-160.5" x2="0.5" y2="160.5" spreadMethod="pad" gradientUnits="userSpaceOnUse" gradientTransform="translate(0 0)"><stop id="eeKuiZ2vdom11-stroke-0" offset="0%" stop-color="#ed2020"/><stop id="eeKuiZ2vdom11-stroke-1" offset="16.1458%" stop-color="#e39908"/><stop id="eeKuiZ2vdom11-stroke-2" offset="32.8125%" stop-color="#85d502"/><stop id="eeKuiZ2vdom11-stroke-3" offset="48.9583%" stop-color="#00ffc7"/><stop id="eeKuiZ2vdom11-stroke-4" offset="67.1875%" stop-color="#8ddb0f"/><stop id="eeKuiZ2vdom11-stroke-5" offset="82.8125%" stop-color="#f0ad00"/><stop id="eeKuiZ2vdom11-stroke-6" offset="100%" stop-color="#e70000"/></linearGradient></defs><path d="M65,457.357h176c31.333-4.5,95.1-32.1,99.5-106.5-.167-40.5,25.8-117.8,131-103" fill="none" stroke="url(#eeKuiZ2vdom2-stroke)" stroke-width="14"/><path d="M65,32h175.784c31.294,4.5563,94.983,32.5014,99.377,107.832C339.995,180.838,365.929,259.105,471,244.12" fill="none" stroke="url(#eeKuiZ2vdom3-stroke)" stroke-width="14"/><path d="M1038.5,457.357h-176c-31.333-4.5-95.1-32.1-99.5-106.5.167-40.5-25.8-117.8-131-103" fill="none" stroke="url(#eeKuiZ2vdom4-stroke)" stroke-width="14"/><path d="M1038.5,32h-175.784c-31.294,4.5563-94.983,32.5014-99.377,107.832.166,41.006-25.768,119.273-130.839,104.288" fill="none" stroke="url(#eeKuiZ2vdom5-stroke)" stroke-width="14"/><path d="M61,176h185.5c11.833,2,36.3,12.5,39.5,38.5c0,11,5.6,32.7,28,31.5h157.5" fill="none" stroke="url(#eeKuiZ2vdom6-stroke)" stroke-width="14"/><path d="M61,316.048h185.5c11.833-2,36.3-12.5,39.5-38.5c0-11,5.6-32.7,28-31.5h157.5" fill="none" stroke="url(#eeKuiZ2vdom7-stroke)" stroke-width="14"/><path d="M1042.5,176h-185.5c-11.833,2-36.3,12.5-39.5,38.5c0,11-5.6,32.7-28,31.5h-157.5" fill="none" stroke="url(#eeKuiZ2vdom8-stroke)" stroke-width="14"/><path d="M1042.5,316.048h-185.5c-11.833-2-36.3-12.5-39.5-38.5c0-11-5.6-32.7-28-31.5h-157.5" fill="none" stroke="url(#eeKuiZ2vdom9-stroke)" stroke-width="14"/><circle r="100" transform="translate(551 246)" fill="url(#eeKuiZ2vdom10-fill)"/><circle r="159.5" transform="translate(550.5 246.5)" fill="none" stroke="url(#eeKuiZ2vdom11-stroke)" stroke-width="2"/><rect width="64" height="64" rx="12.5" ry="12.5" transform="translate(.5 0.5)" fill="#223f93" stroke="#0631b0"/><rect width="64" height="64" rx="12.5" ry="12.5" transform="translate(.5 424.5)" fill="#223f93" stroke="#0631b0"/><rect width="64" height="64" rx="12.5" ry="12.5" transform="translate(.5 283.5)" fill="#223f93" stroke="#0631b0"/><rect width="64" height="64" rx="12.5" ry="12.5" transform="translate(.5 144.5)" fill="#223f93" stroke="#0631b0"/><rect width="64" height="64" rx="12.5" ry="12.5" transform="translate(1038.5 0.5)" fill="#fff" stroke="#0da2d7"/><path d="M1051,144.5h39c6.9,0,12.5,5.596,12.5,12.5v39c0,6.904-5.6,12.5-12.5,12.5h-39c-6.9,0-12.5-5.596-12.5-12.5v-39c0-6.904,5.6-12.5,12.5-12.5Z" fill="#fff" stroke="#0da2d7"/><path d="M1051,424.5h39c6.9,0,12.5,5.596,12.5,12.5v39c0,6.904-5.6,12.5-12.5,12.5h-39c-6.9,0-12.5-5.596-12.5-12.5v-39c0-6.904,5.6-12.5,12.5-12.5Z" fill="#fff" stroke="#0da2d7"/><path d="M1051,283.5h39c6.9,0,12.5,5.596,12.5,12.5v39c0,6.904-5.6,12.5-12.5,12.5h-39c-6.9,0-12.5-5.596-12.5-12.5v-39c0-6.904,5.6-12.5,12.5-12.5Z" fill="#fff" stroke="#0da2d7"/><g id="eeKuiZ2vdom20" transform="translate(416.572193 207.2935)"><path d="M32.8991,8L12.2177,19.3478L32.8991,31.1522L52.9274,19.3478L32.8991,8Z" fill="#6f8bdc" fill-opacity="0.91" stroke="#45749a"/><path d="M32.9717,56v-24.6522-.1956L12.2177,19.413L12,44.7826L32.9717,56Z" fill="#305ad3" fill-opacity="0.88" stroke="#45749a"/><path d="M52.7097,44.9783L32.9717,55.8696v-24.7826L53,19.3478l-.2903,25.6305Z" transform="translate(-.4717 0)" fill="#2343a0" fill-opacity="0.96" stroke="#45749a"/></g><g><path d="M1070.9,8l-20.68,11.3478l20.68,11.8044l20.03-11.8044L1070.9,8Z" fill="#7bd6f6" stroke="#45749a"/><path d="M1070.97,56v-24.6522-.1956L1050.22,19.413L1050,44.7826L1070.97,56Z" fill="#3cc1f0" stroke="#45749a"/><path d="M1090.71,44.9783l-19.74,10.8913v-24.7826L1091,19.3478l-.29,25.6305Z" fill="#1e9cc8" stroke="#45749a"/></g><g><path d="M1070.9,435l-20.68,11.348l20.68,11.804l20.03-11.804L1070.9,435Z" fill="#7bd6f6" stroke="#45749a"/><path d="M1070.97,483v-24.652-.196l-20.75-11.739-.22,25.37L1070.97,483Z" fill="#3cc1f0" stroke="#45749a"/><path d="M1090.71,471.978l-19.74,10.892v-24.783L1091,446.348l-.29,25.63Z" fill="#1e9cc8" stroke="#45749a"/></g><g><path d="M1070.9,292l-20.68,11.348l20.68,11.804l20.03-11.804L1070.9,292Z" fill="#7bd6f6" stroke="#45749a"/><path d="M1070.97,340v-24.652-.196l-20.75-11.739-.22,25.37L1070.97,340Z" fill="#3cc1f0" stroke="#45749a"/><path d="M1090.71,328.978l-19.74,10.892v-24.783L1091,303.348l-.29,25.63Z" fill="#1e9cc8" stroke="#45749a"/></g><g><path d="M1070.9,152l-20.68,11.348l20.68,11.804l20.03-11.804L1070.9,152Z" fill="#7bd6f6" stroke="#45749a"/><path d="M1070.97,200v-24.652-.196l-20.75-11.739-.22,25.37L1070.97,200Z" fill="#3cc1f0" stroke="#45749a"/><path d="M1090.71,188.978l-19.74,10.892v-24.783L1091,163.348l-.29,25.63Z" fill="#1e9cc8" stroke="#45749a"/></g><g><path d="M32.8991,433L12.2177,444.348l20.6814,11.804l20.0283-11.804L32.8991,433Z" fill="#6f8bdc" fill-opacity="0.91" stroke="#45749a"/><path d="M32.9717,481v-24.652-.196l-20.754-11.739L12,469.783L32.9717,481Z" fill="#305ad3" fill-opacity="0.88" stroke="#45749a"/><path d="M52.7097,469.978L32.9717,480.87v-24.783L53,444.348l-.2903,25.63Z" fill="#2343a0" fill-opacity="0.96" stroke="#45749a"/></g><g><path d="M32.8991,292L12.2177,303.348l20.6814,11.804l20.0283-11.804L32.8991,292Z" fill="#6f8bdc" fill-opacity="0.91" stroke="#45749a"/><path d="M32.9717,340v-24.652-.196l-20.754-11.739L12,328.783L32.9717,340Z" fill="#305ad3" fill-opacity="0.88" stroke="#45749a"/><path d="M52.7097,328.978L32.9717,339.87v-24.783L53,303.348l-.2903,25.63Z" fill="#2343a0" fill-opacity="0.96" stroke="#45749a"/></g><g id="eeKuiZ2vdom48" transform="translate(438.5 70.5)"><path d="M32.8991,152L12.2177,163.348l20.6814,11.804l20.0283-11.804L32.8991,152Z" fill="#6f8bdc" fill-opacity="0.91" stroke="#45749a"/><path d="M32.9717,200v-24.652-.196l-20.754-11.739L12,188.783L32.9717,200Z" fill="#305ad3" fill-opacity="0.88" stroke="#45749a"/><path d="M52.7097,188.978L32.9717,199.87v-24.783L53,163.348l-.2903,25.63Z" fill="#2343a0" fill-opacity="0.96" stroke="#45749a"/></g></svg>
