<svg cache-id="68c5ba89104141b7b8e730c04fe401de" id="eCV2RmMKpTB1" xmlns="http://www.w3.org/2000/svg" xmlns:xlink="http://www.w3.org/1999/xlink" viewBox="0 0 1550 509" shape-rendering="geometricPrecision" text-rendering="geometricPrecision"><defs><linearGradient id="eCV2RmMKpTB4-stroke" x1="1261" y1="480" x2="797" y2="231" spreadMethod="pad" gradientUnits="userSpaceOnUse" gradientTransform="translate(0 0)"><stop id="eCV2RmMKpTB4-stroke-0" offset="48.0856%" stop-color="#4bc2ec"/><stop id="eCV2RmMKpTB4-stroke-1" offset="96.2207%" stop-color="rgba(75,194,236,0)"/></linearGradient><linearGradient id="eCV2RmMKpTB6-stroke" x1="1292" y1="44" x2="855" y2="258" spreadMethod="pad" gradientUnits="userSpaceOnUse" gradientTransform="translate(0 0)"><stop id="eCV2RmMKpTB6-stroke-0" offset="75.6793%" stop-color="#4bc2ec"/><stop id="eCV2RmMKpTB6-stroke-1" offset="100%" stop-color="rgba(255,255,255,0)"/></linearGradient><linearGradient id="eCV2RmMKpTB8-stroke" x1="1287" y1="199" x2="813" y2="273" spreadMethod="pad" gradientUnits="userSpaceOnUse" gradientTransform="translate(0 0)"><stop id="eCV2RmMKpTB8-stroke-0" offset="57.1831%" stop-color="#4bc2ec"/><stop id="eCV2RmMKpTB8-stroke-1" offset="100%" stop-color="rgba(255,255,255,0)"/></linearGradient><linearGradient id="eCV2RmMKpTB10-stroke" x1="1282" y1="328" x2="835" y2="222" spreadMethod="pad" gradientUnits="userSpaceOnUse" gradientTransform="translate(0 0)"><stop id="eCV2RmMKpTB10-stroke-0" offset="61.6153%" stop-color="#4bc2ec"/><stop id="eCV2RmMKpTB10-stroke-1" offset="100%" stop-color="#fff"/></linearGradient><linearGradient id="eCV2RmMKpTB12-stroke" x1="444" y1="96" x2="880" y2="465" spreadMethod="pad" gradientUnits="userSpaceOnUse" gradientTransform="translate(0 0)"><stop id="eCV2RmMKpTB12-stroke-0" offset="0%" stop-color="#f56016"/><stop id="eCV2RmMKpTB12-stroke-1" offset="88.623%" stop-color="rgba(255,255,255,0)"/></linearGradient><linearGradient id="eCV2RmMKpTB14-stroke" x1="512" y1="435" x2="699" y2="252" spreadMethod="pad" gradientUnits="userSpaceOnUse" gradientTransform="translate(0 0)"><stop id="eCV2RmMKpTB14-stroke-0" offset="12.0464%" stop-color="#f56016"/><stop id="eCV2RmMKpTB14-stroke-1" offset="100%" stop-color="#fff"/></linearGradient><linearGradient id="eCV2RmMKpTB16-stroke" x1="480" y1="209" x2="706" y2="283" spreadMethod="pad" gradientUnits="userSpaceOnUse" gradientTransform="translate(0 0)"><stop id="eCV2RmMKpTB16-stroke-0" offset="0%" stop-color="#f56016"/><stop id="eCV2RmMKpTB16-stroke-1" offset="100%" stop-color="rgba(255,255,255,0)"/></linearGradient><linearGradient id="eCV2RmMKpTB18-stroke" x1="488.25" y1="328.048" x2="723" y2="258" spreadMethod="pad" gradientUnits="userSpaceOnUse" gradientTransform="translate(0 0)"><stop id="eCV2RmMKpTB18-stroke-0" offset="0%" stop-color="#f56016"/><stop id="eCV2RmMKpTB18-stroke-1" offset="100%" stop-color="#fff"/></linearGradient><linearGradient id="eCV2RmMKpTB44-stroke" x1="0" y1="-160.5" x2="0.5" y2="160.5" spreadMethod="pad" gradientUnits="userSpaceOnUse" gradientTransform="translate(0 0)"><stop id="eCV2RmMKpTB44-stroke-0" offset="0%" stop-color="#ed2020"/><stop id="eCV2RmMKpTB44-stroke-1" offset="16.1458%" stop-color="#e39908"/><stop id="eCV2RmMKpTB44-stroke-2" offset="32.8125%" stop-color="#85d502"/><stop id="eCV2RmMKpTB44-stroke-3" offset="48.9583%" stop-color="#00ffc7"/><stop id="eCV2RmMKpTB44-stroke-4" offset="67.1875%" stop-color="#8ddb0f"/><stop id="eCV2RmMKpTB44-stroke-5" offset="82.8125%" stop-color="#f0ad00"/><stop id="eCV2RmMKpTB44-stroke-6" offset="100%" stop-color="#e70000"/></linearGradient><linearGradient id="eCV2RmMKpTB113-fill" x1="12" y1="27" x2="188" y2="27" spreadMethod="pad" gradientUnits="userSpaceOnUse" gradientTransform="translate(0 0)"><stop id="eCV2RmMKpTB113-fill-0" offset="0%" stop-color="#0d4ae7"/><stop id="eCV2RmMKpTB113-fill-1" offset="51.5625%" stop-color="#079bd6"/><stop id="eCV2RmMKpTB113-fill-2" offset="100%" stop-color="rgba(62,215,160,0.86)"/></linearGradient><linearGradient id="eCV2RmMKpTB116-fill" x1="12" y1="27" x2="188" y2="27" spreadMethod="pad" gradientUnits="userSpaceOnUse" gradientTransform="translate(0 0)"><stop id="eCV2RmMKpTB116-fill-0" offset="0%" stop-color="#0d4ae7"/><stop id="eCV2RmMKpTB116-fill-1" offset="51.5625%" stop-color="#079bd6"/><stop id="eCV2RmMKpTB116-fill-2" offset="100%" stop-color="rgba(62,215,160,0.86)"/></linearGradient><linearGradient id="eCV2RmMKpTB120-fill" x1="12" y1="27" x2="188" y2="27" spreadMethod="pad" gradientUnits="userSpaceOnUse" gradientTransform="translate(0 0)"><stop id="eCV2RmMKpTB120-fill-0" offset="0%" stop-color="#0d4ae7"/><stop id="eCV2RmMKpTB120-fill-1" offset="51.5625%" stop-color="#079bd6"/><stop id="eCV2RmMKpTB120-fill-2" offset="100%" stop-color="rgba(62,215,160,0.86)"/></linearGradient><linearGradient id="eCV2RmMKpTB123-fill" x1="12" y1="27" x2="188" y2="27" spreadMethod="pad" gradientUnits="userSpaceOnUse" gradientTransform="translate(0 0)"><stop id="eCV2RmMKpTB123-fill-0" offset="0%" stop-color="#0d4ae7"/><stop id="eCV2RmMKpTB123-fill-1" offset="51.5625%" stop-color="#079bd6"/><stop id="eCV2RmMKpTB123-fill-2" offset="100%" stop-color="rgba(62,215,160,0.86)"/></linearGradient><linearGradient id="eCV2RmMKpTB126-fill" x1="12" y1="27" x2="188" y2="27" spreadMethod="pad" gradientUnits="userSpaceOnUse" gradientTransform="translate(0 0)"><stop id="eCV2RmMKpTB126-fill-0" offset="0%" stop-color="#0d4ae7"/><stop id="eCV2RmMKpTB126-fill-1" offset="51.5625%" stop-color="#079bd6"/><stop id="eCV2RmMKpTB126-fill-2" offset="100%" stop-color="rgba(62,215,160,0.86)"/></linearGradient><linearGradient id="eCV2RmMKpTB129-fill" x1="12" y1="27" x2="188" y2="27" spreadMethod="pad" gradientUnits="userSpaceOnUse" gradientTransform="translate(0 0)"><stop id="eCV2RmMKpTB129-fill-0" offset="0%" stop-color="#0d4ae7"/><stop id="eCV2RmMKpTB129-fill-1" offset="51.5625%" stop-color="#079bd6"/><stop id="eCV2RmMKpTB129-fill-2" offset="100%" stop-color="rgba(62,215,160,0.86)"/></linearGradient><linearGradient id="eCV2RmMKpTB132-fill" x1="12" y1="27" x2="188" y2="27" spreadMethod="pad" gradientUnits="userSpaceOnUse" gradientTransform="translate(0 0)"><stop id="eCV2RmMKpTB132-fill-0" offset="0%" stop-color="#0d4ae7"/><stop id="eCV2RmMKpTB132-fill-1" offset="51.5625%" stop-color="#079bd6"/><stop id="eCV2RmMKpTB132-fill-2" offset="100%" stop-color="rgba(62,215,160,0.86)"/></linearGradient><linearGradient id="eCV2RmMKpTB135-fill" x1="12" y1="27" x2="188" y2="27" spreadMethod="pad" gradientUnits="userSpaceOnUse" gradientTransform="translate(0 0)"><stop id="eCV2RmMKpTB135-fill-0" offset="0%" stop-color="#0d4ae7"/><stop id="eCV2RmMKpTB135-fill-1" offset="51.5625%" stop-color="#079bd6"/><stop id="eCV2RmMKpTB135-fill-2" offset="100%" stop-color="rgba(62,215,160,0.86)"/></linearGradient><linearGradient id="eCV2RmMKpTB143-fill" x1="683.033" y1="258.78" x2="893.719" y2="258.78" spreadMethod="pad" gradientUnits="userSpaceOnUse" gradientTransform="translate(0 0)"><stop id="eCV2RmMKpTB143-fill-0" offset="19.1237%" stop-color="#163184"/><stop id="eCV2RmMKpTB143-fill-1" offset="35.2236%" stop-color="#4374b8"/><stop id="eCV2RmMKpTB143-fill-2" offset="68.0824%" stop-color="#4bc4ed"/></linearGradient><linearGradient id="eCV2RmMKpTB144-fill" x1="761.359" y1="257.595" x2="803.307" y2="257.595" spreadMethod="pad" gradientUnits="userSpaceOnUse" gradientTransform="translate(0 0)"><stop id="eCV2RmMKpTB144-fill-0" offset="11.5709%" stop-color="#fa700d"/><stop id="eCV2RmMKpTB144-fill-1" offset="71.1564%" stop-color="#ed3337"/></linearGradient></defs><rect width="1550" height="509" rx="0" ry="0" fill="rgba(24,52,135,0)"/><g><path d="M1260.5,469.357h-176c-31.33-4.5-95.1-32.1-99.5-106.5.167-40.5-25.8-117.8-131-103" fill="none" stroke="url(#eCV2RmMKpTB4-stroke)" stroke-width="14"/></g><g><path d="M1260.5,44h-175.78c-31.3,4.5563-94.987,32.5014-99.381,107.832.166,41.006-25.768,119.273-130.839,104.288" fill="none" stroke="url(#eCV2RmMKpTB6-stroke)" stroke-width="14"/></g><g><path d="M1264.5,188h-185.5c-11.83,2-36.3,12.5-39.5,38.5c0,11-5.6,32.7-28,31.5h-157.5" fill="none" stroke="url(#eCV2RmMKpTB8-stroke)" stroke-width="14"/></g><g><path d="M1264.5,328.048h-185.5c-11.83-2-36.3-12.5-39.5-38.5c0-11-5.6-32.7-28-31.5h-157.5" fill="none" stroke="url(#eCV2RmMKpTB10-stroke)" stroke-width="14"/></g><g><path d="M287,44h175.784c31.294,4.5563,94.983,32.5014,99.377,107.832C561.995,192.838,587.929,271.105,693,256.12" fill="none" stroke="url(#eCV2RmMKpTB12-stroke)" stroke-width="14"/></g><g><path d="M287,469.357h176c31.333-4.5,95.1-32.1,99.5-106.5-.167-40.5,25.8-117.8,131-103" fill="none" stroke="url(#eCV2RmMKpTB14-stroke)" stroke-width="14"/></g><g><path d="M283,188h185.5c11.833,2,36.3,12.5,39.5,38.5c0,11,5.6,32.7,28,31.5h157.5" fill="none" stroke="url(#eCV2RmMKpTB16-stroke)" stroke-width="14"/></g><g><path d="M283,328.048h185.5c11.833-2,36.3-12.5,39.5-38.5c0-11,5.6-32.7,28-31.5h157.5" fill="none" stroke="url(#eCV2RmMKpTB18-stroke)" stroke-width="14"/></g><g id="eCV2RmMKpTB19" transform="translate(-392.75373-213.677578)"><path d="M1239.9,445l-20.68,11.348l20.68,11.804l20.03-11.804L1239.9,445Z" fill="#52c5ed" stroke="#45749a"/><path d="M1239.97,493v-24.652-.196l-20.75-11.739-.22,25.37L1239.97,493Z" fill="#4bc2ec" stroke="#45749a"/><path d="M1259.71,481.978l-19.74,10.891v-24.782L1260,456.348l-.29,25.63Z" fill="#4bc2ec" stroke="#45749a"/><path d="M1239.9,445l-20.68,11.348l20.68,11.804l20.03-11.804L1239.9,445Z" fill="#c2ecfb" stroke="#c2ecfb"/><path d="M1239.97,493v-24.652-.196l-20.75-11.739-.22,25.37L1239.97,493Z" fill="#81dbfb" stroke="#81dbfb"/><path d="M1259.71,481.978l-19.74,10.891v-24.782L1260,456.348l-.29,25.63Z" fill="#1e9cc8" stroke="#1e9cc8"/></g><g id="eCV2RmMKpTB26" transform="translate(394.00061 213.500006)"><path d="M307.899,17L287.218,28.3478l20.681,11.8044l20.028-11.8044L307.899,17Z" fill="#fbccb5" stroke="#fbccb5"/><path d="M307.972,65v-24.6522-.1956L287.218,28.413L287,53.7826L307.972,65Z" fill="#f5906c" stroke="#f5906c"/><path d="M327.71,53.9782L307.972,64.8695v-24.7826L328,28.3478l-.29,25.6304Z" fill="#d34200" stroke="#d34200"/></g><g id="eCV2RmMKpTB30" transform="translate(-394.310823 211.500607)"><path d="M1239.9,20l-20.68,11.3478l20.68,11.8044l20.03-11.8044L1239.9,20Z" fill="#52c5ed" stroke="#45749a"/><path d="M1239.97,68v-24.6522-.1956L1219.22,31.413L1219,56.7826L1239.97,68Z" fill="#4bc2ec" stroke="#45749a"/><path d="M1259.71,56.9782l-19.74,10.8913v-24.7826L1260,31.3478l-.29,25.6304Z" fill="#4bc2ec" stroke="#45749a"/><path d="M1239.9,20l-20.68,11.3478l20.68,11.8044l20.03-11.8044L1239.9,20Z" fill="#c2ecfb" stroke="#c2ecfb"/><path d="M1239.97,68v-24.6522-.1956L1219.22,31.413L1219,56.7826L1239.97,68Z" fill="#81dbfb" stroke="#81dbfb"/><path d="M1259.71,56.9782l-19.74,10.8913v-24.7826L1260,31.3478l-.29,25.6304Z" fill="#1e9cc8" stroke="#1e9cc8"/></g><g id="eCV2RmMKpTB37" transform="translate(-393.926129-70.47364)"><path d="M1239.9,304l-20.68,11.348l20.68,11.804l20.03-11.804L1239.9,304Z" fill="#52c5ed" stroke="#45749a"/><path d="M1239.97,352v-24.652-.196l-20.75-11.739-.22,25.37L1239.97,352Z" fill="#4bc2ec" stroke="#45749a"/><path d="M1259.71,340.978l-19.74,10.891v-24.782L1260,315.348l-.29,25.63Z" fill="#4bc2ec" stroke="#45749a"/><path d="M1239.9,304l-20.68,11.348l20.68,11.804l20.03-11.804L1239.9,304Z" fill="#c2ecfb" stroke="#c2ecfb"/><path d="M1239.97,352v-24.652-.196l-20.75-11.739-.22,25.37L1239.97,352Z" fill="#81dbfb" stroke="#81dbfb"/><path d="M1259.71,340.978l-19.74,10.891v-24.782L1260,315.348l-.29,25.63Z" fill="#1e9cc8" stroke="#1e9cc8"/></g><circle r="159.5" transform="translate(772.5 258.5)" fill="none" stroke="url(#eCV2RmMKpTB44-stroke)" stroke-width="2"/><g><rect width="65" height="65" rx="13" ry="13" transform="translate(222 12)" fill="#f56016"/><rect width="64" height="64" rx="12.5" ry="12.5" transform="translate(222.5 12.5)" fill="none" stroke="#d75514"/></g><g><rect width="65" height="65" rx="13" ry="13" transform="translate(213 0)" fill="#223f93" fill-opacity="0.73"/><g id="eCV2RmMKpTB50" transform="translate(394.00061-70.241328)"><path d="M307.899,304l-20.681,11.348l20.681,11.804l20.028-11.804L307.899,304Z" fill="#fbccb5" stroke="#fbccb5"/><path d="M307.972,352v-24.652-.196l-20.754-11.739-.218,25.37L307.972,352Z" fill="#f5906c" stroke="#f5906c"/><path d="M327.71,340.978l-19.738,10.891v-24.782L328,315.348l-.29,25.63Z" fill="#d34200" stroke="#d34200"/></g><g id="eCV2RmMKpTB54" transform="translate(394.00061 66.5)"><path d="M307.899,164l-20.681,11.348l20.681,11.804l20.028-11.804L307.899,164Z" fill="#fbccb5" stroke="#fbccb5"/><path d="M307.972,212v-24.652-.196l-20.754-11.739-.218,25.37L307.972,212Z" fill="#f5906c" stroke="#f5906c"/><path d="M327.71,200.978L307.972,211.87v-24.783L328,175.348l-.29,25.63Z" fill="#d34200" stroke="#d34200"/></g><g id="eCV2RmMKpTB58" transform="translate(-387.395 70.044012)"><path d="M1239.9,164l-20.68,11.348l20.68,11.804l20.03-11.804L1239.9,164Z" fill="#52c5ed" stroke="#45749a"/><path d="M1239.97,212v-24.652-.196l-20.75-11.739-.22,25.37L1239.97,212Z" fill="#4bc2ec" stroke="#45749a"/><path d="M1259.71,200.978l-19.74,10.892v-24.783L1260,175.348l-.29,25.63Z" fill="#4bc2ec" stroke="#45749a"/><path d="M1239.9,164l-20.68,11.348l20.68,11.804l20.03-11.804L1239.9,164Z" fill="#c2ecfb" stroke="#c2ecfb"/><path d="M1239.97,212v-24.652-.196l-20.75-11.739-.22,25.37L1239.97,212Z" fill="#81dbfb" stroke="#81dbfb"/><path d="M1259.71,200.978l-19.74,10.892v-24.783L1260,175.348l-.29,25.63Z" fill="#1e9cc8" stroke="#1e9cc8"/></g><g id="eCV2RmMKpTB65" transform="translate(393.92761-213.116985)"><path d="M307.899,446l-20.681,11.348l20.681,11.804l20.028-11.804L307.899,446Z" fill="#fbccb5" stroke="#fbccb5"/><path d="M307.972,494v-24.652-.196l-20.754-11.739-.218,25.37L307.972,494Z" fill="#f5906c" stroke="#f5906c"/><path d="M327.71,482.978l-19.738,10.891v-24.782L328,457.348l-.29,25.63Z" fill="#d34200" stroke="#d34200"/></g><rect width="64" height="64" rx="12.5" ry="12.5" transform="translate(213.5 0.499985)" fill="none" stroke="#fd5a09"/></g><g><rect width="65" height="65" rx="13" ry="13" transform="translate(222 436)" fill="#f56016"/><rect width="64" height="64" rx="12.5" ry="12.5" transform="translate(222.5 436.5)" fill="none" stroke="#f56016"/></g><g><rect width="65" height="65" rx="13" ry="13" transform="translate(222 295)" fill="#f56016"/><rect width="64" height="64" rx="12.5" ry="12.5" transform="translate(222.5 295.5)" fill="none" stroke="#f56117"/></g><g><rect width="65" height="65" rx="13" ry="13" transform="translate(222 156)" fill="#f56016"/><rect width="64" height="64" rx="12.5" ry="12.5" transform="translate(222.5 156.5)" fill="none" stroke="#f25f17"/></g><g><rect width="65" height="65" rx="13" ry="13" transform="translate(1260 12)" fill="#4bc2ec"/><rect width="64" height="64" rx="12.5" ry="12.5" transform="translate(1260.5 12.5)" fill="none" stroke="#4bc2ec"/></g><g><path d="M1260,169c0-7.18,5.82-13,13-13h39c7.18,0,13,5.82,13,13v39c0,7.18-5.82,13-13,13h-39c-7.18,0-13-5.82-13-13v-39Z" fill="#4bc2ec"/><path d="M1260.5,169c0-6.904,5.6-12.5,12.5-12.5h39c6.9,0,12.5,5.596,12.5,12.5v39c0,6.904-5.6,12.5-12.5,12.5h-39c-6.9,0-12.5-5.596-12.5-12.5v-39Z" fill="none" stroke="#4bc2ec"/></g><g><path d="M1260,449c0-7.18,5.82-13,13-13h39c7.18,0,13,5.82,13,13v39c0,7.18-5.82,13-13,13h-39c-7.18,0-13-5.82-13-13v-39Z" fill="#4bc2ec"/><path d="M1260.5,449c0-6.904,5.6-12.5,12.5-12.5h39c6.9,0,12.5,5.596,12.5,12.5v39c0,6.904-5.6,12.5-12.5,12.5h-39c-6.9,0-12.5-5.596-12.5-12.5v-39Z" fill="none" stroke="#4bc2ec"/></g><g><path d="M1260,308c0-7.18,5.82-13,13-13h39c7.18,0,13,5.82,13,13v39c0,7.18-5.82,13-13,13h-39c-7.18,0-13-5.82-13-13v-39Z" fill="#4bc2ec"/><path d="M1260.5,308c0-6.904,5.6-12.5,12.5-12.5h39c6.9,0,12.5,5.596,12.5,12.5v39c0,6.904-5.6,12.5-12.5,12.5h-39c-6.9,0-12.5-5.596-12.5-12.5v-39Z" fill="none" stroke="#4bc2ec"/></g><g><rect width="65" height="65" rx="13" ry="13" transform="translate(1272 0)" fill="#223f93" fill-opacity="0.73"/><rect width="64" height="64" rx="12.5" ry="12.5" transform="translate(1272.5 0.499985)" fill="none" stroke="#16bcf7"/></g><g><rect width="65" height="65" rx="13" ry="13" transform="translate(1272 143)" fill="#223f93" fill-opacity="0.73"/><rect width="64" height="64" rx="12.5" ry="12.5" transform="translate(1272.5 143.5)" fill="none" stroke="#16bcf7"/></g><g><rect width="65" height="65" rx="13" ry="13" transform="translate(1270 282)" fill="#223f93" fill-opacity="0.73"/><rect width="64" height="64" rx="12.5" ry="12.5" transform="translate(1270.5 282.5)" fill="none" stroke="#16bcf7"/></g><g><rect width="65" height="65" rx="13" ry="13" transform="translate(1270 424)" fill="#223f93" fill-opacity="0.73"/><rect width="64" height="64" rx="12.5" ry="12.5" transform="translate(1270.5 424.5)" fill="none" stroke="#16bcf7"/></g><g><rect width="65" height="65" rx="13" ry="13" transform="translate(213 144)" fill="#223f93" fill-opacity="0.73"/><rect width="64" height="64" rx="12.5" ry="12.5" transform="translate(213.5 144.5)" fill="none" stroke="#fd5a09"/></g><g><rect width="65" height="65" rx="13" ry="13" transform="translate(213 283)" fill="#223f93" fill-opacity="0.73"/><rect width="64" height="64" rx="12.5" ry="12.5" transform="translate(213.5 283.5)" fill="none" stroke="#fd5a09"/></g><g><rect width="65" height="65" rx="13" ry="13" transform="translate(213 424)" fill="#223f93" fill-opacity="0.73"/><rect width="64" height="64" rx="12.5" ry="12.5" transform="translate(213.5 424.5)" fill="none" stroke="#fd5a09"/></g><g><rect width="198" height="54" rx="27" ry="27" transform="translate(4 17)" fill="url(#eCV2RmMKpTB113-fill)"/></g><path d="M66.0256,53h-6.4453v-18.1818h6.4985c1.8289,0,3.4032.3639,4.723,1.0919c1.3199.7221,2.3349,1.7608,3.0451,3.1161.7162,1.3554,1.0743,2.9771,1.0743,4.8651c0,1.8939-.3581,3.5215-1.0743,4.8828-.7102,1.3613-1.7311,2.4059-3.0628,3.1339C69.4583,52.636,67.8722,53,66.0256,53Zm-2.6012-3.2937h2.4414c1.1363,0,2.0922-.2012,2.8675-.6037.7813-.4084,1.3672-1.0387,1.7578-1.891.3966-.8582.5948-1.9649.5948-3.3203c0-1.3435-.1982-2.4414-.5948-3.2937-.3906-.8522-.9736-1.4796-1.7489-1.8821-.7753-.4024-1.7312-.6037-2.8676-.6037h-2.4502v11.5945Zm18.0553-4.5899v7.8836h-3.782v-18.1818h3.6754v6.9513h.1598c.3078-.8049.805-1.4353,1.4915-1.891.6866-.4616,1.5477-.6925,2.5835-.6925.9469,0,1.7726.2072,2.4769.6215.7102.4084,1.2606.9973,1.6513,1.7667.3965.7635.5918,1.6779.5859,2.7432v8.6826h-3.782v-8.0078c.006-.8405-.2071-1.4945-.6392-1.962-.4261-.4676-1.0239-.7014-1.7933-.7014-.5149,0-.9706.1095-1.3672.3285-.3906.219-.6984.5386-.9233.9588-.219.4143-.3314.9144-.3373,1.5003ZM93.2983,53v-13.6364h3.782v13.6364h-3.782Zm1.8999-15.3942c-.5623,0-1.0447-.1864-1.4471-.5593-.3966-.3788-.5949-.8316-.5949-1.3583c0-.5209.1983-.9677.5949-1.3406.4024-.3788.8848-.5682,1.4471-.5682s1.0416.1894,1.4382.5682c.4024.3729.6037.8197.6037,1.3406c0,.5267-.2013.9795-.6037,1.3583-.3966.3729-.876.5593-1.4382.5593Zm14.8458,2.4414c-.071-.7161-.376-1.2725-.914-1.669-.539-.3966-1.27-.5949-2.193-.5949-.627,0-1.157.0888-1.589.2664-.432.1716-.764.4113-.995.7191-.224.3078-.337.657-.337,1.0476-.012.3255.056.6096.204.8522.154.2427.364.4528.631.6304.266.1716.574.3225.923.4527.349.1243.722.2309,1.118.3196l1.634.3907c.793.1775,1.521.4143,2.184.7102s1.237.6599,1.722,1.092c.486.432.861.941,1.128,1.527.272.5859.411,1.2577.417,2.0152-.006,1.1127-.29,2.0774-.852,2.8942-.557.8109-1.362,1.4412-2.415,1.891-1.048.4439-2.311.6658-3.791.6658-1.468,0-2.746-.2249-3.835-.6747-1.083-.4498-1.93-1.1156-2.539-1.9975-.6039-.8878-.9205-1.9857-.9501-3.2937h3.7201c.041.6096.216,1.1186.524,1.527.313.4025.73.7073,1.251.9144.527.2013,1.122.3019,1.785.3019.651,0,1.216-.0947,1.695-.2841.486-.1894.862-.4528,1.128-.7901.266-.3374.399-.7251.399-1.163c0-.4084-.121-.7517-.364-1.0299-.236-.2781-.586-.5149-1.047-.7102-.456-.1953-1.015-.3729-1.678-.5327l-1.98-.4971c-1.533-.3729-2.743-.9559-3.631-1.749s-1.329-1.8614-1.323-3.2049c-.006-1.1008.287-2.0626.879-2.8853.598-.8226,1.418-1.4648,2.459-1.9265c1.042-.4616,2.226-.6924,3.552-.6924c1.349,0,2.527.2308,3.533.6924c1.012.4617,1.799,1.1039,2.361,1.9265.563.8227.853,1.7756.87,2.8587h-3.684Zm10.23,5.0692v7.8836h-3.782v-18.1818h3.675v6.9513h.16c.308-.8049.805-1.4353,1.491-1.891.687-.4616,1.548-.6925,2.584-.6925.947,0,1.772.2072,2.477.6215.71.4084,1.26.9973,1.651,1.7667.397.7635.592,1.6779.586,2.7432v8.6826h-3.782v-8.0078c.006-.8405-.207-1.4945-.639-1.962-.426-.4676-1.024-.7014-1.794-.7014-.514,0-.97.1095-1.367.3285-.39.219-.698.5386-.923.9588-.219.4143-.331.9144-.337,1.5003Zm17.979,8.1499c-1.379,0-2.571-.293-3.577-.8789-1.001-.5919-1.773-1.4145-2.317-2.468-.545-1.0595-.817-2.2876-.817-3.6843c0-1.4087.272-2.6397.817-3.6932.544-1.0594,1.316-1.8821,2.317-2.4681c1.006-.5918,2.198-.8878,3.577-.8878s2.569.296,3.569.8878c1.007.586,1.782,1.4087,2.326,2.4681.545,1.0535.817,2.2845.817,3.6932c0,1.3967-.272,2.6248-.817,3.6843-.544,1.0535-1.319,1.8761-2.326,2.468-1,.5859-2.19.8789-3.569.8789Zm.018-2.9297c.628,0,1.151-.1775,1.572-.5327.42-.361.736-.8522.95-1.4737.219-.6214.328-1.3287.328-2.1218s-.109-1.5003-.328-2.1218c-.214-.6214-.53-1.1127-.95-1.4737-.421-.361-.944-.5416-1.572-.5416-.633,0-1.166.1806-1.598.5416-.426.361-.748.8523-.967,1.4737-.214.6215-.32,1.3287-.32,2.1218s.106,1.5004.32,2.1218c.219.6215.541,1.1127.967,1.4737.432.3552.965.5327,1.598.5327Zm9.153,7.777v-18.75h3.729v2.2905h.169c.165-.367.405-.7398.719-1.1186.319-.3847.734-.7043,1.243-.9588.515-.2604,1.154-.3907,1.917-.3907.995,0,1.912.2605,2.752.7813.841.5149,1.513,1.2932,2.016,2.3349.503,1.0357.754,2.3348.754,3.8973c0,1.5211-.245,2.8054-.737,3.853-.485,1.0417-1.148,1.8318-1.988,2.3704-.835.5327-1.77.799-2.806.799-.734,0-1.358-.1213-1.873-.364-.509-.2426-.926-.5474-1.252-.9144-.325-.3729-.574-.7487-.745-1.1275h-.116v7.2976h-3.782Zm3.702-11.9318c0,.8108.113,1.5181.338,2.1218s.55,1.0742.976,1.4116c.426.3314.944.4971,1.554.4971.615,0,1.136-.1687,1.562-.506.427-.3433.749-.8168.968-1.4205.225-.6096.337-1.3109.337-2.104c0-.7872-.109-1.4797-.328-2.0774s-.542-1.0654-.968-1.4027c-.426-.3374-.95-.5061-1.571-.5061-.616,0-1.136.1628-1.563.4883-.42.3255-.742.7872-.967,1.385s-.338,1.302-.338,2.1129Z" fill="#fff"/><g><rect width="198" height="54" rx="27" ry="27" transform="translate(4 161)" fill="url(#eCV2RmMKpTB116-fill)"/></g><path d="M69.0256,197h-6.4453v-18.182h6.4985c1.8289,0,3.4032.364,4.723,1.092c1.3199.722,2.3349,1.761,3.0451,3.116.7162,1.356,1.0743,2.977,1.0743,4.865c0,1.894-.3581,3.522-1.0743,4.883-.7102,1.361-1.7311,2.406-3.0628,3.134-1.3258.728-2.9119,1.092-4.7585,1.092Zm-2.6012-3.294h2.4414c1.1363,0,2.0922-.201,2.8675-.603.7813-.409,1.3672-1.039,1.7578-1.891.3966-.859.5948-1.965.5948-3.321c0-1.343-.1982-2.441-.5948-3.293-.3906-.853-.9736-1.48-1.7489-1.882-.7753-.403-1.7312-.604-2.8676-.604h-2.4502v11.594Zm18.0553-4.59v7.884h-3.782v-18.182h3.6754v6.952h.1598c.3078-.805.805-1.436,1.4915-1.891.6866-.462,1.5477-.693,2.5835-.693.9469,0,1.7726.207,2.4769.622.7102.408,1.2606.997,1.6513,1.766.3965.764.5918,1.678.5859,2.743v8.683h-3.782v-8.008c.006-.84-.2071-1.494-.6392-1.962-.4261-.467-1.0239-.701-1.7933-.701-.5149,0-.9706.109-1.3672.328-.3906.219-.6984.539-.9233.959-.219.414-.3314.915-.3373,1.5ZM96.2983,197v-13.636h3.7817v13.636h-3.7817Zm1.8999-15.394c-.5623,0-1.0447-.187-1.4471-.559-.3966-.379-.5949-.832-.5949-1.359c0-.521.1983-.967.5949-1.34.4024-.379.8848-.569,1.4471-.569s1.0416.19,1.4382.569c.4026.373.6036.819.6036,1.34c0,.527-.201.98-.6036,1.359-.3966.372-.876.559-1.4382.559Zm21.0248,3.578h-3.888c-.071-.503-.216-.95-.435-1.341-.219-.397-.501-.734-.844-1.012s-.74-.491-1.189-.639c-.444-.148-.927-.222-1.448-.222-.941,0-1.76.234-2.459.701-.698.462-1.24,1.137-1.624,2.024-.385.882-.577,1.953-.577,3.214c0,1.296.192,2.385.577,3.267.39.882.935,1.548,1.633,1.998.699.449,1.506.674,2.424.674.515,0,.991-.068,1.429-.204.444-.136.838-.334,1.181-.595.343-.266.627-.589.852-.967.231-.379.391-.811.48-1.296l3.888.017c-.101.835-.352,1.64-.755,2.415-.396.769-.932,1.459-1.606,2.069-.669.603-1.468,1.083-2.397,1.438-.924.349-1.968.524-3.134.524-1.622,0-3.072-.367-4.35-1.101-1.273-.734-2.279-1.797-3.019-3.187-.734-1.391-1.101-3.075-1.101-5.052c0-1.983.373-3.669,1.119-5.06s1.758-2.451,3.036-3.179c1.278-.733,2.717-1.1,4.315-1.1c1.053,0,2.03.148,2.929.443.906.296,1.708.728,2.406,1.297.699.562,1.267,1.251,1.705,2.068.444.817.728,1.752.852,2.806Zm6.468,3.932v7.884h-3.782v-18.182h3.675v6.952h.16c.308-.805.805-1.436,1.491-1.891.687-.462,1.548-.693,2.584-.693.947,0,1.772.207,2.477.622.71.408,1.26.997,1.651,1.766.397.764.592,1.678.586,2.743v8.683h-3.782v-8.008c.006-.84-.207-1.494-.639-1.962-.426-.467-1.024-.701-1.794-.701-.514,0-.97.109-1.367.328-.39.219-.698.539-.923.959-.219.414-.331.915-.337,1.5Zm18.033,8.15c-1.403,0-2.61-.284-3.622-.852-1.007-.574-1.782-1.385-2.326-2.432-.545-1.054-.817-2.3-.817-3.738c0-1.403.272-2.634.817-3.693.544-1.06,1.311-1.885,2.299-2.477.994-.592,2.16-.888,3.498-.888.899,0,1.737.145,2.512.435.781.284,1.462.713,2.042,1.287.586.574,1.042,1.297,1.367,2.167.326.864.489,1.876.489,3.036v1.039h-11.515v-2.344h7.955c0-.545-.119-1.027-.356-1.447-.236-.421-.565-.749-.985-.986-.414-.242-.897-.364-1.447-.364-.574,0-1.083.133-1.527.4-.438.26-.781.612-1.03,1.056-.248.438-.376.926-.382,1.465v2.228c0,.675.125,1.258.373,1.749.255.492.613.87,1.074,1.137.462.266,1.01.399,1.643.399.42,0,.805-.059,1.154-.177.349-.119.648-.296.897-.533.248-.237.438-.527.568-.87l3.498.231c-.178.84-.542,1.574-1.092,2.201-.545.622-1.249,1.107-2.113,1.456-.858.344-1.85.515-2.974.515Zm16.06-13.902v2.841h-8.416v-2.841h8.416ZM153.294,197v-14.622c0-.988.192-1.808.577-2.459.391-.651.923-1.139,1.598-1.465.675-.325,1.441-.488,2.299-.488.58,0,1.11.044,1.59.133.485.089.846.169,1.083.24l-.675,2.841c-.148-.048-.331-.092-.55-.133-.214-.042-.433-.063-.657-.063-.557,0-.944.131-1.163.391-.219.254-.329.613-.329,1.074v14.551h-3.773Z" fill="#fff"/><g><g><rect width="198" height="54" rx="27" ry="27" transform="translate(4 301)" fill="url(#eCV2RmMKpTB120-fill)"/></g><path d="M69.0256,337h-6.4453v-18.182h6.4985c1.8289,0,3.4032.364,4.723,1.092c1.3199.722,2.3349,1.761,3.0451,3.116.7162,1.356,1.0743,2.977,1.0743,4.865c0,1.894-.3581,3.522-1.0743,4.883-.7102,1.361-1.7311,2.406-3.0628,3.134-1.3258.728-2.9119,1.092-4.7585,1.092Zm-2.6012-3.294h2.4414c1.1363,0,2.0922-.201,2.8675-.603.7813-.409,1.3672-1.039,1.7578-1.891.3966-.859.5948-1.965.5948-3.321c0-1.343-.1982-2.441-.5948-3.293-.3906-.853-.9736-1.48-1.7489-1.882-.7753-.403-1.7312-.604-2.8676-.604h-2.4502v11.594Zm18.0553-4.59v7.884h-3.782v-18.182h3.6754v6.952h.1598c.3078-.805.805-1.436,1.4915-1.891.6866-.462,1.5477-.693,2.5835-.693.9469,0,1.7726.207,2.4769.622.7102.408,1.2606.997,1.6513,1.766.3965.764.5918,1.678.5859,2.743v8.683h-3.782v-8.008c.006-.84-.2071-1.494-.6392-1.962-.4261-.467-1.0239-.701-1.7933-.701-.5149,0-.9706.109-1.3672.328-.3906.219-.6984.539-.9233.959-.219.414-.3314.915-.3373,1.5ZM96.2983,337v-13.636h3.7817v13.636h-3.7817Zm1.8999-15.394c-.5623,0-1.0447-.187-1.4471-.559-.3966-.379-.5949-.832-.5949-1.359c0-.521.1983-.967.5949-1.34.4024-.379.8848-.569,1.4471-.569s1.0416.19,1.4382.569c.4026.373.6036.819.6036,1.34c0,.527-.201.98-.6036,1.359-.3966.372-.876.559-1.4382.559Zm21.0248,3.578h-3.888c-.071-.503-.216-.95-.435-1.341-.219-.397-.501-.734-.844-1.012s-.74-.491-1.189-.639c-.444-.148-.927-.222-1.448-.222-.941,0-1.76.234-2.459.701-.698.462-1.24,1.137-1.624,2.024-.385.882-.577,1.953-.577,3.214c0,1.296.192,2.385.577,3.267.39.882.935,1.548,1.633,1.998.699.449,1.506.674,2.424.674.515,0,.991-.068,1.429-.204.444-.136.838-.334,1.181-.595.343-.266.627-.589.852-.967.231-.379.391-.811.48-1.296l3.888.017c-.101.835-.352,1.64-.755,2.415-.396.769-.932,1.459-1.606,2.069-.669.603-1.468,1.083-2.397,1.438-.924.349-1.968.524-3.134.524-1.622,0-3.072-.367-4.35-1.101-1.273-.734-2.279-1.797-3.019-3.187-.734-1.391-1.101-3.075-1.101-5.052c0-1.983.373-3.669,1.119-5.06s1.758-2.451,3.036-3.179c1.278-.733,2.717-1.1,4.315-1.1c1.053,0,2.03.148,2.929.443.906.296,1.708.728,2.406,1.297.699.562,1.267,1.251,1.705,2.068.444.817.728,1.752.852,2.806Zm6.574,12.073c-.87,0-1.645-.15-2.326-.452-.68-.308-1.219-.761-1.616-1.359-.39-.603-.586-1.355-.586-2.255c0-.757.14-1.393.418-1.908s.657-.93,1.136-1.243c.479-.314,1.024-.551,1.634-.71.615-.16,1.26-.273,1.935-.338.793-.083,1.432-.16,1.918-.231.485-.077.837-.189,1.056-.337s.329-.367.329-.657v-.053c0-.562-.178-.997-.533-1.305-.349-.308-.847-.462-1.492-.462-.68,0-1.222.151-1.624.453-.403.296-.669.669-.799,1.118l-3.498-.284c.177-.828.527-1.544,1.047-2.148.521-.61,1.193-1.077,2.016-1.403.828-.331,1.787-.497,2.876-.497.758,0,1.483.089,2.175.266.699.178,1.317.453,1.856.826.544.373.973.852,1.287,1.438.314.58.47,1.276.47,2.087v9.197h-3.586v-1.891h-.107c-.219.426-.512.802-.879,1.128-.367.319-.807.571-1.322.754-.515.178-1.11.266-1.785.266Zm1.083-2.61c.557,0,1.048-.109,1.474-.328.426-.225.76-.527,1.003-.906.243-.378.364-.808.364-1.287v-1.447c-.118.077-.281.148-.488.213-.201.059-.429.115-.684.169-.254.047-.509.091-.763.133-.255.035-.486.068-.693.098-.444.065-.831.168-1.163.31-.331.142-.589.335-.772.577-.184.237-.275.533-.275.888c0,.515.186.909.559,1.181.379.266.858.399,1.438.399ZM136.411,337v-13.636h3.666v2.379h.142c.249-.846.666-1.486,1.252-1.918.586-.438,1.261-.657,2.024-.657.19,0,.394.012.613.036s.411.056.577.097v3.356c-.178-.053-.423-.1-.737-.142-.314-.041-.601-.062-.861-.062-.557,0-1.054.121-1.492.364-.432.237-.775.568-1.03.994-.248.427-.372.918-.372,1.474v7.715h-3.782Zm15.809.266c-1.403,0-2.61-.284-3.622-.852-1.006-.574-1.782-1.385-2.326-2.432-.545-1.054-.817-2.3-.817-3.738c0-1.403.272-2.634.817-3.693.544-1.06,1.311-1.885,2.299-2.477.994-.592,2.16-.888,3.498-.888.9,0,1.737.145,2.512.435.782.284,1.462.713,2.042,1.287.586.574,1.042,1.297,1.367,2.167.326.864.489,1.876.489,3.036v1.039h-11.515v-2.344h7.955c0-.545-.119-1.027-.355-1.447-.237-.421-.566-.749-.986-.986-.414-.242-.897-.364-1.447-.364-.574,0-1.083.133-1.527.4-.438.26-.781.612-1.03,1.056-.248.438-.376.926-.382,1.465v2.228c0,.675.125,1.258.373,1.749.255.492.613.87,1.075,1.137.461.266,1.009.399,1.642.399.42,0,.805-.059,1.154-.177.349-.119.648-.296.897-.533.248-.237.438-.527.568-.87l3.498.231c-.178.84-.542,1.574-1.092,2.201-.545.622-1.249,1.107-2.113,1.456-.858.344-1.85.515-2.974.515Z" fill="#fff"/></g><g><rect width="198" height="54" rx="27" ry="27" transform="translate(4 442)" fill="url(#eCV2RmMKpTB123-fill)"/></g><path d="M60.0256,478h-6.4453v-18.182h6.4985c1.8289,0,3.4032.364,4.723,1.092c1.3199.722,2.3349,1.761,3.0451,3.116.7162,1.356,1.0743,2.977,1.0743,4.865c0,1.894-.3581,3.522-1.0743,4.883-.7102,1.361-1.7311,2.406-3.0628,3.134-1.3258.728-2.9119,1.092-4.7585,1.092Zm-2.6012-3.294h2.4414c1.1363,0,2.0922-.201,2.8675-.603.7813-.409,1.3672-1.039,1.7578-1.891.3966-.859.5948-1.965.5948-3.321c0-1.343-.1982-2.441-.5948-3.293-.3906-.853-.9736-1.48-1.7489-1.882-.7753-.403-1.7312-.604-2.8676-.604h-2.4502v11.594Zm18.0553-4.59v7.884h-3.782v-18.182h3.6754v6.952h.1598c.3078-.805.805-1.436,1.4915-1.891.6866-.462,1.5477-.693,2.5835-.693.9469,0,1.7726.207,2.4769.622.7102.408,1.2606.997,1.6513,1.766.3965.764.5918,1.678.5859,2.743v8.683h-3.782v-8.008c.006-.84-.2071-1.494-.6392-1.962-.4261-.467-1.0239-.701-1.7933-.701-.5149,0-.9706.109-1.3672.328-.3906.219-.6984.539-.9233.959-.219.414-.3314.915-.3373,1.5ZM87.2983,478v-13.636h3.782v13.636h-3.782Zm1.8999-15.394c-.5623,0-1.0447-.187-1.4471-.559-.3966-.379-.5949-.832-.5949-1.359c0-.521.1983-.967.5949-1.34.4024-.379.8848-.569,1.4471-.569s1.0416.19,1.4382.569c.4024.373.6037.819.6037,1.34c0,.527-.2013.98-.6037,1.359-.3966.372-.876.559-1.4382.559ZM97.3147,478h-4.1193l6.2766-18.182h4.954L110.694,478h-4.12l-4.554-14.027h-.142L97.3147,478Zm-.2574-7.147h9.7297v3.001h-9.7297v-3.001ZM112.811,478v-13.636h3.667v2.379h.142c.248-.846.665-1.486,1.251-1.918.586-.438,1.261-.657,2.025-.657.189,0,.393.012.612.036s.411.056.577.097v3.356c-.177-.053-.423-.1-.737-.142-.313-.041-.6-.062-.861-.062-.556,0-1.053.121-1.491.364-.432.237-.776.568-1.03.994-.249.427-.373.918-.373,1.474v7.715h-3.782Zm18.166-13.636v2.841h-8.212v-2.841h8.212Zm-6.347-3.267h3.782v12.713c0,.349.053.621.159.816.107.19.255.323.444.4.196.077.42.115.675.115.178,0,.355-.014.533-.044.177-.036.313-.062.408-.08l.595,2.814c-.19.06-.456.128-.799.205-.343.082-.761.133-1.252.15-.911.036-1.71-.085-2.397-.364-.681-.278-1.21-.71-1.589-1.296s-.565-1.325-.559-2.219v-13.21ZM133.441,478v-13.636h3.782v13.636h-3.782Zm1.9-15.394c-.563,0-1.045-.187-1.447-.559-.397-.379-.595-.832-.595-1.359c0-.521.198-.967.595-1.34.402-.379.884-.569,1.447-.569.562,0,1.041.19,1.438.569.402.373.604.819.604,1.34c0,.527-.202.98-.604,1.359-.397.372-.876.559-1.438.559Zm16.257,5.646l-3.462.213c-.059-.296-.187-.562-.382-.799-.195-.242-.453-.435-.772-.577-.314-.148-.69-.222-1.128-.222-.586,0-1.08.124-1.482.373-.403.243-.604.568-.604.977c0,.325.13.6.391.825.26.225.707.406,1.34.542l2.468.497c1.326.272,2.314.71,2.965,1.314s.977,1.397.977,2.379c0,.894-.263,1.678-.79,2.353-.521.674-1.237,1.201-2.149,1.58-.905.373-1.95.559-3.133.559-1.806,0-3.244-.375-4.315-1.127-1.065-.758-1.69-1.788-1.873-3.09l3.72-.195c.112.55.384.971.816,1.261.432.284.986.426,1.66.426.663,0,1.196-.127,1.598-.382.409-.26.616-.595.622-1.003-.006-.343-.151-.625-.435-.844-.284-.224-.722-.396-1.314-.514l-2.362-.471c-1.331-.266-2.323-.728-2.974-1.385-.645-.657-.967-1.494-.967-2.512c0-.876.236-1.631.71-2.264.479-.633,1.151-1.122,2.015-1.465.87-.343,1.888-.515,3.054-.515c1.722,0,3.078.364,4.066,1.092.995.728,1.575,1.719,1.74,2.974Zm9.946-3.888v2.841h-8.212v-2.841h8.212Zm-6.348-3.267h3.782v12.713c0,.349.053.621.16.816.106.19.254.323.444.4.195.077.42.115.674.115.178,0,.356-.014.533-.044.178-.036.314-.062.408-.08l.595,2.814c-.189.06-.455.128-.799.205-.343.082-.76.133-1.252.15-.911.036-1.71-.085-2.397-.364-.68-.278-1.21-.71-1.589-1.296-.378-.586-.565-1.325-.559-2.219v-13.21Z" fill="#fff"/><g><rect width="198" height="54" rx="27" ry="27" transform="translate(1348 17)" fill="url(#eCV2RmMKpTB126-fill)"/></g><path d="M1403.03,53h-6.45v-18.1818h6.5c1.83,0,3.4.364,4.72,1.092c1.32.722,2.34,1.7607,3.05,3.1161s1.07,2.977,1.07,4.865c0,1.894-.36,3.5216-1.07,4.8828-.71,1.3613-1.73,2.4059-3.07,3.1339-1.32.728-2.91,1.092-4.75,1.092Zm-2.61-3.2937h2.45c1.13,0,2.09-.2012,2.86-.6037.78-.4084,1.37-1.0387,1.76-1.891.4-.8581.6-1.9649.6-3.3203c0-1.3435-.2-2.4414-.6-3.2936-.39-.8523-.97-1.4797-1.75-1.8821-.77-.4025-1.73-.6037-2.87-.6037h-2.45v11.5944Zm18.06-4.5898v7.8835h-3.78v-18.1818h3.67v6.9513h.16c.31-.8049.81-1.4352,1.49-1.8909.69-.4617,1.55-.6925,2.59-.6925.94,0,1.77.2071,2.47.6214.72.4084,1.27.9973,1.66,1.7667.39.7635.59,1.6779.58,2.7433v8.6825h-3.78v-8.0078c.01-.8404-.21-1.4944-.64-1.962s-1.02-.7014-1.79-.7014c-.52,0-.97.1095-1.37.3285-.39.219-.7.5386-.92.9588-.22.4143-.33.9144-.34,1.5004ZM1430.3,53v-13.6364h3.78v13.6364h-3.78Zm1.9-15.3942c-.56,0-1.05-.1864-1.45-.5593-.4-.3788-.59-.8315-.59-1.3583c0-.5208.19-.9677.59-1.3405.4-.3788.89-.5682,1.45-.5682s1.04.1894,1.44.5682c.4.3728.6.8197.6,1.3405c0,.5268-.2.9795-.6,1.3583-.4.3729-.88.5593-1.44.5593Zm14.84,2.4414c-.07-.7161-.37-1.2725-.91-1.669s-1.27-.5948-2.19-.5948c-.63,0-1.16.0888-1.59.2663-.43.1717-.77.4114-1,.7191-.22.3078-.33.657-.33,1.0476-.02.3255.05.6096.2.8523.15.2426.36.4527.63.6303.27.1716.57.3226.92.4528.35.1243.73.2308,1.12.3196l1.64.3906c.79.1776,1.52.4143,2.18.7102.66.296,1.24.6599,1.72,1.092.49.4321.86.9411,1.13,1.527s.41,1.2577.42,2.0153c-.01,1.1127-.29,2.0774-.86,2.8941-.55.8109-1.36,1.4412-2.41,1.891-1.05.4439-2.31.6659-3.79.6659-1.47,0-2.75-.2249-3.84-.6748-1.08-.4498-1.93-1.1156-2.54-1.9975-.6-.8878-.92-1.9856-.95-3.2937h3.72c.05.6097.22,1.1187.53,1.527.31.4025.73.7073,1.25.9145.53.2012,1.12.3018,1.78.3018s1.22-.0947,1.7-.2841c.49-.1894.86-.4528,1.13-.7901.26-.3374.4-.725.4-1.163c0-.4084-.12-.7517-.37-1.0298-.23-.2782-.58-.515-1.04-.7103s-1.02-.3728-1.68-.5326l-1.98-.4972c-1.53-.3729-2.75-.9558-3.63-1.7489-.89-.7931-1.33-1.8614-1.33-3.2049c0-1.1009.29-2.0627.88-2.8853.6-.8227,1.42-1.4649,2.46-1.9265s2.23-.6925,3.55-.6925c1.35,0,2.53.2308,3.54.6925s1.8,1.1038,2.36,1.9265.85,1.7755.87,2.8586h-3.69Zm9.88,9.0288l.01-4.5366h.55l4.37-5.1758h4.34l-5.87,6.8537h-.9l-2.5,2.8587ZM1453.49,53v-18.1818h3.78v18.1818h-3.78Zm8.52,0L1458,47.0607l2.52-2.6722L1466.44,53h-4.43Zm6.03,0v-13.6364h3.78v13.6364h-3.78Zm1.9-15.3942c-.56,0-1.04-.1864-1.44-.5593-.4-.3788-.6-.8315-.6-1.3583c0-.5208.2-.9677.6-1.3405.4-.3788.88-.5682,1.44-.5682s1.04.1894,1.44.5682c.4.3728.6.8197.6,1.3405c0,.5268-.2.9795-.6,1.3583-.4.3729-.88.5593-1.44.5593Zm8.7-2.7876v18.1818h-3.79v-18.1818h3.79Zm6.81,0v18.1818h-3.78v-18.1818h3.78Z" fill="#fff"/><g><rect width="198" height="54" rx="27" ry="27" transform="translate(1348 161)" fill="url(#eCV2RmMKpTB129-fill)"/></g><path d="M1413.03,196h-6.45v-18.182h6.5c1.83,0,3.4.364,4.72,1.092c1.32.722,2.34,1.761,3.05,3.116.71,1.356,1.07,2.977,1.07,4.865c0,1.894-.36,3.522-1.07,4.883s-1.73,2.406-3.07,3.134c-1.32.728-2.91,1.092-4.75,1.092Zm-2.61-3.294h2.45c1.13,0,2.09-.201,2.86-.603.78-.409,1.37-1.039,1.76-1.891.4-.859.6-1.965.6-3.321c0-1.343-.2-2.441-.6-3.293-.39-.853-.97-1.48-1.75-1.882-.77-.403-1.73-.604-2.87-.604h-2.45v11.594Zm18.06-4.59v7.884h-3.78v-18.182h3.67v6.952h.16c.31-.805.81-1.436,1.49-1.891.69-.462,1.55-.693,2.59-.693.94,0,1.77.207,2.47.622.72.408,1.27.997,1.66,1.766.39.764.59,1.678.58,2.743v8.683h-3.78v-8.008c.01-.84-.21-1.494-.64-1.962-.43-.467-1.02-.701-1.79-.701-.52,0-.97.109-1.37.328-.39.219-.7.539-.92.959-.22.414-.33.915-.34,1.5ZM1440.3,196v-13.636h3.78v13.636h-3.78Zm1.9-15.394c-.56,0-1.05-.187-1.45-.559-.4-.379-.59-.832-.59-1.359c0-.521.19-.967.59-1.34.4-.379.89-.569,1.45-.569s1.04.19,1.44.569c.4.373.6.819.6,1.34c0,.527-.2.98-.6,1.359-.4.372-.88.559-1.44.559Zm17.04,3.089c-.13-.432-.3-.813-.53-1.145-.22-.337-.5-.621-.82-.852-.32-.237-.69-.417-1.1-.542-.41-.124-.86-.186-1.36-.186-.93,0-1.75.231-2.45.692-.7.462-1.24,1.134-1.64,2.016-.39.876-.58,1.947-.58,3.213c0,1.267.19,2.344.58,3.232.38.888.92,1.565,1.63,2.033.7.462,1.54.692,2.49.692.87,0,1.62-.154,2.23-.461.62-.314,1.1-.755,1.42-1.323.33-.568.5-1.24.5-2.015l.78.115h-4.69v-2.894h7.61v2.29c0,1.598-.34,2.971-1.01,4.12-.67,1.142-1.6,2.024-2.79,2.645-1.18.616-2.54.924-4.06.924-1.71,0-3.21-.376-4.5-1.128-1.29-.757-2.29-1.832-3.01-3.223-.72-1.396-1.08-3.054-1.08-4.971c0-1.474.21-2.788.64-3.942.43-1.16,1.04-2.142,1.81-2.947.78-.805,1.68-1.418,2.71-1.838s2.14-.63,3.35-.63c1.03,0,1.98.151,2.87.452.89.296,1.68.717,2.36,1.261.7.545,1.26,1.193,1.7,1.944.44.746.72,1.569.84,2.468h-3.9Zm13.05,12.571c-1.38,0-2.57-.293-3.58-.879-1-.591-1.77-1.414-2.32-2.468-.54-1.059-.81-2.287-.81-3.684c0-1.409.27-2.64.81-3.693.55-1.06,1.32-1.882,2.32-2.468c1.01-.592,2.2-.888,3.58-.888s2.57.296,3.57.888c1,.586,1.78,1.408,2.32,2.468.55,1.053.82,2.284.82,3.693c0,1.397-.27,2.625-.82,3.684-.54,1.054-1.32,1.877-2.32,2.468-1,.586-2.19.879-3.57.879Zm.02-2.929c.62,0,1.15-.178,1.57-.533.42-.361.74-.852.95-1.474.22-.621.33-1.328.33-2.122c0-.793-.11-1.5-.33-2.121-.21-.622-.53-1.113-.95-1.474s-.95-.542-1.57-.542c-.64,0-1.17.181-1.6.542s-.75.852-.97,1.474c-.21.621-.32,1.328-.32,2.121c0,.794.11,1.501.32,2.122.22.622.54,1.113.97,1.474.43.355.96.533,1.6.533Z" fill="#fff"/><g><rect width="198" height="54" rx="27" ry="27" transform="translate(1348 301)" fill="url(#eCV2RmMKpTB132-fill)"/></g><path d="M1400.03,336h-6.45v-18.182h6.5c1.83,0,3.4.364,4.72,1.092c1.32.722,2.34,1.761,3.05,3.116.71,1.356,1.07,2.977,1.07,4.865c0,1.894-.36,3.522-1.07,4.883s-1.73,2.406-3.07,3.134c-1.32.728-2.91,1.092-4.75,1.092Zm-2.61-3.294h2.45c1.13,0,2.09-.201,2.86-.603.78-.409,1.37-1.039,1.76-1.891.4-.859.6-1.965.6-3.321c0-1.343-.2-2.441-.6-3.293-.39-.853-.97-1.48-1.75-1.882-.77-.403-1.73-.604-2.87-.604h-2.45v11.594Zm18.06-4.59v7.884h-3.78v-18.182h3.67v6.952h.16c.31-.805.81-1.436,1.49-1.891.69-.462,1.55-.693,2.59-.693.94,0,1.77.207,2.47.622.72.408,1.27.997,1.66,1.766.39.764.59,1.678.58,2.743v8.683h-3.78v-8.008c.01-.84-.21-1.494-.64-1.962-.43-.467-1.02-.701-1.79-.701-.52,0-.97.109-1.37.328-.39.219-.7.539-.92.959-.22.414-.33.915-.34,1.5ZM1427.3,336v-13.636h3.78v13.636h-3.78Zm1.9-15.394c-.56,0-1.05-.187-1.45-.559-.4-.379-.59-.832-.59-1.359c0-.521.19-.967.59-1.34.4-.379.89-.569,1.45-.569s1.04.19,1.44.569c.4.373.6.819.6,1.34c0,.527-.2.98-.6,1.359-.4.372-.88.559-1.44.559ZM1434.18,336v-18.182h12.04v3.17h-8.2v4.332h7.4v3.169h-7.4v7.511h-3.84Zm18.27.257c-.87,0-1.64-.15-2.32-.452-.69-.308-1.22-.761-1.62-1.359-.39-.603-.59-1.355-.59-2.255c0-.757.14-1.393.42-1.908s.66-.93,1.14-1.243c.48-.314,1.02-.551,1.63-.71.62-.16,1.26-.273,1.94-.338.79-.083,1.43-.16,1.91-.231.49-.077.84-.189,1.06-.337s.33-.367.33-.657v-.053c0-.562-.18-.997-.53-1.305s-.85-.462-1.5-.462c-.68,0-1.22.151-1.62.453-.4.296-.67.669-.8,1.118l-3.5-.284c.18-.828.53-1.544,1.05-2.148.52-.61,1.19-1.077,2.02-1.403.82-.331,1.78-.497,2.87-.497.76,0,1.49.089,2.18.266.7.178,1.31.453,1.85.826.55.373.98.852,1.29,1.438.31.58.47,1.276.47,2.087v9.197h-3.59v-1.891h-.1c-.22.426-.51.802-.88,1.128-.37.319-.81.571-1.32.754-.52.178-1.11.266-1.79.266Zm1.08-2.61c.56,0,1.05-.109,1.48-.328.42-.225.76-.527,1-.906.24-.378.37-.808.37-1.287v-1.447c-.12.077-.29.148-.49.213-.2.059-.43.115-.69.169-.25.047-.51.091-.76.133-.25.035-.49.068-.69.098-.45.065-.83.168-1.17.31-.33.142-.58.335-.77.577-.18.237-.27.533-.27.888c0,.515.18.909.56,1.181.38.266.85.399,1.43.399Zm15.7,2.619c-1.4,0-2.6-.296-3.61-.887-1-.598-1.77-1.427-2.31-2.486-.53-1.06-.8-2.279-.8-3.658c0-1.397.27-2.622.81-3.675.55-1.06,1.32-1.885,2.32-2.477c1-.598,2.19-.897,3.57-.897c1.19,0,2.23.216,3.12.648.9.432,1.6,1.039,2.13,1.82.52.781.8,1.699.86,2.752h-3.57c-.1-.68-.37-1.228-.8-1.642-.43-.42-.99-.63-1.68-.63-.59,0-1.1.159-1.54.479-.43.314-.76.772-1.01,1.376-.24.604-.36,1.335-.36,2.193c0,.87.12,1.61.35,2.219.25.61.59,1.074,1.02,1.394.44.32.95.48,1.54.48.43,0,.82-.089,1.16-.267.35-.177.64-.435.86-.772.24-.343.39-.755.46-1.234h3.57c-.06,1.041-.35,1.959-.86,2.752-.5.787-1.19,1.403-2.08,1.846-.89.444-1.94.666-3.15.666Zm14.72,0c-1.4,0-2.61-.284-3.62-.852-1.01-.574-1.78-1.385-2.33-2.432-.54-1.054-.81-2.3-.81-3.738c0-1.403.27-2.634.81-3.693.55-1.06,1.32-1.885,2.3-2.477c1-.592,2.16-.888,3.5-.888.9,0,1.74.145,2.51.435.78.284,1.47.713,2.05,1.287s1.04,1.297,1.36,2.167c.33.864.49,1.876.49,3.036v1.039h-11.51v-2.344h7.95c0-.545-.12-1.027-.35-1.447-.24-.421-.57-.749-.99-.986-.41-.242-.9-.364-1.45-.364-.57,0-1.08.133-1.52.4-.44.26-.78.612-1.03,1.056-.25.438-.38.926-.39,1.465v2.228c0,.675.13,1.258.38,1.749.25.492.61.87,1.07,1.137.46.266,1.01.399,1.64.399.42,0,.81-.059,1.16-.177.35-.119.65-.296.9-.533.24-.237.43-.527.56-.87l3.5.231c-.18.84-.54,1.574-1.09,2.201-.55.622-1.25,1.107-2.11,1.456-.86.344-1.85.515-2.98.515Z" fill="#fff"/><g><rect width="198" height="54" rx="27" ry="27" transform="translate(1348 442)" fill="url(#eCV2RmMKpTB135-fill)"/></g><path d="M1399.03,477h-6.45v-18.182h6.5c1.83,0,3.4.364,4.72,1.092c1.32.722,2.34,1.761,3.05,3.116.71,1.356,1.07,2.977,1.07,4.865c0,1.894-.36,3.522-1.07,4.883s-1.73,2.406-3.07,3.134c-1.32.728-2.91,1.092-4.75,1.092Zm-2.61-3.294h2.45c1.13,0,2.09-.201,2.86-.603.78-.409,1.37-1.039,1.76-1.891.4-.859.6-1.965.6-3.321c0-1.343-.2-2.441-.6-3.293-.39-.853-.97-1.48-1.75-1.882-.77-.403-1.73-.604-2.87-.604h-2.45v11.594Zm18.06-4.59v7.884h-3.78v-18.182h3.67v6.952h.16c.31-.805.81-1.436,1.49-1.891.69-.462,1.55-.693,2.59-.693.94,0,1.77.207,2.47.622.72.408,1.27.997,1.66,1.766.39.764.59,1.678.58,2.743v8.683h-3.78v-8.008c.01-.84-.21-1.494-.64-1.962-.43-.467-1.02-.701-1.79-.701-.52,0-.97.109-1.37.328-.39.219-.7.539-.92.959-.22.414-.33.915-.34,1.5ZM1426.3,477v-13.636h3.78v13.636h-3.78Zm1.9-15.394c-.56,0-1.05-.187-1.45-.559-.4-.379-.59-.832-.59-1.359c0-.521.19-.967.59-1.34.4-.379.89-.569,1.45-.569s1.04.19,1.44.569c.4.373.6.819.6,1.34c0,.527-.2.98-.6,1.359-.4.372-.88.559-1.44.559ZM1433.18,477v-18.182h7.28c1.34,0,2.45.198,3.35.595.89.397,1.56.947,2.01,1.651.45.699.68,1.504.68,2.415c0,.71-.14,1.335-.43,1.873-.28.533-.67.971-1.17,1.314-.49.338-1.05.577-1.69.719v.178c.7.029,1.34.225,1.95.586s1.1.867,1.48,1.518c.38.645.57,1.414.57,2.308c0,.965-.24,1.826-.72,2.584-.47.751-1.18,1.346-2.11,1.784-.92.438-2.07.657-3.43.657h-7.77Zm3.84-3.143h3.14c1.07,0,1.85-.204,2.34-.612.49-.415.74-.965.74-1.652c0-.503-.12-.947-.36-1.331-.25-.385-.59-.687-1.04-.906s-.98-.328-1.59-.328h-3.23v4.829Zm0-7.431h2.85c.53,0,1-.091,1.41-.275.41-.189.74-.455.97-.799.25-.343.37-.754.37-1.234c0-.657-.24-1.186-.7-1.589-.47-.402-1.12-.604-1.97-.604h-2.93v4.501Zm16.51,10.831c-.87,0-1.65-.15-2.33-.452-.68-.308-1.22-.761-1.62-1.359-.39-.603-.58-1.355-.58-2.255c0-.757.14-1.393.42-1.908.27-.515.65-.93,1.13-1.243.48-.314,1.03-.551,1.64-.71.61-.16,1.26-.273,1.93-.338.79-.083,1.43-.16,1.92-.231.48-.077.84-.189,1.06-.337.21-.148.32-.367.32-.657v-.053c0-.562-.17-.997-.53-1.305-.35-.308-.85-.462-1.49-.462-.68,0-1.22.151-1.62.453-.41.296-.67.669-.8,1.118l-3.5-.284c.18-.828.53-1.544,1.05-2.148.52-.61,1.19-1.077,2.01-1.403.83-.331,1.79-.497,2.88-.497.76,0,1.48.089,2.17.266.7.178,1.32.453,1.86.826s.97.852,1.29,1.438c.31.58.47,1.276.47,2.087v9.197h-3.59v-1.891h-.11c-.22.426-.51.802-.88,1.128-.36.319-.8.571-1.32.754-.51.178-1.11.266-1.78.266Zm1.08-2.61c.56,0,1.05-.109,1.47-.328.43-.225.76-.527,1.01-.906.24-.378.36-.808.36-1.287v-1.447c-.12.077-.28.148-.49.213-.2.059-.43.115-.68.169-.26.047-.51.091-.76.133-.26.035-.49.068-.7.098-.44.065-.83.168-1.16.31s-.59.335-.77.577c-.19.237-.28.533-.28.888c0,.515.19.909.56,1.181.38.266.86.399,1.44.399Zm13.31-5.531v7.884h-3.78v-13.636h3.6v2.406h.16c.31-.794.81-1.421,1.52-1.883.71-.467,1.57-.701,2.59-.701.94,0,1.77.207,2.47.622.71.414,1.25,1.006,1.65,1.775.39.764.58,1.675.58,2.734v8.683h-3.78v-8.008c.01-.834-.21-1.485-.64-1.953-.43-.473-1.03-.71-1.78-.71-.51,0-.96.109-1.35.328s-.69.539-.91.959c-.21.414-.32.915-.33,1.5Zm15.2,3.96l.01-4.537h.55l4.37-5.175h4.34l-5.87,6.853h-.9l-2.5,2.859ZM1479.69,477v-18.182h3.78v18.182h-3.78Zm8.52,0l-4.01-5.939l2.52-2.673l5.92,8.612h-4.43Z" fill="#fff"/><circle r="112" transform="translate(772.5 258.5)" fill="none" stroke="#dfdfdf" stroke-dasharray="6,6"/><circle r="134" transform="translate(772.5 258.5)" fill="none" stroke="#dfdfdf" stroke-dasharray="6,6"/><circle r="100" transform="translate(773 258)" fill="#f5f8ff"/><g><path d="M818.237,256.092l-11.376-9.006-40.999-31.875c-4.076-2.655-5.727.711-6.043,2.725v10.665c0,2.938-2.765,3.515-4.148,3.436-8.057.759-15.523-1.975-18.248-3.436-11.02-4.859-14.931-16.471-15.286-21.803v-12.798h61.144c43.985,9.669,54.508,47.003,54.271,64.462-.759,58.11-49.215,71.532-73.349,70.979h-42.184v-.237-11.02c-.095-3.224.197-8.216.355-10.31.758-7.015,6.241-12.955,8.887-15.049c3.887-3.507,9.835-5.806,12.324-6.517c2.938-1.137,9.519-1.185,12.442-1.066c2.749-.19,3.673,1.58,3.792,2.488v8.058c-.664,8.721,3.91,7.742,6.28,6.162l52.138-40.881c2.465-1.991,1.027-4.148,0-4.977Z" fill="#183487" fill-opacity="0.35"/><path d="M764.914,241.635v37.445c.853,3.413,3.831,3.318,5.214,2.844l26.424-18.604c1.896-2.275.79-4.582,0-5.451l-26.661-18.722c-3.318-1.043-4.701,1.224-4.977,2.488Z" fill="#183487" fill-opacity="0.35"/></g><path d="M818.237,253.092l-11.376-9.006-40.999-31.875c-4.076-2.655-5.727.711-6.043,2.725v10.665c0,2.938-2.765,3.515-4.148,3.436-8.057.759-15.523-1.975-18.248-3.436-11.02-4.859-14.931-16.471-15.286-21.803v-12.798h61.144c43.985,9.669,54.508,47.003,54.271,64.462-.759,58.11-49.215,71.532-73.349,70.979h-42.184v-.237-11.02c-.095-3.224.197-8.216.355-10.31.758-7.015,6.241-12.955,8.887-15.049c3.887-3.507,9.835-5.806,12.324-6.517c2.938-1.137,9.519-1.185,12.442-1.066c2.749-.19,3.673,1.58,3.792,2.488v8.058c-.664,8.721,3.91,7.742,6.28,6.162l52.138-40.881c2.465-1.991,1.027-4.148,0-4.977Z" fill="url(#eCV2RmMKpTB143-fill)"/><path d="M764.914,238.635v37.445c.853,3.413,3.831,3.318,5.214,2.844l26.424-18.604c1.896-2.275.79-4.582,0-5.451l-26.661-18.722c-3.318-1.043-4.701,1.224-4.977,2.488Z" fill="url(#eCV2RmMKpTB144-fill)"/><path d="M223,187.429h46v4.571h-46v-4.571Zm27.232-21.052c.23-.548.368-1.166.368-1.806c0-2.514-2.07-4.571-4.6-4.571s-4.6,2.057-4.6,4.571c0,.64.138,1.258.368,1.806-8.993,1.852-15.847,9.463-16.468,18.766h41.4c-.621-9.303-7.475-16.914-16.468-18.766Z" fill="#fff"/><g><g><path d="M256.429,19.1428h-4.572v-6.8571c0-1.2572-1.028-2.28573-2.286-2.28573h-9.142c-1.258,0-2.286,1.02853-2.286,2.28573v6.8571h-4.572c-2.514,0-4.571,2.0572-4.571,4.5715v25.1428c0,2.5143,2.057,4.5714,4.571,4.5714c0,1.2572,1.029,2.2858,2.286,2.2858s2.286-1.0286,2.286-2.2858h13.714c0,1.2572,1.029,2.2858,2.286,2.2858s2.286-1.0286,2.286-2.2858c2.514,0,4.571-2.0571,4.571-4.5714v-25.1428c0-2.5143-2.057-4.5715-4.571-4.5715ZM239.286,46.5714h-3.429v-20.5714h3.429v20.5714Zm7.428,0h-3.428v-20.5714h3.428v20.5714Zm1.715-27.4286h-6.858v-5.7143h6.858v5.7143Zm5.714,27.4286h-3.429v-20.5714h3.429v20.5714Z" fill="#fff"/></g></g><path d="M234.383,314.612h-7.383v20.305h7.383v-20.305Z" fill="#fff"/><path d="M254.687,300.307c1.2-1.403,3.065-2.307,4.984-2.307c3.415,0,6.091,2.676,6.091,6.091c0,4.19-5.371,9.045-11.075,14.213-5.703-5.187-11.075-10.041-11.075-14.213c0-3.415,2.677-6.091,6.092-6.091c1.919,0,3.784.904,4.983,2.307Z" fill="#fff"/><path d="M262.071,325.687h-12.921l-3.858-1.347.609-1.735l3.249,1.237h5.205c1.2,0,2.178-.979,2.178-2.179c0-.904-.572-1.716-1.421-2.048l-13.401-5.003h-3.636v16.65l12.921,3.655l14.785-5.538c-.019-2.03-1.661-3.692-3.71-3.692Z" fill="#fff"/><path d="M1282.3,190.767h42.82v4.506h-42.82v-4.506Zm44.1-21.09c-.47-1.803-2.34-2.884-4.15-2.388l-11.96,3.199L1294.74,156l-4.35,1.149l9.33,16.156-11.2,2.996-4.44-3.47-3.26.879l5.83,10.117c0,0,16.05-4.281,37.34-9.982c1.82-.518,2.88-2.365,2.41-4.168Z" fill="#fff"/><path d="M1296,321.5c1.38,0,2.5-1.119,2.5-2.5s-1.12-2.5-2.5-2.5-2.5,1.119-2.5,2.5s1.12,2.5,2.5,2.5Z" fill="#fff"/><path d="M1319.54,310.16l-1.84,4.02c.18.92.3,1.86.3,2.82c0,8.82-7.18,16-16,16s-16-7.18-16-16c0-.1.02-.2,0-.28c5.2-1.96,9.38-5.98,11.48-11.1c3.68,4.5,9.26,7.38,15.52,7.38.9,0,1.78-.08,2.66-.2l-1.2-2.64-1.76-3.86-3.86-1.76-5.58-2.54l5.58-2.54l1.42-.64c-2.52-1.16-5.32-1.82-8.26-1.82-11.04,0-20,8.96-20,20s8.96,20,20,20s20-8.96,20-20c0-2.94-.66-5.74-1.8-8.26l-.66,1.42Z" fill="#fff"/><path d="M1308,321.5c1.38,0,2.5-1.119,2.5-2.5s-1.12-2.5-2.5-2.5-2.5,1.119-2.5,2.5s1.12,2.5,2.5,2.5Z" fill="#fff"/><path d="M1319.2,304.2L1317,309l-2.2-4.8-4.8-2.2l4.8-2.2l2.2-4.8l2.2,4.8l4.8,2.2-4.8,2.2Z" fill="#fff"/><path d="M1296.5,33.8333c4.05,0,7.33-3.2832,7.33-7.3333s-3.28-7.3333-7.33-7.3333-7.33,3.2832-7.33,7.3333s3.28,7.3333,7.33,7.3333Z" fill="#fff"/><path d="M1296.5,37.5c-4.89,0-14.67,2.4567-14.67,7.3333v3.6667h29.34v-3.6667c0-4.8766-9.77-7.3333-14.67-7.3333Zm14.23-17.6733l-3.08,3.0983c1.54,2.1633,1.54,4.9683,0,7.1317l3.08,3.0983c3.7-3.7033,3.7-9.295,0-13.3283Zm6.07-6.16l-2.99,2.9883c5.08,5.5367,5.08,13.86,0,19.69l2.99,2.9883c7.15-7.1316,7.16-18.2416,0-25.6666Z" fill="#fff"/><path d="M244.5,439c-10.768,0-19.5,8.732-19.5,19.5s8.732,19.5,19.5,19.5c1.798,0,3.25-1.452,3.25-3.25c0-.845-.325-1.603-.845-2.188-.498-.564-.823-1.322-.823-2.145c0-1.799,1.451-3.25,3.25-3.25h3.835c5.98,0,10.833-4.854,10.833-10.834c0-9.576-8.732-17.333-19.5-17.333Zm-11.917,19.5c-1.798,0-3.25-1.452-3.25-3.25s1.452-3.25,3.25-3.25c1.799,0,3.25,1.452,3.25,3.25s-1.451,3.25-3.25,3.25Zm6.5-8.667c-1.798,0-3.25-1.451-3.25-3.25c0-1.798,1.452-3.25,3.25-3.25c1.799,0,3.25,1.452,3.25,3.25c0,1.799-1.451,3.25-3.25,3.25Zm10.834,0c-1.799,0-3.25-1.451-3.25-3.25c0-1.798,1.451-3.25,3.25-3.25c1.798,0,3.25,1.452,3.25,3.25c0,1.799-1.452,3.25-3.25,3.25Zm6.5,8.667c-1.799,0-3.25-1.452-3.25-3.25s1.451-3.25,3.25-3.25c1.798,0,3.25,1.452,3.25,3.25s-1.452,3.25-3.25,3.25Z" fill="#fff"/><path d="M1293,453.85h-5.8v13.533h5.8v-13.533Z" fill="#fff"/><path d="M1305.57,453.85h-5.8v13.533h5.8v-13.533Z" fill="#fff"/><path d="M1322,471.25h-38.67v5.8h38.67v-5.8Z" fill="#fff"/><path d="M1318.13,453.85h-5.8v13.533h5.8v-13.533Z" fill="#fff"/><path d="M1302.67,436.45l-19.34,9.667v3.866h38.67v-3.866l-19.33-9.667Z" fill="#fff"/>
</svg>
