<?xml version="1.0" standalone="no"?>
<!DOCTYPE svg PUBLIC "-//W3C//DTD SVG 20010904//EN"
 "http://www.w3.org/TR/2001/REC-SVG-20010904/DTD/svg10.dtd">
<svg version="1.0" xmlns="http://www.w3.org/2000/svg"
 width="200.000000pt" height="200.000000pt" viewBox="0 0 500.000000 500.000000"
 preserveAspectRatio="xMidYMid meet">

<g transform="translate(0.000000,500.000000) scale(0.100000,-0.100000)"
fill="#fff" stroke="none">
<path d="M2015 4516 c-125 -33 -324 -124 -353 -161 -33 -42 -42 -88 -48 -235
-6 -166 1 -183 50 -125 19 22 37 37 41 33 6 -6 34 -118 35 -140 0 -5 -13 -8
-28 -8 -28 0 -109 -49 -181 -109 l-35 -29 29 -26 c22 -20 38 -26 74 -26 25 1
57 7 71 15 35 20 42 18 38 -7 -3 -24 -25 -33 -170 -69 -124 -30 -201 -70 -272
-141 -97 -97 -149 -221 -191 -453 -29 -166 -56 -253 -81 -270 -16 -10 -24 -25
-24 -45 0 -20 -19 -53 -62 -110 -35 -45 -73 -96 -85 -113 -11 -18 -35 -41 -52
-52 -39 -25 -55 -63 -46 -113 5 -29 2 -42 -9 -52 -20 -16 -20 -59 0 -88 12
-17 14 -37 9 -85 -3 -35 0 -100 8 -150 13 -87 13 -89 -7 -97 -47 -18 -86 -92
-86 -162 0 -24 15 -97 34 -163 18 -66 36 -148 40 -183 3 -35 10 -71 15 -80 17
-34 0 -44 -27 -16 -27 26 -27 26 -32 4 -5 -21 -6 -21 -44 9 -46 36 -58 34 -27
-5 l22 -28 -68 -16 c-167 -40 -230 -124 -148 -197 19 -17 35 -38 35 -46 0 -21
-52 -62 -119 -97 -155 -78 -139 -126 54 -160 61 -11 111 -20 113 -20 1 0 2 -4
2 -9 0 -5 -25 -24 -55 -41 -31 -18 -54 -37 -52 -44 6 -21 72 -46 122 -46 28 0
99 11 160 25 60 14 118 25 127 25 31 0 20 14 -37 48 -30 18 -57 37 -60 43 -10
16 108 -40 132 -63 l23 -21 23 26 c29 34 43 35 21 2 -20 -31 -11 -45 14 -22
10 10 23 17 28 17 6 0 37 16 70 35 l59 35 -40 -34 c-22 -19 -37 -37 -34 -41 3
-3 36 9 73 26 74 35 103 35 222 -2 76 -24 94 -41 69 -69 -16 -18 -17 -21 -1
-45 54 -83 224 -76 476 21 87 33 237 82 368 120 38 11 52 20 48 30 -9 24 23
16 40 -11 l16 -24 36 23 c21 12 44 26 52 31 8 5 5 -4 -8 -20 -12 -15 -21 -30
-19 -32 2 -2 24 6 48 17 24 11 57 20 74 20 l30 0 -39 -26 c-27 -18 -35 -29
-26 -34 24 -15 -85 -28 -189 -23 -88 5 -109 3 -138 -12 -34 -19 -47 -42 -16
-31 16 6 16 6 0 -12 -9 -10 -17 -26 -17 -35 0 -15 4 -15 38 3 20 10 49 22 64
25 27 7 26 6 -12 -33 -22 -22 -40 -47 -40 -57 0 -15 3 -14 28 3 33 24 96 46
180 63 53 11 71 11 134 -4 131 -31 205 -20 268 39 48 44 177 56 305 28 163
-35 180 -37 238 -20 79 23 97 21 196 -24 88 -40 121 -48 121 -31 0 5 -16 32
-35 60 l-34 52 32 -22 c18 -12 41 -30 52 -39 41 -35 61 -31 82 13 20 47 89
137 103 137 5 0 -4 -28 -20 -62 -16 -35 -32 -79 -36 -98 l-7 -35 58 55 c33 32
52 45 45 32 -16 -31 -7 -37 23 -17 l26 16 -11 -35 c-15 -47 -5 -54 31 -23 49
41 120 50 330 42 207 -8 266 0 280 38 9 24 -5 35 -49 36 -14 1 -37 8 -53 16
-15 8 -53 19 -84 25 -32 5 -64 17 -73 26 -13 14 -13 17 7 34 13 10 56 24 95
30 77 13 112 26 104 39 -6 9 140 67 193 78 l34 6 -23 19 c-27 22 -28 19 33 42
26 10 54 28 62 40 19 29 17 119 -3 111 -10 -4 -11 4 -6 33 l7 37 -27 -25 c-24
-21 -26 -22 -20 -5 4 11 16 30 27 43 24 26 8 29 -28 6 -30 -20 -32 -6 -4 30
29 36 17 33 -45 -14 -63 -47 -122 -70 -111 -42 12 28 24 94 24 132 l0 35 -34
-37 c-19 -21 -35 -47 -35 -59 0 -18 -2 -19 -15 -9 -13 11 -15 8 -15 -22 0 -78
-60 -91 -80 -17 -6 22 -8 56 -5 77 4 30 3 32 -4 12 -5 -14 -12 -38 -16 -54 -6
-28 -6 -28 -24 -7 -13 15 -21 17 -29 9 -9 -9 -12 -8 -12 5 0 15 -4 16 -20 7
-18 -9 -20 -8 -20 16 0 22 -2 25 -15 14 -13 -11 -15 -8 -15 14 0 37 -16 32
-31 -9 -10 -27 -15 -32 -22 -20 -12 21 -27 19 -27 -5 0 -26 -40 -45 -74 -36
-14 3 -26 13 -26 22 0 9 -5 12 -12 8 -6 -4 -4 3 5 17 9 13 17 32 17 42 0 14 4
16 19 7 34 -18 61 -12 73 16 11 24 9 29 -15 50 -21 18 -35 22 -55 18 -35 -9
-51 -23 -18 -17 56 11 101 -21 75 -53 -17 -21 -44 -17 -79 12 -36 31 -49 26
-25 -9 13 -20 14 -30 5 -46 -13 -26 -26 -27 -40 -2 -18 35 0 79 57 136 31 30
59 55 64 55 19 0 21 -31 4 -50 -10 -11 -13 -20 -8 -20 20 0 35 30 29 56 -6 22
-11 25 -32 20 -21 -6 -25 -4 -20 11 15 47 -48 58 -71 13 -7 -14 -13 -42 -13
-63 0 -31 -4 -39 -25 -47 -28 -10 -61 -59 -70 -102 -7 -31 -20 -36 -29 -13 -6
16 16 89 41 139 10 19 13 42 9 68 -5 27 -2 46 9 61 8 12 15 32 15 44 0 23 1
23 31 8 58 -31 80 7 33 56 -25 27 -26 27 -5 34 24 7 45 40 36 55 -8 13 -51 13
-76 0 -17 -10 -19 -7 -19 23 0 67 -51 72 -65 6 -6 -24 -9 -27 -25 -19 -10 6
-28 10 -39 10 -30 0 -28 -43 3 -67 l24 -19 -29 -17 c-51 -29 -28 -85 24 -58
21 11 21 11 -5 6 -39 -7 -46 14 -14 42 42 36 97 25 65 -14 -16 -18 -13 -61 7
-108 19 -47 18 -84 -8 -150 -23 -62 -26 -61 -54 24 -13 42 -19 50 -24 35 -7
-18 -8 -17 -14 4 -9 28 -97 122 -113 122 -9 0 -7 -15 4 -52 10 -37 12 -53 4
-56 -16 -5 -13 -24 8 -51 10 -14 17 -30 14 -36 -2 -7 9 -26 24 -42 16 -17 27
-36 25 -42 -2 -6 -28 -11 -63 -11 -57 0 -59 1 -49 21 16 29 5 35 -26 15 -35
-23 -40 -15 -9 14 29 27 32 40 10 40 -9 0 -38 -22 -65 -50 -28 -27 -50 -47
-50 -44 0 17 54 104 81 132 17 18 29 35 26 39 -12 11 -86 -46 -113 -87 -31
-46 -37 -50 -24 -14 28 73 78 136 127 159 52 25 25 31 -30 7 -60 -27 -111 -74
-155 -145 -36 -59 -37 -60 -40 -31 -6 48 -21 51 -28 6 l-7 -42 -19 39 c-22 45
-48 72 -48 50 0 -8 9 -25 20 -39 27 -34 25 -48 -2 -23 -30 27 -172 96 -176 85
-1 -4 -41 11 -88 35 -90 45 -114 50 -160 33 -30 -12 -84 3 -84 23 0 6 -6 18
-14 26 -7 9 -21 39 -30 67 -9 28 -30 72 -45 96 -32 50 -67 67 -185 87 -32 6
-95 27 -140 46 -45 19 -85 35 -89 35 -8 0 -199 151 -244 194 -18 16 -33 39
-33 51 0 20 -80 105 -100 105 -5 0 -10 10 -10 23 0 12 -25 66 -55 119 -43 74
-55 106 -55 138 0 56 22 84 133 172 105 83 135 113 179 182 l32 49 64 -134
c93 -196 132 -288 132 -315 0 -14 10 -30 25 -40 19 -12 24 -22 19 -37 -5 -16
7 -32 56 -76 58 -52 62 -58 50 -78 -15 -24 -8 -51 17 -60 31 -11 73 -56 73
-79 0 -12 6 -26 13 -31 18 -14 96 -35 106 -29 9 6 79 -68 123 -130 16 -22 48
-64 73 -94 38 -48 44 -61 45 -103 0 -39 5 -54 28 -76 26 -26 36 -29 134 -36
72 -4 113 -3 127 4 11 6 32 9 45 5 35 -8 66 26 67 74 5 251 5 266 -13 281 -10
9 -18 21 -18 27 0 19 -56 62 -90 69 -48 10 -45 23 12 51 119 58 148 75 202
126 55 53 74 88 39 73 -10 -4 -41 -9 -69 -10 -29 -2 -62 -9 -75 -16 -13 -7
-31 -13 -40 -14 -19 -2 -125 -91 -134 -113 -3 -8 -8 -13 -10 -10 -3 2 4 30 15
61 24 67 26 155 5 183 -20 26 -19 34 5 34 13 0 20 7 20 19 0 11 9 23 20 26 22
7 26 35 8 53 -9 9 -7 13 5 18 27 10 21 43 -10 50 -19 5 -38 1 -64 -14 -21 -12
-47 -22 -57 -22 -27 0 -72 -38 -72 -60 0 -10 -9 -22 -21 -25 -11 -4 -29 -20
-39 -37 -17 -28 -19 -28 -24 -10 -14 42 -61 37 -71 -6 -9 -43 18 -112 69 -179
26 -35 51 -65 57 -68 5 -4 9 -12 9 -18 0 -7 -16 5 -35 26 -18 20 -40 37 -47
37 -18 0 -59 66 -52 83 6 17 -20 84 -43 109 -9 10 -30 18 -48 18 -26 0 -37 7
-59 38 -14 21 -26 46 -26 55 0 9 -9 21 -20 27 -11 6 -20 19 -20 28 0 10 -7 27
-15 38 -8 10 -15 27 -15 37 0 9 -7 17 -16 17 -33 0 -51 105 -85 485 -11 134
-25 196 -55 256 -27 55 -91 114 -150 141 -24 10 -44 21 -44 23 0 3 15 24 33
48 33 44 52 83 88 180 11 31 27 57 34 57 34 0 54 191 30 284 -34 127 -146 285
-242 338 -63 35 -143 44 -218 24z m190 -30 c97 -45 207 -197 249 -343 16 -56
13 -63 -15 -37 -28 25 -146 54 -218 54 -111 0 -261 -49 -339 -111 -34 -27 -19
-24 32 6 172 101 431 113 526 25 28 -26 30 -33 29 -97 0 -46 -3 -61 -9 -48 -7
17 -11 14 -29 -28 -20 -43 -24 -46 -43 -36 -23 12 -95 6 -110 -9 -5 -5 14 -9
51 -8 33 0 62 -2 66 -5 3 -4 3 -18 -1 -33 -7 -28 -28 -35 -37 -12 -4 10 -15
12 -44 6 -48 -8 -65 -18 -57 -32 4 -6 9 -5 15 3 6 11 11 11 21 1 9 -9 9 -12
-2 -12 -13 0 -13 -2 0 -10 24 -15 58 -12 69 7 16 29 22 9 8 -30 -19 -57 -95
-154 -175 -223 -108 -95 -141 -96 -226 -11 -49 50 -119 173 -131 232 -3 14 -7
36 -10 49 -3 13 -14 26 -25 29 -58 15 -55 227 4 227 16 0 36 -22 53 -59 l12
-26 -6 30 c-10 54 -31 76 -66 73 l-32 -3 -6 60 -6 60 -1 -57 c-1 -31 2 -60 8
-63 6 -4 3 -18 -8 -38 l-17 -32 -5 130 c-3 72 -9 136 -13 143 -16 24 -54 14
-71 -20 l-17 -33 7 45 c13 91 36 114 174 172 218 92 306 106 395 64z m-495
-252 c6 -14 10 -57 10 -96 l0 -71 -45 -41 -45 -42 0 82 c0 134 52 243 80 168z
m28 -388 c2 -10 -7 -30 -20 -44 -12 -15 -15 -20 -5 -13 29 22 22 -12 -9 -43
-38 -37 -97 -51 -143 -34 -20 8 -36 19 -36 25 0 6 27 31 61 56 107 79 145 92
152 53z m53 -69 c-15 -15 -41 10 -41 41 l0 25 26 -28 c17 -19 22 -31 15 -38z
m-46 -34 c-4 -21 -3 -23 3 -9 5 11 19 21 31 23 l22 3 -21 -30 c-26 -36 -39
-45 -51 -33 -11 11 0 73 12 73 5 0 7 -12 4 -27z m156 -175 c12 -18 36 -47 52
-65 27 -29 29 -34 16 -50 -13 -16 -12 -17 2 -5 13 10 22 10 43 1 32 -15 33
-25 4 -33 -146 -39 -286 103 -249 251 7 25 19 55 29 68 16 21 17 21 48 -56 18
-43 42 -93 55 -111z m-148 68 c-3 -31 0 -69 7 -91 15 -46 70 -108 110 -125 17
-7 30 -14 30 -17 0 -5 -58 -55 -78 -67 -27 -16 -73 -8 -99 16 -33 31 -51 66
-67 135 -11 44 -15 50 -15 27 -1 -34 25 -117 47 -152 18 -28 62 -52 95 -52 14
0 49 18 78 40 69 52 89 50 109 -13 23 -71 57 -84 128 -48 77 40 133 124 147
224 4 27 14 51 21 54 23 8 106 -38 154 -87 63 -63 88 -132 100 -283 12 -134
36 -349 50 -442 7 -41 16 -65 31 -78 20 -16 20 -18 5 -42 -9 -14 -39 -42 -66
-61 -28 -20 -47 -41 -43 -46 3 -6 1 -8 -5 -4 -6 3 -14 1 -17 -5 -14 -22 4 -18
61 12 39 21 49 29 29 24 -30 -7 -30 -6 15 39 46 46 60 46 60 -1 0 -13 11 -30
25 -39 14 -9 25 -21 25 -28 0 -6 14 -31 31 -56 l30 -45 -41 -8 c-31 -6 -58
-24 -110 -73 -64 -61 -69 -64 -79 -45 -6 11 -31 34 -56 51 -33 22 -45 38 -45
55 0 22 5 25 38 26 l37 1 -42 8 c-61 13 -83 27 -83 56 0 29 -27 95 -123 299
-38 83 -70 156 -70 163 0 16 -1 15 -71 -81 -32 -44 -81 -96 -114 -120 -31 -23
-91 -76 -132 -117 l-74 -75 -73 0 c-78 0 -82 -4 -61 -50 12 -26 13 -26 80 -20
l68 7 20 -43 c11 -24 36 -71 55 -104 30 -52 45 -105 30 -105 -6 0 -86 58 -132
95 -17 14 -45 50 -62 80 -17 30 -34 55 -36 55 -3 0 -1 -9 5 -20 6 -11 8 -20 5
-20 -3 0 -1 -6 5 -12 6 -7 20 -28 33 -47 12 -19 52 -55 90 -80 83 -56 85 -72
22 -168 l-45 -68 40 45 c22 25 47 64 56 88 19 47 22 48 64 27 55 -28 35 -109
-48 -197 -14 -15 -23 -30 -20 -33 3 -3 25 16 48 42 l42 48 -23 -44 c-13 -24
-50 -68 -83 -98 -65 -60 -94 -66 -108 -21 -8 24 -5 31 26 58 38 34 82 98 73
106 -3 3 -15 -12 -26 -34 -12 -23 -36 -53 -55 -67 -29 -22 -38 -25 -56 -15
-22 12 -22 12 6 30 16 9 38 28 49 40 13 16 5 12 -22 -10 -85 -66 -56 -2 51
115 30 33 53 61 51 63 -5 5 -83 -82 -126 -139 l-36 -48 -35 24 c-20 13 -38 31
-41 39 -3 8 -16 20 -29 27 -23 12 -23 11 2 -16 l25 -28 -95 7 c-52 3 -178 9
-279 13 -119 4 -177 9 -167 15 9 5 58 20 109 33 51 13 83 24 72 25 -30 0 -162
-38 -204 -59 l-36 -19 121 -1 c67 -1 168 -6 225 -11 57 -5 138 -9 180 -10 62
0 82 -4 110 -23 19 -12 35 -32 37 -44 2 -12 13 -28 26 -36 13 -9 29 -29 36
-46 17 -41 85 -59 115 -30 30 30 112 -27 139 -97 11 -27 39 -91 64 -142 52
-109 62 -161 38 -196 -19 -29 -164 -101 -245 -121 -31 -8 -123 -19 -206 -24
-82 -6 -222 -15 -310 -21 -103 -7 -200 -8 -273 -2 -144 11 -149 16 -162 133
-5 46 -20 136 -34 199 -13 63 -28 149 -31 190 -4 41 -13 99 -21 129 -17 68 -8
110 46 222 37 74 41 89 34 129 -16 108 -17 104 84 255 17 27 32 54 32 59 -1 6
-8 -2 -17 -19 -9 -16 -31 -49 -49 -73 -18 -24 -43 -64 -54 -88 -21 -41 -21
-49 -10 -108 12 -60 12 -65 -13 -119 -21 -45 -30 -56 -44 -51 -11 4 -14 3 -6
-3 9 -6 6 -23 -9 -68 -19 -57 -19 -64 -5 -145 9 -47 18 -116 22 -153 3 -38 15
-107 26 -153 32 -135 17 -119 -30 32 -60 191 -92 350 -90 450 1 61 -2 87 -15
105 -9 13 -16 30 -16 39 1 18 25 52 32 44 3 -2 2 13 -2 35 -11 60 -2 88 36
111 18 12 50 44 71 73 21 29 56 75 79 104 23 28 46 59 51 68 16 28 43 7 44
-34 1 -23 3 -28 6 -13 5 27 4 27 53 2 55 -28 64 -25 13 4 -64 37 -113 77 -113
93 0 27 29 25 67 -5 24 -19 78 -43 143 -63 58 -18 106 -33 107 -33 1 -1 4 -13
8 -28 5 -20 3 -27 -12 -31 -16 -4 -16 -5 2 -6 16 -1 25 -17 44 -84 13 -45 30
-102 37 -127 7 -25 13 -37 13 -27 1 11 -12 65 -29 120 -16 56 -57 212 -90 347
-38 152 -67 251 -77 260 -15 13 -16 13 -5 -1 7 -9 21 -57 32 -106 10 -49 31
-131 45 -183 14 -52 25 -99 25 -103 0 -19 -206 49 -247 81 l-22 17 18 56 c11
31 33 128 51 215 17 88 41 186 52 219 52 156 135 261 251 318 45 22 222 77
248 77 3 0 5 -12 3 -27 -4 -27 -3 -26 6 3 7 23 21 35 57 51 27 12 49 21 50 22
1 1 -1 -23 -4 -53z m476 -145 c-25 -113 -117 -211 -198 -211 -24 0 -46 32 -55
78 -4 25 -2 32 10 32 9 0 28 8 42 19 15 10 44 21 64 25 25 5 55 23 90 55 29
27 54 48 55 47 1 -1 -2 -21 -8 -45z m1011 -911 c0 -14 -35 -30 -67 -30 l-28 1
24 19 c24 21 71 27 71 10z m-1440 -26 c0 -3 -5 -14 -10 -25 -9 -15 -22 -19
-70 -19 -33 0 -60 2 -60 4 0 2 -3 12 -6 20 -5 14 0 16 32 11 22 -3 53 -1 69 4
37 12 45 13 45 5z m1334 -3 c6 -9 -73 -66 -80 -58 -10 9 10 38 35 52 31 17 38
18 45 6z m-594 -5 c0 -2 -7 -7 -16 -10 -8 -3 -12 -2 -9 4 6 10 25 14 25 6z
m671 -16 c25 -14 25 -30 -1 -30 -27 0 -70 21 -64 31 7 12 41 11 65 -1z m-37
-41 c28 -22 27 -42 -2 -32 -9 3 -28 15 -41 27 l-24 21 17 -32 c19 -39 21 -63
3 -63 -15 0 -37 41 -37 70 0 34 45 39 84 9z m-124 -16 c0 -19 -41 -73 -55 -73
-22 0 -19 14 11 49 25 29 44 40 44 24z m31 -59 c-4 -15 -12 -29 -19 -32 -16
-5 -16 52 -1 81 l12 21 8 -21 c4 -12 4 -34 0 -49z m-131 -11 c0 -7 -4 -13 -9
-13 -5 0 -16 -3 -25 -6 -12 -5 -16 1 -16 24 0 17 6 32 13 35 13 5 37 -20 37
-40z m-102 -51 c-3 -22 -11 -28 -51 -38 -26 -7 -63 -24 -82 -39 -54 -41 -94
-132 -65 -150 6 -3 10 -1 10 5 0 6 12 -3 26 -20 15 -17 24 -33 22 -35 -3 -3
-22 1 -44 9 l-39 13 2 63 c1 47 9 79 32 124 l30 61 -28 -33 c-27 -31 -51 -91
-51 -126 0 -9 -2 -16 -5 -16 -14 0 -85 54 -85 65 0 7 36 46 79 88 70 67 85 76
128 82 26 4 55 11 63 16 22 12 62 -36 58 -69z m284 38 c10 0 18 6 18 13 0 7 7
4 15 -7 8 -11 15 -41 15 -68 0 -53 -39 -183 -51 -171 -10 11 7 96 32 160 19
48 3 52 -38 11 -30 -31 -34 -39 -24 -52 7 -8 9 -21 5 -27 -4 -8 -3 -9 4 -5 16
10 15 1 -3 -34 -9 -17 -11 -30 -6 -30 7 0 7 -9 1 -24 -6 -17 -5 -26 3 -29 9
-3 9 -8 1 -16 -9 -9 -15 -2 -28 29 -9 22 -15 53 -15 68 1 17 3 20 6 10 8 -31
18 -19 19 21 2 30 -1 38 -12 34 -14 -5 -21 -25 -26 -76 -3 -27 -4 -27 -43 23
-22 28 -40 55 -39 60 1 6 2 32 3 60 1 40 4 48 16 44 8 -4 22 -1 30 6 12 10 16
9 21 -4 9 -23 45 -20 51 5 4 14 9 17 16 10 6 -6 19 -11 29 -11z m-174 -53 c-4
-39 -25 -46 -38 -13 -13 34 -4 55 21 49 15 -4 19 -13 17 -36z m-96 -44 c9 -10
21 -28 27 -40 10 -19 9 -22 -5 -16 -15 5 -15 3 0 -25 16 -31 16 -33 -18 -82
-19 -27 -40 -66 -46 -86 l-12 -36 -74 73 c-49 48 -74 81 -74 96 0 33 64 99
113 117 56 19 71 19 89 -1z m523 -2 c-3 -6 14 -8 40 -7 40 3 44 2 33 -12 -7
-8 -31 -23 -53 -33 -22 -10 -36 -19 -31 -19 5 0 3 -7 -4 -15 -6 -7 -32 -17
-56 -21 -35 -5 -42 -9 -34 -19 8 -10 2 -16 -27 -25 -21 -7 -48 -22 -61 -33
l-22 -21 4 32 c3 32 34 88 43 79 2 -3 21 13 41 35 31 35 37 38 43 21 4 -11 0
-23 -10 -30 -13 -10 -9 -10 18 0 20 7 27 13 17 15 -23 5 -20 14 17 40 33 23
52 29 42 13z m-398 -120 c13 -19 20 -39 16 -45 -3 -7 -1 -6 7 1 11 10 18 6 37
-20 18 -24 20 -33 10 -35 -20 -4 -75 19 -59 25 8 3 -4 13 -29 24 -23 11 -39
22 -35 26 3 3 -1 15 -11 25 -17 19 -5 26 14 7 9 -9 10 -6 6 11 -9 33 16 22 44
-19z m-957 -35 c0 -7 -3 -7 -8 1 -6 9 -11 7 -19 -6 -10 -16 -9 -18 8 -14 10 3
19 1 19 -5 0 -6 61 -59 135 -118 74 -58 135 -112 135 -118 0 -6 -18 -43 -40
-83 l-40 -72 -108 55 c-59 31 -114 62 -122 69 -8 7 -36 24 -62 39 -44 25 -49
26 -64 12 -8 -9 -23 -16 -32 -15 -15 0 -14 2 2 12 10 7 26 20 35 30 9 11 29
33 44 50 37 43 69 105 61 119 -5 7 -3 8 5 4 8 -5 11 -3 10 5 -1 8 1 26 6 42 6
22 10 25 21 16 8 -6 14 -17 14 -23z m891 4 c28 -16 23 -32 -6 -18 -14 6 -25
15 -25 20 0 11 7 10 31 -2z m9 -39 c0 -3 -6 -14 -14 -23 -11 -16 -15 -16 -37
-2 l-24 16 23 -20 c13 -12 20 -26 16 -36 -8 -21 -17 -20 -38 3 -15 16 -16 23
-5 43 22 44 29 48 55 36 13 -6 24 -14 24 -17z m40 0 c0 -5 -7 -14 -16 -22 -18
-15 -44 -62 -44 -81 0 -7 10 8 23 32 15 30 29 46 45 48 12 2 22 -1 22 -7 0 -6
-4 -11 -9 -11 -5 0 -13 -9 -16 -20 -5 -15 2 -31 24 -56 36 -40 44 -110 15
-121 -13 -5 -65 14 -93 34 -3 2 -8 22 -12 46 l-6 42 -2 -48 c-1 -45 1 -48 34
-64 30 -14 35 -22 35 -51 l0 -34 -40 51 c-22 28 -40 55 -40 61 0 6 -4 9 -9 6
-9 -6 -67 71 -59 79 3 3 17 -12 31 -32 18 -25 27 -32 27 -20 0 9 -14 30 -32
46 -21 19 -29 33 -25 44 10 26 25 20 47 -15 14 -23 20 -27 20 -15 0 21 26 74
48 100 16 18 32 23 32 8z m160 -22 c0 -11 -4 -17 -10 -14 -5 3 -10 13 -10 21
0 8 5 14 10 14 6 0 10 -9 10 -21z m-13 -33 c40 -4 38 -16 -3 -17 l-39 -1 42
-10 c28 -6 49 -6 60 1 17 10 17 10 1 11 -10 0 -18 7 -18 16 0 38 144 -2 158
-44 2 -8 -10 -12 -36 -12 -48 0 -77 -27 -68 -63 4 -16 0 -29 -9 -37 -21 -17
-19 -43 5 -73 11 -14 20 -39 20 -55 0 -16 7 -35 15 -42 24 -20 19 -67 -11 -86
-22 -15 -33 -16 -88 -6 -35 7 -75 12 -90 12 -15 0 -38 7 -51 16 -23 15 -25 22
-25 100 0 78 1 84 21 84 13 0 25 11 34 34 18 42 6 88 -32 128 -28 29 -28 30
-8 45 14 10 32 13 60 8 22 -4 50 -8 62 -9z m214 -76 c11 -6 19 -21 19 -35 0
-24 -3 -25 -60 -25 -33 0 -60 2 -60 4 0 2 -3 11 -6 19 -13 36 60 61 107 37z
m17 -93 c2 -10 1 -29 -2 -43 -6 -22 -12 -24 -59 -24 -60 0 -77 12 -77 51 0 31
19 38 95 35 30 -1 41 -5 43 -19z m-993 -9 c14 -6 25 -20 25 -30 0 -16 -3 -17
-32 -5 -18 7 -34 21 -36 30 -4 20 8 21 43 5z m1609 -24 c3 -9 6 -31 6 -51 0
-26 -5 -36 -20 -40 -23 -6 -27 -23 -5 -23 8 0 15 -4 15 -10 0 -5 -7 -10 -15
-10 -8 0 -15 5 -15 10 0 6 -10 10 -22 10 -24 0 -68 36 -68 57 0 19 34 16 63
-7 l25 -20 -5 20 c-6 21 14 80 27 80 4 0 11 -7 14 -16z m-3199 -26 c3 -18 -1
-60 -9 -93 -24 -90 -21 -260 5 -330 26 -69 63 -115 94 -115 13 0 29 -10 39
-25 23 -36 20 -42 -9 -15 -21 20 -25 21 -25 6 0 -15 -4 -14 -30 5 -24 19 -32
20 -45 9 -14 -12 -14 -10 -5 15 13 34 3 47 -16 21 -7 -11 -16 -17 -19 -15 -2
3 -9 43 -14 89 -6 47 -24 125 -41 174 -46 137 -40 236 18 283 37 31 50 29 57
-9z m1605 -21 c0 -18 -2 -18 -36 2 -19 12 -38 21 -42 21 -12 -1 42 -40 56 -40
6 0 12 -7 12 -15 0 -18 -8 -18 -40 0 -39 22 -49 17 -12 -6 32 -21 42 -39 22
-39 -12 0 -70 28 -70 34 0 3 9 25 19 49 l20 45 35 -16 c21 -10 35 -24 36 -35z
m101 24 c35 -11 93 -25 128 -32 36 -7 73 -21 86 -33 47 -42 106 -186 77 -186
-20 0 -78 53 -83 78 l-7 27 -1 -28 c-1 -39 20 -76 73 -123 33 -29 46 -49 46
-68 0 -37 -19 -33 -82 16 -38 29 -46 33 -28 13 14 -15 38 -36 54 -46 26 -15
27 -19 12 -25 -28 -11 -105 2 -128 22 -21 19 -21 19 -9 -4 12 -23 12 -23 -26
-16 -21 3 -47 12 -58 19 -37 23 -223 215 -214 221 14 8 55 93 69 142 7 23 16
42 21 42 4 0 35 -9 70 -19z m-271 -126 c19 -18 60 -49 90 -68 30 -19 94 -76
143 -125 78 -81 92 -92 133 -98 44 -6 45 -7 22 -22 -13 -8 -42 -33 -65 -56
l-43 -40 -1 34 c0 19 -3 29 -6 23 -8 -21 -20 -15 -42 23 -29 48 -37 37 -17
-22 9 -26 16 -67 16 -90 0 -52 -15 -63 -96 -71 -62 -7 -63 -5 -40 70 8 26 10
47 6 47 -5 0 -11 -6 -14 -12 -3 -7 -3 2 0 20 3 20 1 32 -5 32 -6 0 -11 -6 -11
-13 0 -8 -12 -24 -27 -38 l-27 -24 28 48 c15 27 26 51 23 54 -3 2 -20 -12 -38
-31 -18 -20 -34 -34 -36 -32 -8 8 38 87 74 127 58 64 27 59 -35 -6 -32 -33
-65 -71 -75 -85 l-18 -25 7 25 c4 14 9 31 12 39 11 29 -24 3 -44 -33 l-21 -37
-7 42 c-6 36 -4 46 12 59 53 42 55 104 6 197 -19 37 -49 99 -65 136 l-29 69
78 -42 c42 -23 93 -56 112 -75z m1139 91 c15 -18 3 -122 -15 -137 -24 -20 -49
-6 -49 26 0 26 4 31 30 34 26 4 25 6 -15 10 -42 6 -45 8 -48 38 -2 23 1 32 15
36 37 9 71 7 82 -7z m731 -5 c0 -17 -52 -51 -76 -51 -30 0 -31 24 -2 44 24 17
78 22 78 7z m-3227 -221 c30 -96 58 -191 62 -210 4 -19 13 -44 21 -55 7 -11
22 -45 34 -75 20 -54 20 -55 0 -30 -11 14 -44 61 -74 105 -29 44 -64 89 -77
100 -12 11 -4 -4 19 -33 45 -58 50 -72 27 -72 -23 0 -54 36 -78 89 -26 58 -34
192 -18 287 12 67 22 97 27 79 1 -6 27 -89 57 -185z m1450 164 c43 -22 42 -20
23 -49 l-17 -25 -39 22 c-22 13 -40 26 -40 31 0 11 5 9 45 -14 20 -12 38 -20
40 -17 2 2 -11 12 -30 23 -19 10 -35 24 -35 32 0 17 14 17 53 -3z m1735 -24
c31 -19 45 -60 21 -60 -20 0 -79 41 -79 54 0 30 15 32 58 6z m-62 -25 c4 -8 3
-31 0 -51 -5 -26 -12 -34 -24 -32 -17 3 -29 56 -18 84 7 19 35 18 42 -1z
m-1123 -188 c-19 -12 -16 -61 5 -81 15 -13 258 -123 372 -167 24 -10 24 -10 5
11 -10 11 -82 52 -159 91 -163 81 -172 87 -185 122 -9 23 -7 26 21 36 49 17
64 14 168 -38 169 -84 282 -172 296 -228 12 -48 3 -58 -61 -61 -33 -2 -80 2
-105 8 -62 15 -359 157 -389 185 -22 22 -23 24 -7 46 28 40 19 60 -51 127
l-68 63 86 -53 c60 -37 82 -55 72 -61z m928 42 c8 -22 14 -27 20 -17 5 8 14
-2 28 -32 11 -25 21 -38 21 -30 1 32 20 -15 20 -49 0 -19 3 -31 7 -28 3 4 14
-14 22 -40 9 -27 22 -47 28 -46 7 2 10 -4 7 -12 -8 -19 -18 -19 -52 -1 -36 19
-70 56 -51 56 7 0 -3 14 -24 31 -39 32 -48 52 -19 43 11 -4 8 2 -9 19 -30 27
-54 67 -41 67 4 0 13 -5 20 -12 17 -17 15 -7 -8 43 -11 24 -20 50 -20 58 0 22
36 -14 51 -50z m-976 31 c3 -5 1 -10 -4 -10 -6 0 -11 5 -11 10 0 6 2 10 4 10
3 0 8 -4 11 -10z m1309 2 c7 -11 -28 -84 -47 -101 -15 -12 -17 -10 -17 22 0
47 19 87 41 87 10 0 20 -4 23 -8z m-578 -104 c-23 -39 -56 -143 -56 -175 0
-29 18 -10 39 41 12 30 29 60 37 67 10 8 9 -1 -6 -35 -11 -26 -20 -57 -20 -69
1 -19 8 -14 47 28 43 47 44 48 24 13 -26 -44 -22 -46 26 -16 l35 21 -12 -23
c-12 -22 -11 -22 16 -14 51 15 153 6 181 -16 14 -11 31 -20 38 -20 7 0 24 -9
39 -21 21 -17 30 -19 41 -9 8 7 28 10 45 8 16 -3 30 -1 30 3 0 5 27 7 59 6 46
-2 63 2 80 17 19 17 21 17 27 2 8 -21 24 -11 25 17 0 20 1 21 8 3 5 -14 10
-16 15 -8 13 21 26 13 26 -15 0 -25 0 -26 20 -8 19 17 20 17 20 1 0 -9 5 -14
10 -11 6 3 10 1 10 -5 0 -7 6 -10 14 -7 23 9 36 -15 35 -67 l-1 -51 -12 35
c-7 19 -17 35 -22 35 -5 0 -15 4 -21 8 -8 5 -13 3 -13 -4 0 -7 -8 -5 -20 6
-12 11 -20 13 -20 6 0 -8 -11 -10 -37 -5 -34 6 -36 5 -25 -8 11 -13 9 -17 -13
-22 -14 -4 -23 -11 -20 -16 3 -5 -1 -23 -10 -39 -23 -45 -18 -48 19 -12 l33
32 7 -26 c5 -21 10 -24 20 -16 17 14 30 -12 21 -40 -8 -23 3 -24 26 -3 27 25
66 10 86 -31 l16 -34 39 30 c21 17 38 36 38 42 0 7 9 18 20 25 12 7 19 19 18
27 -4 18 33 75 48 75 6 0 37 13 68 29 l57 28 -6 -28 c-7 -33 1 -37 22 -11 12
15 13 14 12 -13 -2 -47 1 -51 17 -30 15 19 16 19 14 -10 -3 -45 -1 -49 15 -35
25 21 20 -45 -6 -68 -22 -21 -103 -46 -184 -57 -58 -8 -125 -33 -125 -47 0 -6
8 -7 18 -3 36 15 106 35 121 35 14 -1 -31 -21 -81 -37 -10 -3 -18 -9 -18 -14
0 -12 0 -12 50 6 67 24 81 16 21 -11 -29 -13 -66 -24 -82 -24 -29 0 -40 -15
-16 -23 22 -8 2 -16 -78 -32 -92 -17 -125 -36 -125 -70 0 -28 17 -38 90 -50
25 -4 48 -11 51 -16 3 -5 34 -14 68 -20 58 -11 62 -13 47 -28 -14 -14 -54 -17
-274 -21 -219 -4 -262 -8 -291 -22 -43 -23 -43 -23 -29 7 14 31 6 40 -22 25
-20 -11 -21 -10 -10 9 6 12 15 21 21 21 6 0 7 5 4 10 -9 14 -42 -5 -93 -54
l-43 -41 12 35 c7 19 30 65 51 102 21 37 38 70 38 73 0 12 -45 -19 -91 -62
-27 -25 -60 -68 -73 -95 -19 -38 -27 -47 -32 -34 -8 20 -24 21 -24 0 0 -11
-12 -6 -42 19 -51 41 -108 71 -108 58 0 -6 13 -25 29 -43 33 -39 55 -77 47
-85 -3 -3 -40 11 -83 30 -100 46 -129 51 -182 32 -57 -20 -97 -19 -205 5 -98
22 -266 27 -311 10 -14 -5 -43 -23 -63 -39 -60 -49 -116 -58 -208 -37 -118 28
-187 22 -333 -31 -13 -5 -13 -3 3 15 10 12 34 27 52 34 42 15 42 21 3 41 -30
14 -27 14 58 10 92 -6 143 4 192 35 21 14 22 17 6 22 -14 5 -8 10 25 24 34 13
40 20 29 27 -18 12 -65 11 -109 -1 -34 -9 -34 -9 -14 8 11 9 31 25 45 34 23
16 23 17 3 17 -11 1 -42 -10 -69 -23 -61 -31 -38 -8 37 37 63 38 67 50 10 35
-50 -13 -116 -52 -140 -82 l-19 -25 -27 31 c-26 30 -51 33 -26 3 21 -26 -9
-17 -127 36 -48 22 -57 23 -48 9 4 -6 37 -26 75 -45 38 -19 71 -39 74 -43 3
-5 -27 -19 -67 -31 -98 -30 -252 -82 -368 -124 -214 -79 -372 -87 -415 -21
-15 23 -15 26 0 43 9 10 14 25 10 34 -14 36 -167 82 -252 75 l-55 -5 34 28
c28 24 31 28 14 29 -11 0 -44 -14 -74 -30 -30 -17 -56 -29 -57 -27 -2 2 17 20
41 41 48 39 61 65 23 45 -12 -6 -44 -32 -72 -58 -53 -49 -53 -41 1 26 18 23
33 44 33 47 0 19 -29 -2 -86 -61 -61 -65 -64 -67 -64 -40 0 16 -4 26 -10 22
-5 -3 -10 -16 -10 -27 l0 -21 -23 20 c-37 34 -50 38 -43 15 6 -18 -2 -16 -85
19 -89 39 -123 44 -83 14 10 -8 50 -36 88 -62 l68 -47 -98 -23 c-55 -13 -126
-24 -159 -25 -57 -1 -105 13 -105 31 0 5 25 23 55 40 30 17 55 36 55 41 0 15
-38 27 -141 45 -99 17 -149 37 -149 59 0 15 50 50 125 89 103 52 119 93 60
153 -19 19 -35 42 -35 50 0 46 132 122 221 127 21 1 39 6 39 10 0 4 9 3 21 -3
11 -7 26 -9 34 -7 7 3 17 1 23 -5 8 -8 15 -3 23 18 11 25 13 26 17 9 6 -27 22
-44 22 -22 0 20 11 22 29 5 11 -11 14 -10 18 0 4 10 10 9 25 -5 14 -12 22 -14
25 -7 6 18 58 -11 81 -44 10 -15 34 -58 53 -97 36 -75 118 -164 169 -185 28
-12 32 -10 51 14 11 14 29 26 40 26 10 0 19 6 20 13 0 6 5 1 10 -12 9 -23 10
-23 28 -7 13 12 21 14 26 6 5 -8 12 -7 24 4 14 13 20 13 30 3 11 -9 14 -9 18
1 4 10 8 10 19 1 8 -7 17 -9 21 -6 3 4 12 2 20 -4 10 -9 16 -5 26 19 12 29 14
30 25 12 10 -17 14 -18 39 -5 20 10 30 11 40 3 8 -6 17 -8 20 -4 12 11 -12 41
-36 44 -15 3 -21 8 -17 19 3 8 6 26 6 40 0 25 2 24 50 -21 28 -26 64 -52 82
-58 l31 -11 -27 -14 c-14 -7 -26 -16 -26 -19 0 -9 71 6 107 23 17 8 41 12 52
8 10 -3 22 -1 26 5 4 6 14 9 22 5 9 -3 27 2 40 10 19 13 27 14 39 5 19 -17 44
-5 44 20 0 11 6 19 13 17 6 -1 11 4 9 12 -2 8 3 11 11 8 8 -3 23 0 33 7 72 49
76 51 72 31 -2 -12 4 -21 13 -23 12 -2 16 6 17 33 2 39 -18 47 -53 21 -10 -7
-26 -11 -36 -9 -11 3 -19 -3 -24 -17 -4 -14 -11 -18 -16 -13 -16 16 20 130 63
199 22 36 42 63 44 61 2 -2 -6 -27 -17 -56 -19 -50 -18 -84 1 -51 5 8 16 24
25 35 15 19 15 18 0 -12 -19 -40 -19 -47 0 -40 11 5 12 1 5 -18 -15 -40 15
-31 45 12 l25 38 0 -39 0 -39 53 7 c108 14 135 32 138 93 2 23 2 24 6 6 6 -33
17 -29 47 17 31 48 39 51 24 9 -14 -39 -4 -48 21 -18 l20 24 -6 -45 -6 -45 31
42 c27 36 52 61 52 51 0 -2 -4 -18 -9 -36 -12 -41 -3 -41 31 0 l27 33 1 -28
c0 -16 5 -37 11 -48 8 -16 13 -18 25 -8 8 6 14 18 14 27 0 12 5 10 24 -7 26
-24 59 -31 171 -35 102 -4 133 -21 77 -42 -24 -9 -31 -8 -39 5 -13 21 -89 19
-111 -2 -22 -23 1 -47 45 -47 32 0 33 -1 20 -21 -8 -11 -13 -28 -10 -37 3 -13
-3 -18 -22 -20 -41 -3 -84 -30 -91 -57 -9 -35 2 -46 32 -35 30 12 54 13 53 3
-4 -27 2 -30 112 -59 9 -3 16 -12 15 -21 -1 -21 32 -30 48 -13 8 10 6 12 -11
7 -30 -7 -39 9 -14 22 28 15 41 14 41 -5 0 -8 5 -12 10 -9 6 4 39 -7 74 -24
34 -17 72 -31 83 -31 21 0 52 28 43 39 -3 3 36 9 86 12 105 8 204 28 221 45 7
7 17 24 23 38 11 29 28 35 26 9 -2 -25 71 -32 81 -8 3 10 0 20 -6 25 -9 5 -4
10 15 14 15 4 41 17 57 28 22 16 27 26 23 44 -5 19 -2 23 21 26 14 2 28 9 31
16 6 18 -39 15 -52 -4 -11 -14 -13 -14 -25 -1 -10 13 -8 18 16 29 33 16 35 27
8 41 -11 6 -27 14 -35 19 -56 31 -61 32 -93 15 -30 -16 -38 -17 -97 -3 -36 9
-93 16 -127 16 -61 0 -62 0 -73 34 -10 32 -63 88 -135 144 l-30 23 44 -23 c24
-13 58 -40 76 -60 17 -21 39 -38 47 -38 8 0 32 31 53 69 35 64 90 141 101 141
3 0 -6 -19 -20 -42z m-656 -8 c0 -22 39 -52 105 -81 26 -11 45 -23 42 -25 -2
-2 -33 9 -68 24 -72 33 -115 72 -105 97 7 21 26 10 26 -15z m1139 -62 c-10
-38 -2 -75 20 -88 11 -6 1 -8 -33 -5 -27 3 -52 7 -54 10 -9 9 19 86 39 106 27
27 40 16 28 -23z m-1209 -75 c16 -16 60 -45 97 -65 l68 -38 -45 0 c-25 0 -58
7 -74 15 -33 18 -39 19 -31 5 8 -13 -1 -13 -24 0 -10 5 -24 23 -31 39 -14 34
-30 32 -30 -4 0 -13 -4 -27 -10 -30 -6 -4 -10 12 -10 40 0 43 -1 46 -22 39
l-23 -6 24 26 c42 45 1 30 -58 -21 -46 -40 -52 -43 -46 -22 4 13 14 32 23 42
12 13 12 17 2 17 -7 0 -22 -8 -33 -17 -20 -18 -20 -18 -3 9 23 35 38 41 121
47 l70 6 3 -27 c2 -15 16 -40 32 -55z m-730 -42 c0 -60 -5 -122 -11 -138 -13
-35 -40 -61 -58 -55 -11 4 -12 -4 -7 -33 5 -24 4 -35 -3 -31 -6 4 -23 -1 -38
-11 -18 -12 -24 -13 -19 -4 7 11 3 13 -18 9 -22 -5 -26 -2 -21 13 9 27 -2 24
-51 -16 -52 -43 -85 -45 -146 -6 -87 56 -114 94 -123 181 -8 74 0 75 20 3 11
-41 13 -44 14 -18 1 17 -8 48 -19 70 -11 21 -18 40 -17 41 2 2 59 8 127 14
139 11 201 25 281 63 90 42 89 44 89 -82z m925 -19 c94 -44 177 -83 185 -85
30 -11 -25 -7 -65 4 -53 14 -274 125 -302 151 -27 25 -31 48 -5 26 9 -8 94
-51 187 -96z m1575 47 c-7 -22 -10 -42 -7 -45 9 -9 -19 -62 -60 -111 -19 -24
-32 -47 -29 -52 3 -5 -1 -14 -9 -21 -8 -7 -15 -18 -15 -24 0 -6 -10 -17 -21
-25 -21 -13 -22 -12 -15 29 4 23 13 48 21 56 7 8 17 23 20 34 3 11 11 20 16
20 5 0 9 6 9 14 0 7 11 33 24 58 13 24 27 55 31 69 9 29 38 60 44 46 2 -5 -2
-27 -9 -48z m-1510 31 c8 -5 11 -10 5 -10 -5 0 -17 5 -25 10 -8 5 -10 10 -5
10 6 0 17 -5 25 -10z m-959 -67 c-12 -20 -14 -14 -5 12 4 9 9 14 11 11 3 -2 0
-13 -6 -23z m1854 18 c3 -5 1 -12 -5 -16 -5 -3 -10 1 -10 9 0 18 6 21 15 7z
m-2770 -16 c83 0 198 3 256 8 l106 7 6 -29 c11 -55 20 -209 13 -235 -3 -14
-11 -26 -16 -26 -5 0 -7 7 -4 15 12 31 -17 13 -33 -20 -17 -35 -17 -35 -29
-13 -11 21 -13 21 -20 5 -6 -17 -8 -17 -25 -1 -18 16 -19 16 -19 1 0 -10 -7
-17 -15 -17 -8 0 -15 5 -15 10 0 17 -16 11 -45 -17 l-28 -28 6 39 c3 21 16 49
28 62 14 15 17 24 10 24 -7 0 -26 -14 -41 -30 l-29 -31 -3 28 c-4 25 -5 26
-12 8 -5 -11 -18 -40 -28 -65 l-20 -45 -10 28 c-10 29 -28 28 -28 -3 0 -37
-21 -31 -73 22 -55 54 -93 122 -141 251 l-25 67 42 -7 c23 -5 110 -8 192 -8z
m1055 -27 c-23 -35 -23 -31 -1 15 8 15 16 25 19 22 2 -2 -5 -19 -18 -37z
m1804 32 c-5 -5 -28 -13 -51 -18 -38 -9 -42 -8 -34 7 6 10 24 17 52 18 27 2
39 -1 33 -7z m391 -90 c21 0 19 -23 -5 -50 -11 -13 -20 -30 -21 -39 -2 -44
-18 30 -18 84 0 59 0 59 15 33 8 -16 21 -28 29 -28z m-924 11 c-7 -5 -10 -14
-7 -20 5 -8 -13 -11 -58 -11 -36 0 -66 2 -66 4 0 3 7 12 16 20 10 11 34 16 72
16 36 0 52 -3 43 -9z m242 -8 l32 -18 -49 -3 c-55 -4 -64 1 -46 23 16 19 24
19 63 -2z m-41 -46 c24 -14 56 -39 73 -56 27 -29 28 -32 12 -48 -11 -11 -17
-13 -17 -5 0 18 -85 16 -100 -3 -11 -13 -8 -15 19 -15 17 0 31 -4 31 -9 0 -11
-40 -21 -90 -23 -31 -1 -36 -4 -35 -27 0 -23 -3 -26 -32 -23 -27 3 -33 0 -33
-16 0 -24 -21 -29 -150 -38 -100 -7 -143 -20 -119 -34 9 -6 6 -10 -13 -15 -20
-5 -46 4 -107 35 -53 28 -87 40 -100 35 -11 -3 -37 -3 -57 1 -29 5 -33 9 -20
16 23 13 20 36 -9 74 -14 19 -26 37 -26 41 -1 5 -5 16 -10 25 -20 36 86 108
160 108 38 0 22 -18 -23 -24 -48 -8 -91 -35 -101 -66 -7 -21 23 -86 52 -112
43 -39 85 -47 269 -50 121 -2 185 1 198 8 11 7 31 29 45 49 21 31 38 42 95 60
74 24 97 44 89 76 -7 26 -33 39 -123 61 -41 10 -60 16 -42 15 17 -2 32 0 32 4
0 12 85 -16 132 -44z m577 36 c19 -2 38 -9 42 -14 3 -6 10 -9 14 -7 8 3 43
-83 44 -109 1 -7 -14 -2 -36 12 -33 23 -38 24 -53 10 -15 -14 -18 -12 -29 27
-12 38 -14 40 -26 25 -12 -16 -13 -16 -18 5 -8 31 2 70 16 61 5 -3 26 -8 46
-10z m-1320 -18 c2 -2 1 -11 -3 -20 -4 -12 -17 -15 -53 -13 -52 3 -60 16 -22
36 21 10 66 9 78 -3z m848 -12 c5 -14 -37 -24 -56 -13 -13 7 -12 10 9 19 28
11 42 9 47 -6z m379 -15 c-18 -26 -22 -17 -5 14 6 11 13 17 16 15 3 -3 -2 -16
-11 -29z m-575 12 c34 -6 61 -18 72 -32 17 -21 17 -22 -1 -41 -15 -15 -24 -17
-39 -9 -11 6 -52 8 -99 5 -80 -6 -81 -5 -80 18 1 22 -4 24 -48 27 -48 3 -86
-15 -86 -43 0 -6 -16 -11 -40 -10 -39 0 -52 9 -27 18 29 10 -10 22 -71 21 -70
-1 -170 -32 -192 -59 -17 -20 -27 -19 -35 5 -9 30 10 56 57 76 34 14 83 19
223 24 294 10 310 10 366 0z m-156 -50 c4 -6 1 -18 -7 -27 -12 -15 -4 -16 85
-11 106 6 132 -3 62 -21 -25 -6 -52 -19 -60 -29 -65 -80 -65 -80 -113 -86 -26
-3 -116 -2 -200 2 -148 9 -153 9 -189 38 -20 17 -38 35 -40 41 -12 34 101 84
191 87 44 1 51 -2 51 -19 0 -17 8 -20 53 -21 42 -2 54 1 59 14 3 9 10 23 16
30 11 15 83 16 92 2z m392 4 c-3 -3 -12 -4 -19 -1 -8 3 -5 6 6 6 11 1 17 -2
13 -5z m-98 -74 c-9 -5 -28 -6 -45 0 -27 8 -26 8 16 9 32 0 40 -2 29 -9z
m-813 -27 c10 -16 17 -34 16 -40 -2 -7 3 -13 10 -13 8 0 9 -3 1 -11 -13 -13
-78 -8 -77 6 0 6 13 13 30 17 17 4 -1 6 -43 4 -81 -4 -93 7 -47 43 39 31 87
28 110 -6z m769 -43 c-3 -5 -17 -10 -31 -10 -14 0 -22 4 -19 10 3 6 17 10 31
10 14 0 22 -4 19 -10z m-140 -40 c3 -5 1 -10 -4 -10 -6 0 -11 5 -11 10 0 6 2
10 4 10 3 0 8 -4 11 -10z m-1216 -157 c-18 -21 -35 -40 -36 -42 -2 -2 -3 1 -3
8 0 14 54 71 66 71 4 0 -8 -17 -27 -37z m-189 -168 c-24 -8 -46 -12 -49 -10
-7 7 42 24 69 24 17 0 11 -5 -20 -14z"/>
<path d="M1857 4195 c-9 -19 -15 -35 -12 -35 7 0 37 61 33 66 -3 2 -12 -12
-21 -31z"/>
<path d="M1817 4115 c-9 -19 -15 -35 -12 -35 7 0 37 61 33 66 -3 2 -12 -12
-21 -31z"/>
<path d="M2036 4056 c-17 -44 -65 -96 -89 -96 -8 0 -7 4 1 12 7 7 12 17 12 23
0 5 -15 -7 -34 -27 -25 -27 -39 -35 -55 -31 -15 4 -21 1 -21 -10 0 -11 7 -14
23 -10 34 8 90 34 111 52 18 15 19 15 13 -1 -4 -10 -3 -18 1 -18 9 0 66 139
60 146 -3 2 -13 -16 -22 -40z"/>
<path d="M2084 4067 c0 -23 3 -32 8 -24 5 7 7 -5 4 -28 -5 -38 -5 -39 5 -10 8
24 7 39 -3 65 l-14 34 0 -37z"/>
<path d="M2408 4065 c3 -19 8 -23 15 -16 8 8 7 16 -5 27 -14 14 -15 14 -10
-11z"/>
<path d="M2175 3994 c-17 -35 -28 -64 -25 -64 3 0 16 -3 30 -5 23 -5 23 -5 4
4 l-22 10 25 51 c13 28 23 55 21 60 -2 4 -17 -21 -33 -56z"/>
<path d="M2321 4034 c0 -11 3 -14 6 -6 3 7 2 16 -1 19 -3 4 -6 -2 -5 -13z"/>
<path d="M1808 4010 c18 -8 22 -17 22 -55 0 -25 -4 -45 -10 -45 -5 0 -10 -5
-10 -11 0 -8 5 -8 15 1 15 13 20 74 9 104 -3 9 -16 16 -28 15 -21 0 -21 0 2
-9z"/>
<path d="M2442 3985 c0 -16 2 -22 5 -12 2 9 2 23 0 30 -3 6 -5 -1 -5 -18z"/>
<path d="M2046 3988 c3 -5 10 -6 15 -3 13 9 11 12 -6 12 -8 0 -12 -4 -9 -9z"/>
<path d="M2411 3977 c-1 -10 -13 -30 -28 -44 -16 -14 -22 -24 -14 -21 22 6 54
54 48 69 -4 10 -6 8 -6 -4z"/>
<path d="M1885 3959 c-4 -6 -5 -12 -2 -15 2 -3 7 2 10 11 7 17 1 20 -8 4z"/>
<path d="M2313 3933 c-12 -13 -19 -23 -14 -23 10 0 46 39 40 43 -2 2 -14 -7
-26 -20z"/>
<path d="M2046 3926 c23 -7 52 -21 65 -30 26 -18 64 -22 54 -6 -13 21 -85 50
-122 49 l-38 0 41 -13z"/>
<path d="M2007 3860 c7 -27 35 -49 71 -56 27 -5 32 -3 32 12 0 16 2 17 10 4 8
-12 10 -9 10 13 0 16 -4 26 -10 22 -5 -3 -10 -3 -10 2 0 4 -10 8 -22 8 -13 1
-37 4 -54 7 -28 6 -31 5 -27 -12z m68 -12 c3 3 3 -1 0 -10 -7 -17 -21 -18 -42
-5 -23 14 -14 27 11 17 13 -5 27 -6 31 -2z"/>
<path d="M2239 3813 c-13 -16 -12 -17 4 -4 9 7 17 15 17 17 0 8 -8 3 -21 -13z"/>
<path d="M2215 3779 c-4 -6 -5 -12 -2 -15 2 -3 7 2 10 11 7 17 1 20 -8 4z"/>
<path d="M2200 3715 c0 -45 -22 -55 -61 -26 -16 12 -29 18 -29 13 0 -15 60
-43 80 -37 16 5 20 15 20 46 0 21 -2 39 -5 39 -3 0 -5 -16 -5 -35z"/>
<path d="M2035 3620 c20 -66 59 -108 88 -96 7 2 4 5 -5 5 -10 1 -27 10 -38 21
-25 25 -27 49 -2 27 10 -10 22 -17 26 -17 5 0 -2 9 -15 20 l-24 19 40 -5 40
-5 -45 17 c-25 9 -51 21 -59 27 -11 10 -13 7 -6 -13z"/>
<path d="M2135 3613 c26 -6 44 -23 25 -23 -13 0 -13 -2 0 -10 9 -6 19 -5 28 2
11 9 9 14 -10 24 -13 8 -32 13 -43 12 l-20 0 20 -5z"/>
<path d="M1675 3800 c-3 -6 1 -7 9 -4 18 7 21 14 7 14 -6 0 -13 -4 -16 -10z"/>
<path d="M1645 3770 c-3 -5 1 -10 10 -10 9 0 13 5 10 10 -3 6 -8 10 -10 10 -2
0 -7 -4 -10 -10z"/>
<path d="M1447 3508 c12 -13 29 -39 37 -58 8 -19 15 -29 16 -22 0 23 -39 89
-57 96 -14 6 -13 3 4 -16z"/>
<path d="M1532 3335 c0 -16 2 -22 5 -12 2 9 2 23 0 30 -3 6 -5 -1 -5 -18z"/>
<path d="M1541 3265 c-2 -79 59 -504 67 -457 2 12 11 22 20 23 13 0 12 2 -4 9
-24 10 -26 17 -49 210 -27 227 -32 261 -34 215z"/>
<path d="M2255 3139 c-9 -17 -15 -33 -13 -35 3 -2 12 12 21 31 21 43 13 47 -8
4z"/>
<path d="M2310 3128 c-25 -22 -36 -36 -25 -30 19 10 84 72 74 72 -2 -1 -24
-19 -49 -42z"/>
<path d="M2226 3075 c-9 -26 -7 -32 5 -12 6 10 9 21 6 23 -2 3 -7 -2 -11 -11z"/>
<path d="M2190 3000 c-6 -11 -8 -20 -6 -20 3 0 10 9 16 20 6 11 8 20 6 20 -3
0 -10 -9 -16 -20z"/>
<path d="M1740 2850 c-9 -6 -10 -10 -3 -10 6 0 15 5 18 10 8 12 4 12 -15 0z"/>
<path d="M1698 2833 c7 -3 16 -2 19 1 4 3 -2 6 -13 5 -11 0 -14 -3 -6 -6z"/>
<path d="M1612 2740 c0 -14 2 -19 5 -12 2 6 2 18 0 25 -3 6 -5 1 -5 -13z"/>
<path d="M1622 2660 c0 -14 2 -19 5 -12 2 6 2 18 0 25 -3 6 -5 1 -5 -13z"/>
<path d="M1150 2600 c8 -5 20 -10 25 -10 6 0 3 5 -5 10 -8 5 -19 10 -25 10 -5
0 -3 -5 5 -10z"/>
<path d="M1198 2583 c7 -3 16 -2 19 1 4 3 -2 6 -13 5 -11 0 -14 -3 -6 -6z"/>
<path d="M1238 2573 c7 -3 16 -2 19 1 4 3 -2 6 -13 5 -11 0 -14 -3 -6 -6z"/>
<path d="M2606 2497 c-23 -12 -67 -23 -105 -27 -63 -5 -64 -6 -27 -12 59 -11
171 20 191 52 10 16 -17 10 -59 -13z"/>
<path d="M1648 2423 c7 -3 16 -2 19 1 4 3 -2 6 -13 5 -11 0 -14 -3 -6 -6z"/>
<path d="M1590 2369 c-41 -22 -79 -45 -85 -51 -5 -6 24 7 65 29 41 22 86 45
100 51 14 6 18 11 10 11 -8 0 -49 -18 -90 -40z"/>
<path d="M1556 2385 c-11 -8 -17 -17 -14 -20 2 -3 13 4 23 15 21 23 18 25 -9
5z"/>
<path d="M1390 2278 c0 -9 17 -28 38 -43 l37 -28 -35 39 c-19 21 -36 41 -37
43 -2 2 -3 -3 -3 -11z"/>
<path d="M1181 2196 c2 -2 65 -5 139 -8 81 -3 117 -2 90 3 -45 7 -237 12 -229
5z"/>
<path d="M1464 2193 c4 -8 -2 -14 -16 -17 -13 -3 -32 -7 -43 -9 -11 -3 -1 -5
23 -6 26 -1 42 3 42 11 0 6 10 2 23 -9 12 -11 29 -24 37 -28 16 -9 15 -8 -39
40 -19 17 -31 25 -27 18z"/>
<path d="M1298 2163 c12 -2 32 -2 45 0 12 2 2 4 -23 4 -25 0 -35 -2 -22 -4z"/>
<path d="M787 2149 c7 -7 15 -10 18 -7 3 3 -2 9 -12 12 -14 6 -15 5 -6 -5z"/>
<path d="M3380 2259 c-19 -10 -29 -19 -23 -19 7 0 27 9 45 20 42 26 24 25 -22
-1z"/>
<path d="M3204 2158 l-19 -23 23 19 c21 18 27 26 19 26 -2 0 -12 -10 -23 -22z"/>
<path d="M3008 2033 c7 -3 16 -2 19 1 4 3 -2 6 -13 5 -11 0 -14 -3 -6 -6z"/>
<path d="M3123 1952 c-8 -5 -3 -11 13 -19 13 -6 24 -7 24 -2 0 5 -5 9 -11 9
-5 0 -7 5 -4 10 7 12 -5 13 -22 2z"/>
<path d="M3106 1875 c-3 -8 -1 -15 3 -15 5 0 17 -3 26 -6 15 -6 15 -4 4 15
-16 25 -25 27 -33 6z"/>
<path d="M3030 1800 c-11 -7 -8 -8 13 -6 15 1 30 6 34 9 10 11 -30 8 -47 -3z"/>
<path d="M3150 1729 c-25 -9 -25 -9 3 -5 22 3 25 1 16 -10 -14 -17 -9 -17 26
-4 14 5 23 14 20 20 -7 12 -30 11 -65 -1z"/>
<path d="M3020 1680 c0 -5 4 -10 9 -10 6 0 13 5 16 10 3 6 -1 10 -9 10 -9 0
-16 -4 -16 -10z"/>
<path d="M3177 1679 c7 -7 15 -10 18 -7 3 3 -2 9 -12 12 -14 6 -15 5 -6 -5z"/>
<path d="M2850 1075 c-10 -12 -9 -16 5 -21 19 -8 40 9 31 25 -10 15 -21 14
-36 -4z m30 -5 c0 -5 -4 -10 -10 -10 -5 0 -10 5 -10 10 0 6 5 10 10 10 6 0 10
-4 10 -10z"/>
<path d="M3170 885 c0 -2 9 -9 20 -15 23 -12 64 -4 55 11 -6 9 -75 13 -75 4z"/>
<path d="M4395 1611 c-16 -4 -49 -16 -72 -26 -33 -14 -43 -24 -43 -41 0 -14
-8 -25 -20 -29 -11 -3 -25 -15 -30 -26 -14 -25 6 -34 60 -26 28 3 37 2 34 -7
-3 -7 2 -19 11 -26 13 -11 20 -10 45 9 21 15 30 18 30 8 0 -8 6 -14 13 -14 6
0 20 -4 29 -8 22 -9 52 36 43 66 -6 19 -4 20 24 14 40 -9 71 2 71 24 0 25 -18
38 -62 46 -24 5 -38 13 -41 26 -5 20 -33 23 -92 10z m85 -20 c0 -20 -30 -33
-50 -21 -20 13 -3 40 25 40 18 0 25 -5 25 -19z m-72 -14 c4 -21 -30 -24 -47
-3 -9 11 -9 15 1 19 22 9 43 2 46 -16z m-42 -21 c11 -9 30 -12 47 -9 15 3 27
1 27 -5 0 -11 -48 -23 -55 -13 -2 4 -23 8 -47 10 -47 2 -53 5 -43 20 9 15 48
14 71 -3z m206 -10 c20 -30 -4 -41 -64 -29 -78 16 -53 59 27 45 17 -2 33 -10
37 -16z m-217 -25 c10 -18 -46 -51 -88 -51 -36 0 -38 2 -26 17 27 31 101 54
114 34z m116 -20 c21 -17 22 -22 11 -46 -7 -14 -18 -25 -25 -22 -19 6 -41 52
-34 70 8 22 19 21 48 -2z m-61 -4 c0 -19 -56 -70 -69 -63 -22 14 19 76 51 76
10 0 18 -6 18 -13z"/>
<path d="M4412 1390 c0 -19 2 -27 5 -17 2 9 2 25 0 35 -3 9 -5 1 -5 -18z"/>
</g>
</svg>
