<?xml version="1.0" standalone="no"?>
<!DOCTYPE svg PUBLIC "-//W3C//DTD SVG 20010904//EN"
 "http://www.w3.org/TR/2001/REC-SVG-20010904/DTD/svg10.dtd">
<svg version="1.0" xmlns="http://www.w3.org/2000/svg"
 width="604.000000pt" height="413.000000pt" viewBox="0 0 604.000000 413.000000"
 preserveAspectRatio="xMidYMid meet">

<g transform="translate(0.000000,413.000000) scale(0.100000,-0.100000)"
fill="#fff" stroke="white" stroke-width="4">
<path d="M2721 4126 c2 -2 54 -5 114 -8 61 -3 97 -1 80 2 -31 8 -202 13 -194
6z"/>
<path d="M2678 4113 c6 -2 18 -2 25 0 6 3 1 5 -13 5 -14 0 -19 -2 -12 -5z"/>
<path d="M2595 4091 c-53 -25 -43 -26 20 -1 28 10 43 19 35 19 -8 0 -33 -8
-55 -18z"/>
<path d="M2999 4089 c30 -10 56 -17 58 -15 5 5 -86 36 -101 35 -6 0 13 -9 43
-20z"/>
<path d="M2499 4041 c-24 -16 -60 -46 -78 -65 -32 -33 -33 -36 -13 -36 12 0
37 -14 57 -31 l36 -32 -24 -26 c-34 -36 -87 -112 -87 -124 0 -5 18 17 39 50
38 56 81 104 81 89 0 -4 -10 -20 -21 -35 -25 -34 -20 -46 26 -65 21 -9 35 -23
38 -38 5 -22 5 -22 4 2 -2 18 -12 30 -39 43 -44 21 -45 26 -18 58 l20 24 42
-45 c24 -25 61 -65 82 -90 27 -32 32 -35 15 -11 -35 52 -208 229 -231 237 -19
6 -19 6 3 30 12 13 27 24 32 24 40 0 266 -205 352 -320 54 -73 72 -94 59 -68
-5 9 -38 53 -73 98 -72 91 -177 192 -263 253 -32 23 -58 45 -58 49 0 5 16 18
35 29 31 18 42 29 32 29 -2 0 -23 -13 -48 -29z"/>
<path d="M3071 4066 c10 -9 69 -36 69 -32 0 6 -55 36 -66 36 -4 0 -5 -2 -3 -4z"/>
<path d="M3150 4026 c0 -3 9 -10 20 -16 11 -6 20 -8 20 -6 0 3 -9 10 -20 16
-11 6 -20 8 -20 6z"/>
<path d="M3275 3940 c139 -120 246 -252 443 -547 67 -101 125 -183 127 -183 8
0 -231 355 -309 460 -76 102 -219 251 -276 289 -23 15 -17 8 15 -19z"/>
<path d="M2346 3943 c-13 -13 -37 -76 -31 -81 3 -3 6 1 6 9 1 8 5 -2 9 -21 7
-35 7 -35 10 13 1 26 3 52 4 58 0 7 10 15 21 20 14 5 16 8 4 8 -9 1 -19 -2
-23 -6z"/>
<path d="M2372 3860 c0 -14 2 -19 5 -12 2 6 2 18 0 25 -3 6 -5 1 -5 -13z"/>
<path d="M2292 3780 c0 -19 2 -27 5 -17 2 9 2 25 0 35 -3 9 -5 1 -5 -18z"/>
<path d="M2322 3770 c0 -19 2 -27 5 -17 2 9 2 25 0 35 -3 9 -5 1 -5 -18z"/>
<path d="M2371 3793 c-1 -6 -4 -20 -7 -30 -5 -17 -5 -17 6 0 6 10 9 23 6 30
-3 9 -5 9 -5 0z"/>
<path d="M2461 3745 c-1 -12 -6 -26 -12 -32 -7 -7 -9 -19 -6 -27 7 -17 42 -22
51 -7 4 5 -2 7 -13 4 -22 -6 -38 14 -23 29 8 8 16 7 27 -2 10 -8 15 -9 15 -1
0 6 -5 11 -10 11 -6 0 -15 10 -20 23 -8 21 -9 21 -9 2z"/>
<path d="M2312 3700 c0 -19 2 -27 5 -17 2 9 2 25 0 35 -3 9 -5 1 -5 -18z"/>
<path d="M2381 3694 c0 -11 3 -14 6 -6 3 7 2 16 -1 19 -3 4 -6 -2 -5 -13z"/>
<path d="M2551 3680 c0 -15 -4 -30 -8 -36 -5 -5 -2 -4 5 2 8 6 12 22 9 35 -4
24 -4 24 -6 -1z"/>
<path d="M3176 3675 c-9 -26 -7 -32 5 -12 6 10 9 21 6 23 -2 3 -7 -2 -11 -11z"/>
<path d="M3310 3676 c0 -8 92 -171 102 -181 6 -5 -4 16 -22 48 -17 32 -30 60
-28 63 15 14 294 -325 418 -508 79 -118 124 -177 85 -113 -77 127 -252 361
-366 490 -80 90 -189 207 -189 201z"/>
<path d="M2375 3646 c-10 -14 -15 -29 -11 -33 3 -3 6 -2 6 3 0 5 4 16 9 23 8
13 13 12 28 -6 25 -28 87 -37 105 -15 11 15 11 15 -2 6 -26 -19 -89 -5 -104
24 l-13 25 -18 -27z"/>
<path d="M2431 3654 c0 -11 3 -14 6 -6 3 7 2 16 -1 19 -3 4 -6 -2 -5 -13z"/>
<path d="M2730 3595 c48 -77 59 -105 42 -105 -5 0 -17 -7 -28 -16 -19 -15 -19
-15 1 -11 11 3 28 8 37 12 12 5 22 -3 38 -32 12 -21 19 -30 15 -19 -8 27 -109
196 -134 226 -12 14 1 -11 29 -55z"/>
<path d="M2296 3649 c-2 -8 -9 -57 -16 -109 -9 -80 -34 -170 -84 -305 -4 -11
2 -4 14 15 18 29 20 31 16 10 -3 -14 -7 -45 -10 -70 -4 -36 -4 -39 3 -15 8 29
9 28 11 -15 2 -25 6 5 10 65 5 61 15 137 24 170 20 78 48 256 42 263 -3 3 -8
-1 -10 -9z"/>
<path d="M3162 3585 c1 -33 3 -49 5 -36 4 20 8 16 28 -28 13 -28 27 -51 30
-51 3 0 -2 15 -11 33 -10 17 -25 57 -35 87 l-17 55 0 -60z"/>
<path d="M2351 3569 c0 -19 4 -43 9 -54 6 -13 7 -2 3 30 -7 59 -13 72 -12 24z"/>
<path d="M2906 3545 c15 -27 32 -54 37 -60 15 -16 -29 68 -48 90 -9 11 -4 -2
11 -30z"/>
<path d="M3171 3504 c0 -11 3 -14 6 -6 3 7 2 16 -1 19 -3 4 -6 -2 -5 -13z"/>
<path d="M2330 3481 c-5 -11 -10 -30 -9 -43 1 -18 3 -17 8 8 4 17 11 36 15 42
4 7 5 12 2 12 -3 0 -10 -9 -16 -19z"/>
<path d="M2371 3488 c-1 -4 4 -19 10 -35 7 -15 15 -44 19 -63 7 -31 8 -32 9
-7 1 23 5 27 29 27 33 0 59 -17 65 -45 4 -18 5 -17 6 3 1 32 -44 72 -84 72
-25 0 -33 6 -42 28 -6 15 -11 24 -12 20z m77 -65 c-10 -2 -26 -2 -35 0 -10 3
-2 5 17 5 19 0 27 -2 18 -5z"/>
<path d="M2598 3474 c-30 -16 -47 -59 -30 -76 6 -6 14 -3 24 11 8 11 30 27 49
35 19 9 28 15 21 16 -20 0 -55 -20 -74 -44 l-18 -21 0 22 c0 42 32 59 120 66
42 3 41 4 -10 5 -32 1 -66 -5 -82 -14z"/>
<path d="M3180 3475 c0 -33 71 -124 166 -211 143 -131 215 -203 243 -239 l22
-30 -18 34 c-10 18 -58 70 -107 115 -194 177 -244 229 -275 284 -17 31 -31 53
-31 47z"/>
<path d="M3435 3455 c70 -116 316 -446 406 -545 36 -41 35 -40 -147 195 -60
77 -142 190 -183 250 -71 106 -114 162 -76 100z"/>
<path d="M2688 3463 c7 -3 16 -2 19 1 4 3 -2 6 -13 5 -11 0 -14 -3 -6 -6z"/>
<path d="M3240 3443 c7 -10 86 -90 175 -178 156 -154 164 -164 216 -267 29
-59 55 -105 57 -103 2 2 -20 50 -49 107 -50 99 -59 110 -233 281 -99 98 -174
170 -166 160z"/>
<path d="M2971 3425 c0 -5 8 -26 19 -45 11 -19 19 -30 19 -25 0 6 -8 26 -19
45 -11 19 -19 31 -19 25z"/>
<path d="M2322 3375 c0 -16 2 -22 5 -12 2 9 2 23 0 30 -3 6 -5 -1 -5 -18z"/>
<path d="M2841 3395 c0 -5 8 -26 19 -45 11 -19 19 -30 19 -25 0 6 -8 26 -19
45 -11 19 -19 31 -19 25z"/>
<path d="M2412 3292 c-2 -70 8 -98 68 -178 l39 -51 -26 -39 c-35 -53 -71 -91
-117 -125 -21 -16 -35 -29 -30 -29 31 1 174 152 174 185 0 5 17 -7 38 -27 39
-38 72 -58 94 -58 7 0 -5 9 -27 19 -46 20 -132 110 -173 179 -19 34 -29 66
-33 117 l-6 70 -1 -63z"/>
<path d="M2512 3310 c0 -19 2 -27 5 -17 2 9 2 25 0 35 -3 9 -5 1 -5 -18z"/>
<path d="M3010 3335 c0 -5 5 -17 10 -25 5 -8 10 -10 10 -5 0 6 -5 17 -10 25
-5 8 -10 11 -10 5z"/>
<path d="M2342 3305 c0 -5 6 -26 13 -45 7 -19 14 -28 14 -20 0 8 -6 29 -14 45
-7 17 -13 26 -13 20z"/>
<path d="M2880 3305 c0 -5 5 -17 10 -25 5 -8 10 -10 10 -5 0 6 -5 17 -10 25
-5 8 -10 11 -10 5z"/>
<path d="M2504 3220 c1 -38 4 -45 22 -48 11 -2 27 4 34 13 7 8 21 15 32 15 24
0 34 26 18 45 -14 16 -40 20 -40 6 0 -5 8 -8 17 -7 10 0 19 -7 21 -16 3 -13
-3 -18 -21 -18 -14 0 -27 -7 -31 -15 -3 -8 -14 -15 -25 -15 -16 0 -21 8 -24
43 l-4 42 1 -45z"/>
<path d="M3040 3266 c0 -4 14 -36 32 -70 35 -66 150 -188 231 -244 72 -51 56
-32 -28 33 -97 74 -152 136 -198 222 -20 37 -37 64 -37 59z"/>
<path d="M2904 3250 c9 -32 39 -101 43 -97 2 3 -8 29 -22 58 -14 30 -23 47
-21 39z"/>
<path d="M2372 3163 c-1 -34 -5 -70 -8 -80 -5 -17 -5 -17 6 -1 6 10 9 45 7 80
l-3 63 -2 -62z"/>
<path d="M2137 3114 c-26 -52 -47 -98 -46 -102 0 -4 23 37 50 92 28 54 49 100
47 102 -2 2 -25 -39 -51 -92z"/>
<path d="M2605 3150 c-3 -5 -12 -7 -20 -3 -8 3 -15 1 -15 -4 0 -5 9 -9 20 -10
11 -1 20 2 20 7 0 5 7 7 15 4 33 -13 14 -26 -30 -22 -53 6 -60 -9 -16 -35 38
-22 66 -22 91 3 26 26 27 60 1 53 -10 -3 -28 0 -39 6 -13 7 -23 7 -27 1z m75
-29 c0 -17 -31 -41 -54 -41 -12 0 -31 7 -42 15 -18 14 -17 14 16 15 19 0 42 5
50 10 19 12 30 13 30 1z"/>
<path d="M2881 3108 c-32 -47 -84 -99 -116 -116 -11 -6 -14 -12 -7 -12 18 0
99 77 134 127 16 24 27 43 24 43 -3 0 -18 -19 -35 -42z"/>
<path d="M2203 3105 c0 -22 2 -30 4 -17 2 12 2 30 0 40 -3 9 -5 -1 -4 -23z"/>
<path d="M2950 3135 c0 -5 5 -17 10 -25 5 -8 10 -10 10 -5 0 6 -5 17 -10 25
-5 8 -10 11 -10 5z"/>
<path d="M2223 3040 c0 -41 2 -58 4 -37 2 20 2 54 0 75 -2 20 -4 3 -4 -38z"/>
<path d="M2980 3066 c0 -11 40 -86 45 -86 3 0 -4 19 -16 43 -23 45 -29 54 -29
43z"/>
<path d="M2335 3034 c-9 -15 -12 -23 -6 -20 11 7 35 46 28 46 -3 0 -12 -12
-22 -26z"/>
<path d="M2193 2975 c0 -44 2 -61 4 -37 2 23 2 59 0 80 -2 20 -4 1 -4 -43z"/>
<path d="M2930 2995 c0 -5 5 -17 10 -25 5 -8 10 -10 10 -5 0 6 -5 17 -10 25
-5 8 -10 11 -10 5z"/>
<path d="M3621 2970 c14 -31 19 -36 19 -24 0 6 -7 19 -16 30 -14 18 -14 18 -3
-6z"/>
<path d="M4005 2966 c10 -14 19 -26 22 -26 7 0 -17 39 -28 46 -6 3 -3 -5 6
-20z"/>
<path d="M2057 2945 c-24 -50 -20 -58 4 -12 11 22 19 41 17 43 -3 2 -12 -12
-21 -31z"/>
<path d="M2691 2973 c-19 -4 -21 -7 -10 -14 10 -6 10 -9 2 -9 -7 0 -13 -5 -13
-12 0 -6 7 -4 18 5 10 10 24 17 30 17 19 0 14 -71 -5 -94 -16 -19 -16 -19 -1
-7 9 7 22 10 29 6 8 -5 9 1 5 21 -3 16 -7 44 -8 62 -1 17 -7 31 -13 31 -5 -1
-21 -4 -34 -6z"/>
<path d="M3040 2950 c6 -11 13 -20 16 -20 2 0 0 9 -6 20 -6 11 -13 20 -16 20
-2 0 0 -9 6 -20z"/>
<path d="M2207 2897 c-5 -32 -6 -61 -3 -64 3 -4 -14 -27 -38 -53 -24 -25 -49
-57 -55 -71 l-12 -24 18 25 c9 14 37 45 62 70 l46 45 -5 65 -5 65 -8 -58z"/>
<path d="M2761 2929 c0 -13 4 -33 9 -44 7 -14 8 -8 3 20 -7 46 -13 59 -12 24z"/>
<path d="M3892 2930 c8 -14 27 -46 42 -72 15 -27 30 -48 33 -48 6 0 -49 96
-71 123 l-18 22 14 -25z"/>
<path d="M2969 2913 c5 -10 22 -29 37 -43 24 -22 23 -20 -6 18 -35 44 -47 54
-31 25z"/>
<path d="M3640 2925 c0 -5 5 -17 10 -25 5 -8 10 -10 10 -5 0 6 -5 17 -10 25
-5 8 -10 11 -10 5z"/>
<path d="M4045 2906 c10 -14 19 -26 22 -26 7 0 -17 39 -28 46 -6 3 -3 -5 6
-20z"/>
<path d="M2682 2904 c9 -9 21 -15 27 -13 6 2 -2 10 -17 17 -25 11 -25 11 -10
-4z"/>
<path d="M3070 2905 c8 -11 23 -30 33 -42 l19 -22 -92 -95 c-51 -53 -99 -96
-106 -96 -21 0 -61 50 -96 117 -18 34 -34 60 -36 58 -7 -7 62 -127 89 -156 15
-16 35 -29 44 -29 9 0 57 43 107 95 89 93 108 108 108 83 0 -19 -140 -180
-160 -185 -10 -3 -20 -13 -23 -24 -7 -25 -33 -34 -52 -19 -20 17 -19 30 3 30
10 1 4 6 -14 14 -37 16 -74 62 -106 131 -22 48 -24 49 -40 33 -10 -10 -13 -19
-8 -19 6 -1 15 -2 21 -3 10 -1 38 -43 39 -58 0 -5 -11 -8 -25 -8 -24 0 -29 8
-26 40 2 13 0 13 -8 1 -15 -23 5 -51 37 -51 19 0 39 -11 60 -33 37 -39 39 -47
12 -47 -14 0 -26 11 -35 33 -8 17 -14 25 -15 17 0 -28 31 -61 53 -58 13 2 29
-6 40 -19 22 -27 40 -29 61 -7 9 8 21 12 28 8 10 -6 10 -4 2 7 -9 11 -5 19 17
37 26 21 30 22 36 6 3 -9 0 -26 -7 -38 -12 -19 -12 -20 4 -7 11 9 16 26 15 46
-2 20 5 42 19 61 l21 29 1 -37 c0 -21 -5 -38 -12 -41 -8 -2 -7 -3 2 -3 9 1 16
13 18 29 3 27 4 28 27 13 24 -16 35 -12 35 13 0 13 -2 14 -9 2 -8 -12 -13 -12
-36 3 -25 17 -26 18 -10 37 20 21 35 17 35 -9 0 -12 3 -13 8 -5 9 14 78 20
107 9 11 -5 -3 6 -31 22 -28 17 -78 59 -110 94 -32 35 -52 54 -44 43z m140
-142 c0 -7 -56 -2 -69 6 -12 8 -12 12 -2 25 11 14 16 13 42 -6 16 -12 29 -23
29 -25z"/>
<path d="M3370 2909 c8 -9 51 -45 95 -81 79 -65 234 -220 329 -328 40 -46 43
-48 15 -10 -74 100 -325 342 -434 420 -18 12 -18 12 -5 -1z"/>
<path d="M2026 2875 c-9 -26 -7 -32 5 -12 6 10 9 21 6 23 -2 3 -7 -2 -11 -11z"/>
<path d="M3666 2860 c4 -14 13 -38 20 -55 11 -24 13 -25 8 -5 -4 14 -13 39
-20 55 -11 24 -13 25 -8 5z"/>
<path d="M3691 2875 c0 -5 8 -26 19 -45 11 -19 19 -30 19 -25 0 6 -8 26 -19
45 -11 19 -19 31 -19 25z"/>
<path d="M2275 2851 c-22 -11 -35 -19 -30 -19 14 -1 93 36 80 37 -5 0 -28 -8
-50 -18z"/>
<path d="M3978 2727 c59 -78 118 -165 130 -193 13 -28 30 -51 37 -51 15 0 14
3 -25 62 -15 22 -42 68 -59 103 -30 59 -47 82 -34 45 8 -24 -1 -14 -81 90 -37
48 -69 87 -71 87 -2 0 44 -64 103 -143z"/>
<path d="M4390 2390 c176 -264 322 -480 325 -480 3 0 -139 216 -315 480 -176
264 -322 480 -325 480 -3 0 139 -216 315 -480z"/>
<path d="M2691 2829 c-1 -9 7 -23 17 -30 15 -12 16 -12 6 1 -6 8 -14 22 -17
30 -5 13 -6 12 -6 -1z"/>
<path d="M2563 2750 c0 -47 2 -66 4 -42 2 23 2 61 0 85 -2 23 -4 4 -4 -43z"/>
<path d="M2513 2755 c0 -33 2 -45 4 -27 2 18 2 45 0 60 -2 15 -4 0 -4 -33z"/>
<path d="M3990 2760 c11 -22 23 -40 25 -40 3 0 -4 18 -15 40 -11 22 -23 40
-25 40 -3 0 4 -18 15 -40z"/>
<path d="M3730 2787 c0 -16 61 -127 113 -205 30 -45 52 -82 48 -82 -12 0 -103
111 -137 167 -19 31 -34 52 -34 46 0 -25 90 -145 165 -218 153 -150 289 -343
336 -475 13 -36 26 -66 30 -68 4 -2 5 -13 2 -25 -4 -18 -3 -19 7 -7 9 12 10 9
6 -15 -3 -16 -2 -46 3 -65 5 -20 9 -26 10 -15 1 11 4 31 6 45 5 22 4 23 -5 5
-9 -16 -9 -14 -5 14 11 73 -127 329 -264 488 -105 122 -176 222 -236 335 -25
46 -45 79 -45 75z"/>
<path d="M1986 2754 c-4 -14 -5 -28 -3 -31 3 -2 8 8 11 23 4 14 5 28 3 31 -3
2 -8 -8 -11 -23z"/>
<path d="M2644 2660 c0 -63 1 -89 3 -57 2 31 2 83 0 115 -2 31 -3 5 -3 -58z"/>
<path d="M3700 2765 c0 -5 5 -17 10 -25 5 -8 10 -10 10 -5 0 6 -5 17 -10 25
-5 8 -10 11 -10 5z"/>
<path d="M3322 2720 c21 -13 110 -41 116 -36 2 2 -21 12 -50 21 -80 27 -85 28
-66 15z"/>
<path d="M1972 2690 c0 -14 2 -19 5 -12 2 6 2 18 0 25 -3 6 -5 1 -5 -13z"/>
<path d="M3274 2681 c-39 -23 -71 -65 -115 -151 -41 -78 -138 -183 -266 -287
-51 -41 -93 -78 -93 -81 0 -3 8 1 18 10 9 8 68 56 130 108 116 96 184 175 229
265 39 77 72 115 117 136 22 10 34 19 26 19 -8 0 -29 -9 -46 -19z"/>
<path d="M2523 2625 c0 -33 2 -45 4 -27 2 18 2 45 0 60 -2 15 -4 0 -4 -33z"/>
<path d="M3451 2676 c2 -2 15 -9 29 -15 24 -11 24 -11 6 3 -16 13 -49 24 -35
12z"/>
<path d="M1963 2625 c0 -22 2 -30 4 -17 2 12 2 30 0 40 -3 9 -5 -1 -4 -23z"/>
<path d="M2572 2635 c0 -16 2 -22 5 -12 2 9 2 23 0 30 -3 6 -5 -1 -5 -18z"/>
<path d="M3510 2647 c0 -2 25 -21 56 -42 30 -21 83 -68 116 -104 35 -38 47
-48 29 -24 -37 49 -125 130 -170 156 -17 10 -31 16 -31 14z"/>
<path d="M2057 2605 c-24 -50 -20 -58 4 -12 11 22 19 41 17 43 -3 2 -12 -12
-21 -31z"/>
<path d="M1080 2620 c37 -5 40 -7 20 -12 -19 -4 -18 -5 6 -3 28 3 30 1 26 -21
-4 -21 -10 -24 -48 -24 -31 0 -44 4 -44 14 0 8 5 17 10 19 6 3 5 4 -2 3 -7 -2
-13 -11 -13 -22 0 -16 7 -19 50 -19 44 0 50 3 55 24 5 21 7 22 19 7 17 -20 -1
-45 -33 -47 -16 -1 -17 -2 -4 -6 9 -2 26 1 37 7 16 8 21 8 21 -1 0 -7 3 -9 6
-6 13 12 -19 68 -47 82 -15 8 -45 14 -66 13 l-38 -1 45 -7z"/>
<path d="M995 2590 c-11 -20 -15 -49 -12 -83 l3 -52 2 53 c2 54 8 61 32 40 8
-7 6 -3 -4 10 -18 21 -18 23 -1 42 10 11 13 20 7 20 -6 0 -19 -14 -27 -30z"/>
<path d="M2533 2495 c0 -33 2 -45 4 -27 2 18 2 45 0 60 -2 15 -4 0 -4 -33z"/>
<path d="M1053 2533 c9 -2 23 -2 30 0 6 3 -1 5 -18 5 -16 0 -22 -2 -12 -5z"/>
<path d="M2330 2503 c-36 -19 -54 -31 -40 -28 27 8 110 53 110 60 0 6 7 9 -70
-32z"/>
<path d="M4220 2538 c0 -9 91 -128 97 -128 2 0 -10 19 -27 43 -49 68 -70 92
-70 85z"/>
<path d="M2011 2503 c-10 -26 -10 -27 4 -9 8 11 15 23 15 28 0 15 -7 8 -19
-19z"/>
<path d="M1190 2372 l-5 -153 40 -10 c79 -21 137 -52 149 -78 9 -23 15 -26 41
-20 l30 7 -27 1 c-17 1 -32 9 -38 22 -13 23 -96 65 -147 75 l-32 6 -3 152 -3
151 -5 -153z"/>
<path d="M1966 2465 c5 -64 -66 -148 -171 -203 -22 -12 -36 -21 -32 -22 13 0
69 30 105 57 42 32 126 144 113 152 -5 3 -11 17 -14 31 -2 14 -3 7 -1 -15z"/>
<path d="M3486 2485 c-3 -9 -6 -22 -5 -28 0 -7 5 -1 10 12 5 13 8 26 5 28 -2
2 -6 -3 -10 -12z"/>
<path d="M2224 2464 c-7 -3 -41 -9 -75 -14 l-64 -9 65 4 c56 3 143 24 100 24
-8 -1 -20 -3 -26 -5z"/>
<path d="M4141 2465 c0 -5 8 -26 19 -45 11 -19 19 -30 19 -25 0 6 -8 26 -19
45 -11 19 -19 31 -19 25z"/>
<path d="M4181 2435 c12 -22 26 -44 32 -50 15 -16 -20 48 -38 70 -9 11 -7 2 6
-20z"/>
<path d="M3451 2394 c-23 -42 -66 -87 -121 -127 -24 -17 -24 -17 -2 -6 39 18
101 79 129 126 14 24 24 46 21 48 -2 2 -14 -16 -27 -41z"/>
<path d="M3570 2421 c5 -11 15 -23 21 -27 6 -3 3 5 -6 20 -20 30 -30 35 -15 7z"/>
<path d="M3840 2436 c0 -2 8 -10 18 -17 15 -13 16 -12 3 4 -13 16 -21 21 -21
13z"/>
<path d="M3755 2406 c10 -14 19 -26 22 -26 7 0 -17 39 -28 46 -6 3 -3 -5 6
-20z"/>
<path d="M2543 2375 c0 -27 2 -38 4 -22 2 15 2 37 0 50 -2 12 -4 0 -4 -28z"/>
<path d="M984 2315 c0 -49 1 -71 3 -48 2 23 2 64 0 90 -2 26 -3 8 -3 -42z"/>
<path d="M3890 2370 c12 -16 24 -30 26 -30 3 0 -4 14 -16 30 -12 17 -24 30
-26 30 -3 0 4 -13 16 -30z"/>
<path d="M3617 2345 c9 -19 18 -33 21 -31 4 5 -26 66 -33 66 -3 0 3 -16 12
-35z"/>
<path d="M4180 2375 c0 -5 5 -17 10 -25 5 -8 10 -10 10 -5 0 6 -5 17 -10 25
-5 8 -10 11 -10 5z"/>
<path d="M3812 2305 c18 -35 34 -63 36 -61 4 5 -56 126 -63 126 -3 0 10 -29
27 -65z"/>
<path d="M4267 2275 c26 -52 49 -93 51 -91 4 5 -86 186 -93 186 -3 0 16 -43
42 -95z"/>
<path d="M2485 2264 c-52 -49 -215 -184 -301 -252 l-29 -23 28 17 c26 16 29
16 43 -2 14 -18 15 -18 5 3 -10 19 0 30 102 114 61 51 135 115 163 141 51 48
52 48 58 24 14 -56 104 -126 161 -125 11 0 -5 8 -35 19 -61 21 -107 65 -117
111 -3 16 -8 29 -12 29 -3 -1 -33 -26 -66 -56z"/>
<path d="M4210 2305 c0 -5 5 -17 10 -25 5 -8 10 -10 10 -5 0 6 -5 17 -10 25
-5 8 -10 11 -10 5z"/>
<path d="M4389 2295 c5 -11 17 -29 26 -40 l16 -20 -10 20 c-5 11 -17 29 -26
40 l-16 20 10 -20z"/>
<path d="M2636 2277 c2 -7 14 -19 27 -26 21 -13 21 -12 -2 13 -27 29 -33 32
-25 13z"/>
<path d="M3972 2250 c8 -14 30 -51 48 -82 17 -32 34 -58 37 -58 7 0 -58 115
-80 142 l-19 23 14 -25z"/>
<path d="M2397 2254 c-3 -3 -23 -12 -44 -19 -21 -8 -29 -14 -18 -14 21 0 98
38 79 39 -6 0 -13 -3 -17 -6z"/>
<path d="M2068 2243 c7 -3 16 -2 19 1 4 3 -2 6 -13 5 -11 0 -14 -3 -6 -6z"/>
<path d="M1680 2225 c-25 -7 -36 -13 -25 -13 11 0 38 5 60 13 52 17 24 17 -35
0z"/>
<path d="M2108 2233 c6 -2 18 -2 25 0 6 3 1 5 -13 5 -14 0 -19 -2 -12 -5z"/>
<path d="M2700 2230 c8 -5 24 -10 34 -10 26 0 18 6 -19 14 -22 5 -26 4 -15 -4z"/>
<path d="M3250 2230 c-8 -5 -10 -10 -5 -10 6 0 17 5 25 10 8 5 11 10 5 10 -5
0 -17 -5 -25 -10z"/>
<path d="M2168 2223 c12 -2 32 -2 45 0 12 2 2 4 -23 4 -25 0 -35 -2 -22 -4z"/>
<path d="M3600 2221 c-14 -5 18 -6 70 -4 52 3 100 6 105 8 21 7 -151 3 -175
-4z"/>
<path d="M3845 2217 c-7 -7 0 -21 22 -43 18 -19 39 -47 48 -64 8 -16 18 -30
21 -30 6 0 -14 38 -40 75 -12 16 -25 39 -31 51 -7 15 -13 19 -20 11z"/>
<path d="M4240 2225 c0 -5 5 -17 10 -25 5 -8 10 -10 10 -5 0 6 -5 17 -10 25
-5 8 -10 11 -10 5z"/>
<path d="M4445 2200 c9 -16 18 -30 21 -30 2 0 -2 14 -11 30 -9 17 -18 30 -21
30 -2 0 2 -13 11 -30z"/>
<path d="M1101 2194 c-19 -13 -29 -24 -24 -24 6 0 21 8 34 19 13 10 31 21 39
24 13 5 13 5 0 5 -8 0 -30 -11 -49 -24z"/>
<path d="M2258 2213 c12 -2 30 -2 40 0 9 3 -1 5 -23 4 -22 0 -30 -2 -17 -4z"/>
<path d="M3798 2213 c7 -3 16 -2 19 1 4 3 -2 6 -13 5 -11 0 -14 -3 -6 -6z"/>
<path d="M1608 2203 c7 -3 16 -2 19 1 4 3 -2 6 -13 5 -11 0 -14 -3 -6 -6z"/>
<path d="M3178 2203 c7 -3 16 -2 19 1 4 3 -2 6 -13 5 -11 0 -14 -3 -6 -6z"/>
<path d="M3535 2200 c-11 -5 -15 -9 -8 -9 29 -2 -10 -56 -122 -166 -66 -66
-131 -136 -144 -155 -21 -32 -20 -32 10 5 18 22 86 92 151 156 65 63 118 122
118 131 0 9 7 24 16 32 17 17 10 19 -21 6z"/>
<path d="M3123 2193 c9 -2 23 -2 30 0 6 3 -1 5 -18 5 -16 0 -22 -2 -12 -5z"/>
<path d="M916 2159 c-14 -17 -26 -38 -26 -47 1 -9 7 -3 14 14 8 17 24 39 37
48 13 9 18 16 12 16 -6 0 -23 -14 -37 -31z"/>
<path d="M989 2181 c8 -5 11 -16 6 -30 -10 -32 11 -51 54 -50 l36 2 -40 6
c-53 8 -60 36 -13 50 31 9 32 9 6 10 -15 1 -30 6 -33 11 -3 6 -12 10 -18 10
-8 0 -8 -3 2 -9z"/>
<path d="M1537 2172 c-24 -26 -21 -37 18 -81 44 -48 65 -98 65 -153 0 -77 -7
-88 -53 -88 -86 0 -26 -8 98 -13 72 -3 119 -2 105 2 -24 8 -23 8 10 13 19 3
-9 2 -64 0 -82 -4 -98 -3 -94 9 3 9 25 16 59 20 l54 6 -52 1 c-61 2 -71 19
-15 25 l37 4 -37 1 c-35 2 -38 4 -38 32 0 22 5 30 18 31 13 0 12 2 -5 9 -13 5
-23 14 -23 20 0 6 -15 32 -32 58 -18 26 -32 50 -30 55 1 4 -5 7 -13 7 -20 0
-19 19 2 42 9 10 14 18 11 18 -3 0 -12 -8 -21 -18z"/>
<path d="M3078 2183 c7 -3 16 -2 19 1 4 3 -2 6 -13 5 -11 0 -14 -3 -6 -6z"/>
<path d="M3458 2169 c-21 -11 -38 -22 -38 -24 0 -5 79 32 89 41 12 11 -18 1
-51 -17z"/>
<path d="M1273 2150 c15 -12 35 -32 47 -47 11 -14 20 -21 20 -16 0 13 -70 83
-83 83 -5 0 2 -9 16 -20z"/>
<path d="M1605 2149 c-22 -10 -34 -19 -27 -19 15 0 72 28 72 35 0 6 3 7 -45
-16z"/>
<path d="M4320 2165 c0 -5 5 -17 10 -25 5 -8 10 -10 10 -5 0 6 -5 17 -10 25
-5 8 -10 11 -10 5z"/>
<path d="M1760 2155 c0 -7 81 -47 86 -43 2 3 -17 14 -41 26 -25 12 -45 20 -45
17z"/>
<path d="M2753 2153 c16 -4 15 -6 -5 -25 -20 -17 -19 -17 10 2 39 26 40 30 5
29 -18 -1 -21 -3 -10 -6z"/>
<path d="M1460 2129 c-7 -11 -9 -23 -7 -26 3 -2 8 5 12 16 3 11 16 22 28 24
l22 4 -22 2 c-13 0 -27 -7 -33 -20z"/>
<path d="M4276 2130 c3 -14 11 -32 16 -40 6 -10 7 -7 2 10 -3 14 -11 32 -16
40 -6 10 -7 7 -2 -10z"/>
<path d="M3323 2080 c-43 -32 -136 -114 -208 -181 -71 -67 -159 -142 -195
-167 -73 -51 -95 -70 -65 -54 48 24 150 107 282 230 78 72 171 152 205 178 71
52 74 54 65 54 -3 0 -41 -27 -84 -60z"/>
<path d="M3475 2130 c-3 -6 1 -7 9 -4 18 7 21 14 7 14 -6 0 -13 -4 -16 -10z"/>
<path d="M4517 2065 c20 -41 39 -73 41 -71 4 5 -66 146 -73 146 -3 0 12 -34
32 -75z"/>
<path d="M1125 2120 l-40 -7 43 -2 c23 0 42 4 42 9 0 6 -1 9 -2 9 -2 -1 -21
-5 -43 -9z"/>
<path d="M3417 2095 c-20 -14 -37 -28 -37 -31 0 -2 18 8 40 22 35 23 47 34 37
34 -1 0 -19 -11 -40 -25z"/>
<path d="M4340 2115 c0 -5 5 -17 10 -25 5 -8 10 -10 10 -5 0 6 -5 17 -10 25
-5 8 -10 11 -10 5z"/>
<path d="M1870 2100 c8 -5 22 -9 30 -9 10 0 8 3 -5 9 -27 12 -43 12 -25 0z"/>
<path d="M1675 2090 c-3 -6 1 -7 9 -4 18 7 21 14 7 14 -6 0 -13 -4 -16 -10z"/>
<path d="M4113 1990 c28 -60 53 -108 55 -106 4 5 -95 216 -101 216 -3 0 18
-49 46 -110z"/>
<path d="M882 2060 c0 -19 2 -27 5 -17 2 9 2 25 0 35 -3 9 -5 1 -5 -18z"/>
<path d="M1933 2083 c9 -2 23 -2 30 0 6 3 -1 5 -18 5 -16 0 -22 -2 -12 -5z"/>
<path d="M2063 2083 c9 -2 23 -2 30 0 6 3 -1 5 -18 5 -16 0 -22 -2 -12 -5z"/>
<path d="M2664 2074 c-18 -14 -18 -15 4 -4 12 6 22 13 22 15 0 8 -5 6 -26 -11z"/>
<path d="M1393 2020 c0 -36 2 -50 4 -32 2 17 2 47 0 65 -2 17 -4 3 -4 -33z"/>
<path d="M3960 2030 c11 -22 23 -40 25 -40 3 0 -4 18 -15 40 -11 22 -23 40
-25 40 -3 0 4 -18 15 -40z"/>
<path d="M1145 2050 c-30 -8 -25 -10 30 -14 15 -1 19 -7 18 -26 -3 -22 -2 -23
8 -6 17 28 -16 55 -56 46z"/>
<path d="M1471 2044 c0 -11 3 -14 6 -6 3 7 2 16 -1 19 -3 4 -6 -2 -5 -13z"/>
<path d="M2600 2040 c-19 -11 -31 -19 -27 -20 11 0 67 29 67 35 0 7 -1 7 -40
-15z"/>
<path d="M3281 1984 c-45 -42 -95 -95 -112 -117 -19 -25 -8 -16 25 20 31 34
85 87 119 118 34 30 59 55 55 55 -3 0 -43 -34 -87 -76z"/>
<path d="M970 2029 c0 -12 44 -15 110 -8 71 7 60 10 -42 12 -38 1 -68 -1 -68
-4z"/>
<path d="M4312 2030 c0 -8 6 -31 13 -50 7 -19 13 -28 13 -20 0 8 -6 31 -13 50
-7 19 -13 28 -13 20z"/>
<path d="M1318 2008 c-7 -13 -13 -39 -13 -58 0 -26 -6 -37 -25 -47 -16 -8 -19
-13 -9 -13 27 0 52 36 45 65 -4 16 0 34 10 50 9 14 14 25 11 25 -4 0 -12 -10
-19 -22z"/>
<path d="M892 1995 c0 -16 2 -22 5 -12 2 9 2 23 0 30 -3 6 -5 -1 -5 -18z"/>
<path d="M1720 2010 c-8 -5 -10 -10 -5 -10 6 0 17 5 25 10 8 5 11 10 5 10 -5
0 -17 -5 -25 -10z"/>
<path d="M2530 2010 c-8 -5 -10 -10 -5 -10 6 0 17 5 25 10 8 5 11 10 5 10 -5
0 -17 -5 -25 -10z"/>
<path d="M1483 1975 c0 -22 2 -30 4 -17 2 12 2 30 0 40 -3 9 -5 -1 -4 -23z"/>
<path d="M4381 2000 c0 -8 4 -24 9 -35 5 -13 9 -14 9 -5 0 8 -4 24 -9 35 -5
13 -9 14 -9 5z"/>
<path d="M1678 1993 c7 -3 16 -2 19 1 4 3 -2 6 -13 5 -11 0 -14 -3 -6 -6z"/>
<path d="M2900 1996 c0 -2 7 -7 16 -10 8 -3 12 -2 9 4 -6 10 -25 14 -25 6z"/>
<path d="M1088 1962 c-48 -14 -86 -27 -84 -30 3 -2 41 6 86 17 46 11 86 18 91
15 13 -8 11 -40 -3 -51 -19 -14 -90 -33 -129 -34 -28 -1 -29 -3 -9 -6 34 -7
132 18 147 37 7 8 12 22 12 30 0 8 -5 22 -12 31 -11 14 -20 13 -99 -9z"/>
<path d="M2065 1944 c-90 -49 -95 -60 -7 -15 51 26 105 61 92 60 -3 0 -41 -20
-85 -45z"/>
<path d="M2420 1975 c-19 -7 -28 -13 -20 -13 8 0 31 6 50 13 19 7 28 13 20 13
-8 0 -31 -6 -50 -13z"/>
<path d="M2248 1932 c2 -28 -1 -59 -8 -73 -7 -14 3 -7 24 17 19 22 53 49 75
59 23 10 39 20 37 22 -6 6 -83 -34 -91 -47 -12 -19 -25 -10 -25 18 0 15 -4 33
-9 40 -5 8 -6 -7 -3 -36z"/>
<path d="M4012 1935 c12 -24 23 -43 26 -41 4 5 -36 86 -43 86 -3 0 5 -20 17
-45z"/>
<path d="M900 1951 c0 -22 39 -89 64 -109 20 -16 26 -30 29 -78 l3 -59 2 58
c1 38 6 57 15 57 6 0 -4 8 -23 18 -25 12 -43 33 -62 71 -16 30 -28 49 -28 42z"/>
<path d="M2990 1950 c8 -5 22 -9 30 -9 10 0 8 3 -5 9 -27 12 -43 12 -25 0z"/>
<path d="M4571 1955 c0 -5 6 -21 14 -35 8 -14 14 -20 14 -15 0 6 -6 21 -14 35
-8 14 -14 21 -14 15z"/>
<path d="M1720 1930 c-8 -5 -10 -10 -5 -10 6 0 17 5 25 10 8 5 11 10 5 10 -5
0 -17 -5 -25 -10z"/>
<path d="M3053 1933 c9 -2 23 -2 30 0 6 3 -1 5 -18 5 -16 0 -22 -2 -12 -5z"/>
<path d="M4401 1924 c0 -11 3 -14 6 -6 3 7 2 16 -1 19 -3 4 -6 -2 -5 -13z"/>
<path d="M1342 1890 c-33 -31 -32 -41 2 -15 11 8 29 16 40 16 17 1 18 2 3 6
-9 2 -15 9 -12 14 10 15 2 10 -33 -21z"/>
<path d="M1471 1904 c0 -11 3 -14 6 -6 3 7 2 16 -1 19 -3 4 -6 -2 -5 -13z"/>
<path d="M4351 1900 c0 -8 4 -24 9 -35 5 -13 9 -14 9 -5 0 8 -4 24 -9 35 -5
13 -9 14 -9 5z"/>
<path d="M2734 1886 c11 -9 24 -16 30 -16 12 0 7 5 -24 19 -24 11 -24 11 -6
-3z"/>
<path d="M4412 1880 c0 -14 2 -19 5 -12 2 6 2 18 0 25 -3 6 -5 1 -5 -13z"/>
<path d="M1194 1882 c4 -7 3 -19 -3 -26 -9 -11 -6 -12 14 -8 l25 4 1 -118 c1
-66 4 -107 6 -92 l4 27 117 4 117 3 -118 2 -118 2 3 85 c2 47 0 85 -4 85 -4 0
-17 10 -29 23 -12 12 -19 16 -15 9z"/>
<path d="M1900 1880 c-20 -6 -21 -8 -5 -8 11 0 29 3 40 8 25 11 -1 11 -35 0z"/>
<path d="M4600 1885 c0 -5 5 -17 10 -25 5 -8 10 -10 10 -5 0 6 -5 17 -10 25
-5 8 -10 11 -10 5z"/>
<path d="M1447 1863 c3 -7 11 -13 19 -13 7 0 11 6 8 13 -3 8 -11 14 -18 14 -8
0 -12 -6 -9 -14z"/>
<path d="M1838 1863 c6 -2 18 -2 25 0 6 3 1 5 -13 5 -14 0 -19 -2 -12 -5z"/>
<path d="M2790 1860 c8 -5 22 -9 30 -9 10 0 8 3 -5 9 -27 12 -43 12 -25 0z"/>
<path d="M4170 1865 c0 -5 5 -17 10 -25 5 -8 10 -10 10 -5 0 6 -5 17 -10 25
-5 8 -10 11 -10 5z"/>
<path d="M1268 1853 c6 -2 18 -2 25 0 6 3 1 5 -13 5 -14 0 -19 -2 -12 -5z"/>
<path d="M2255 1836 c-15 -23 -15 -27 0 -50 20 -30 25 -33 19 -8 -4 12 8 25
38 45 23 15 38 27 33 27 -5 0 -26 -12 -47 -26 -44 -31 -58 -26 -34 11 9 14 14
25 11 25 -2 0 -12 -11 -20 -24z"/>
<path d="M4051 1855 c0 -5 8 -26 19 -45 11 -19 19 -30 19 -25 0 6 -8 26 -19
45 -11 19 -19 31 -19 25z"/>
<path d="M2853 1843 c9 -2 25 -2 35 0 9 3 1 5 -18 5 -19 0 -27 -2 -17 -5z"/>
<path d="M2943 1843 c9 -2 23 -2 30 0 6 3 -1 5 -18 5 -16 0 -22 -2 -12 -5z"/>
<path d="M4286 1808 c-4 -23 -3 -74 1 -112 l7 -71 7 50 c4 28 7 64 7 80 -1 30
-1 29 -9 -5 -6 -25 -7 -16 -3 33 5 75 0 89 -10 25z"/>
<path d="M4422 1825 c0 -16 2 -22 5 -12 2 9 2 23 0 30 -3 6 -5 -1 -5 -18z"/>
<path d="M2480 1832 c0 -12 99 -76 107 -69 3 4 1 7 -5 7 -6 0 -31 16 -56 35
-25 19 -46 32 -46 27z"/>
<path d="M4371 1824 c0 -11 3 -14 6 -6 3 7 2 16 -1 19 -3 4 -6 -2 -5 -13z"/>
<path d="M4620 1835 c0 -5 5 -17 10 -25 5 -8 10 -10 10 -5 0 6 -5 17 -10 25
-5 8 -10 11 -10 5z"/>
<path d="M1118 1823 c7 -3 16 -2 19 1 4 3 -2 6 -13 5 -11 0 -14 -3 -6 -6z"/>
<path d="M1630 1820 c-18 -12 -2 -12 25 0 13 6 15 9 5 9 -8 0 -22 -4 -30 -9z"/>
<path d="M1810 1820 c8 -5 20 -10 25 -10 6 0 3 5 -5 10 -8 5 -19 10 -25 10 -5
0 -3 -5 5 -10z"/>
<path d="M2215 1820 c-3 -5 -1 -10 4 -10 6 0 11 5 11 10 0 6 -2 10 -4 10 -3 0
-8 -4 -11 -10z"/>
<path d="M1048 1813 c12 -2 30 -2 40 0 9 3 -1 5 -23 4 -22 0 -30 -2 -17 -4z"/>
<path d="M2135 1810 c-25 -11 1 -11 35 0 20 6 21 8 5 8 -11 0 -29 -3 -40 -8z"/>
<path d="M3102 1778 c-30 -44 -60 -97 -49 -87 11 9 87 129 82 129 -2 0 -17
-19 -33 -42z"/>
<path d="M4196 1800 c3 -14 11 -32 16 -40 6 -10 7 -7 2 10 -3 14 -11 32 -16
40 -6 10 -7 7 -2 -10z"/>
<path d="M4805 1773 c15 -24 30 -43 32 -43 7 0 -31 61 -46 73 -8 7 -2 -7 14
-30z"/>
<path d="M1554 1784 c-18 -14 -18 -14 6 -3 31 14 36 19 24 19 -6 0 -19 -7 -30
-16z"/>
<path d="M3195 1770 c-9 -16 -13 -30 -11 -30 3 0 12 14 21 30 9 17 13 30 11
30 -3 0 -12 -13 -21 -30z"/>
<path d="M4381 1784 c0 -11 3 -14 6 -6 3 7 2 16 -1 19 -3 4 -6 -2 -5 -13z"/>
<path d="M1938 1783 c18 -2 45 -2 60 0 15 2 0 4 -33 4 -33 0 -45 -2 -27 -4z"/>
<path d="M4433 1755 c0 -22 2 -30 4 -17 2 12 2 30 0 40 -3 9 -5 -1 -4 -23z"/>
<path d="M1787 1772 c-9 -2 -15 -7 -12 -12 3 -4 -5 -8 -18 -8 -44 0 -158 -25
-150 -33 5 -5 24 -4 43 1 19 6 50 10 68 10 22 0 31 4 26 11 -4 7 0 9 13 5 10
-3 28 0 39 8 21 16 18 24 -9 18z"/>
<path d="M2188 1773 c7 -3 16 -2 19 1 4 3 -2 6 -13 5 -11 0 -14 -3 -6 -6z"/>
<path d="M3787 1762 c-10 -10 -17 -23 -17 -28 0 -4 7 2 16 15 12 16 23 22 40
18 13 -2 21 0 18 4 -9 15 -40 10 -57 -9z"/>
<path d="M2123 1763 c9 -2 23 -2 30 0 6 3 -1 5 -18 5 -16 0 -22 -2 -12 -5z"/>
<path d="M3691 1765 c1 -19 18 -51 18 -35 0 8 -4 22 -9 30 -5 8 -9 11 -9 5z"/>
<path d="M4095 1753 c4 -10 16 -42 27 -71 12 -29 23 -51 25 -48 5 5 -47 136
-54 136 -3 0 -2 -8 2 -17z"/>
<path d="M4736 1750 c3 -14 11 -32 16 -40 6 -10 7 -7 2 10 -3 14 -11 32 -16
40 -6 10 -7 7 -2 -10z"/>
<path d="M2328 1753 c6 -2 18 -2 25 0 6 3 1 5 -13 5 -14 0 -19 -2 -12 -5z"/>
<path d="M4391 1744 c0 -11 3 -14 6 -6 3 7 2 16 -1 19 -3 4 -6 -2 -5 -13z"/>
<path d="M2069 1733 c6 -12 11 -51 11 -86 0 -67 7 -78 48 -76 10 1 6 4 -8 8
-27 8 -27 7 -29 84 0 31 -7 61 -17 73 -15 18 -15 18 -5 -3z"/>
<path d="M2286 1735 c4 -8 7 -15 9 -15 2 0 5 7 9 15 3 9 0 15 -9 15 -9 0 -12
-6 -9 -15z"/>
<path d="M2638 1743 c7 -3 16 -2 19 1 4 3 -2 6 -13 5 -11 0 -14 -3 -6 -6z"/>
<path d="M2693 1733 c15 -2 37 -2 50 0 12 2 0 4 -28 4 -27 0 -38 -2 -22 -4z"/>
<path d="M3540 1736 c0 -2 8 -10 18 -17 15 -13 16 -12 3 4 -13 16 -21 21 -21
13z"/>
<path d="M3487 1709 c4 -13 8 -18 11 -10 2 7 -1 18 -6 23 -8 8 -9 4 -5 -13z"/>
<path d="M4661 1725 c1 -19 18 -51 18 -35 0 8 -4 22 -9 30 -5 8 -9 11 -9 5z"/>
<path d="M1560 1705 c-14 -7 -24 -17 -22 -22 1 -4 -12 -11 -30 -14 l-33 -6 31
-2 c28 -1 32 -5 38 -39 3 -21 19 -57 36 -80 34 -47 35 -49 18 -55 -7 -2 -4 -2
7 1 11 2 49 8 85 12 l65 7 -67 1 c-76 2 -96 15 -123 78 -19 46 -19 52 3 57 16
4 15 5 -1 6 -26 1 -18 33 11 47 13 6 20 14 15 17 -4 3 -19 -1 -33 -8z"/>
<path d="M3763 1680 c0 -25 2 -35 4 -22 2 12 2 32 0 45 -2 12 -4 2 -4 -23z"/>
<path d="M3942 1705 c0 -11 4 -33 8 -50 7 -27 8 -27 8 -5 0 14 -4 36 -8 50 -6
20 -8 21 -8 5z"/>
<path d="M4401 1704 c0 -11 3 -14 6 -6 3 7 2 16 -1 19 -3 4 -6 -2 -5 -13z"/>
<path d="M4846 1708 c4 -7 16 -26 27 -42 11 -16 47 -79 79 -140 31 -61 58
-108 58 -103 0 23 -153 297 -166 297 -3 0 -2 -6 2 -12z"/>
<path d="M2307 1689 c4 -13 8 -18 11 -10 2 7 -1 18 -6 23 -8 8 -9 4 -5 -13z"/>
<path d="M3711 1694 c0 -11 3 -14 6 -6 3 7 2 16 -1 19 -3 4 -6 -2 -5 -13z"/>
<path d="M3863 1650 c0 -36 2 -50 4 -32 2 17 2 47 0 65 -2 17 -4 3 -4 -33z"/>
<path d="M2368 1693 c7 -3 16 -2 19 1 4 3 -2 6 -13 5 -11 0 -14 -3 -6 -6z"/>
<path d="M3581 1680 c14 -31 19 -36 19 -24 0 6 -7 19 -16 30 -14 18 -14 18 -3
-6z"/>
<path d="M3502 1660 c0 -14 2 -19 5 -12 2 6 2 18 0 25 -3 6 -5 1 -5 -13z"/>
<path d="M4241 1670 c0 -8 4 -24 9 -35 5 -13 9 -14 9 -5 0 8 -4 24 -9 35 -5
13 -9 14 -9 5z"/>
<path d="M4411 1664 c0 -11 3 -14 6 -6 3 7 2 16 -1 19 -3 4 -6 -2 -5 -13z"/>
<path d="M4440 1640 c-2 -38 -3 -41 -10 -20 -6 20 -8 21 -8 5 0 -11 4 -33 7
-50 7 -29 8 -28 15 16 4 25 6 57 3 70 -3 15 -5 7 -7 -21z"/>
<path d="M2790 1650 c-19 -11 -31 -19 -27 -20 11 0 67 29 67 35 0 7 -1 7 -40
-15z"/>
<path d="M3126 1630 c-22 -56 -19 -65 5 -11 11 24 18 46 15 48 -2 2 -11 -14
-20 -37z"/>
<path d="M3722 1650 c0 -14 2 -19 5 -12 2 6 2 18 0 25 -3 6 -5 1 -5 -13z"/>
<path d="M930 1656 c0 -2 14 -6 30 -8 17 -3 30 -1 30 4 0 4 -13 8 -30 8 -16 0
-30 -2 -30 -4z"/>
<path d="M2320 1648 c0 -21 -15 -30 -65 -40 l-40 -7 45 3 c25 1 59 -4 77 -11
18 -7 40 -13 50 -12 10 0 -4 7 -30 15 -56 17 -53 33 6 36 41 1 41 1 7 5 -19 3
-38 10 -42 16 -5 8 -8 6 -8 -5z"/>
<path d="M4771 1650 c0 -8 4 -24 9 -35 5 -13 9 -14 9 -5 0 8 -4 24 -9 35 -5
13 -9 14 -9 5z"/>
<path d="M878 1643 c6 -2 18 -2 25 0 6 3 1 5 -13 5 -14 0 -19 -2 -12 -5z"/>
<path d="M1658 1643 c12 -2 30 -2 40 0 9 3 -1 5 -23 4 -22 0 -30 -2 -17 -4z"/>
<path d="M838 1633 c7 -3 16 -2 19 1 4 3 -2 6 -13 5 -11 0 -14 -3 -6 -6z"/>
<path d="M3601 1624 c0 -11 3 -14 6 -6 3 7 2 16 -1 19 -3 4 -6 -2 -5 -13z"/>
<path d="M770 1615 c-33 -19 -21 -19 21 0 19 8 27 14 19 14 -8 0 -26 -6 -40
-14z"/>
<path d="M2228 1623 c7 -3 16 -2 19 1 4 3 -2 6 -13 5 -11 0 -14 -3 -6 -6z"/>
<path d="M2720 1620 c-8 -5 -10 -10 -5 -10 6 0 17 5 25 10 8 5 11 10 5 10 -5
0 -17 -5 -25 -10z"/>
<path d="M3514 1445 c0 -104 2 -146 3 -92 2 54 2 139 0 190 -1 51 -3 7 -3 -98z"/>
<path d="M2173 1613 c9 -2 23 -2 30 0 6 3 -1 5 -18 5 -16 0 -22 -2 -12 -5z"/>
<path d="M3002 1595 c-17 -37 -14 -45 4 -12 9 16 14 31 11 33 -2 2 -9 -7 -15
-21z"/>
<path d="M3733 1585 c0 -22 2 -30 4 -17 2 12 2 30 0 40 -3 9 -5 -1 -4 -23z"/>
<path d="M3962 1600 c0 -14 2 -19 5 -12 2 6 2 18 0 25 -3 6 -5 1 -5 -13z"/>
<path d="M991 1598 c-1 -19 25 -48 42 -48 7 0 4 5 -6 11 -10 6 -22 20 -27 32
-6 16 -9 18 -9 5z"/>
<path d="M2128 1603 c7 -3 16 -2 19 1 4 3 -2 6 -13 5 -11 0 -14 -3 -6 -6z"/>
<path d="M4701 1594 c0 -11 3 -14 6 -6 3 7 2 16 -1 19 -3 4 -6 -2 -5 -13z"/>
<path d="M678 1569 c-27 -17 -48 -35 -48 -40 0 -5 -33 -10 -72 -11 l-73 -2 68
-3 c63 -4 67 -5 67 -28 0 -17 -7 -25 -22 -28 -18 -3 -17 -5 7 -6 17 0 44 -10
60 -21 17 -11 34 -20 39 -20 5 0 -6 10 -24 23 -70 47 -66 86 12 135 29 17 48
32 43 32 -6 0 -31 -14 -57 -31z"/>
<path d="M2188 1593 c7 -3 16 -2 19 1 4 3 -2 6 -13 5 -11 0 -14 -3 -6 -6z"/>
<path d="M2620 1590 c-30 -6 -31 -8 -8 -9 14 0 35 -4 45 -7 13 -4 15 -3 4 4
-11 8 -11 10 0 15 19 7 2 6 -41 -3z"/>
<path d="M3612 1575 c0 -16 2 -22 5 -12 2 9 2 23 0 30 -3 6 -5 -1 -5 -18z"/>
<path d="M1994 1574 c-19 -15 -19 -15 1 -6 11 5 27 12 35 15 13 5 13 6 -1 6
-8 1 -24 -6 -35 -15z"/>
<path d="M4161 1585 c1 -19 18 -51 18 -35 0 8 -4 22 -9 30 -5 8 -9 11 -9 5z"/>
<path d="M4791 1574 c0 -11 3 -14 6 -6 3 7 2 16 -1 19 -3 4 -6 -2 -5 -13z"/>
<path d="M1623 1573 c26 -2 68 -2 95 0 26 2 4 3 -48 3 -52 0 -74 -1 -47 -3z"/>
<path d="M2453 1573 c26 -2 67 -2 90 0 23 2 2 3 -48 3 -49 0 -68 -1 -42 -3z"/>
<path d="M4271 1564 c0 -11 3 -14 6 -6 3 7 2 16 -1 19 -3 4 -6 -2 -5 -13z"/>
<path d="M3086 1524 c-9 -26 -16 -52 -15 -58 0 -6 9 13 20 43 10 30 17 56 15
58 -2 2 -11 -17 -20 -43z"/>
<path d="M3852 1545 c0 -16 2 -22 5 -12 2 9 2 23 0 30 -3 6 -5 -1 -5 -18z"/>
<path d="M3972 1540 c0 -19 2 -27 5 -17 2 9 2 25 0 35 -3 9 -5 1 -5 -18z"/>
<path d="M1949 1543 c-13 -16 -12 -17 4 -4 9 7 17 15 17 17 0 8 -8 3 -21 -13z"/>
<path d="M1063 1543 c9 -2 23 -2 30 0 6 3 -1 5 -18 5 -16 0 -22 -2 -12 -5z"/>
<path d="M1168 1543 c6 -2 18 -2 25 0 6 3 1 5 -13 5 -14 0 -19 -2 -12 -5z"/>
<path d="M2760 1530 c19 -12 46 -32 60 -44 l25 -21 -19 23 c-11 12 -16 22 -12
22 18 0 59 -37 81 -74 14 -22 25 -37 25 -32 0 5 -9 24 -21 42 -23 38 -66 71
-107 84 -15 4 -36 11 -47 15 -11 4 -4 -3 15 -15z"/>
<path d="M2971 1519 c-6 -18 -11 -37 -10 -43 0 -6 7 7 15 28 8 22 12 41 10 43
-2 2 -9 -10 -15 -28z"/>
<path d="M4801 1534 c0 -11 3 -14 6 -6 3 7 2 16 -1 19 -3 4 -6 -2 -5 -13z"/>
<path d="M1128 1533 c7 -3 16 -2 19 1 4 3 -2 6 -13 5 -11 0 -14 -3 -6 -6z"/>
<path d="M3745 1352 c0 -214 12 -205 18 13 3 77 2 109 -1 70 l-6 -70 -6 90
c-4 59 -6 24 -5 -103z"/>
<path d="M4281 1524 c0 -11 3 -14 6 -6 3 7 2 16 -1 19 -3 4 -6 -2 -5 -13z"/>
<path d="M4721 1524 c0 -11 3 -14 6 -6 3 7 2 16 -1 19 -3 4 -6 -2 -5 -13z"/>
<path d="M1876 1494 c-26 -19 -44 -34 -39 -34 11 0 93 57 93 65 0 7 2 8 -54
-31z"/>
<path d="M3624 1380 c0 -85 2 -120 3 -77 2 42 2 112 0 155 -1 42 -3 7 -3 -78z"/>
<path d="M1548 1513 c6 -2 18 -2 25 0 6 3 1 5 -13 5 -14 0 -19 -2 -12 -5z"/>
<path d="M1980 1513 c8 -3 24 -10 35 -15 20 -9 20 -9 1 6 -11 9 -27 16 -35 15
-14 0 -14 -1 -1 -6z"/>
<path d="M4884 1498 c3 -13 11 -54 18 -93 10 -62 13 -66 20 -40 5 21 2 48 -13
93 -11 34 -23 62 -26 62 -3 0 -3 -10 1 -22z"/>
<path d="M438 1503 c6 -2 18 -2 25 0 6 3 1 5 -13 5 -14 0 -19 -2 -12 -5z"/>
<path d="M1494 1485 c-9 -14 -14 -28 -10 -32 3 -3 6 -1 6 5 0 7 9 21 20 32 11
11 16 20 10 20 -5 0 -17 -11 -26 -25z"/>
<path d="M4812 1490 c0 -14 2 -19 5 -12 2 6 2 18 0 25 -3 6 -5 1 -5 -13z"/>
<path d="M398 1493 c7 -3 16 -2 19 1 4 3 -2 6 -13 5 -11 0 -14 -3 -6 -6z"/>
<path d="M3841 1484 c0 -11 3 -14 6 -6 3 7 2 16 -1 19 -3 4 -6 -2 -5 -13z"/>
<path d="M4292 1485 c0 -11 4 -31 8 -45 6 -20 8 -21 8 -5 0 11 -4 31 -8 45 -6
20 -8 21 -8 5z"/>
<path d="M4732 1480 c0 -14 2 -19 5 -12 2 6 2 18 0 25 -3 6 -5 1 -5 -13z"/>
<path d="M1654 1476 c11 -9 24 -16 30 -16 12 0 7 5 -24 19 -24 11 -24 11 -6
-3z"/>
<path d="M1920 1486 c0 -2 9 -6 20 -9 11 -3 18 -1 14 4 -5 9 -34 13 -34 5z"/>
<path d="M3983 1455 c0 -22 2 -30 4 -17 2 12 2 30 0 40 -3 9 -5 -1 -4 -23z"/>
<path d="M1547 1466 c-9 -22 14 -36 58 -34 39 1 40 1 5 5 -56 6 -64 11 -50 28
7 9 8 15 2 15 -5 0 -12 -6 -15 -14z"/>
<path d="M2029 1452 c-3 -20 -2 -29 4 -23 5 5 7 19 5 32 -3 20 -5 19 -9 -9z"/>
<path d="M4201 1460 c0 -8 4 -24 9 -35 5 -13 9 -14 9 -5 0 8 -4 24 -9 35 -5
13 -9 14 -9 5z"/>
<path d="M4436 1451 c7 -28 52 -69 132 -120 57 -37 112 -93 112 -113 0 -6 3
-9 6 -5 15 15 -38 74 -111 122 -80 53 -111 82 -134 120 -11 19 -12 18 -5 -4z"/>
<path d="M1713 1453 c9 -2 23 -2 30 0 6 3 -1 5 -18 5 -16 0 -22 -2 -12 -5z"/>
<path d="M1778 1453 c6 -2 18 -2 25 0 6 3 1 5 -13 5 -14 0 -19 -2 -12 -5z"/>
<path d="M1944 1451 c-5 -5 -18 -11 -29 -14 l-20 -5 20 -1 c22 -1 52 15 44 23
-3 3 -10 2 -15 -3z"/>
<path d="M4822 1435 c0 -16 2 -22 5 -12 2 9 2 23 0 30 -3 6 -5 -1 -5 -18z"/>
<path d="M538 1443 c7 -3 16 -2 19 1 4 3 -2 6 -13 5 -11 0 -14 -3 -6 -6z"/>
<path d="M3056 1424 c-4 -14 -5 -28 -3 -31 3 -2 8 8 11 23 4 14 5 28 3 31 -3
2 -8 -8 -11 -23z"/>
<path d="M3826 1424 c-4 -14 -5 -28 -3 -31 3 -2 8 8 11 23 4 14 5 28 3 31 -3
2 -8 -8 -11 -23z"/>
<path d="M4741 1434 c0 -11 3 -14 6 -6 3 7 2 16 -1 19 -3 4 -6 -2 -5 -13z"/>
<path d="M488 1433 c6 -2 18 -2 25 0 6 3 1 5 -13 5 -14 0 -19 -2 -12 -5z"/>
<path d="M612 1420 c0 -14 2 -19 5 -12 2 6 2 18 0 25 -3 6 -5 1 -5 -13z"/>
<path d="M1504 1426 c11 -9 29 -16 40 -15 17 1 16 2 -6 9 -14 4 -32 11 -40 15
-7 3 -4 -1 6 -9z"/>
<path d="M438 1423 c6 -2 18 -2 25 0 6 3 1 5 -13 5 -14 0 -19 -2 -12 -5z"/>
<path d="M1728 1423 c23 -2 59 -2 80 0 20 2 1 4 -43 4 -44 0 -61 -2 -37 -4z"/>
<path d="M388 1413 c6 -2 18 -2 25 0 6 3 1 5 -13 5 -14 0 -19 -2 -12 -5z"/>
<path d="M147 1355 c-31 -30 -61 -65 -67 -77 -9 -17 -5 -15 14 7 l25 30 2 -35
1 -35 8 38 c9 49 26 65 92 89 29 10 40 17 23 14 -16 -2 -39 -8 -50 -12 -20 -7
-20 -7 -1 14 36 41 8 22 -47 -33z"/>
<path d="M338 1403 c6 -2 18 -2 25 0 6 3 1 5 -13 5 -14 0 -19 -2 -12 -5z"/>
<path d="M721 1406 c8 -8 210 -76 223 -75 6 0 -34 16 -89 35 -127 44 -141 48
-134 40z"/>
<path d="M1593 1403 c9 -2 25 -2 35 0 9 3 1 5 -18 5 -19 0 -27 -2 -17 -5z"/>
<path d="M1953 1403 c9 -2 23 -2 30 0 6 3 -1 5 -18 5 -16 0 -22 -2 -12 -5z"/>
<path d="M4312 1390 c0 -14 2 -19 5 -12 2 6 2 18 0 25 -3 6 -5 1 -5 -13z"/>
<path d="M4752 1390 c0 -14 2 -19 5 -12 2 6 2 18 0 25 -3 6 -5 1 -5 -13z"/>
<path d="M5012 1405 c0 -5 6 -26 13 -45 7 -19 14 -28 14 -20 0 8 -6 29 -14 45
-7 17 -13 26 -13 20z"/>
<path d="M288 1393 c6 -2 18 -2 25 0 6 3 1 5 -13 5 -14 0 -19 -2 -12 -5z"/>
<path d="M1733 1393 c31 -2 83 -2 115 0 31 2 5 3 -58 3 -63 0 -89 -1 -57 -3z"/>
<path d="M2840 1391 c0 -7 -15 -27 -32 -44 -23 -21 -26 -27 -10 -18 25 14 58
59 48 68 -3 3 -6 1 -6 -6z"/>
<path d="M3993 1325 c0 -44 2 -61 4 -37 2 23 2 59 0 80 -2 20 -4 1 -4 -43z"/>
<path d="M4221 1384 c0 -11 3 -14 6 -6 3 7 2 16 -1 19 -3 4 -6 -2 -5 -13z"/>
<path d="M4832 1370 c0 -19 2 -27 5 -17 2 9 2 25 0 35 -3 9 -5 1 -5 -18z"/>
<path d="M602 1370 c0 -14 2 -19 5 -12 2 6 2 18 0 25 -3 6 -5 1 -5 -13z"/>
<path d="M2921 1374 c0 -11 3 -14 6 -6 3 7 2 16 -1 19 -3 4 -6 -2 -5 -13z"/>
<path d="M3041 1364 c0 -11 3 -14 6 -6 3 7 2 16 -1 19 -3 4 -6 -2 -5 -13z"/>
<path d="M3811 1364 c0 -11 3 -14 6 -6 3 7 2 16 -1 19 -3 4 -6 -2 -5 -13z"/>
<path d="M4450 1376 c0 -11 30 -66 36 -66 2 0 -3 15 -12 33 -19 36 -24 44 -24
33z"/>
<path d="M4931 1354 c0 -11 3 -14 6 -6 3 7 2 16 -1 19 -3 4 -6 -2 -5 -13z"/>
<path d="M4231 1344 c0 -11 3 -14 6 -6 3 7 2 16 -1 19 -3 4 -6 -2 -5 -13z"/>
<path d="M4322 1340 c0 -14 3 -45 7 -70 6 -34 9 -37 9 -15 1 17 -3 48 -7 70
-6 25 -9 31 -9 15z"/>
<path d="M4762 1340 c0 -14 2 -19 5 -12 2 6 2 18 0 25 -3 6 -5 1 -5 -13z"/>
<path d="M975 1320 c11 -5 27 -9 35 -9 9 0 8 4 -5 9 -11 5 -27 9 -35 9 -9 0
-8 -4 5 -9z"/>
<path d="M3031 1314 c0 -11 3 -14 6 -6 3 7 2 16 -1 19 -3 4 -6 -2 -5 -13z"/>
<path d="M4922 1305 c0 -16 2 -22 5 -12 2 9 2 23 0 30 -3 6 -5 -1 -5 -18z"/>
<path d="M4941 1314 c0 -11 3 -14 6 -6 3 7 2 16 -1 19 -3 4 -6 -2 -5 -13z"/>
<path d="M4241 1304 c0 -11 3 -14 6 -6 3 7 2 16 -1 19 -3 4 -6 -2 -5 -13z"/>
<path d="M4843 1265 c0 -33 2 -45 4 -27 2 18 2 45 0 60 -2 15 -4 0 -4 -33z"/>
<path d="M5041 1304 c0 -11 3 -14 6 -6 3 7 2 16 -1 19 -3 4 -6 -2 -5 -13z"/>
<path d="M1038 1303 c7 -3 16 -2 19 1 4 3 -2 6 -13 5 -11 0 -14 -3 -6 -6z"/>
<path d="M2670 1285 c-36 -13 -60 -24 -54 -24 13 -1 134 39 134 45 0 7 -12 4
-80 -21z"/>
<path d="M596 1284 c-4 -9 -4 -19 -1 -22 3 -3 5 1 5 8 0 9 7 7 23 -7 12 -11
29 -23 37 -27 8 -4 4 1 -9 12 -14 11 -30 27 -37 36 -11 15 -12 15 -18 0z"/>
<path d="M1078 1293 c7 -3 16 -2 19 1 4 3 -2 6 -13 5 -11 0 -14 -3 -6 -6z"/>
<path d="M4497 1288 c6 -7 32 -42 58 -78 56 -75 77 -98 50 -55 -23 38 -106
145 -113 145 -2 0 0 -6 5 -12z"/>
<path d="M4772 1280 c0 -14 2 -19 5 -12 2 6 2 18 0 25 -3 6 -5 1 -5 -13z"/>
<path d="M1130 1280 c14 -4 34 -8 45 -8 16 0 15 2 -5 8 -14 4 -34 8 -45 8 -16
0 -15 -2 5 -8z"/>
<path d="M2921 1274 c0 -11 3 -14 6 -6 3 7 2 16 -1 19 -3 4 -6 -2 -5 -13z"/>
<path d="M3021 1274 c0 -11 3 -14 6 -6 3 7 2 16 -1 19 -3 4 -6 -2 -5 -13z"/>
<path d="M4952 1270 c0 -14 2 -19 5 -12 2 6 2 18 0 25 -3 6 -5 1 -5 -13z"/>
<path d="M4251 1264 c0 -11 3 -14 6 -6 3 7 2 16 -1 19 -3 4 -6 -2 -5 -13z"/>
<path d="M5051 1264 c0 -11 3 -14 6 -6 3 7 2 16 -1 19 -3 4 -6 -2 -5 -13z"/>
<path d="M1208 1263 c6 -2 18 -2 25 0 6 3 1 5 -13 5 -14 0 -19 -2 -12 -5z"/>
<path d="M4932 1245 c0 -16 2 -22 5 -12 2 9 2 23 0 30 -3 6 -5 -1 -5 -18z"/>
<path d="M1258 1253 c6 -2 18 -2 25 0 6 3 1 5 -13 5 -14 0 -19 -2 -12 -5z"/>
<path d="M50 1229 c-7 -11 -10 -23 -7 -25 2 -2 9 7 15 21 14 30 7 33 -8 4z"/>
<path d="M583 1215 c0 -22 2 -30 4 -17 2 12 2 30 0 40 -3 9 -5 -1 -4 -23z"/>
<path d="M1313 1243 c9 -2 23 -2 30 0 6 3 -1 5 -18 5 -16 0 -22 -2 -12 -5z"/>
<path d="M2525 1240 c-13 -5 -14 -9 -5 -9 8 0 24 4 35 9 13 5 14 9 5 9 -8 0
-24 -4 -35 -9z"/>
<path d="M2880 1206 c-25 -28 -28 -35 -12 -24 24 16 57 57 51 62 -2 1 -20 -16
-39 -38z"/>
<path d="M3502 1225 c0 -16 2 -22 5 -12 2 9 2 23 0 30 -3 6 -5 -1 -5 -18z"/>
<path d="M130 1236 c0 -2 8 -10 18 -17 15 -13 16 -12 3 4 -13 16 -21 21 -21
13z"/>
<path d="M1373 1233 c9 -2 23 -2 30 0 6 3 -1 5 -18 5 -16 0 -22 -2 -12 -5z"/>
<path d="M3011 1224 c0 -11 3 -14 6 -6 3 7 2 16 -1 19 -3 4 -6 -2 -5 -13z"/>
<path d="M3151 1224 c0 -11 3 -14 6 -6 3 7 2 16 -1 19 -3 4 -6 -2 -5 -13z"/>
<path d="M3172 1210 c0 -19 2 -27 5 -17 2 9 2 25 0 35 -3 9 -5 1 -5 -18z"/>
<path d="M4262 1220 c0 -14 2 -19 5 -12 2 6 2 18 0 25 -3 6 -5 1 -5 -13z"/>
<path d="M4782 1210 c0 -19 2 -27 5 -17 2 9 2 25 0 35 -3 9 -5 1 -5 -18z"/>
<path d="M4962 1210 c0 -19 2 -27 5 -17 2 9 2 25 0 35 -3 9 -5 1 -5 -18z"/>
<path d="M5223 1233 c9 -2 23 -2 30 0 6 3 -1 5 -18 5 -16 0 -22 -2 -12 -5z"/>
<path d="M5323 1233 c9 -2 23 -2 30 0 6 3 -1 5 -18 5 -16 0 -22 -2 -12 -5z"/>
<path d="M680 1225 c0 -7 101 -57 106 -53 2 2 -21 16 -51 31 -30 15 -55 25
-55 22z"/>
<path d="M1433 1223 c9 -2 25 -2 35 0 9 3 1 5 -18 5 -19 0 -27 -2 -17 -5z"/>
<path d="M2478 1223 c7 -3 16 -2 19 1 4 3 -2 6 -13 5 -11 0 -14 -3 -6 -6z"/>
<path d="M5062 1200 c-1 -63 9 -70 43 -31 24 30 25 32 4 14 -34 -31 -37 -29
-42 15 l-4 37 -1 -35z"/>
<path d="M5378 1223 c7 -3 16 -2 19 1 4 3 -2 6 -13 5 -11 0 -14 -3 -6 -6z"/>
<path d="M1513 1213 c9 -2 25 -2 35 0 9 3 1 5 -18 5 -19 0 -27 -2 -17 -5z"/>
<path d="M2438 1213 c7 -3 16 -2 19 1 4 3 -2 6 -13 5 -11 0 -14 -3 -6 -6z"/>
<path d="M3612 1195 c0 -16 2 -22 5 -12 2 9 2 23 0 30 -3 6 -5 -1 -5 -18z"/>
<path d="M4343 1160 c0 -36 2 -50 4 -32 2 17 2 47 0 65 -2 17 -4 3 -4 -33z"/>
<path d="M5145 1210 c-3 -6 1 -7 9 -4 18 7 21 14 7 14 -6 0 -13 -4 -16 -10z"/>
<path d="M5420 1210 c8 -5 20 -10 25 -10 6 0 3 5 -5 10 -8 5 -19 10 -25 10 -5
0 -3 -5 5 -10z"/>
<path d="M1598 1203 c12 -2 32 -2 45 0 12 2 2 4 -23 4 -25 0 -35 -2 -22 -4z"/>
<path d="M2388 1203 c7 -3 16 -2 19 1 4 3 -2 6 -13 5 -11 0 -14 -3 -6 -6z"/>
<path d="M1713 1193 c15 -2 39 -2 55 0 15 2 2 4 -28 4 -30 0 -43 -2 -27 -4z"/>
<path d="M2323 1193 c9 -2 23 -2 30 0 6 3 -1 5 -18 5 -16 0 -22 -2 -12 -5z"/>
<path d="M3002 1180 c0 -14 2 -19 5 -12 2 6 2 18 0 25 -3 6 -5 1 -5 -13z"/>
<path d="M4691 1184 c0 -11 3 -14 6 -6 3 7 2 16 -1 19 -3 4 -6 -2 -5 -13z"/>
<path d="M4942 1170 c0 -19 2 -27 5 -17 2 9 2 25 0 35 -3 9 -5 1 -5 -18z"/>
<path d="M26 1175 c-3 -9 -6 -22 -5 -28 0 -7 5 -1 10 12 5 13 8 26 5 28 -2 2
-6 -3 -10 -12z"/>
<path d="M105 1179 c-4 -6 -5 -12 -2 -15 2 -3 7 2 10 11 7 17 1 20 -8 4z"/>
<path d="M1953 1183 c65 -2 168 -2 230 0 62 1 9 3 -118 3 -126 0 -177 -2 -112
-3z"/>
<path d="M3491 1174 c0 -11 3 -14 6 -6 3 7 2 16 -1 19 -3 4 -6 -2 -5 -13z"/>
<path d="M4272 1165 c0 -16 2 -22 5 -12 2 9 2 23 0 30 -3 6 -5 -1 -5 -18z"/>
<path d="M5283 1173 c15 -2 39 -2 55 0 15 2 2 4 -28 4 -30 0 -43 -2 -27 -4z"/>
<path d="M5500 1177 c0 -3 21 -18 48 -33 26 -15 58 -34 72 -42 l25 -14 -22 18
c-27 22 -123 77 -123 71z"/>
<path d="M4973 1130 c0 -25 2 -35 4 -22 2 12 2 32 0 45 -2 12 -4 2 -4 -23z"/>
<path d="M5401 1155 c19 -7 54 -22 77 -34 23 -12 42 -19 42 -16 0 9 -123 65
-140 64 -8 0 1 -6 21 -14z"/>
<path d="M308 1153 c7 -3 16 -2 19 1 4 3 -2 6 -13 5 -11 0 -14 -3 -6 -6z"/>
<path d="M2790 1150 c-8 -5 -10 -10 -5 -10 6 0 17 5 25 10 8 5 11 10 5 10 -5
0 -17 -5 -25 -10z"/>
<path d="M3601 1144 c0 -11 3 -14 6 -6 3 7 2 16 -1 19 -3 4 -6 -2 -5 -13z"/>
<path d="M4793 1120 c0 -25 2 -35 4 -22 2 12 2 32 0 45 -2 12 -4 2 -4 -23z"/>
<path d="M5180 1139 c-17 -13 -18 -17 -5 -10 33 17 51 31 40 31 -5 0 -21 -10
-35 -21z"/>
<path d="M86 1135 c-3 -9 -6 -22 -5 -28 0 -7 5 -1 10 12 5 13 8 26 5 28 -2 2
-6 -3 -10 -12z"/>
<path d="M348 1143 c7 -3 16 -2 19 1 4 3 -2 6 -13 5 -11 0 -14 -3 -6 -6z"/>
<path d="M606 1138 c5 -14 -2 -17 -43 -21 l-48 -3 57 -2 c31 -1 60 -6 63 -12
3 -5 16 -15 28 -21 20 -9 20 -9 -2 9 -13 11 -32 30 -43 43 -10 14 -16 17 -12
7z"/>
<path d="M2990 1131 c0 -12 -4 -20 -9 -17 -9 6 -75 -14 -68 -20 2 -3 15 0 28
4 18 7 27 5 35 -6 10 -13 13 -11 19 17 4 18 4 35 1 38 -3 4 -6 -4 -6 -16z"/>
<path d="M3116 1133 c-6 -14 -5 -15 5 -6 7 7 10 15 7 18 -3 3 -9 -2 -12 -12z"/>
<path d="M3721 1108 c-7 -24 -28 -74 -46 -113 -19 -38 -32 -71 -30 -74 10 -9
65 96 81 155 19 71 15 99 -5 32z"/>
<path d="M4703 1110 c0 -25 2 -35 4 -22 2 12 2 32 0 45 -2 12 -4 2 -4 -23z"/>
<path d="M388 1133 c6 -2 18 -2 25 0 6 3 1 5 -13 5 -14 0 -19 -2 -12 -5z"/>
<path d="M898 1133 c7 -3 16 -2 19 1 4 3 -2 6 -13 5 -11 0 -14 -3 -6 -6z"/>
<path d="M2735 1130 c-13 -6 -15 -9 -5 -9 8 0 22 4 30 9 18 12 2 12 -25 0z"/>
<path d="M3127 1085 c-15 -30 -25 -55 -22 -55 7 0 57 101 53 106 -2 2 -16 -21
-31 -51z"/>
<path d="M3993 1090 c0 -30 2 -43 4 -27 2 15 2 39 0 55 -2 15 -4 2 -4 -28z"/>
<path d="M11 1114 c0 -11 3 -14 6 -6 3 7 2 16 -1 19 -3 4 -6 -2 -5 -13z"/>
<path d="M453 1123 c9 -2 25 -2 35 0 9 3 1 5 -18 5 -19 0 -27 -2 -17 -5z"/>
<path d="M938 1123 c7 -3 16 -2 19 1 4 3 -2 6 -13 5 -11 0 -14 -3 -6 -6z"/>
<path d="M4284 1035 c0 -55 1 -76 3 -47 2 29 2 74 0 100 -2 26 -3 2 -3 -53z"/>
<path d="M978 1113 c7 -3 16 -2 19 1 4 3 -2 6 -13 5 -11 0 -14 -3 -6 -6z"/>
<path d="M3591 1113 c-1 -6 -4 -20 -7 -30 -5 -17 -5 -17 6 0 6 10 9 23 6 30
-3 9 -5 9 -5 0z"/>
<path d="M4620 1115 c0 -5 5 -17 10 -25 5 -8 10 -10 10 -5 0 6 -5 17 -10 25
-5 8 -10 11 -10 5z"/>
<path d="M4953 1070 c0 -30 2 -43 4 -27 2 15 2 39 0 55 -2 15 -4 2 -4 -28z"/>
<path d="M1028 1103 c6 -2 18 -2 25 0 6 3 1 5 -13 5 -14 0 -19 -2 -12 -5z"/>
<path d="M1078 1093 c6 -2 18 -2 25 0 6 3 1 5 -13 5 -14 0 -19 -2 -12 -5z"/>
<path d="M2605 1090 c-13 -5 -14 -9 -5 -9 8 0 24 4 35 9 13 5 14 9 5 9 -8 0
-24 -4 -35 -9z"/>
<path d="M5549 1082 c14 -11 38 -27 55 -37 l31 -17 -24 20 c-14 11 -38 27 -55
37 l-31 17 24 -20z"/>
<path d="M4 1005 c0 -49 1 -71 3 -48 2 23 2 64 0 90 -2 26 -3 8 -3 -42z"/>
<path d="M72 1070 c0 -14 2 -19 5 -12 2 6 2 18 0 25 -3 6 -5 1 -5 -13z"/>
<path d="M1143 1083 c9 -2 23 -2 30 0 6 3 -1 5 -18 5 -16 0 -22 -2 -12 -5z"/>
<path d="M2820 1065 c-36 -13 -60 -24 -54 -24 13 -1 134 39 134 45 0 7 -12 4
-80 -21z"/>
<path d="M5650 1086 c0 -3 9 -10 20 -16 11 -6 20 -8 20 -6 0 3 -9 10 -20 16
-11 6 -20 8 -20 6z"/>
<path d="M1213 1073 c9 -2 23 -2 30 0 6 3 -1 5 -18 5 -16 0 -22 -2 -12 -5z"/>
<path d="M2558 1073 c7 -3 16 -2 19 1 4 3 -2 6 -13 5 -11 0 -14 -3 -6 -6z"/>
<path d="M2956 1065 c-9 -26 -7 -32 5 -12 6 10 9 21 6 23 -2 3 -7 -2 -11 -11z"/>
<path d="M1273 1063 c9 -2 25 -2 35 0 9 3 1 5 -18 5 -19 0 -27 -2 -17 -5z"/>
<path d="M2518 1063 c7 -3 16 -2 19 1 4 3 -2 6 -13 5 -11 0 -14 -3 -6 -6z"/>
<path d="M4343 1035 c0 -22 2 -30 4 -17 2 12 2 30 0 40 -3 9 -5 -1 -4 -23z"/>
<path d="M4641 1033 c-1 -54 -16 -91 -49 -127 l-27 -28 25 -17 c49 -32 94 -77
122 -120 l28 -45 -2 55 c-1 33 -3 42 -5 22 l-4 -31 -57 58 c-31 31 -66 62 -76
68 -19 9 -18 12 12 46 33 37 47 83 39 132 -3 23 -4 20 -6 -13z"/>
<path d="M4843 1015 c0 -33 2 -45 4 -27 2 18 2 45 0 60 -2 15 -4 0 -4 -33z"/>
<path d="M1343 1053 c9 -2 25 -2 35 0 9 3 1 5 -18 5 -19 0 -27 -2 -17 -5z"/>
<path d="M2468 1053 c6 -2 18 -2 25 0 6 3 1 5 -13 5 -14 0 -19 -2 -12 -5z"/>
<path d="M3060 1040 c-6 -11 -8 -20 -6 -20 3 0 10 9 16 20 6 11 8 20 6 20 -3
0 -10 -9 -16 -20z"/>
<path d="M3446 1045 c-9 -26 -7 -32 5 -12 6 10 9 21 6 23 -2 3 -7 -2 -11 -11z"/>
<path d="M3543 1004 c-17 -30 -27 -52 -22 -49 11 8 63 95 58 99 -2 2 -18 -21
-36 -50z"/>
<path d="M4803 900 c-2 -153 8 -192 20 -79 2 24 2 35 -2 24 -3 -11 -8 34 -11
100 l-6 120 -1 -165z"/>
<path d="M5700 1055 c0 -7 61 -37 66 -33 2 3 -12 12 -31 21 -19 9 -35 15 -35
12z"/>
<path d="M1423 1043 c9 -2 25 -2 35 0 9 3 1 5 -18 5 -19 0 -27 -2 -17 -5z"/>
<path d="M2418 1043 c6 -2 18 -2 25 0 6 3 1 5 -13 5 -14 0 -19 -2 -12 -5z"/>
<path d="M4983 990 c0 -36 2 -50 4 -32 2 17 2 47 0 65 -2 17 -4 3 -4 -33z"/>
<path d="M5143 1005 c0 -27 2 -38 4 -22 2 15 2 37 0 50 -2 12 -4 0 -4 -28z"/>
<path d="M5392 1025 c0 -16 2 -22 5 -12 2 9 2 23 0 30 -3 6 -5 -1 -5 -18z"/>
<path d="M778 1033 c7 -3 16 -2 19 1 4 3 -2 6 -13 5 -11 0 -14 -3 -6 -6z"/>
<path d="M1508 1033 c12 -2 30 -2 40 0 9 3 -1 5 -23 4 -22 0 -30 -2 -17 -4z"/>
<path d="M2358 1033 c6 -2 18 -2 25 0 6 3 1 5 -13 5 -14 0 -19 -2 -12 -5z"/>
<path d="M2705 1030 c-13 -5 -14 -9 -5 -9 8 0 24 4 35 9 13 5 14 9 5 9 -8 0
-24 -4 -35 -9z"/>
<path d="M4713 990 c0 -30 2 -43 4 -27 2 15 2 39 0 55 -2 15 -4 2 -4 -28z"/>
<path d="M818 1023 c6 -2 18 -2 25 0 6 3 1 5 -13 5 -14 0 -19 -2 -12 -5z"/>
<path d="M1598 1023 c12 -2 32 -2 45 0 12 2 2 4 -23 4 -25 0 -35 -2 -22 -4z"/>
<path d="M2283 1023 c9 -2 25 -2 35 0 9 3 1 5 -18 5 -19 0 -27 -2 -17 -5z"/>
<path d="M2941 1014 c0 -11 3 -14 6 -6 3 7 2 16 -1 19 -3 4 -6 -2 -5 -13z"/>
<path d="M3972 989 c-7 -24 -15 -51 -17 -59 -3 -8 4 4 16 28 11 24 19 50 17
59 -2 9 -9 -4 -16 -28z"/>
<path d="M5640 1026 c0 -3 9 -10 20 -16 11 -6 20 -8 20 -6 0 3 -9 10 -20 16
-11 6 -20 8 -20 6z"/>
<path d="M873 1013 c9 -2 23 -2 30 0 6 3 -1 5 -18 5 -16 0 -22 -2 -12 -5z"/>
<path d="M1718 1013 c18 -2 45 -2 60 0 15 2 0 4 -33 4 -33 0 -45 -2 -27 -4z"/>
<path d="M2173 1013 c15 -2 39 -2 55 0 15 2 2 4 -28 4 -30 0 -43 -2 -27 -4z"/>
<path d="M2658 1013 c7 -3 16 -2 19 1 4 3 -2 6 -13 5 -11 0 -14 -3 -6 -6z"/>
<path d="M3075 990 c-9 -16 -13 -30 -11 -30 3 0 12 14 21 30 9 17 13 30 11 30
-3 0 -12 -13 -21 -30z"/>
<path d="M5790 1010 c8 -5 22 -9 30 -9 10 0 8 3 -5 9 -27 12 -43 12 -25 0z"/>
<path d="M6011 1002 c-9 -13 -26 -17 -74 -16 l-62 2 60 -7 60 -7 -45 -22 c-25
-12 -38 -22 -30 -22 28 0 129 73 113 83 -5 3 -15 -2 -22 -11z"/>
<path d="M933 1003 c9 -2 23 -2 30 0 6 3 -1 5 -18 5 -16 0 -22 -2 -12 -5z"/>
<path d="M1913 1003 c37 -2 97 -2 135 0 37 2 6 3 -68 3 -74 0 -105 -1 -67 -3z"/>
<path d="M2608 1003 c6 -2 18 -2 25 0 6 3 1 5 -13 5 -14 0 -19 -2 -12 -5z"/>
<path d="M3030 990 c-6 -11 -8 -20 -6 -20 3 0 10 9 16 20 6 11 8 20 6 20 -3 0
-10 -9 -16 -20z"/>
<path d="M998 993 c12 -2 30 -2 40 0 9 3 -1 5 -23 4 -22 0 -30 -2 -17 -4z"/>
<path d="M2568 993 c7 -3 16 -2 19 1 4 3 -2 6 -13 5 -11 0 -14 -3 -6 -6z"/>
<path d="M2866 985 c-9 -26 -7 -32 5 -12 6 10 9 21 6 23 -2 3 -7 -2 -11 -11z"/>
<path d="M5848 993 c7 -3 16 -2 19 1 4 3 -2 6 -13 5 -11 0 -14 -3 -6 -6z"/>
<path d="M1078 983 c12 -2 32 -2 45 0 12 2 2 4 -23 4 -25 0 -35 -2 -22 -4z"/>
<path d="M2508 983 c6 -2 18 -2 25 0 6 3 1 5 -13 5 -14 0 -19 -2 -12 -5z"/>
<path d="M3411 963 c-10 -26 -10 -27 4 -9 8 11 15 23 15 28 0 15 -7 8 -19 -19z"/>
<path d="M4962 875 c0 -105 2 -114 10 -68 6 33 6 77 0 120 -9 66 -9 65 -10
-52z"/>
<path d="M5381 983 c-1 -6 -4 -20 -7 -30 -5 -17 -5 -17 6 0 6 10 9 23 6 30 -3
9 -5 9 -5 0z"/>
<path d="M5720 980 c8 -5 20 -10 25 -10 6 0 3 5 -5 10 -8 5 -19 10 -25 10 -5
0 -3 -5 5 -10z"/>
<path d="M1173 973 c15 -2 39 -2 55 0 15 2 2 4 -28 4 -30 0 -43 -2 -27 -4z"/>
<path d="M2448 973 c6 -2 18 -2 25 0 6 3 1 5 -13 5 -14 0 -19 -2 -12 -5z"/>
<path d="M4331 964 c0 -11 3 -14 6 -6 3 7 2 16 -1 19 -3 4 -6 -2 -5 -13z"/>
<path d="M1297 963 c18 -2 50 -2 70 0 21 2 7 4 -32 4 -38 0 -55 -2 -38 -4z"/>
<path d="M2358 963 c12 -2 32 -2 45 0 12 2 2 4 -23 4 -25 0 -35 -2 -22 -4z"/>
<path d="M5768 963 c7 -3 16 -2 19 1 4 3 -2 6 -13 5 -11 0 -14 -3 -6 -6z"/>
<path d="M1528 953 c39 -2 105 -2 145 0 39 1 7 3 -73 3 -80 0 -112 -2 -72 -3z"/>
<path d="M2213 953 c20 -2 54 -2 75 0 20 2 3 4 -38 4 -41 0 -58 -2 -37 -4z"/>
<path d="M2921 944 c0 -11 3 -14 6 -6 3 7 2 16 -1 19 -3 4 -6 -2 -5 -13z"/>
<path d="M2995 929 c-9 -17 -15 -33 -13 -35 3 -2 12 12 21 31 21 43 13 47 -8
4z"/>
<path d="M5818 953 c12 -2 30 -2 40 0 9 3 -1 5 -23 4 -22 0 -30 -2 -17 -4z"/>
<path d="M72 930 c0 -14 2 -19 5 -12 2 6 2 18 0 25 -3 6 -5 1 -5 -13z"/>
<path d="M3035 920 c-9 -16 -13 -30 -11 -30 3 0 12 14 21 30 9 17 13 30 11 30
-3 0 -12 -13 -21 -30z"/>
<path d="M5131 934 c0 -11 3 -14 6 -6 3 7 2 16 -1 19 -3 4 -6 -2 -5 -13z"/>
<path d="M5670 946 c0 -2 11 -6 25 -8 13 -3 22 -1 19 3 -5 9 -44 13 -44 5z"/>
<path d="M4832 910 c0 -19 2 -27 5 -17 2 9 2 25 0 35 -3 9 -5 1 -5 -18z"/>
<path d="M5629 913 l-24 -28 28 24 c15 14 27 26 27 28 0 8 -8 1 -31 -24z"/>
<path d="M4271 923 c-1 -6 -4 -20 -7 -30 -5 -17 -5 -17 6 0 6 10 9 23 6 30 -3
9 -5 9 -5 0z"/>
<path d="M5351 903 c-10 -26 -10 -27 4 -9 8 11 15 23 15 28 0 15 -7 8 -19 -19z"/>
<path d="M5853 923 c9 -2 25 -2 35 0 9 3 1 5 -18 5 -19 0 -27 -2 -17 -5z"/>
<path d="M2836 905 c-9 -26 -7 -32 5 -12 6 10 9 21 6 23 -2 3 -7 -2 -11 -11z"/>
<path d="M4288 874 c-26 -42 -28 -43 -85 -47 l-58 -3 60 -2 60 -2 29 45 c15
25 27 47 25 49 -2 2 -16 -16 -31 -40z"/>
<path d="M4723 870 c0 -30 2 -43 4 -27 2 15 2 39 0 55 -2 15 -4 2 -4 -28z"/>
<path d="M5765 910 c-14 -7 -8 -8 20 -3 22 3 42 7 44 9 9 8 -45 2 -64 -6z"/>
<path d="M11 894 c0 -11 3 -14 6 -6 3 7 2 16 -1 19 -3 4 -6 -2 -5 -13z"/>
<path d="M2911 894 c0 -11 3 -14 6 -6 3 7 2 16 -1 19 -3 4 -6 -2 -5 -13z"/>
<path d="M5115 891 c-3 -12 -23 -43 -42 -69 -20 -26 -26 -38 -13 -27 26 24 75
104 67 111 -3 3 -8 -4 -12 -15z"/>
<path d="M81 884 c0 -11 3 -14 6 -6 3 7 2 16 -1 19 -3 4 -6 -2 -5 -13z"/>
<path d="M5692 872 c-27 -25 -61 -107 -49 -118 2 -3 9 15 15 38 12 48 25 67
62 92 13 9 19 16 13 16 -6 0 -24 -13 -41 -28z"/>
<path d="M2995 850 c-9 -16 -13 -30 -11 -30 3 0 12 14 21 30 9 17 13 30 11 30
-3 0 -12 -13 -21 -30z"/>
<path d="M25 850 c13 -48 70 -132 119 -176 47 -41 163 -110 171 -102 2 2 -26
19 -62 38 -86 44 -162 119 -202 200 -18 36 -29 54 -26 40z"/>
<path d="M2816 855 c-9 -26 -7 -32 5 -12 6 10 9 21 6 23 -2 3 -7 -2 -11 -11z"/>
<path d="M2901 854 c0 -11 3 -14 6 -6 3 7 2 16 -1 19 -3 4 -6 -2 -5 -13z"/>
<path d="M4246 853 c-6 -14 -5 -15 5 -6 7 7 10 15 7 18 -3 3 -9 -2 -12 -12z"/>
<path d="M5291 819 c-57 -65 -98 -96 -168 -125 -32 -13 -51 -24 -42 -24 53 -1
215 117 249 180 16 29 10 25 -39 -31z"/>
<path d="M90 855 c0 -5 5 -17 10 -25 5 -8 10 -10 10 -5 0 6 -5 17 -10 25 -5 8
-10 11 -10 5z"/>
<path d="M5572 830 c-12 -16 -39 -39 -60 -49 -20 -11 -33 -20 -29 -21 24 -1
91 50 108 83 15 26 5 20 -19 -13z"/>
<path d="M2961 834 c0 -11 3 -14 6 -6 3 7 2 16 -1 19 -3 4 -6 -2 -5 -13z"/>
<path d="M3498 833 c117 -2 306 -2 420 0 114 1 18 2 -213 2 -231 0 -324 -1
-207 -2z"/>
<path d="M3208 823 c12 -2 30 -2 40 0 9 3 -1 5 -23 4 -22 0 -30 -2 -17 -4z"/>
<path d="M3148 813 c6 -2 18 -2 25 0 6 3 1 5 -13 5 -14 0 -19 -2 -12 -5z"/>
<path d="M4293 813 c9 -2 23 -2 30 0 6 3 -1 5 -18 5 -16 0 -22 -2 -12 -5z"/>
<path d="M2961 801 c-7 -5 -11 -15 -9 -22 3 -10 8 -7 17 9 13 24 12 26 -8 13z"/>
<path d="M3053 785 c-29 -13 -53 -27 -53 -30 0 -3 14 2 32 11 17 9 47 22 67
29 20 8 29 14 21 14 -8 1 -39 -10 -67 -24z"/>
<path d="M4348 803 c6 -2 18 -2 25 0 6 3 1 5 -13 5 -14 0 -19 -2 -12 -5z"/>
<path d="M3573 793 c37 -2 97 -2 135 0 37 2 6 3 -68 3 -74 0 -105 -1 -67 -3z"/>
<path d="M4398 793 c7 -3 16 -2 19 1 4 3 -2 6 -13 5 -11 0 -14 -3 -6 -6z"/>
<path d="M137 759 c10 -17 24 -36 32 -42 8 -7 2 7 -14 31 -32 49 -45 57 -18
11z"/>
<path d="M2786 775 c-9 -26 -7 -32 5 -12 6 10 9 21 6 23 -2 3 -7 -2 -11 -11z"/>
<path d="M2881 774 c0 -11 3 -14 6 -6 3 7 2 16 -1 19 -3 4 -6 -2 -5 -13z"/>
<path d="M3383 783 c15 -2 37 -2 50 0 12 2 0 4 -28 4 -27 0 -38 -2 -22 -4z"/>
<path d="M3833 783 c15 -2 39 -2 55 0 15 2 2 4 -28 4 -30 0 -43 -2 -27 -4z"/>
<path d="M3273 773 c9 -2 23 -2 30 0 6 3 -1 5 -18 5 -16 0 -22 -2 -12 -5z"/>
<path d="M3958 773 c12 -2 30 -2 40 0 9 3 -1 5 -23 4 -22 0 -30 -2 -17 -4z"/>
<path d="M4493 747 c18 -18 34 -31 36 -30 6 4 -51 63 -60 63 -4 0 7 -15 24
-33z"/>
<path d="M3193 763 c9 -2 23 -2 30 0 6 3 -1 5 -18 5 -16 0 -22 -2 -12 -5z"/>
<path d="M4043 763 c9 -2 23 -2 30 0 6 3 -1 5 -18 5 -16 0 -22 -2 -12 -5z"/>
<path d="M3128 753 c6 -2 18 -2 25 0 6 3 1 5 -13 5 -14 0 -19 -2 -12 -5z"/>
<path d="M4113 753 c9 -2 23 -2 30 0 6 3 -1 5 -18 5 -16 0 -22 -2 -12 -5z"/>
<path d="M2953 726 c-15 -13 -26 -26 -23 -28 3 -2 18 9 35 24 36 34 27 37 -12
4z"/>
<path d="M3078 743 c7 -3 16 -2 19 1 4 3 -2 6 -13 5 -11 0 -14 -3 -6 -6z"/>
<path d="M4168 743 c6 -2 18 -2 25 0 6 3 1 5 -13 5 -14 0 -19 -2 -12 -5z"/>
<path d="M5418 743 c7 -3 16 -2 19 1 4 3 -2 6 -13 5 -11 0 -14 -3 -6 -6z"/>
<path d="M3020 715 c-13 -14 -22 -26 -19 -28 2 -1 16 10 31 25 15 15 23 28 19
28 -4 0 -18 -11 -31 -25z"/>
<path d="M4228 733 c6 -2 18 -2 25 0 6 3 1 5 -13 5 -14 0 -19 -2 -12 -5z"/>
<path d="M5355 730 c-13 -5 -14 -9 -5 -9 8 0 24 4 35 9 13 5 14 9 5 9 -8 0
-24 -4 -35 -9z"/>
<path d="M5622 719 c-7 -11 -27 -27 -45 -34 -18 -8 -25 -14 -15 -15 19 0 86
55 78 64 -3 3 -11 -4 -18 -15z"/>
<path d="M4278 723 c7 -3 16 -2 19 1 4 3 -2 6 -13 5 -11 0 -14 -3 -6 -6z"/>
<path d="M2856 705 c-9 -26 -7 -32 5 -12 6 10 9 21 6 23 -2 3 -7 -2 -11 -11z"/>
<path d="M3608 713 c50 -2 134 -2 185 0 50 1 9 3 -93 3 -102 0 -143 -2 -92 -3z"/>
<path d="M4328 713 c7 -3 16 -2 19 1 4 3 -2 6 -13 5 -11 0 -14 -3 -6 -6z"/>
<path d="M2751 683 c-10 -26 -10 -27 4 -9 8 11 15 23 15 28 0 15 -7 8 -19 -19z"/>
<path d="M3378 703 c17 -2 47 -2 65 0 17 2 3 4 -33 4 -36 0 -50 -2 -32 -4z"/>
<path d="M3943 703 c15 -2 37 -2 50 0 12 2 0 4 -28 4 -27 0 -38 -2 -22 -4z"/>
<path d="M4368 703 c7 -3 16 -2 19 1 4 3 -2 6 -13 5 -11 0 -14 -3 -6 -6z"/>
<path d="M5270 700 c-8 -5 -10 -10 -5 -10 6 0 17 5 25 10 8 5 11 10 5 10 -5 0
-17 -5 -25 -10z"/>
<path d="M3253 693 c15 -2 37 -2 50 0 12 2 0 4 -28 4 -27 0 -38 -2 -22 -4z"/>
<path d="M4043 693 c9 -2 23 -2 30 0 6 3 -1 5 -18 5 -16 0 -22 -2 -12 -5z"/>
<path d="M4408 693 c7 -3 16 -2 19 1 4 3 -2 6 -13 5 -11 0 -14 -3 -6 -6z"/>
<path d="M3148 683 c12 -2 30 -2 40 0 9 3 -1 5 -23 4 -22 0 -30 -2 -17 -4z"/>
<path d="M4113 683 c9 -2 23 -2 30 0 6 3 -1 5 -18 5 -16 0 -22 -2 -12 -5z"/>
<path d="M5220 680 c-8 -5 -10 -10 -5 -10 6 0 17 5 25 10 8 5 11 10 5 10 -5 0
-17 -5 -25 -10z"/>
<path d="M2923 630 c0 -30 2 -43 4 -27 2 15 2 39 0 55 -2 15 -4 2 -4 -28z"/>
<path d="M4168 673 c6 -2 18 -2 25 0 6 3 1 5 -13 5 -14 0 -19 -2 -12 -5z"/>
<path d="M4512 655 c-7 -15 -30 -34 -55 -45 -23 -11 -35 -20 -27 -19 34 0 118
65 103 80 -6 6 -13 1 -21 -16z"/>
<path d="M5342 672 c-7 -5 16 -7 50 -4 85 5 96 10 23 11 -33 0 -66 -3 -73 -7z"/>
<path d="M4218 663 c6 -2 18 -2 25 0 6 3 1 5 -13 5 -14 0 -19 -2 -12 -5z"/>
<path d="M5038 663 c7 -3 16 -2 19 1 4 3 -2 6 -13 5 -11 0 -14 -3 -6 -6z"/>
<path d="M5508 663 c6 -2 18 -2 25 0 6 3 1 5 -13 5 -14 0 -19 -2 -12 -5z"/>
<path d="M3000 651 c0 -9 49 -56 53 -50 1 2 -10 16 -25 31 -15 15 -28 23 -28
19z"/>
<path d="M4268 653 c7 -3 16 -2 19 1 4 3 -2 6 -13 5 -11 0 -14 -3 -6 -6z"/>
<path d="M4983 653 c9 -2 23 -2 30 0 6 3 -1 5 -18 5 -16 0 -22 -2 -12 -5z"/>
<path d="M5128 639 c-21 -11 -38 -22 -38 -24 0 -5 79 32 89 41 12 11 -18 1
-51 -17z"/>
<path d="M5290 643 c-14 -9 -48 -38 -76 -63 -50 -47 -96 -76 -144 -91 -17 -5
-19 -8 -7 -8 30 -2 95 37 155 92 32 29 68 60 82 69 14 9 23 17 20 17 -3 1 -17
-7 -30 -16z"/>
<path d="M2700 629 c-19 -11 -28 -19 -19 -19 9 0 27 9 40 20 29 23 25 23 -21
-1z"/>
<path d="M2811 617 c-11 -18 -29 -41 -40 -51 -11 -10 -18 -22 -16 -26 9 -14
-87 -92 -148 -121 -35 -16 -49 -26 -32 -22 17 3 48 17 70 31 46 28 125 101
125 116 0 5 8 19 19 30 23 27 55 76 48 76 -3 0 -15 -15 -26 -33z"/>
<path d="M4908 643 c12 -2 30 -2 40 0 9 3 -1 5 -23 4 -22 0 -30 -2 -17 -4z"/>
<path d="M3238 618 c6 -6 18 -8 28 -6 14 3 12 5 -9 10 -19 3 -25 2 -19 -4z"/>
<path d="M4522 610 c0 -14 2 -19 5 -12 2 6 2 18 0 25 -3 6 -5 1 -5 -13z"/>
<path d="M3298 603 c6 -2 18 -2 25 0 6 3 1 5 -13 5 -14 0 -19 -2 -12 -5z"/>
<path d="M3348 593 c6 -2 18 -2 25 0 6 3 1 5 -13 5 -14 0 -19 -2 -12 -5z"/>
<path d="M4158 593 c6 -2 18 -2 25 0 6 3 1 5 -13 5 -14 0 -19 -2 -12 -5z"/>
<path d="M4665 554 c71 -24 134 -44 140 -43 5 0 -48 20 -120 45 -71 24 -134
44 -140 43 -5 0 48 -20 120 -45z"/>
<path d="M5034 584 c-18 -14 -18 -15 4 -4 12 6 22 13 22 15 0 8 -5 6 -26 -11z"/>
<path d="M3108 583 c6 -2 18 -2 25 0 6 3 1 5 -13 5 -14 0 -19 -2 -12 -5z"/>
<path d="M3413 583 c9 -2 23 -2 30 0 6 3 -1 5 -18 5 -16 0 -22 -2 -12 -5z"/>
<path d="M4093 583 c9 -2 25 -2 35 0 9 3 1 5 -18 5 -19 0 -27 -2 -17 -5z"/>
<path d="M4388 583 c7 -3 16 -2 19 1 4 3 -2 6 -13 5 -11 0 -14 -3 -6 -6z"/>
<path d="M3158 573 c6 -2 18 -2 25 0 6 3 1 5 -13 5 -14 0 -19 -2 -12 -5z"/>
<path d="M3483 573 c9 -2 25 -2 35 0 9 3 1 5 -18 5 -19 0 -27 -2 -17 -5z"/>
<path d="M4018 573 c12 -2 30 -2 40 0 9 3 -1 5 -23 4 -22 0 -30 -2 -17 -4z"/>
<path d="M4338 573 c6 -2 18 -2 25 0 6 3 1 5 -13 5 -14 0 -19 -2 -12 -5z"/>
<path d="M2801 546 c-1 -21 -17 -45 -61 -88 -33 -33 -60 -64 -60 -69 0 -16 44
-37 90 -43 42 -5 41 -5 -14 12 -65 19 -81 37 -44 51 12 6 17 10 9 10 -8 1 0
12 19 26 44 32 73 78 67 107 -4 19 -4 18 -6 -6z"/>
<path d="M2931 554 c0 -11 3 -14 6 -6 3 7 2 16 -1 19 -3 4 -6 -2 -5 -13z"/>
<path d="M3208 563 c6 -2 18 -2 25 0 6 3 1 5 -13 5 -14 0 -19 -2 -12 -5z"/>
<path d="M3588 563 c17 -2 47 -2 65 0 17 2 3 4 -33 4 -36 0 -50 -2 -32 -4z"/>
<path d="M3878 563 c17 -2 47 -2 65 0 17 2 3 4 -33 4 -36 0 -50 -2 -32 -4z"/>
<path d="M4288 563 c6 -2 18 -2 25 0 6 3 1 5 -13 5 -14 0 -19 -2 -12 -5z"/>
<path d="M4511 554 c0 -11 3 -14 6 -6 3 7 2 16 -1 19 -3 4 -6 -2 -5 -13z"/>
<path d="M3263 553 c9 -2 23 -2 30 0 6 3 -1 5 -18 5 -16 0 -22 -2 -12 -5z"/>
<path d="M4233 553 c9 -2 23 -2 30 0 6 3 -1 5 -18 5 -16 0 -22 -2 -12 -5z"/>
<path d="M4465 549 c-4 -6 -5 -12 -2 -15 2 -3 7 2 10 11 7 17 1 20 -8 4z"/>
<path d="M3323 543 c9 -2 25 -2 35 0 9 3 1 5 -18 5 -19 0 -27 -2 -17 -5z"/>
<path d="M4163 543 c9 -2 23 -2 30 0 6 3 -1 5 -18 5 -16 0 -22 -2 -12 -5z"/>
<path d="M418 533 c8 -3 13 -30 14 -76 1 -41 3 -56 5 -35 4 40 10 43 83 52 19
2 9 3 -22 2 -54 -2 -58 -1 -58 21 0 13 6 23 13 24 14 0 -22 18 -38 18 -5 -1
-4 -3 3 -6z"/>
<path d="M3403 533 c9 -2 25 -2 35 0 9 3 1 5 -18 5 -19 0 -27 -2 -17 -5z"/>
<path d="M4083 533 c9 -2 25 -2 35 0 9 3 1 5 -18 5 -19 0 -27 -2 -17 -5z"/>
<path d="M2940 525 c0 -5 5 -17 10 -25 5 -8 10 -10 10 -5 0 6 -5 17 -10 25 -5
8 -10 11 -10 5z"/>
<path d="M3503 523 c15 -2 37 -2 50 0 12 2 0 4 -28 4 -27 0 -38 -2 -22 -4z"/>
<path d="M3973 523 c15 -2 37 -2 50 0 12 2 0 4 -28 4 -27 0 -38 -2 -22 -4z"/>
<path d="M470 516 c0 -6 249 -65 300 -70 l45 -6 -45 11 c-25 5 -100 23 -168
40 -133 31 -132 31 -132 25z"/>
<path d="M3682 513 c37 -2 100 -2 140 0 40 1 10 3 -67 3 -77 0 -110 -1 -73 -3z"/>
<path d="M4446 505 c-9 -26 -7 -32 5 -12 6 10 9 21 6 23 -2 3 -7 -2 -11 -11z"/>
<path d="M4501 504 c0 -11 3 -14 6 -6 3 7 2 16 -1 19 -3 4 -6 -2 -5 -13z"/>
<path d="M2635 490 c-13 -6 -15 -9 -5 -9 8 0 22 4 30 9 18 12 2 12 -25 0z"/>
<path d="M4858 493 c7 -3 16 -2 19 1 4 3 -2 6 -13 5 -11 0 -14 -3 -6 -6z"/>
<path d="M4903 483 c9 -2 23 -2 30 0 6 3 -1 5 -18 5 -16 0 -22 -2 -12 -5z"/>
<path d="M2588 473 c7 -3 16 -2 19 1 4 3 -2 6 -13 5 -11 0 -14 -3 -6 -6z"/>
<path d="M4491 464 c0 -11 3 -14 6 -6 3 7 2 16 -1 19 -3 4 -6 -2 -5 -13z"/>
<path d="M4973 473 c15 -2 37 -2 50 0 12 2 0 4 -28 4 -27 0 -38 -2 -22 -4z"/>
<path d="M585 460 c27 -12 43 -12 25 0 -8 5 -22 9 -30 9 -10 0 -8 -3 5 -9z"/>
<path d="M2533 463 c9 -2 23 -2 30 0 6 3 -1 5 -18 5 -16 0 -22 -2 -12 -5z"/>
<path d="M4426 455 c-9 -26 -7 -32 5 -12 6 10 9 21 6 23 -2 3 -7 -2 -11 -11z"/>
<path d="M478 453 c7 -3 16 -2 19 1 4 3 -2 6 -13 5 -11 0 -14 -3 -6 -6z"/>
<path d="M2463 453 c9 -2 25 -2 35 0 9 3 1 5 -18 5 -19 0 -27 -2 -17 -5z"/>
<path d="M518 443 c6 -2 18 -2 25 0 6 3 1 5 -13 5 -14 0 -19 -2 -12 -5z"/>
<path d="M648 438 c12 -8 20 -17 17 -20 -3 -3 12 -8 35 -12 22 -3 40 -10 40
-15 0 -4 11 -6 25 -3 22 4 16 8 -37 27 -35 12 -72 25 -83 29 -15 6 -15 4 3 -6z"/>
<path d="M2393 443 c9 -2 23 -2 30 0 6 3 -1 5 -18 5 -16 0 -22 -2 -12 -5z"/>
<path d="M568 433 c6 -2 18 -2 25 0 6 3 1 5 -13 5 -14 0 -19 -2 -12 -5z"/>
<path d="M833 433 c9 -2 23 -2 30 0 6 3 -1 5 -18 5 -16 0 -22 -2 -12 -5z"/>
<path d="M2313 433 c9 -2 25 -2 35 0 9 3 1 5 -18 5 -19 0 -27 -2 -17 -5z"/>
<path d="M2990 420 c6 -11 13 -20 16 -20 2 0 0 9 -6 20 -6 11 -13 20 -16 20
-2 0 0 -9 6 -20z"/>
<path d="M3075 420 c10 -11 20 -20 23 -20 3 0 -3 9 -13 20 -10 11 -20 20 -23
20 -3 0 3 -9 13 -20z"/>
<path d="M4346 423 c-6 -14 -5 -15 5 -6 7 7 10 15 7 18 -3 3 -9 -2 -12 -12z"/>
<path d="M618 423 c7 -3 16 -2 19 1 4 3 -2 6 -13 5 -11 0 -14 -3 -6 -6z"/>
<path d="M893 423 c9 -2 25 -2 35 0 9 3 1 5 -18 5 -19 0 -27 -2 -17 -5z"/>
<path d="M2228 423 c12 -2 30 -2 40 0 9 3 -1 5 -23 4 -22 0 -30 -2 -17 -4z"/>
<path d="M2778 423 c18 -2 45 -2 60 0 15 2 0 4 -33 4 -33 0 -45 -2 -27 -4z"/>
<path d="M963 413 c9 -2 25 -2 35 0 9 3 1 5 -18 5 -19 0 -27 -2 -17 -5z"/>
<path d="M2128 413 c12 -2 32 -2 45 0 12 2 2 4 -23 4 -25 0 -35 -2 -22 -4z"/>
<path d="M2900 410 c34 -11 60 -11 35 0 -11 5 -29 8 -40 8 -16 0 -15 -2 5 -8z"/>
<path d="M1038 403 c12 -2 32 -2 45 0 12 2 2 4 -23 4 -25 0 -35 -2 -22 -4z"/>
<path d="M2023 403 c15 -2 37 -2 50 0 12 2 0 4 -28 4 -27 0 -38 -2 -22 -4z"/>
<path d="M4471 403 c-1 -6 -4 -20 -7 -30 -5 -17 -5 -17 6 0 6 10 9 23 6 30 -3
9 -5 9 -5 0z"/>
<path d="M1148 393 c18 -2 45 -2 60 0 15 2 0 4 -33 4 -33 0 -45 -2 -27 -4z"/>
<path d="M1898 393 c18 -2 45 -2 60 0 15 2 0 4 -33 4 -33 0 -45 -2 -27 -4z"/>
<path d="M2991 381 c41 -23 102 -94 91 -106 -4 -5 -2 -5 4 -2 7 4 17 0 24 -8
7 -9 32 -30 54 -47 27 -20 21 -12 -16 21 -31 28 -73 73 -92 100 -19 26 -41 48
-48 48 -7 0 -22 4 -33 7 -11 4 -4 -2 16 -13z"/>
<path d="M818 383 c12 -2 30 -2 40 0 9 3 -1 5 -23 4 -22 0 -30 -2 -17 -4z"/>
<path d="M1313 383 c37 -2 96 -2 130 0 34 2 4 3 -68 3 -71 0 -99 -1 -62 -3z"/>
<path d="M1633 383 c37 -2 97 -2 135 0 37 2 6 3 -68 3 -74 0 -105 -1 -67 -3z"/>
<path d="M2518 383 c7 -3 16 -2 19 1 4 3 -2 6 -13 5 -11 0 -14 -3 -6 -6z"/>
<path d="M3150 340 c30 -28 69 -61 85 -72 42 -30 22 -10 -65 61 -67 56 -69 57
-20 11z"/>
<path d="M441 372 c-2 -40 69 -132 102 -132 7 0 -2 9 -20 20 -32 19 -49 42
-70 95 -6 17 -12 24 -12 17z"/>
<path d="M927 373 c18 -2 50 -2 70 0 21 2 7 4 -32 4 -38 0 -55 -2 -38 -4z"/>
<path d="M2478 373 c7 -3 16 -2 19 1 4 3 -2 6 -13 5 -11 0 -14 -3 -6 -6z"/>
<path d="M726 353 c-6 -14 -5 -15 5 -6 7 7 10 15 7 18 -3 3 -9 -2 -12 -12z"/>
<path d="M1088 363 c18 -2 45 -2 60 0 15 2 0 4 -33 4 -33 0 -45 -2 -27 -4z"/>
<path d="M2428 363 c6 -2 18 -2 25 0 6 3 1 5 -13 5 -14 0 -19 -2 -12 -5z"/>
<path d="M4271 326 c-24 -25 -69 -58 -100 -75 -31 -17 -51 -31 -46 -31 22 0
113 61 155 104 24 25 42 46 39 46 -3 0 -24 -20 -48 -44z"/>
<path d="M1218 353 c18 -2 45 -2 60 0 15 2 0 4 -33 4 -33 0 -45 -2 -27 -4z"/>
<path d="M2373 353 c9 -2 23 -2 30 0 6 3 -1 5 -18 5 -16 0 -22 -2 -12 -5z"/>
<path d="M1343 343 c15 -2 39 -2 55 0 15 2 2 4 -28 4 -30 0 -43 -2 -27 -4z"/>
<path d="M2255 340 l-50 -7 45 0 c25 0 59 3 75 7 26 7 27 8 5 7 -14 0 -47 -3
-75 -7z"/>
<path d="M2644 331 c-39 -24 -51 -41 -29 -41 9 0 14 4 10 9 -6 11 22 29 64 42
21 6 22 7 6 8 -11 1 -34 -8 -51 -18z"/>
<path d="M4446 335 c-9 -26 -7 -32 5 -12 6 10 9 21 6 23 -2 3 -7 -2 -11 -11z"/>
<path d="M1478 333 c18 -2 45 -2 60 0 15 2 0 4 -33 4 -33 0 -45 -2 -27 -4z"/>
<path d="M2828 333 c6 -2 18 -2 25 0 6 3 1 5 -13 5 -14 0 -19 -2 -12 -5z"/>
<path d="M4351 307 c-21 -34 -104 -117 -151 -150 -24 -17 -23 -17 9 0 41 21
129 108 154 152 24 42 14 40 -12 -2z"/>
<path d="M681 287 c-29 -35 -30 -38 -7 -17 24 22 52 60 44 60 -2 0 -18 -19
-37 -43z"/>
<path d="M1638 323 c23 -2 59 -2 80 0 20 2 1 4 -43 4 -44 0 -61 -2 -37 -4z"/>
<path d="M2088 323 c17 -2 47 -2 65 0 17 2 3 4 -33 4 -36 0 -50 -2 -32 -4z"/>
<path d="M2545 288 c-16 -24 -22 -38 -14 -31 15 12 53 73 46 73 -2 0 -17 -19
-32 -42z"/>
<path d="M2878 323 c7 -3 16 -2 19 1 4 3 -2 6 -13 5 -11 0 -14 -3 -6 -6z"/>
<path d="M1878 313 c23 -2 59 -2 80 0 20 2 1 4 -43 4 -44 0 -61 -2 -37 -4z"/>
<path d="M2918 313 c7 -3 16 -2 19 1 4 3 -2 6 -13 5 -11 0 -14 -3 -6 -6z"/>
<path d="M2958 303 c7 -3 16 -2 19 1 4 3 -2 6 -13 5 -11 0 -14 -3 -6 -6z"/>
<path d="M2998 293 c7 -3 16 -2 19 1 4 3 -2 6 -13 5 -11 0 -14 -3 -6 -6z"/>
<path d="M2640 282 c0 -5 14 -7 30 -4 17 2 30 6 30 8 0 2 -13 4 -30 4 -16 0
-30 -4 -30 -8z"/>
<path d="M2728 273 c6 -2 18 -2 25 0 6 3 1 5 -13 5 -14 0 -19 -2 -12 -5z"/>
<path d="M4410 260 c-6 -11 -8 -20 -6 -20 3 0 10 9 16 20 6 11 8 20 6 20 -3 0
-10 -9 -16 -20z"/>
<path d="M2332 238 c16 -16 38 -28 51 -27 19 1 18 2 -7 9 -16 5 -38 17 -50 27
-12 10 -9 6 6 -9z"/>
<path d="M2595 244 l-30 -26 33 22 c17 12 32 23 32 26 0 7 -4 5 -35 -22z"/>
<path d="M2793 263 c9 -2 23 -2 30 0 6 3 -1 5 -18 5 -16 0 -22 -2 -12 -5z"/>
<path d="M2863 253 c9 -2 23 -2 30 0 6 3 -1 5 -18 5 -16 0 -22 -2 -12 -5z"/>
<path d="M3050 250 c-8 -5 -10 -10 -5 -10 6 0 17 5 25 10 8 5 11 10 5 10 -5 0
-17 -5 -25 -10z"/>
<path d="M590 240 c-35 -7 -35 -7 -5 -9 17 0 37 4 45 9 17 11 11 11 -40 0z"/>
<path d="M2928 243 c6 -2 18 -2 25 0 6 3 1 5 -13 5 -14 0 -19 -2 -12 -5z"/>
<path d="M3274 241 c7 -11 46 -35 46 -28 0 3 -12 12 -26 22 -15 9 -23 12 -20
6z"/>
<path d="M2998 233 c6 -2 18 -2 25 0 6 3 1 5 -13 5 -14 0 -19 -2 -12 -5z"/>
<path d="M4340 171 c-30 -31 -66 -65 -80 -74 -23 -16 -23 -17 -2 -6 31 14 97
74 123 111 29 40 21 34 -41 -31z"/>
<path d="M2428 213 c6 -2 18 -2 25 0 6 3 1 5 -13 5 -14 0 -19 -2 -12 -5z"/>
<path d="M2525 194 l-30 -26 33 22 c17 12 32 23 32 26 0 7 -4 5 -35 -22z"/>
<path d="M3330 205 c0 -7 101 -57 106 -53 2 2 -21 16 -51 31 -30 15 -55 25
-55 22z"/>
<path d="M4048 203 c6 -2 18 -2 25 0 6 3 1 5 -13 5 -14 0 -19 -2 -12 -5z"/>
<path d="M2900 140 c-29 -33 -50 -60 -47 -60 3 0 28 27 57 60 29 33 50 60 47
60 -3 0 -28 -27 -57 -60z"/>
<path d="M3927 193 c18 -2 50 -2 70 0 21 2 7 4 -32 4 -38 0 -55 -2 -38 -4z"/>
<path d="M2991 156 l-24 -31 28 27 c16 15 27 29 24 31 -2 3 -15 -10 -28 -27z"/>
<path d="M3214 181 c7 -11 46 -35 46 -28 0 3 -12 12 -26 22 -15 9 -23 12 -20
6z"/>
<path d="M2439 133 c-13 -16 -12 -17 4 -4 16 13 21 21 13 21 -2 0 -10 -8 -17
-17z"/>
<path d="M3270 145 c0 -7 121 -67 126 -63 2 2 -26 18 -61 36 -36 17 -65 30
-65 27z"/>
<path d="M4120 120 c-8 -5 -10 -10 -5 -10 6 0 17 5 25 10 8 5 11 10 5 10 -5 0
-17 -5 -25 -10z"/>
<path d="M2399 99 c-8 -16 -8 -24 1 -33 8 -8 10 -7 5 5 -5 13 -1 16 17 14 13
-1 15 0 5 2 -11 3 -16 10 -13 19 8 21 -2 17 -15 -7z"/>
<path d="M2866 69 c-33 -21 -55 -39 -50 -39 11 0 114 68 114 75 0 7 1 8 -64
-36z"/>
<path d="M2515 60 c-25 -22 -42 -40 -38 -40 5 0 14 5 19 10 8 8 15 6 24 -5 14
-17 56 -20 65 -5 4 6 11 8 16 5 5 -4 9 1 9 9 0 9 9 21 20 28 26 17 26 29 -1
20 -11 -4 -26 -19 -32 -32 -9 -18 -21 -25 -42 -25 -41 0 -39 23 4 52 20 13 27
23 18 23 -9 0 -37 -18 -62 -40z"/>
<path d="M3598 93 c7 -3 16 -2 19 1 4 3 -2 6 -13 5 -11 0 -14 -3 -6 -6z"/>
<path d="M3638 83 c6 -2 18 -2 25 0 6 3 1 5 -13 5 -14 0 -19 -2 -12 -5z"/>
<path d="M4008 83 c6 -2 18 -2 25 0 6 3 1 5 -13 5 -14 0 -19 -2 -12 -5z"/>
<path d="M2675 65 c-3 -8 -7 -21 -9 -29 -3 -8 -15 -16 -28 -19 -13 -2 -4 -4
19 -3 23 0 38 3 32 7 -8 4 -5 15 6 33 16 24 16 26 1 26 -9 0 -19 -7 -21 -15z"/>
<path d="M3703 73 c9 -2 23 -2 30 0 6 3 -1 5 -18 5 -16 0 -22 -2 -12 -5z"/>
<path d="M3948 73 c6 -2 18 -2 25 0 6 3 1 5 -13 5 -14 0 -19 -2 -12 -5z"/>
<path d="M3813 63 c15 -2 39 -2 55 0 15 2 2 4 -28 4 -30 0 -43 -2 -27 -4z"/>
<path d="M4180 60 c-8 -5 -10 -10 -5 -10 6 0 17 5 25 10 8 5 11 10 5 10 -5 0
-17 -5 -25 -10z"/>
<path d="M2390 40 c6 -11 13 -20 16 -20 2 0 0 9 -6 20 -6 11 -13 20 -16 20 -2
0 0 -9 6 -20z"/>
<path d="M2736 31 c-19 -26 -19 -26 0 -9 13 12 24 14 34 8 8 -5 20 -10 25 -10
6 1 1 6 -10 12 -11 6 -22 15 -25 19 -3 4 -14 -5 -24 -20z"/>
<path d="M2417 39 c7 -7 15 -10 18 -7 3 3 -2 9 -12 12 -14 6 -15 5 -6 -5z"/>
<path d="M4108 33 c7 -3 16 -2 19 1 4 3 -2 6 -13 5 -11 0 -14 -3 -6 -6z"/>
<path d="M3588 23 c7 -3 16 -2 19 1 4 3 -2 6 -13 5 -11 0 -14 -3 -6 -6z"/>
<path d="M4068 23 c7 -3 16 -2 19 1 4 3 -2 6 -13 5 -11 0 -14 -3 -6 -6z"/>
<path d="M2428 13 c6 -2 18 -2 25 0 6 3 1 5 -13 5 -14 0 -19 -2 -12 -5z"/>
<path d="M3653 13 c9 -2 23 -2 30 0 6 3 -1 5 -18 5 -16 0 -22 -2 -12 -5z"/>
<path d="M4003 13 c9 -2 23 -2 30 0 6 3 -1 5 -18 5 -16 0 -22 -2 -12 -5z"/>
<path d="M3773 3 c37 -2 97 -2 135 0 37 2 6 3 -68 3 -74 0 -105 -1 -67 -3z"/>
</g>
</svg>
