<?xml version="1.0" standalone="no"?>
<!DOCTYPE svg PUBLIC "-//W3C//DTD SVG 20010904//EN"
 "http://www.w3.org/TR/2001/REC-SVG-20010904/DTD/svg10.dtd">
<svg version="1.0" xmlns="http://www.w3.org/2000/svg"
 width="645.000000pt" height="387.000000pt" viewBox="0 0 645.000000 387.000000"
 preserveAspectRatio="xMidYMid meet">

<g transform="translate(0.000000,387.000000) scale(0.100000,-0.100000)"
fill="#fff" stroke="none">
<path d="M3205 3570 c-162 -35 -278 -126 -350 -274 -55 -112 -65 -168 -65
-355 0 -90 -5 -193 -11 -227 -13 -77 -1 -123 43 -157 27 -22 29 -27 18 -47
-27 -51 -9 -173 42 -273 15 -30 16 -41 7 -59 -28 -52 -41 -132 -46 -288 l-6
-165 -34 75 c-19 41 -50 115 -69 163 l-34 88 17 62 c9 34 20 66 24 70 4 5 21
-12 38 -37 18 -25 36 -46 42 -46 26 0 16 35 -29 102 -27 40 -52 89 -56 108
-11 58 -99 214 -124 220 -15 3 -44 42 -89 115 -83 136 -111 175 -125 175 -19
0 3 -53 71 -169 65 -110 68 -119 64 -168 -4 -40 -9 -52 -24 -56 -10 -3 -22
-13 -26 -24 -3 -10 -12 -22 -20 -26 -53 -32 -54 -137 -2 -303 l31 -100 -31
-34 c-43 -48 -47 -67 -20 -96 25 -26 40 -25 18 2 -8 10 -10 19 -4 21 27 9 183
107 207 130 15 15 29 25 31 22 2 -2 19 -42 37 -89 28 -72 183 -396 196 -409 2
-2 7 -2 10 2 4 3 -12 40 -35 82 l-41 77 0 162 c0 159 9 243 31 298 l11 27 44
-47 c24 -26 55 -69 69 -96 20 -40 25 -45 25 -25 0 29 -19 59 -71 114 -46 49
-118 220 -126 301 -5 50 -2 62 32 130 40 78 43 114 5 45 -22 -38 -24 -39 -45
-25 -37 24 -49 66 -40 142 4 37 8 146 9 242 2 161 4 181 29 255 78 233 249
358 488 358 70 0 87 -4 146 -34 77 -40 159 -110 202 -176 49 -74 72 -148 82
-268 8 -89 16 -122 40 -175 42 -89 48 -158 20 -248 -26 -86 -27 -152 -2 -223
41 -121 36 -175 -24 -254 -33 -43 -34 -48 -25 -88 16 -68 11 -205 -10 -297
-20 -89 -25 -128 -13 -116 10 10 42 169 49 246 4 38 1 97 -6 138 -12 72 -12
72 16 104 61 73 68 138 28 269 -28 93 -27 114 6 239 26 97 22 131 -29 248 -22
53 -30 88 -34 162 -12 211 -112 360 -307 460 -50 26 -181 36 -255 20z m-690
-941 c47 -78 84 -143 82 -145 -2 -3 -42 57 -88 133 -90 147 -93 153 -86 153 3
0 44 -63 92 -141z m59 -147 c8 -15 20 -56 26 -92 7 -36 17 -73 22 -83 6 -13 3
-25 -11 -44 -22 -27 -29 -97 -12 -108 5 -3 9 13 8 37 -2 36 4 51 33 86 l34 43
-32 65 c-34 68 -40 98 -19 92 35 -12 107 -160 107 -221 0 -59 -41 -200 -67
-232 -23 -27 -118 -95 -134 -95 -3 0 -23 53 -44 118 -44 134 -58 262 -32 296
17 24 47 15 47 -14 0 -23 -10 -26 -28 -8 -9 9 -12 9 -12 0 0 -14 31 -31 48
-25 6 3 12 13 12 24 0 10 5 19 10 19 6 0 10 -6 10 -14 0 -8 5 -18 10 -21 7 -4
9 7 6 32 -21 160 -15 208 18 145z m-44 -81 c0 -5 3 -16 6 -24 3 -8 -2 -17 -10
-20 -17 -7 -41 27 -31 43 8 13 35 13 35 1z m115 -62 c4 -16 2 -30 -4 -33 -6
-4 -11 1 -11 11 0 10 -3 29 -6 43 -5 17 -4 22 4 15 6 -5 14 -22 17 -36z m133
-145 c13 -20 22 -38 19 -40 -2 -2 -16 14 -31 36 -14 22 -23 40 -19 40 5 0 18
-16 31 -36z m47 -64 c3 -5 1 -10 -4 -10 -6 0 -11 5 -11 10 0 6 2 10 4 10 3 0
8 -4 11 -10z m-321 -196 c8 -20 10 -17 -31 -38 -39 -19 -41 -14 -10 24 26 34
33 36 41 14z"/>
<path d="M3420 3472 c0 -4 23 -18 51 -30 32 -15 60 -38 77 -62 15 -22 30 -39
35 -40 32 -1 -46 86 -104 115 -52 27 -59 29 -59 17z"/>
<path d="M3118 3464 c-39 -12 -15 -21 30 -12 165 32 323 -71 401 -262 25 -63
55 -101 124 -155 68 -54 58 -29 -13 34 -50 44 -69 70 -106 148 -53 110 -112
176 -195 219 -44 23 -69 28 -139 30 -47 2 -93 0 -102 -2z"/>
<path d="M2929 3348 c-46 -61 -58 -88 -39 -88 6 0 10 6 10 14 0 7 18 34 41 60
24 26 35 46 27 46 -8 0 -25 -14 -39 -32z"/>
<path d="M3083 3364 c3 -3 29 -7 57 -9 77 -6 149 -30 216 -73 82 -53 119 -100
164 -211 22 -54 53 -108 71 -127 28 -29 31 -38 26 -70 -4 -21 -16 -47 -27 -58
l-20 -20 0 27 c0 15 -4 27 -10 27 -5 0 -10 -17 -10 -38 0 -45 -25 -136 -47
-169 -9 -13 -13 -26 -10 -29 14 -14 66 98 67 144 0 14 9 27 24 33 26 12 46 48
46 83 0 12 3 25 6 29 9 8 55 -16 78 -42 24 -27 40 -27 26 -1 -6 11 -37 33 -70
50 -72 37 -100 71 -141 180 -52 135 -157 227 -303 266 -51 14 -155 19 -143 8z"/>
<path d="M3010 3327 c0 -36 26 -53 140 -92 141 -49 212 -87 249 -132 20 -25
31 -32 31 -21 0 27 -61 80 -125 108 -33 15 -103 42 -155 60 -111 39 -120 45
-120 76 0 13 -4 24 -10 24 -5 0 -10 -11 -10 -23z"/>
<path d="M2938 3243 c-20 -21 -41 -48 -47 -60 -18 -34 -13 -114 13 -220 13
-54 28 -129 34 -168 29 -188 196 -390 308 -372 31 5 36 3 46 -21 19 -49 14
-161 -11 -232 -13 -36 -26 -93 -29 -128 -4 -54 -2 -67 17 -92 27 -38 27 -56
-4 -96 -30 -39 -31 -55 -6 -78 32 -29 32 -54 -1 -92 -16 -18 -26 -34 -20 -34
16 0 62 59 62 80 0 10 -11 31 -24 47 l-24 29 29 44 c34 51 35 59 10 91 -29 38
-34 66 -21 133 17 89 20 92 65 61 49 -32 74 -39 136 -33 l49 5 0 -62 c0 -75
16 -122 70 -212 38 -63 41 -72 38 -125 -5 -67 7 -78 16 -15 8 53 -2 85 -52
171 -22 37 -46 91 -53 118 -12 53 -7 153 12 207 6 17 9 36 6 43 -2 7 -12 -13
-22 -45 -12 -42 -23 -61 -40 -69 -32 -15 -106 -2 -147 25 l-33 23 0 122 0 122
41 31 c41 31 121 126 112 134 -2 3 -28 -18 -57 -46 -136 -131 -252 -116 -363
46 -26 39 -57 95 -69 125 -20 54 -54 239 -44 248 8 8 54 -27 67 -50 7 -15 11
-59 10 -120 -2 -96 -2 -98 20 -98 38 1 122 26 111 33 -6 4 -32 0 -59 -8 -26
-8 -51 -12 -55 -10 -4 3 -4 42 -2 87 7 109 -10 153 -67 175 -35 14 -42 22 -55
66 -29 99 -13 161 58 222 22 19 34 35 26 35 -8 0 -31 -17 -51 -37z"/>
<path d="M3610 3278 c0 -18 69 -155 83 -167 10 -7 17 -9 17 -3 0 5 -6 15 -14
21 -8 7 -24 37 -37 69 -19 50 -49 98 -49 80z"/>
<path d="M3420 3158 c0 -20 75 -177 91 -190 24 -20 39 -23 39 -8 0 6 -6 10
-14 10 -21 0 -43 35 -66 106 -12 34 -28 68 -36 74 -8 7 -14 11 -14 8z"/>
<path d="M2840 3126 c0 -2 -4 -27 -10 -55 -8 -44 -6 -62 10 -109 23 -66 24
-87 8 -181 -12 -72 0 -151 23 -151 7 0 8 7 4 18 -16 35 -17 88 -5 166 11 76
11 85 -10 140 -22 57 -23 110 -4 159 3 10 1 17 -5 17 -6 0 -11 -2 -11 -4z"/>
<path d="M3140 2998 c-19 -13 -36 -29 -38 -37 -3 -8 11 -2 30 12 19 15 52 31
74 36 l39 9 -36 1 c-22 1 -49 -8 -69 -21z"/>
<path d="M3176 2910 c8 -31 24 -50 24 -29 0 8 -7 24 -16 35 -14 18 -15 18 -8
-6z"/>
<path d="M2960 2882 c0 -5 7 -17 16 -28 14 -17 15 -17 10 -1 -3 10 -6 23 -6
28 0 5 -4 9 -10 9 -5 0 -10 -4 -10 -8z"/>
<path d="M3660 2748 c0 -91 3 -109 25 -151 16 -29 31 -82 40 -142 8 -52 19
-103 25 -113 9 -14 10 -10 5 18 -3 19 -10 68 -16 108 -6 40 -23 100 -39 134
-28 58 -29 67 -23 149 4 60 2 88 -6 93 -8 5 -11 -21 -11 -96z"/>
<path d="M3739 2740 c-6 -45 -4 -58 7 -48 3 3 4 26 2 49 l-3 44 -6 -45z"/>
<path d="M3860 2706 c0 -2 18 -35 40 -72 47 -80 49 -103 15 -176 -22 -46 -24
-62 -19 -118 5 -57 2 -76 -26 -150 -30 -81 -31 -89 -25 -185 6 -86 4 -109 -13
-160 -11 -33 -18 -62 -16 -65 9 -9 23 25 39 92 12 53 13 82 5 141 -10 70 -9
78 20 156 24 67 30 98 30 166 0 71 4 91 26 132 19 37 24 56 19 83 -9 50 -95
191 -95 156z"/>
<path d="M3565 2615 c2 -44 5 -145 7 -225 3 -139 4 -148 34 -211 30 -63 101
-155 112 -145 2 3 -9 21 -26 40 -73 83 -111 193 -112 318 0 99 8 98 66 -9 49
-92 94 -151 94 -125 0 6 -4 14 -10 17 -14 8 -114 192 -134 245 -9 25 -21 74
-26 110 l-9 65 4 -80z"/>
<path d="M3207 2643 c-11 -11 -38 -18 -79 -21 -35 -2 -67 -8 -72 -12 -4 -5 20
-6 55 -4 62 5 129 28 129 46 0 13 -14 9 -33 -9z"/>
<path d="M3135 2580 l-20 -9 20 0 c11 0 27 4 35 9 13 9 13 10 0 9 -8 0 -24 -4
-35 -9z"/>
<path d="M2912 2523 c-34 -91 -21 -135 64 -217 62 -61 64 -64 64 -114 0 -50 1
-53 50 -89 57 -43 76 -82 86 -177 4 -36 11 -66 16 -66 5 0 7 15 4 33 -3 17 -8
52 -11 76 -9 68 -32 107 -87 147 -50 35 -50 35 -43 80 6 44 6 45 -58 112 -35
37 -69 77 -76 89 -14 28 -13 69 3 116 15 42 4 52 -12 10z"/>
<path d="M3974 2491 c3 -5 26 -12 52 -16 65 -9 126 -38 174 -81 92 -84 105
-161 96 -564 -11 -477 -22 -693 -35 -725 -20 -49 -60 -94 -102 -115 -21 -11
-39 -24 -39 -29 0 -5 -57 -14 -127 -21 -160 -15 -604 -69 -621 -75 -9 -3 -1
-28 28 -85 22 -44 39 -80 37 -80 -2 0 -18 23 -36 51 -17 28 -35 49 -38 45 -3
-3 5 -23 19 -43 13 -21 46 -78 73 -126 36 -65 53 -86 64 -82 30 12 312 75 424
95 62 12 166 23 232 26 66 2 164 6 218 9 87 4 97 2 97 -13 0 -15 -18 -19 -132
-30 -72 -7 -210 -26 -307 -42 -178 -30 -479 -95 -489 -105 -13 -13 8 -13 58 0
87 24 334 74 467 96 103 16 371 49 411 49 7 0 12 13 12 29 0 25 -16 43 -97
113 -193 166 -226 189 -255 184 -37 -7 -35 0 5 20 75 38 112 96 131 208 l13
71 20 -45 c12 -25 47 -74 80 -110 32 -36 66 -77 75 -90 12 -18 17 -21 17 -9 1
9 -33 55 -73 103 -41 48 -78 97 -82 109 -3 12 -15 32 -26 43 -24 27 -27 119
-10 409 16 279 5 579 -25 645 -38 85 -118 146 -230 175 -65 17 -87 19 -79 6z
m283 -1608 c109 -89 212 -177 212 -184 1 -3 -83 -9 -186 -12 -211 -7 -314 -21
-547 -74 -89 -20 -172 -38 -186 -40 -23 -4 -30 6 -93 133 -38 75 -65 140 -60
144 12 12 637 85 753 89 29 1 48 -9 107 -56z"/>
<path d="M3080 2405 c0 -12 35 -75 42 -75 4 0 17 -9 28 -20 15 -15 20 -34 21
-77 0 -32 5 -67 10 -78 6 -14 8 6 6 63 -4 82 -4 82 -45 120 -23 22 -42 46 -42
55 0 10 -4 17 -10 17 -5 0 -10 -2 -10 -5z"/>
<path d="M4130 2353 c0 -5 11 -20 25 -33 14 -13 25 -19 25 -13 0 5 -11 20 -25
33 -14 13 -25 19 -25 13z"/>
<path d="M4120 2306 c0 -3 11 -23 24 -44 14 -20 28 -49 31 -65 4 -15 12 -30
18 -34 12 -7 2 39 -19 84 -15 30 -54 74 -54 59z"/>
<path d="M2960 2066 c0 -3 10 -21 21 -41 19 -32 20 -40 9 -79 -15 -54 -8 -77
33 -112 31 -26 32 -30 32 -102 0 -54 4 -76 13 -80 11 -3 12 0 2 18 -9 17 -9
33 -1 65 15 62 15 61 -30 106 l-41 40 7 58 c5 44 3 66 -9 89 -14 28 -36 51
-36 38z"/>
<path d="M3474 2014 c-12 -66 1 -118 46 -183 24 -34 51 -88 61 -123 14 -49 18
-56 18 -32 1 46 -17 91 -65 162 -49 72 -59 109 -46 170 6 23 6 42 1 42 -4 0
-11 -16 -15 -36z"/>
<path d="M3600 1998 c0 -14 23 -86 49 -152 6 -16 14 -26 17 -23 5 5 -52 176
-61 186 -3 2 -5 -2 -5 -11z"/>
<path d="M3050 1949 c0 -8 18 -36 40 -63 40 -48 40 -49 34 -112 -7 -63 -6 -64
29 -99 35 -35 57 -44 57 -25 0 6 -6 10 -14 10 -8 0 -24 12 -35 26 -17 21 -21
41 -21 98 0 69 -1 73 -41 121 -23 28 -43 52 -45 54 -2 2 -4 -2 -4 -10z"/>
<path d="M3946 1952 c-6 -10 -26 -450 -26 -584 0 -75 -1 -79 -36 -118 -55 -60
-164 -89 -571 -149 -190 -28 -192 -28 -211 -8 -19 19 -19 20 -2 51 28 48 66
327 43 313 -6 -4 -13 -50 -16 -104 -6 -92 -25 -179 -46 -212 -9 -14 -29 -2
-91 52 -34 31 -41 30 -214 -15 -39 -10 -56 -24 -129 -106 -21 -24 -40 -42 -42
-40 -3 2 -11 98 -19 214 -9 115 -18 232 -21 259 -8 63 5 51 35 -35 30 -88 71
-176 104 -228 43 -68 41 -43 -3 39 -22 41 -56 117 -76 169 -20 52 -42 100 -50
105 -7 6 -16 42 -20 80 -9 87 -27 133 -57 144 -25 9 -346 37 -878 76 -326 24
-336 24 -360 6 -15 -10 -26 -30 -28 -47 -2 -16 17 -212 42 -434 25 -223 48
-443 51 -490 6 -74 20 -140 31 -140 2 0 241 -51 531 -114 706 -153 677 -148
707 -137 13 6 28 17 33 25 4 8 60 32 123 54 238 83 565 204 577 214 28 23 10
37 -74 58 -40 10 -43 13 -43 44 0 19 -15 63 -33 100 l-34 66 31 5 c17 3 108
17 201 30 202 30 338 57 429 85 56 18 71 27 101 67 l35 46 0 196 c0 108 5 256
10 330 10 128 9 154 -4 133z m-2191 -122 c413 -31 705 -57 738 -66 38 -12 42
-41 77 -529 45 -641 48 -690 39 -707 -6 -11 -21 -18 -39 -18 -47 0 -1194 250
-1207 263 -6 7 -17 66 -23 132 -6 66 -31 298 -55 515 -40 354 -43 397 -29 417
19 29 0 29 499 -7z m1210 -639 c3 -5 -4 -12 -15 -16 -11 -3 -20 -11 -20 -16 0
-6 10 -7 23 -4 44 14 50 11 127 -65 67 -66 99 -117 114 -182 5 -24 2 -28 -30
-38 -19 -7 -48 -10 -62 -7 -15 4 -54 11 -87 17 -90 17 -110 40 -49 60 32 11
38 10 58 -9 12 -12 29 -21 37 -21 9 1 3 10 -14 25 -34 30 -53 31 -136 5 -44
-14 -68 -17 -75 -10 -7 7 -6 14 4 24 19 17 133 62 183 71 20 4 37 11 37 15 0
11 -76 -5 -142 -30 -55 -20 -116 -64 -165 -116 -45 -49 -67 -16 -30 44 42 66
156 141 215 142 12 0 22 5 22 10 0 14 -12 13 -67 -6 -63 -22 -114 -57 -202
-143 -40 -39 -75 -71 -77 -71 -2 0 -4 12 -4 26 0 19 21 50 75 109 64 71 83 85
137 105 63 23 93 40 70 40 -12 0 -104 -34 -138 -51 -12 -6 -47 -42 -79 -80
-31 -38 -60 -69 -66 -69 -5 0 -9 11 -9 23 0 16 26 52 75 105 70 75 79 81 133
92 31 7 68 16 82 20 35 12 68 12 75 1z m-35 -296 c24 -22 89 -36 190 -41 79
-3 200 -31 200 -45 0 -8 -22 -17 -334 -130 -355 -129 -356 -129 -356 -104 0 8
5 15 11 15 5 0 74 25 152 55 185 72 190 75 185 80 -4 4 -227 51 -330 69 -53
10 -51 40 4 86 25 20 39 27 35 17 -6 -16 16 -47 34 -47 5 0 25 15 45 33 31 28
42 32 89 31 38 0 61 -6 75 -19z m-154 -141 c71 -14 136 -27 144 -30 8 -3 -52
-32 -135 -64 -82 -33 -151 -58 -152 -56 -2 2 -7 42 -10 90 -5 72 -4 86 9 86 8
0 73 -11 144 -26z"/>
<path d="M1551 962 c-36 -56 -43 -94 -8 -42 51 76 59 90 49 90 -5 0 -24 -22
-41 -48z"/>
<path d="M1494 943 c-45 -69 -66 -113 -54 -113 5 0 19 19 31 43 12 23 30 54
41 70 11 15 18 32 16 37 -2 6 -17 -11 -34 -37z"/>
<path d="M1421 905 c-20 -43 -28 -75 -15 -62 14 13 53 107 45 107 -5 0 -18
-20 -30 -45z"/>
<path d="M2638 754 c6 -3 12 -12 12 -19 0 -8 10 -16 23 -18 18 -3 16 -5 -8 -6
-26 -2 -27 -3 -10 -11 27 -12 57 -12 51 -1 -4 5 -1 11 6 13 21 7 -17 38 -54
43 -18 3 -27 3 -20 -1z"/>
<path d="M2655 670 c27 -12 35 -12 35 0 0 6 -12 10 -27 9 -25 0 -26 -1 -8 -9z"/>
<path d="M3131 1598 c-1 -63 23 -123 93 -233 52 -83 96 -190 96 -236 0 -10 5
-19 10 -19 29 0 -25 158 -86 252 -67 105 -87 148 -100 218 l-12 65 -1 -47z"/>
<path d="M3502 1461 c6 -16 159 -144 165 -137 3 3 4 7 2 9 -2 1 -38 33 -80 70
-73 63 -95 78 -87 58z"/>
<path d="M3282 1449 c2 -6 73 -47 158 -91 122 -62 167 -81 211 -85 31 -3 59
-1 62 4 3 5 -16 10 -46 10 -44 1 -75 13 -220 87 -93 47 -167 81 -165 75z"/>
<path d="M3991 1286 c14 -13 99 -43 99 -36 0 11 -64 40 -88 40 -8 0 -13 -2
-11 -4z"/>
<path d="M3970 1246 c0 -3 22 -12 49 -21 27 -9 55 -23 61 -31 14 -16 30 -19
30 -5 0 12 -98 61 -122 61 -10 0 -18 -2 -18 -4z"/>
<path d="M4598 980 c-196 -3 -360 -9 -364 -13 -10 -10 980 2 1106 13 100 9
-194 9 -742 0z"/>
<path d="M3230 741 c-8 -5 -143 -55 -300 -112 -157 -56 -287 -104 -289 -106
-2 -2 -2 -5 1 -8 5 -5 594 206 626 224 16 10 15 10 -3 10 -11 0 -27 -3 -35 -8z"/>
<path d="M3391 668 c29 -54 123 -188 132 -188 5 0 2 10 -7 23 -8 12 -39 59
-68 104 -29 46 -57 83 -61 83 -4 0 -2 -10 4 -22z"/>
<path d="M4115 640 c-77 -10 -192 -27 -255 -39 -111 -20 -310 -67 -319 -77
-13 -13 15 -9 110 16 129 34 296 63 484 85 77 9 158 20 180 24 l40 9 -50 0
c-27 0 -113 -8 -190 -18z"/>
</g>
</svg>
