<?xml version="1.0" standalone="no"?>
<!DOCTYPE svg PUBLIC "-//W3C//DTD SVG 20010904//EN"
 "http://www.w3.org/TR/2001/REC-SVG-20010904/DTD/svg10.dtd">
<svg version="1.0" xmlns="http://www.w3.org/2000/svg"
 width="513.000000pt" height="487.000000pt" viewBox="0 0 513.000000 487.000000"
 preserveAspectRatio="xMidYMid meet">

<g transform="translate(0.000000,487.000000) scale(0.100000,-0.100000)"
fill="#fff" stroke="white" stroke-width="2">
<path d="M3788 4183 c6 -2 18 -2 25 0 6 3 1 5 -13 5 -14 0 -19 -2 -12 -5z"/>
<path d="M3738 4173 c7 -3 16 -2 19 1 4 3 -2 6 -13 5 -11 0 -14 -3 -6 -6z"/>
<path d="M3650 4160 c-20 -6 -21 -8 -5 -8 11 0 31 4 45 8 20 6 21 8 5 8 -11 0
-31 -4 -45 -8z"/>
<path d="M3935 4160 c3 -5 11 -10 16 -10 6 0 7 5 4 10 -3 6 -11 10 -16 10 -6
0 -7 -4 -4 -10z"/>
<path d="M3388 4153 c17 -2 47 -2 65 0 17 2 3 4 -33 4 -36 0 -50 -2 -32 -4z"/>
<path d="M3491 4146 c2 -2 15 -9 29 -15 24 -11 24 -11 6 3 -16 13 -49 24 -35
12z"/>
<path d="M3588 4143 c7 -3 16 -2 19 1 4 3 -2 6 -13 5 -11 0 -14 -3 -6 -6z"/>
<path d="M3970 4146 c0 -2 8 -10 18 -17 15 -13 16 -12 3 4 -13 16 -21 21 -21
13z"/>
<path d="M3284 4124 c-18 -14 -18 -14 6 -3 31 14 36 19 24 19 -6 0 -19 -7 -30
-16z"/>
<path d="M3225 4088 c-16 -11 -66 -38 -110 -59 -44 -22 -69 -37 -55 -33 37 10
151 69 180 93 32 26 24 26 -15 -1z"/>
<path d="M2985 3980 c-13 -5 -14 -9 -5 -9 8 0 24 4 35 9 13 5 14 9 5 9 -8 0
-24 -4 -35 -9z"/>
<path d="M4150 3987 c0 -4 11 -29 24 -55 39 -77 57 -190 66 -411 12 -273 -16
-574 -66 -728 -23 -71 -25 -106 -4 -73 14 22 12 -37 -5 -155 -17 -121 -18
-135 -5 -135 6 0 10 24 10 53 1 69 24 222 37 239 6 7 13 29 17 48 7 38 22 93
67 238 16 51 29 98 28 105 -1 6 -9 -14 -19 -45 -11 -31 -29 -67 -41 -79 l-22
-22 8 29 c4 16 11 45 16 64 l8 35 -18 -24 c-17 -23 -17 -20 -5 80 7 57 13 147
14 200 0 57 5 100 11 106 9 9 9 31 0 88 -6 42 -11 95 -11 118 -1 23 -7 53 -15
67 -16 29 -18 40 -7 40 9 0 86 -105 114 -155 11 -19 17 -24 18 -13 0 9 -31 58
-69 109 -49 65 -76 113 -90 159 -18 57 -61 139 -61 117z"/>
<path d="M2775 3969 c33 -4 78 -10 100 -13 l40 -5 -40 10 c-22 6 -67 12 -100
14 l-60 3 60 -9z"/>
<path d="M2678 3963 c6 -2 18 -2 25 0 6 3 1 5 -13 5 -14 0 -19 -2 -12 -5z"/>
<path d="M2928 3963 c6 -2 18 -2 25 0 6 3 1 5 -13 5 -14 0 -19 -2 -12 -5z"/>
<path d="M2638 3953 c7 -3 16 -2 19 1 4 3 -2 6 -13 5 -11 0 -14 -3 -6 -6z"/>
<path d="M2572 3933 c-18 -8 -31 -18 -28 -20 2 -2 21 5 43 16 45 24 33 28 -15
4z"/>
<path d="M3997 3855 c3 -38 16 -110 30 -160 75 -280 71 -452 -18 -725 -46
-140 -126 -281 -139 -244 -9 24 -2 44 22 67 27 26 22 31 -8 8 -15 -12 -32 -21
-39 -21 -39 0 -172 -189 -159 -225 4 -8 0 -25 -8 -38 -15 -22 -22 -49 -38
-147 -10 -58 0 -179 26 -304 8 -38 14 -81 14 -96 0 -15 7 -33 15 -40 21 -18
20 -24 -29 -156 -57 -154 -192 -705 -199 -809 -2 -33 -8 -43 -42 -67 -71 -50
-78 -53 -70 -28 5 14 2 25 -6 31 -11 6 -7 37 20 161 18 84 39 176 46 203 8 28
16 77 20 110 4 33 13 85 21 115 25 97 33 337 16 502 -8 81 -19 145 -24 142 -4
-3 -8 -23 -8 -44 0 -21 -3 -47 -7 -57 -6 -15 -9 -13 -15 12 -4 17 -4 -6 -1
-50 4 -44 7 -103 8 -132 0 -28 3 -54 6 -58 4 -3 5 -45 4 -93 l-2 -87 6 70 7
70 2 -72 c1 -50 -2 -76 -12 -86 -8 -8 -16 -27 -18 -43 -3 -29 -3 -29 -108 -42
-58 -7 -107 -17 -108 -23 -2 -5 -8 -7 -13 -4 -5 3 -26 3 -46 -1 -31 -6 -34 -8
-18 -15 11 -4 14 -8 8 -8 -18 -1 -16 -21 1 -21 7 0 16 9 19 20 3 11 13 20 22
20 14 0 15 -3 5 -15 -19 -23 4 -18 25 5 10 11 28 20 39 20 19 -1 19 -2 4 -11
-27 -15 -22 -46 7 -53 14 -4 33 -2 42 3 13 7 10 10 -15 16 -18 3 -32 10 -32
14 0 18 38 39 80 45 l45 7 -29 -30 c-16 -17 -28 -32 -25 -34 15 -12 70 -28 78
-22 6 3 11 -1 11 -9 0 -18 -10 -19 -181 -16 -67 1 -109 -3 -114 -9 -4 -8 38
-11 139 -11 80 0 146 -3 146 -7 0 -22 -32 -181 -55 -271 -14 -56 -28 -131 -31
-165 -7 -68 -25 -95 -98 -144 -23 -15 -43 -31 -46 -34 -11 -13 -50 -29 -73
-29 -21 0 -24 4 -20 27 3 24 2 25 -6 8 -20 -43 -17 -44 109 -44 92 0 136 5
185 20 67 20 76 30 50 55 -21 21 -19 29 10 42 24 11 25 10 20 -11 -5 -20 -1
-25 29 -34 21 -7 38 -7 42 -2 3 5 17 9 31 9 25 0 25 -1 10 -18 -23 -25 -21
-42 3 -42 12 0 20 6 18 13 -3 18 12 57 23 57 5 0 9 7 9 15 0 12 8 14 40 9 33
-5 40 -4 40 9 0 14 5 15 26 7 36 -14 39 -13 54 18 l13 27 7 -30 7 -30 8 28
c11 42 -10 59 -36 28 -19 -23 -19 -23 -19 -2 0 28 -36 28 -43 0 -5 -18 -9 -19
-27 -9 -27 15 -37 6 -19 -16 13 -16 10 -16 -34 -10 -47 7 -48 7 -41 -18 6 -24
3 -26 -25 -26 -27 0 -31 4 -32 28 l0 27 -10 -25 c-6 -13 -12 -26 -14 -28 -8
-9 -35 27 -35 47 0 25 -8 26 -34 6 -41 -31 -34 -13 13 33 47 45 49 49 44 92
-3 32 9 101 41 238 25 107 48 198 51 203 4 5 24 9 46 9 22 0 48 4 57 9 23 12
172 25 152 13 -8 -5 -46 -14 -85 -21 -38 -6 -92 -15 -120 -20 l-50 -9 45 -1
c25 0 82 8 128 18 l82 18 0 -23 c0 -13 -9 -63 -21 -111 -29 -127 -59 -285 -58
-308 1 -11 10 21 20 70 27 126 77 327 89 359 5 15 14 24 20 21 14 -8 13 -171
-1 -197 -8 -14 -8 -23 0 -31 6 -6 11 -51 11 -108 0 -92 -1 -97 -20 -92 -24 6
-24 4 -5 -33 18 -35 19 -57 3 -101 -17 -46 2 -58 51 -32 42 22 48 19 25 -15
-24 -37 -11 -43 39 -18 32 17 37 22 20 22 -17 0 -23 6 -23 21 0 18 -5 21 -34
17 -34 -4 -34 -4 -40 46 -7 63 0 73 9 12 13 -83 22 -48 21 78 -1 101 -3 122
-15 118 -12 -4 -13 9 -8 79 3 46 9 95 13 108 5 17 4 22 -4 17 -9 -5 -12 12
-12 63 0 117 0 117 -127 125 -59 3 -122 9 -140 12 -25 5 -32 2 -37 -13 -3 -10
-3 2 0 27 3 25 19 83 35 130 63 176 69 194 69 220 0 14 -4 30 -9 36 -12 12
-38 124 -46 198 -4 33 -9 65 -12 73 -3 7 2 13 11 13 12 0 16 9 16 34 0 36 15
46 73 46 28 0 36 13 16 26 -8 4 -2 12 16 21 24 13 27 19 22 54 -3 21 -1 41 4
45 10 6 7 53 -5 72 -16 26 -25 10 -11 -19 9 -17 14 -38 11 -46 -6 -14 -8 -14
-24 -1 -9 8 -25 18 -35 21 -10 4 -16 11 -13 15 3 5 -5 7 -19 5 -20 -4 -23 -2
-18 16 5 21 36 37 53 26 5 -3 10 -4 10 -1 0 3 -11 11 -25 19 l-26 13 21 24
c11 12 20 31 20 41 0 10 5 21 10 24 6 4 8 10 5 15 -4 7 68 80 79 80 2 0 4 -18
4 -40 1 -33 -5 -46 -30 -68 -17 -15 -36 -26 -42 -24 -6 2 0 -8 13 -22 25 -26
37 -34 26 -16 -3 5 -1 19 6 31 9 17 13 19 20 8 5 -8 9 -25 9 -38 0 -14 6 -32
13 -40 18 -21 37 -197 37 -333 0 -85 -6 -134 -30 -235 -17 -70 -36 -138 -42
-150 -8 -17 -7 -37 5 -85 9 -35 19 -93 23 -130 4 -40 11 -68 18 -68 6 0 28 14
49 31 37 30 47 26 26 -12 -5 -11 -8 -28 -6 -37 3 -12 8 -7 17 17 12 31 14 33
21 15 4 -10 8 -135 8 -276 1 -141 5 -259 10 -262 4 -3 14 -34 21 -68 15 -71
39 -128 40 -93 0 11 -11 65 -24 120 -19 80 -25 139 -30 300 l-6 200 29 -111
c16 -61 34 -122 41 -134 8 -15 10 -44 6 -82 -4 -42 -3 -57 5 -52 15 9 6 148
-10 168 -17 20 -26 103 -25 221 1 64 -1 89 -6 70 -7 -29 -8 -29 -9 9 -1 45
-17 39 -24 -9 -2 -18 -5 -7 -6 26 -1 41 6 69 24 107 30 62 30 59 9 147 l-17
70 42 180 c23 98 44 182 48 185 3 3 3 -42 0 -100 -4 -58 -9 -168 -13 -245 -3
-77 -12 -162 -19 -190 -7 -27 -16 -70 -18 -95 -2 -25 -2 -36 1 -25 9 39 43
-197 35 -245 -7 -43 -8 -41 -14 40 l-5 85 -2 -90 c-2 -95 5 -119 27 -106 10 7
12 43 6 182 -3 96 -7 201 -7 234 -3 94 21 569 33 683 8 76 8 107 0 115 -8 8
-11 4 -12 -13 -1 -14 -1 -29 0 -33 4 -22 -43 -266 -79 -415 -22 -92 -43 -177
-45 -188 -3 -13 1 -24 9 -27 28 -11 23 -157 -6 -157 -4 0 -8 -8 -8 -18 0 -19
-18 -42 -32 -42 -5 0 -2 13 7 30 21 40 20 57 -2 38 -43 -36 -44 -27 -3 30 24
34 41 64 38 67 -2 3 -31 -27 -64 -67 l-59 -71 -12 54 c-12 51 -11 73 3 179 8
57 44 202 54 215 4 6 10 32 14 59 5 39 13 55 38 75 48 39 68 60 68 71 0 13
-12 13 -44 0 -38 -14 -32 -2 27 51 28 26 49 50 45 54 -4 4 -28 -4 -54 -19 -25
-14 -49 -26 -51 -26 -3 0 18 29 46 64 28 35 51 67 51 70 0 17 -20 0 -69 -60
-62 -74 -63 -73 -76 28 -6 45 -4 56 9 61 9 4 16 12 16 20 0 7 19 31 43 53 23
22 63 64 90 93 l47 53 0 -48 c0 -27 4 -44 8 -39 12 14 -6 816 -19 838 -5 10
-7 27 -4 38 10 29 -5 125 -16 108 -6 -10 -9 -6 -9 13 0 20 -6 27 -22 30 -24 3
-24 4 -52 148 l-15 75 6 -70z m100 -257 c-3 -8 -6 -5 -6 6 -1 11 2 17 5 13 3
-3 4 -12 1 -19z m-38 -614 c-46 -70 -52 -74 -34 -25 8 25 22 72 31 105 23 92
28 97 32 30 3 -55 0 -67 -29 -110z m51 -16 c0 -9 -87 -116 -134 -163 -44 -45
-40 -38 30 55 27 36 58 82 69 102 13 25 22 33 27 25 4 -7 8 -15 8 -19z m-33
-105 c-25 -32 -72 -87 -106 -123 -59 -64 -74 -90 -48 -90 6 1 43 27 82 60 38
32 72 57 74 54 3 -3 -35 -44 -84 -92 l-89 -87 -14 48 c-15 55 -11 77 16 77 21
0 95 75 161 163 24 32 46 55 48 53 3 -3 -15 -31 -40 -63z m43 -21 c0 -20 -8
-32 -30 -45 -16 -10 -30 -16 -30 -12 0 7 51 85 56 85 2 0 4 -13 4 -28z m-406
-354 c-4 -7 -3 -8 4 -4 15 9 54 -12 47 -25 -4 -5 1 -9 9 -9 17 0 32 -42 21
-59 -14 -24 -41 -30 -69 -16 -14 8 -24 10 -21 5 4 -6 21 -18 38 -27 l32 -17
-44 -8 c-24 -4 -48 -5 -52 -2 -5 3 -9 -14 -9 -38 0 -31 -3 -39 -10 -28 -11 17
-13 102 -4 150 4 19 15 35 28 40 12 5 15 9 9 9 -23 2 -15 41 8 41 13 0 18 -4
13 -12z m250 -212 c-21 -15 -30 -14 -19 3 3 6 14 11 23 11 13 0 13 -2 -4 -14z
m-504 -273 c0 -5 -5 -15 -10 -23 -8 -12 -10 -11 -10 8 0 12 5 22 10 22 6 0 10
-3 10 -7z m1 -154 c-6 -16 -10 -18 -10 -7 -1 22 12 55 16 42 2 -6 -1 -22 -6
-35z m444 -228 c-3 -6 -11 -11 -17 -11 -6 0 -6 6 2 15 14 17 26 13 15 -4z
m-197 -87 c18 -5 20 -9 11 -21 -10 -11 -14 -11 -21 -1 -7 10 -11 9 -19 -4 -14
-25 -28 -22 -22 5 5 20 2 19 -21 -8 -19 -22 -24 -25 -19 -10 14 44 36 53 91
39z m72 -13 c0 -5 -7 -11 -15 -15 -9 -3 -15 0 -15 9 0 8 7 15 15 15 8 0 15 -4
15 -9z m70 -5 c0 -3 -4 -8 -10 -11 -5 -3 -10 -1 -10 4 0 6 5 11 10 11 6 0 10
-2 10 -4z m-440 -730 c0 -3 -4 -8 -10 -11 -5 -3 -10 -1 -10 4 0 6 5 11 10 11
6 0 10 -2 10 -4z m-180 -26 c0 -5 -5 -10 -11 -10 -5 0 -7 5 -4 10 3 6 8 10 11
10 2 0 4 -4 4 -10z"/>
<path d="M3710 2400 c35 -24 54 -31 30 -11 -14 11 -29 21 -35 21 -5 0 -3 -5 5
-10z"/>
<path d="M3660 2375 c0 -8 10 -19 23 -25 21 -11 22 -11 2 5 -17 14 -18 17 -5
25 13 8 12 10 -2 10 -10 0 -18 -7 -18 -15z"/>
<path d="M2445 3870 c-3 -5 -1 -10 4 -10 6 0 11 5 11 10 0 6 -2 10 -4 10 -3 0
-8 -4 -11 -10z"/>
<path d="M1508 3853 c6 -2 18 -2 25 0 6 3 1 5 -13 5 -14 0 -19 -2 -12 -5z"/>
<path d="M1450 3840 c8 -5 20 -10 25 -10 6 0 3 5 -5 10 -8 5 -19 10 -25 10 -5
0 -3 -5 5 -10z"/>
<path d="M1573 3825 c15 -15 27 -31 27 -36 0 -4 6 -14 14 -21 20 -21 30 -58
15 -58 -9 0 -8 -5 4 -17 26 -26 29 -11 8 48 -11 30 -20 50 -20 45 -1 -5 -11 6
-23 24 -13 19 -30 36 -38 38 -8 3 -3 -8 13 -23z"/>
<path d="M2409 3823 c-13 -16 -12 -17 4 -4 9 7 17 15 17 17 0 8 -8 3 -21 -13z"/>
<path d="M1355 3810 c-3 -6 1 -7 9 -4 18 7 21 14 7 14 -6 0 -13 -4 -16 -10z"/>
<path d="M1517 3809 c7 -7 15 -10 18 -7 3 3 -2 9 -12 12 -14 6 -15 5 -6 -5z"/>
<path d="M2378 3778 c-8 -13 -25 -42 -37 -65 -12 -24 -28 -43 -37 -43 -8 0
-28 -14 -43 -31 -17 -18 -31 -27 -35 -21 -4 7 -16 6 -34 -4 -30 -15 -83 -19
-97 -6 -6 5 -23 5 -40 1 -16 -3 -22 -7 -12 -8 22 -1 22 1 -15 -110 -29 -90
-36 -101 -108 -176 -81 -85 -157 -182 -260 -334 -35 -52 -66 -88 -68 -82 -3 8
-8 9 -16 2 -6 -6 -43 -12 -81 -14 l-70 -3 72 -2 71 -2 -11 -37 c-6 -21 -28
-66 -48 -100 -53 -87 -81 -143 -77 -155 2 -6 21 23 42 63 72 137 251 410 354
539 112 142 230 240 287 240 7 0 15 4 17 9 4 10 142 81 181 92 28 8 110 -12
131 -31 5 -5 -20 -41 -57 -83 -100 -111 -217 -260 -217 -276 0 -16 -78 -121
-90 -121 -34 0 -49 -265 -26 -464 9 -76 16 -167 16 -202 0 -41 4 -64 11 -64
12 0 11 15 -11 260 -17 191 -8 432 18 449 9 7 79 100 127 171 17 25 82 107
144 182 l114 137 42 -30 c23 -17 60 -48 80 -69 l38 -39 -37 6 c-51 8 -100 -21
-199 -116 -43 -42 -82 -76 -86 -76 -5 0 -41 -63 -81 -140 -40 -77 -78 -147
-85 -155 -7 -8 -16 -25 -19 -37 -4 -13 -12 -23 -17 -23 -12 0 -11 -65 3 -120
6 -25 11 -54 12 -65 2 -29 58 -132 63 -117 6 16 23 5 23 -14 0 -8 -4 -12 -10
-9 -5 3 -10 2 -10 -4 0 -19 64 -332 105 -509 12 -51 14 -77 7 -84 -7 -7 -14 3
-22 33 -7 24 -29 96 -50 159 -66 198 -91 289 -111 394 l-19 101 6 -75 c6 -79
36 -205 79 -330 14 -41 37 -115 50 -165 l24 -90 -33 39 c-28 32 -103 171 -145
266 -10 23 -10 22 -5 -10 11 -59 97 -225 157 -303 16 -21 26 -41 22 -45 -3 -4
-38 -7 -76 -7 l-70 0 -41 125 c-23 68 -43 119 -46 111 -5 -14 20 -109 49 -189
23 -65 24 -62 -3 -63 -16 -1 -12 -4 12 -9 21 -5 36 -5 38 1 5 12 142 12 142 0
0 -5 -9 -12 -20 -16 -33 -11 -70 -63 -70 -101 0 -21 4 -33 10 -29 6 3 10 18
10 32 0 34 81 113 109 106 22 -5 17 -41 -7 -59 -20 -15 -8 -44 18 -44 12 0 35
-13 51 -29 17 -17 29 -24 29 -16 0 16 -47 55 -66 55 -17 0 -17 23 -1 70 13 39
9 38 167 24 l66 -6 11 -71 c12 -71 29 -126 132 -415 28 -79 51 -152 51 -163 0
-17 21 -25 22 -9 0 14 -41 141 -103 316 -52 147 -67 200 -59 210 8 9 8 29 1
70 -15 77 -16 74 24 74 23 0 35 5 35 14 0 11 63 42 188 93 11 5 12 2 4 -13
-23 -41 -40 -101 -33 -112 4 -7 -3 -63 -15 -125 -25 -120 -30 -197 -14 -197 6
0 10 13 10 29 0 16 5 31 11 33 13 4 50 153 74 299 10 57 23 109 29 115 6 7 55
26 109 44 54 18 96 34 93 37 -3 3 -24 -2 -48 -11 -24 -8 -134 -47 -246 -86
-190 -66 -208 -70 -289 -70 -145 0 -221 51 -224 152 l-1 33 -7 -30 c-7 -29 -7
-29 -19 17 -7 26 -12 55 -12 65 0 15 2 16 10 3 18 -28 10 -2 -9 32 -17 29 -30
94 -47 233 l-5 40 33 -40 c18 -22 60 -67 93 -100 33 -33 84 -86 114 -118 54
-58 74 -68 88 -44 4 7 35 19 68 26 33 7 70 15 83 18 17 4 21 2 16 -11 -8 -22
5 -20 30 3 14 13 77 32 194 58 94 21 172 41 172 44 0 4 -44 -4 -97 -16 -54
-13 -117 -26 -140 -30 l-42 -7 44 68 c25 38 45 73 44 79 0 5 -6 2 -12 -8 -7
-10 -29 -46 -51 -79 -37 -57 -60 -77 -73 -65 -3 3 25 42 62 85 66 77 69 79 99
71 37 -11 323 -12 329 -1 3 4 -67 8 -154 8 -179 2 -256 14 -154 24 l60 7 -58
1 c-71 2 -108 20 -135 66 -11 18 -49 67 -84 107 -34 41 -90 107 -122 147 -32
40 -68 78 -80 84 -12 6 -27 18 -34 27 -8 9 -11 10 -7 3 3 -6 -1 -15 -9 -18 -9
-3 -13 -10 -11 -15 3 -5 -5 -11 -19 -15 -14 -3 -29 -18 -36 -35 -7 -16 -18
-29 -24 -28 -30 1 -99 38 -146 79 -29 25 -60 50 -68 56 -13 9 -7 29 46 138 58
119 63 126 91 126 16 0 33 5 36 11 5 7 25 8 55 4 27 -4 59 -4 70 0 21 7 21 8
-11 41 -18 18 -30 36 -27 39 2 3 13 -4 23 -15 10 -11 24 -20 32 -20 7 0 13 -5
13 -11 0 -8 5 -8 15 1 8 7 15 9 15 6 0 -13 66 63 79 90 20 44 31 16 34 -84 1
-70 4 -85 11 -65 14 42 -9 190 -35 227 -58 82 -207 185 -297 205 -38 8 -47 6
-63 -10 -10 -10 -24 -19 -29 -19 -6 0 -33 -11 -60 -24 -53 -25 -56 -24 -40 20
6 15 8 29 6 31 -3 3 -10 -14 -17 -36 -7 -23 -18 -46 -26 -52 -17 -15 -17 -9 7
47 29 68 19 64 -16 -5 -16 -33 -30 -58 -32 -56 -2 2 8 28 22 58 29 60 33 82
11 53 -15 -20 -20 -10 -9 18 4 10 18 16 40 16 24 0 32 -4 28 -13 -3 -8 2 -14
11 -14 8 0 15 9 15 19 0 30 17 20 25 -14 l7 -33 10 42 c9 43 48 86 71 78 7 -3
28 28 48 70 38 77 42 91 17 53z m-295 -225 c-20 -49 -26 -55 -18 -18 11 48 14
55 24 55 6 0 3 -17 -6 -37z m-15 -98 c-6 -14 -13 -23 -15 -21 -5 5 15 46 22
46 3 0 -1 -11 -7 -25z m-34 -19 c-3 -15 -8 -25 -11 -23 -2 3 -1 17 3 31 3 15
8 25 11 23 2 -3 1 -17 -3 -31z m526 -100 c0 -8 -4 -17 -9 -21 -12 -7 -24 12
-16 25 9 15 25 12 25 -4z m66 -2 c19 -15 18 -15 -3 -9 -15 4 -25 0 -32 -12 -9
-16 -10 -14 -11 10 0 31 16 35 46 11z m-76 -89 c0 -5 -14 5 -30 23 -17 18 -30
38 -30 45 1 6 14 -4 30 -23 17 -19 30 -39 30 -45z m3 -35 c8 0 7 -4 -1 -12 -9
-9 -19 -5 -42 17 -39 38 -39 54 1 21 17 -14 36 -26 42 -26z m-136 -15 c6 -14
7 -23 2 -19 -13 8 -31 44 -22 44 4 0 13 -11 20 -25z m-59 -44 c3 -8 -1 -12 -9
-9 -7 2 -15 10 -17 17 -3 8 1 12 9 9 7 -2 15 -10 17 -17z m-219 -373 c0 -31
-1 -31 -10 -10 -5 13 -7 28 -3 33 10 16 14 9 13 -23z m88 -3 c5 -14 -34 -73
-49 -74 -10 -1 -11 93 -2 102 9 9 44 -11 51 -28z m328 13 c14 -6 25 -14 25
-18 0 -4 10 -18 23 -32 77 -83 97 -115 97 -157 0 -46 -29 -175 -38 -166 -3 2
-4 55 -3 117 0 62 -3 120 -9 128 -7 11 -10 0 -10 -41 0 -31 -3 -58 -6 -62 -8
-8 -52 40 -60 67 -3 11 -12 28 -19 36 -19 23 -45 140 -30 140 2 0 16 -5 30
-12z m-272 -36 c-22 -3 -64 -42 -46 -42 6 0 16 7 23 15 24 29 21 7 -4 -30 -31
-45 -42 -96 -26 -124 12 -23 4 -69 -11 -54 -12 12 -39 135 -32 147 4 6 24 35
46 64 34 44 42 50 55 40 13 -11 13 -13 -5 -16z m238 -67 c7 -41 17 -75 21 -75
19 0 3 -141 -34 -318 l-22 -103 -82 88 c-48 51 -79 92 -74 98 4 6 -1 54 -12
107 l-20 98 27 46 c15 25 33 48 41 51 8 3 14 9 14 14 0 15 -27 10 -41 -7 -11
-14 -13 -14 -21 0 -5 9 -6 22 -3 29 4 6 -12 -7 -33 -31 -47 -49 -47 -25 -1 31
l30 36 50 -19 c56 -22 99 -26 99 -8 0 14 33 47 42 42 4 -3 12 -38 19 -79z
m254 -152 c22 -26 59 -76 83 -111 l42 -63 -57 -64 c-57 -63 -75 -76 -54 -37
15 28 14 62 -2 62 -7 0 -28 -16 -47 -35 -37 -39 -52 -44 -49 -17 1 9 -4 36
-11 60 -10 33 -11 47 -2 65 19 36 42 120 42 155 0 17 4 32 8 32 4 0 26 -21 47
-47z m-166 -16 c21 -67 58 -258 50 -262 -4 -3 -10 7 -12 22 -3 16 -4 -5 -3
-44 2 -70 1 -73 -21 -73 -27 0 -28 6 -8 53 8 20 15 41 15 47 0 5 -7 10 -15 10
-9 0 -15 9 -15 21 0 15 -5 19 -15 15 -8 -3 -15 -1 -15 4 0 6 -7 10 -16 10 -10
0 -14 6 -10 18 2 9 8 53 11 97 6 80 21 129 36 120 4 -3 12 -20 18 -38z m-312
-59 c7 -34 10 -64 8 -66 -10 -10 -46 82 -41 104 10 40 21 27 33 -38z m613 -68
c0 -5 -4 -10 -10 -10 -5 0 -10 5 -10 10 0 6 5 10 10 10 6 0 10 -4 10 -10z
m-180 -165 c-10 -12 -10 -18 0 -30 7 -8 8 -15 2 -15 -5 0 -25 -3 -43 -6 l-34
-7 40 36 c43 39 55 46 35 22z m-202 -355 l107 -7 -110 -1 c-75 -1 -115 2 -123
10 -18 18 -15 33 4 17 10 -8 57 -16 122 -19z m322 -120 c-11 -51 -23 -96 -26
-99 -7 -6 -2 18 23 132 8 38 17 67 19 64 2 -2 -5 -46 -16 -97z"/>
<path d="M2717 2367 l-17 -32 20 24 c17 20 26 41 18 41 -2 0 -11 -15 -21 -33z"/>
<path d="M2581 2513 c-2 -37 19 -120 35 -139 14 -18 14 -17 4 4 -6 13 -18 54
-25 90 -7 37 -14 57 -14 45z"/>
<path d="M2632 2330 c0 -14 2 -19 5 -12 2 6 2 18 0 25 -3 6 -5 1 -5 -13z"/>
<path d="M1551 3726 c2 -2 18 -6 34 -10 22 -5 26 -4 15 4 -14 9 -59 15 -49 6z"/>
<path d="M1432 3680 c-46 -25 -51 -32 -14 -19 17 6 36 17 43 25 14 17 13 17
-29 -6z"/>
<path d="M1715 3673 c28 -15 60 -26 71 -24 22 2 22 2 5 -45 -10 -31 -40 -73
-83 -121 -38 -40 -68 -69 -68 -65 0 4 4 12 8 17 14 16 54 85 49 85 -3 0 -23
-25 -46 -55 -23 -30 -49 -55 -58 -55 -8 0 -32 -10 -52 -22 l-36 -21 29 31 c15
16 25 35 22 41 -12 18 -23 12 -22 -10 1 -17 -15 -30 -74 -60 -41 -21 -71 -38
-67 -39 5 0 18 5 30 11 22 10 22 10 2 -6 -11 -9 -28 -14 -38 -11 -9 2 -15 0
-12 -4 6 -10 -149 -90 -174 -90 -14 0 -131 104 -131 116 0 14 25 -2 73 -46 30
-27 59 -50 63 -50 5 0 -19 26 -54 58 l-63 58 22 30 23 29 -26 -24 c-15 -13
-32 -20 -38 -16 -8 5 -10 2 -6 -11 6 -19 -63 -93 -179 -192 -27 -24 -41 -39
-30 -33 29 14 123 95 168 143 l37 41 47 -40 c65 -54 65 -63 4 -63 -28 0 -51
-4 -51 -9 0 -5 -13 -14 -30 -20 -16 -5 -30 -12 -30 -15 0 -3 17 1 38 8 51 18
132 29 132 18 0 -12 -27 -33 -77 -60 -47 -26 -54 -22 -23 10 30 33 24 50 -10
28 -13 -9 -13 -10 0 -10 9 0 -4 -17 -30 -40 -24 -22 -39 -40 -32 -40 7 0 48
18 92 40 58 29 80 36 80 26 0 -16 -86 -275 -94 -283 -3 -3 -21 2 -40 11 -45
21 -48 21 -81 -14 -16 -16 -25 -30 -21 -30 4 0 17 12 29 26 l22 25 48 -20 c26
-11 47 -25 47 -31 0 -6 -51 -66 -112 -133 -109 -118 -221 -241 -343 -377 -32
-36 -88 -96 -125 -135 -72 -75 -89 -98 -68 -89 12 5 135 138 557 602 67 73
121 127 121 121 0 -10 -61 -86 -123 -154 -41 -45 -78 -95 -70 -95 5 0 54 53
109 117 114 136 141 165 397 439 62 66 77 96 25 48 -18 -16 -24 -19 -14 -6 49
58 -5 9 -142 -130 l-151 -153 23 100 c13 55 27 120 32 145 l9 45 175 92 c228
121 245 121 138 7 -60 -63 -90 -105 -56 -77 8 7 17 10 20 7 5 -5 23 14 187
203 39 45 77 80 84 77 8 -3 21 21 36 66 14 39 28 73 33 76 5 3 17 -1 28 -11
13 -12 31 -15 66 -12 l49 3 -53 2 c-34 1 -54 7 -58 16 -3 8 -28 16 -60 20 -31
3 -69 13 -84 21 -16 8 -33 15 -37 15 -4 -1 15 -13 42 -27z m-106 -302 c-29
-40 -38 -32 -9 9 12 17 24 29 27 26 3 -2 -5 -18 -18 -35z m-255 -284 c-185
-190 -225 -231 -217 -215 11 22 276 294 282 290 3 -1 -27 -35 -65 -75z m-200
-74 c-25 -111 -46 -164 -59 -151 -3 3 10 53 29 112 19 59 38 120 41 137 4 17
9 28 11 26 3 -2 -8 -58 -22 -124z"/>
<path d="M1741 3603 c-10 -26 -10 -27 4 -9 8 11 15 23 15 28 0 15 -7 8 -19
-19z"/>
<path d="M1591 3617 c2 -1 13 -9 24 -17 19 -14 19 -14 6 3 -7 9 -18 17 -24 17
-6 0 -8 -1 -6 -3z"/>
<path d="M1983 3613 c9 -2 23 -2 30 0 6 3 -1 5 -18 5 -16 0 -22 -2 -12 -5z"/>
<path d="M1270 3600 c-9 -6 -10 -10 -3 -10 6 0 15 5 18 10 8 12 4 12 -15 0z"/>
<path d="M1208 3566 c-10 -7 -18 -21 -18 -31 0 -10 -12 -33 -26 -52 -14 -19
-24 -36 -21 -39 7 -7 57 70 57 88 0 9 10 24 22 32 12 9 18 16 13 16 -6 0 -18
-7 -27 -14z"/>
<path d="M1636 3567 c3 -10 9 -15 12 -12 3 3 0 11 -7 18 -10 9 -11 8 -5 -6z"/>
<path d="M4372 3560 c0 -14 2 -19 5 -12 2 6 2 18 0 25 -3 6 -5 1 -5 -13z"/>
<path d="M1216 3474 c-10 -26 4 -64 24 -64 11 0 22 4 25 10 3 5 0 7 -9 4 -19
-7 -15 24 5 37 12 7 12 9 -1 9 -13 0 -13 1 0 10 12 8 9 10 -11 10 -15 0 -29
-7 -33 -16z"/>
<path d="M1555 3460 c10 -11 20 -20 23 -20 3 0 -3 9 -13 20 -10 11 -20 20 -23
20 -3 0 3 -9 13 -20z"/>
<path d="M4372 3400 c0 -14 2 -19 5 -12 2 6 2 18 0 25 -3 6 -5 1 -5 -13z"/>
<path d="M4355 3305 c-3 -26 -4 -49 -2 -51 3 -3 8 16 12 41 3 26 4 49 2 51 -3
3 -8 -16 -12 -41z"/>
<path d="M1751 3314 c0 -11 3 -14 6 -6 3 7 2 16 -1 19 -3 4 -6 -2 -5 -13z"/>
<path d="M1330 3310 c-8 -5 -10 -10 -5 -10 6 0 17 5 25 10 8 5 11 10 5 10 -5
0 -17 -5 -25 -10z"/>
<path d="M3221 3277 c0 -16 -10 -81 -22 -145 -38 -211 -39 -233 -8 -298 15
-31 35 -77 44 -101 10 -24 32 -64 51 -89 27 -34 36 -59 44 -111 5 -37 8 -68 7
-69 -1 0 -22 -6 -47 -12 l-45 -11 46 4 c42 4 48 2 53 -18 8 -31 7 -95 -1 -100
-5 -2 -3 -3 3 -1 11 2 47 -173 38 -187 -2 -4 -27 -15 -55 -24 -28 -9 -48 -19
-45 -22 2 -3 30 4 60 16 l56 21 1 -23 c0 -15 2 -17 6 -7 3 8 10 18 16 21 16
11 16 136 0 229 -8 47 -18 108 -23 135 -18 106 -43 181 -75 225 -18 25 -49 75
-68 112 -19 36 -38 64 -40 61 -11 -10 23 -84 72 -161 28 -44 51 -88 50 -98 0
-16 -2 -15 -10 4 -5 13 -13 21 -18 17 -11 -6 -61 62 -61 82 0 6 -16 44 -35 84
-19 41 -35 87 -35 104 0 17 11 100 26 184 14 85 23 166 21 180 -4 26 -4 26 -6
-2z m159 -810 c0 -12 -3 -33 -7 -47 l-7 -25 -6 25 c-8 32 0 81 11 74 5 -3 9
-15 9 -27z m1 -130 c-8 -8 -11 -2 -11 19 0 40 14 54 18 19 2 -15 -1 -32 -7
-38z m10 -74 c-9 -16 -10 -15 -11 8 0 14 3 29 8 33 12 12 14 -22 3 -41z m6
-70 c-3 -10 -5 -2 -5 17 0 19 2 27 5 18 2 -10 2 -26 0 -35z"/>
<path d="M1240 3275 c-14 -8 -20 -14 -15 -14 6 0 21 6 35 14 14 8 21 14 15 14
-5 0 -21 -6 -35 -14z"/>
<path d="M4341 3224 c0 -11 3 -14 6 -6 3 7 2 16 -1 19 -3 4 -6 -2 -5 -13z"/>
<path d="M4325 3170 c-4 -17 -5 -34 -2 -36 3 -3 8 9 12 26 4 17 5 34 2 36 -3
3 -8 -9 -12 -26z"/>
<path d="M3161 3174 c0 -11 3 -14 6 -6 3 7 2 16 -1 19 -3 4 -6 -2 -5 -13z"/>
<path d="M1010 3170 c-8 -5 -10 -10 -5 -10 6 0 17 5 25 10 8 5 11 10 5 10 -5
0 -17 -5 -25 -10z"/>
<path d="M3146 3114 c-4 -20 -5 -38 -3 -40 3 -3 8 11 11 32 4 20 5 38 3 40 -3
3 -8 -11 -11 -32z"/>
<path d="M795 3130 c-13 -6 -15 -9 -5 -9 8 0 22 4 30 9 18 12 2 12 -25 0z"/>
<path d="M1976 3104 c-4 -14 -5 -28 -3 -31 3 -2 8 8 11 23 4 14 5 28 3 31 -3
2 -8 -8 -11 -23z"/>
<path d="M724 3105 c-25 -19 -14 -19 22 0 16 8 22 15 13 15 -8 0 -24 -7 -35
-15z"/>
<path d="M825 3095 c-5 -2 -22 -6 -37 -9 -21 -5 -28 -12 -28 -31 0 -40 41 -33
61 10 9 19 16 35 15 34 0 0 -5 -2 -11 -4z"/>
<path d="M2561 3067 c14 -11 15 -15 3 -31 -10 -14 -20 -17 -41 -11 -15 3 -31
12 -35 18 -4 6 -11 8 -15 3 -4 -5 -2 -11 5 -13 7 -3 18 -10 25 -17 6 -7 25
-11 41 -11 51 3 68 76 17 75 -15 -1 -15 -2 0 -13z"/>
<path d="M2652 3054 c-7 -8 -8 -14 -3 -14 10 0 25 19 20 25 -2 1 -10 -3 -17
-11z"/>
<path d="M720 3053 c0 -18 20 -66 25 -61 3 3 -1 20 -9 39 -9 19 -15 29 -16 22z"/>
<path d="M1960 3058 c0 -3 -9 -41 -20 -84 -26 -101 -60 -280 -60 -316 0 -15 4
-28 9 -28 4 0 11 37 14 83 3 45 19 140 37 210 17 71 29 131 26 135 -3 3 -6 3
-6 0z"/>
<path d="M3131 3034 c0 -11 3 -14 6 -6 3 7 2 16 -1 19 -3 4 -6 -2 -5 -13z"/>
<path d="M2611 3016 c-7 -8 -11 -27 -9 -43 3 -25 4 -24 14 15 12 46 12 49 -5
28z"/>
<path d="M3122 2980 c0 -14 2 -19 5 -12 2 6 2 18 0 25 -3 6 -5 1 -5 -13z"/>
<path d="M916 2983 c-4 -5 -44 -11 -89 -14 l-82 -6 73 -1 c40 -1 82 3 93 8 13
8 19 7 19 0 0 -6 5 -8 10 -5 6 3 10 10 10 16 0 11 -24 12 -34 2z"/>
<path d="M3932 2930 c0 -14 2 -19 5 -12 2 6 2 18 0 25 -3 6 -5 1 -5 -13z"/>
<path d="M806 2917 c-15 -11 -12 -17 36 -58 49 -42 78 -52 78 -27 0 7 -4 7
-12 1 -9 -7 -26 3 -58 33 l-45 43 25 10 c14 5 18 10 9 10 -8 1 -23 -5 -33 -12z"/>
<path d="M2611 2904 c0 -11 3 -14 6 -6 3 7 2 16 -1 19 -3 4 -6 -2 -5 -13z"/>
<path d="M1783 2898 c-16 -19 -101 -237 -124 -318 -23 -80 -25 -140 -5 -140
19 0 33 23 18 28 -7 2 -12 10 -12 18 0 22 87 285 116 350 25 57 28 88 7 62z"/>
<path d="M2545 2875 c50 -18 53 -18 29 0 -10 8 -30 14 -44 14 -20 0 -17 -3 15
-14z"/>
<path d="M3921 2874 c0 -11 3 -14 6 -6 3 7 2 16 -1 19 -3 4 -6 -2 -5 -13z"/>
<path d="M1253 2873 c31 -2 83 -2 115 0 31 2 5 3 -58 3 -63 0 -89 -1 -57 -3z"/>
<path d="M2440 2861 c-8 -17 -8 -21 4 -21 8 0 16 -4 18 -9 2 -5 8 -3 15 4 9
10 8 17 -7 30 -17 16 -19 15 -30 -4z"/>
<path d="M3087 2743 c-4 -3 -7 -11 -7 -17 0 -6 5 -5 12 2 6 6 9 14 7 17 -3 3
-9 2 -12 -2z"/>
<path d="M3049 2684 c-13 -15 -51 -40 -84 -56 -33 -16 -49 -26 -35 -22 47 12
87 35 120 69 19 19 32 35 29 35 -3 0 -16 -12 -30 -26z"/>
<path d="M4112 2630 c0 -14 2 -19 5 -12 2 6 2 18 0 25 -3 6 -5 1 -5 -13z"/>
<path d="M3821 2564 c0 -11 3 -14 6 -6 3 7 2 16 -1 19 -3 4 -6 -2 -5 -13z"/>
<path d="M1906 2455 c2 -44 16 -123 29 -175 27 -105 65 -262 71 -297 3 -13 8
-23 13 -23 9 0 7 13 -45 220 -20 80 -44 192 -55 250 l-18 105 5 -80z"/>
<path d="M1385 2483 c-100 -210 -166 -365 -198 -468 -9 -27 -41 -132 -72 -231
l-56 -181 32 -52 c18 -28 37 -51 44 -51 18 0 87 -145 83 -177 -4 -35 42 -153
59 -153 18 0 17 3 -14 68 -15 31 -26 65 -26 74 1 9 -7 41 -18 70 -30 77 -40
113 -30 102 17 -18 51 -89 51 -106 0 -10 4 -26 9 -36 6 -9 22 -50 36 -89 25
-68 45 -94 45 -58 0 21 -52 145 -61 145 -4 0 -10 18 -14 40 -8 48 -87 174 -93
147 -3 -16 -5 -16 -29 3 -26 20 -53 63 -53 84 0 11 14 57 95 321 47 151 105
297 190 479 25 54 44 101 42 103 -3 2 -12 -13 -22 -34z"/>
<path d="M3208 2433 c6 -2 18 -2 25 0 6 3 1 5 -13 5 -14 0 -19 -2 -12 -5z"/>
<path d="M3120 2420 l-25 -8 25 0 c14 0 36 4 50 8 l25 8 -25 0 c-14 0 -36 -4
-50 -8z"/>
<path d="M3053 2403 c9 -2 23 -2 30 0 6 3 -1 5 -18 5 -16 0 -22 -2 -12 -5z"/>
<path d="M4155 2265 c-4 -64 -5 -118 -2 -121 2 -3 8 47 12 111 4 64 5 118 2
121 -2 3 -8 -47 -12 -111z"/>
<path d="M3270 2300 c-8 -5 -10 -10 -5 -10 6 0 17 5 25 10 8 5 11 10 5 10 -5
0 -17 -5 -25 -10z"/>
<path d="M3135 2290 c-4 -6 -2 -16 3 -23 10 -11 52 -155 52 -174 0 -5 -12 -16
-27 -26 l-28 -17 28 6 c15 4 27 2 26 -2 -3 -19 2 -29 9 -18 4 6 23 21 42 33
31 19 32 21 10 19 -23 -3 -25 1 -31 57 -4 33 -12 72 -18 87 -9 24 -7 27 20 38
16 7 28 15 25 17 -2 3 -14 -1 -26 -7 -17 -9 -25 -8 -39 4 -20 18 -37 20 -46 6z
m35 -20 c0 -11 4 -20 9 -20 5 0 14 -28 20 -63 17 -99 12 -120 -9 -38 -11 40
-26 86 -34 102 -13 27 -12 39 6 39 4 0 8 -9 8 -20z"/>
<path d="M1890 2091 c-28 -45 -36 -49 -43 -23 -3 9 -5 -3 -6 -27 -1 -36 -7
-49 -37 -77 -19 -19 -30 -34 -24 -34 6 0 8 -4 5 -10 -9 -15 -35 -12 -35 3 0 7
-16 44 -35 83 -19 38 -35 76 -35 84 0 12 -2 13 -9 1 -10 -15 -3 -42 30 -118
13 -29 20 -55 17 -58 -3 -3 -35 -11 -72 -17 -36 -6 -66 -15 -66 -19 0 -12 29
-11 89 2 28 6 60 9 71 7 18 -2 13 -9 -29 -40 -28 -21 -55 -38 -60 -38 -5 0
-12 -11 -15 -25 -10 -38 -42 -63 -165 -121 -133 -64 -197 -88 -218 -80 -8 3
-23 1 -35 -5 -18 -9 -18 -12 -5 -27 8 -9 22 -35 31 -57 45 -109 82 -174 99
-175 9 0 17 7 17 15 0 8 6 15 14 15 8 0 16 6 19 13 2 6 8 9 11 5 4 -3 -8 -30
-28 -60 -35 -52 -44 -78 -27 -78 11 0 106 151 162 257 23 45 45 81 47 79 8 -8
-85 -210 -185 -405 -58 -112 -109 -216 -112 -230 -8 -27 -27 -31 -24 -4 1 9
-2 12 -8 6 -16 -16 7 -57 57 -101 26 -23 50 -42 54 -42 4 0 29 -9 54 -21 40
-17 45 -23 35 -35 -7 -9 15 -1 48 18 62 34 81 53 23 23 -31 -16 -36 -16 -87 0
-68 21 -147 75 -151 102 -4 24 60 79 78 68 11 -7 85 34 76 42 -5 5 -66 -14
-106 -34 -13 -7 -26 -11 -28 -8 -2 2 41 90 95 197 91 177 159 326 212 468 12
30 20 44 19 30 -1 -14 2 -26 7 -28 6 -2 19 35 29 81 l20 84 135 19 c77 11 121
20 103 22 -24 2 -32 7 -28 18 7 18 -3 18 -23 0 -9 -8 -45 -17 -81 -21 l-65 -6
24 20 c13 12 31 21 41 21 15 0 100 89 100 104 0 3 -8 6 -17 6 -11 0 -14 3 -8
8 16 11 78 139 73 152 -2 6 -15 -7 -28 -29z m-313 -443 c-13 -18 -39 -61 -58
-95 -18 -35 -37 -63 -41 -63 -5 0 -9 16 -10 35 -1 19 -2 42 -2 51 -1 14 113
104 131 104 2 0 -7 -15 -20 -32z m-172 -58 c-3 -5 -11 -10 -16 -10 -6 0 -7 5
-4 10 3 6 11 10 16 10 6 0 7 -4 4 -10z m-40 -20 c-3 -5 -10 -10 -16 -10 -5 0
-9 5 -9 10 0 6 7 10 16 10 8 0 12 -4 9 -10z m-55 -25 c0 -17 -36 -39 -50 -30
-16 10 -11 33 8 38 32 9 42 7 42 -8z m126 -130 c-9 -17 -12 -8 -14 49 -4 93
10 119 19 36 4 -43 3 -72 -5 -85z m-79 83 c-3 -8 -6 -5 -6 6 -1 11 2 17 5 13
3 -3 4 -12 1 -19z m-28 -64 c7 -30 11 -58 8 -60 -5 -5 -57 83 -57 96 0 8 16
17 31 19 3 1 11 -24 18 -55z"/>
<path d="M4141 2074 c0 -21 4 -59 9 -84 6 -34 7 -25 3 35 -6 84 -14 115 -12
49z"/>
<path d="M2301 2084 c0 -11 3 -14 6 -6 3 7 2 16 -1 19 -3 4 -6 -2 -5 -13z"/>
<path d="M3951 2014 c-37 -78 -63 -145 -58 -151 7 -6 98 199 94 210 -2 6 -18
-20 -36 -59z"/>
<path d="M1413 1980 c0 -47 2 -66 4 -42 2 23 2 61 0 85 -2 23 -4 4 -4 -43z"/>
<path d="M1926 2025 c-9 -13 -16 -29 -16 -35 0 -6 -4 -9 -9 -6 -5 3 -15 -2
-22 -12 -13 -15 -12 -16 4 -3 23 18 22 12 -8 -42 -18 -31 -22 -48 -15 -52 6
-4 13 -5 16 -3 5 6 84 167 84 173 0 14 -20 2 -34 -20z"/>
<path d="M3036 1945 c-4 -10 -20 -15 -50 -15 -25 0 -48 -4 -51 -10 -4 -6 12
-10 41 -10 41 0 46 -2 41 -20 -3 -11 -2 -20 3 -20 4 0 11 -11 14 -24 7 -29 32
-41 32 -16 0 10 -5 18 -11 17 -6 -1 -10 21 -9 56 1 60 0 67 -10 42z"/>
<path d="M4152 1910 c0 -19 2 -27 5 -17 2 9 2 25 0 35 -3 9 -5 1 -5 -18z"/>
<path d="M1420 1847 c0 -20 4 -37 10 -37 5 0 7 14 3 33 -8 45 -13 47 -13 4z"/>
<path d="M2948 1874 c-5 -4 -8 -15 -8 -25 0 -21 -54 -189 -77 -236 -12 -25
-13 -37 -5 -45 13 -13 48 58 76 154 10 35 27 67 46 85 17 15 30 34 30 42 0 10
-7 8 -24 -8 l-25 -23 -3 32 c-2 17 -6 28 -10 24z"/>
<path d="M4162 1840 c0 -19 2 -27 5 -17 2 9 2 25 0 35 -3 9 -5 1 -5 -18z"/>
<path d="M3080 1836 c0 -3 16 -26 35 -52 19 -25 33 -49 30 -54 -3 -5 1 -10 7
-13 24 -8 -46 -81 -110 -115 -40 -22 -64 -41 -68 -56 -3 -15 -28 -34 -77 -59
-77 -40 -88 -43 -85 -26 2 6 -3 14 -9 16 -7 3 -13 -3 -13 -13 0 -10 -8 -26
-17 -37 -10 -11 -12 -17 -5 -13 9 6 12 -19 12 -108 0 -100 3 -120 21 -148 20
-31 20 -31 15 -7 -4 18 -1 29 8 32 7 3 16 23 20 44 4 21 13 65 21 98 l13 60 1
-52 c1 -29 5 -53 10 -53 12 0 25 121 18 159 -5 24 -1 32 18 45 23 15 25 15 25
-1 0 -10 11 5 24 34 21 45 33 56 84 82 34 17 70 45 83 63 13 18 27 36 33 40 6
4 -2 22 -19 45 -43 57 -75 95 -75 89z m-221 -473 c-17 -110 -25 -116 -20 -15
2 49 8 90 14 94 19 11 19 3 6 -79z m-52 -105 c-2 -13 -4 -3 -4 22 0 25 2 35 4
23 2 -13 2 -33 0 -45z"/>
<path d="M1998 1823 c6 -2 18 -2 25 0 6 3 1 5 -13 5 -14 0 -19 -2 -12 -5z"/>
<path d="M4172 1765 c0 -16 2 -22 5 -12 2 9 2 23 0 30 -3 6 -5 -1 -5 -18z"/>
<path d="M2635 1708 c4 -42 62 -184 72 -175 2 2 -10 37 -26 78 -16 41 -34 90
-40 109 -10 34 -11 34 -6 -12z"/>
<path d="M2683 1715 c3 -11 11 -39 17 -62 6 -24 16 -43 21 -43 7 0 8 7 4 18
-4 9 -12 33 -17 52 -5 19 -14 40 -20 45 -7 7 -8 4 -5 -10z"/>
<path d="M3109 1703 c-13 -16 -12 -17 4 -4 9 7 17 15 17 17 0 8 -8 3 -21 -13z"/>
<path d="M4182 1700 c-1 -14 3 -43 7 -65 6 -26 9 -31 9 -15 1 14 -3 43 -7 65
-6 26 -9 31 -9 15z"/>
<path d="M2950 1690 c-14 -11 -21 -20 -17 -20 5 0 20 9 34 20 14 11 22 20 17
20 -5 0 -20 -9 -34 -20z"/>
<path d="M3014 1628 l-19 -23 25 20 c14 11 27 21 29 22 2 2 0 3 -6 3 -5 0 -18
-10 -29 -22z"/>
<path d="M2903 1543 c-45 -37 -80 -69 -78 -71 3 -3 112 84 155 124 36 34 -2 8
-77 -53z"/>
<path d="M4201 1533 c-1 -23 4 -45 9 -48 12 -8 12 42 0 70 -7 16 -9 11 -9 -22z"/>
<path d="M2190 1546 c-69 -6 -126 -16 -127 -21 -6 -40 -23 -477 -18 -485 17
-28 25 14 25 133 0 73 3 182 7 244 l6 111 126 6 c256 13 251 13 251 -1 0 -7 6
-13 14 -13 15 0 20 -12 31 -74 3 -21 9 -36 12 -33 2 3 -1 37 -8 76 l-13 71
-91 -2 c-49 0 -146 -6 -215 -12z"/>
<path d="M4152 1490 c0 -19 2 -27 5 -17 2 9 2 25 0 35 -3 9 -5 1 -5 -18z"/>
<path d="M1115 1476 c10 -14 19 -26 22 -26 7 0 -17 39 -28 46 -6 3 -3 -5 6
-20z"/>
<path d="M3027 1474 c-2 -3 26 -75 64 -161 78 -178 98 -234 107 -301 5 -33 12
-48 24 -50 15 -3 16 1 9 25 -5 15 -14 53 -21 83 -7 30 -25 83 -41 118 -66 145
-92 214 -81 221 6 4 -3 19 -23 38 -18 17 -35 29 -38 27z"/>
<path d="M2982 1445 c0 -16 2 -22 5 -12 2 9 2 23 0 30 -3 6 -5 -1 -5 -18z"/>
<path d="M1146 1427 c3 -10 9 -15 12 -12 3 3 0 11 -7 18 -10 9 -11 8 -5 -6z"/>
<path d="M2991 1394 c0 -11 3 -14 6 -6 3 7 2 16 -1 19 -3 4 -6 -2 -5 -13z"/>
<path d="M2428 1362 c-42 -24 -375 -341 -393 -374 -4 -7 32 26 81 73 241 231
294 279 315 279 17 0 56 37 48 45 -3 2 -26 -8 -51 -23z"/>
<path d="M4191 1354 c0 -11 3 -14 6 -6 3 7 2 16 -1 19 -3 4 -6 -2 -5 -13z"/>
<path d="M3951 1280 c-7 -23 -10 -44 -8 -47 7 -6 29 65 25 79 -2 6 -10 -8 -17
-32z"/>
<path d="M4181 1304 c0 -11 3 -14 6 -6 3 7 2 16 -1 19 -3 4 -6 -2 -5 -13z"/>
<path d="M1201 1274 c-2 -25 30 -112 48 -128 10 -9 36 -19 57 -21 22 -2 30 -2
19 1 -69 18 -82 32 -114 129 -5 17 -10 25 -10 19z"/>
<path d="M4155 1190 c-4 -17 -5 -34 -2 -36 2 -3 7 10 11 27 8 42 0 50 -9 9z"/>
<path d="M2615 1133 c-17 -3 -222 -91 -234 -100 -2 -2 -1 -6 2 -9 4 -4 55 14
113 40 59 25 109 44 111 42 6 -6 -106 -67 -196 -106 -47 -20 -87 -43 -89 -50
-3 -9 1 -11 13 -6 29 11 145 26 200 25 l50 0 -35 -19 c-19 -10 -64 -26 -100
-35 -36 -10 -74 -21 -85 -26 -11 -4 -64 -11 -117 -13 -75 -5 -99 -3 -105 8 -4
7 -21 16 -38 18 -16 3 -75 15 -130 27 -55 12 -171 35 -259 51 -155 30 -300 78
-309 103 -2 7 -8 9 -12 5 -4 -4 8 -16 26 -28 72 -44 160 -68 414 -115 205 -38
258 -52 250 -66 -4 -5 -20 -9 -36 -9 -23 0 -30 -4 -27 -17 2 -14 14 -16 68
-15 63 2 64 2 38 -13 -48 -27 -31 -46 32 -38 54 8 284 54 293 60 5 3 7 14 4
24 -5 19 6 24 45 21 9 -1 56 20 105 46 94 50 128 67 156 76 9 3 17 10 17 16 0
17 -61 5 -105 -20 -33 -19 -56 -23 -132 -24 -51 -1 -89 2 -85 6 4 3 30 18 57
33 92 50 145 87 145 101 0 14 -8 15 -45 7z m-218 -259 c-3 -3 -12 -4 -19 -1
-8 3 -5 6 6 6 11 1 17 -2 13 -5z"/>
<path d="M2775 1074 c-30 -27 -32 -31 -9 -16 28 19 62 53 53 52 -2 -1 -22 -17
-44 -36z"/>
<path d="M4130 1097 c0 -9 5 -17 12 -17 17 0 -3 -17 -27 -23 -15 -3 -13 -5 8
-6 34 -1 46 24 23 47 -15 15 -16 15 -16 -1z"/>
<path d="M1086 1038 c-9 -12 -16 -28 -16 -35 0 -20 17 -15 23 7 7 26 36 37 49
19 7 -11 8 -9 6 6 -5 29 -43 31 -62 3z"/>
<path d="M1164 997 c-19 -9 -51 -63 -43 -72 2 -2 21 17 42 41 39 44 39 50 1
31z"/>
<path d="M1550 975 c0 -20 140 -120 184 -131 46 -11 28 14 -34 48 -30 16 -64
38 -75 48 -11 9 -26 15 -32 13 -7 -3 -16 2 -19 11 -6 15 -24 23 -24 11z m160
-100 c17 -9 30 -18 30 -21 0 -4 -59 23 -69 32 -10 9 13 3 39 -11z"/>
<path d="M3751 964 c0 -11 3 -14 6 -6 3 7 2 16 -1 19 -3 4 -6 -2 -5 -13z"/>
<path d="M3227 927 c-4 -10 -7 -26 -7 -35 0 -16 -35 -46 -54 -47 -11 0 -21
-25 -11 -25 13 0 71 44 103 78 38 42 43 56 8 23 l-24 -23 -4 24 c-3 20 -4 21
-11 5z"/>
<path d="M3108 869 c-14 -7 -18 -23 -18 -61 0 -62 12 -56 20 10 4 40 8 47 27
46 12 0 20 3 17 8 -7 11 -25 10 -46 -3z"/>
<path d="M2871 855 c-1 -36 11 -95 20 -95 13 0 10 39 -6 80 -9 23 -14 28 -14
15z"/>
<path d="M2690 839 c0 -12 -4 -17 -11 -14 -5 4 -22 4 -36 0 -24 -6 -25 -7 -7
-20 18 -13 18 -14 -4 -37 -12 -14 -19 -28 -15 -31 9 -10 45 -9 39 2 -7 11 40
55 52 47 14 -8 22 46 10 62 -16 18 -28 15 -28 -9z m-10 -33 c0 -3 -4 -8 -10
-11 -5 -3 -10 -1 -10 4 0 6 5 11 10 11 6 0 10 -2 10 -4z"/>
<path d="M4101 833 c7 -12 15 -20 18 -17 3 2 -3 12 -13 22 -17 16 -18 16 -5
-5z"/>
<path d="M1853 827 c4 -11 -11 -13 -71 -11 l-77 3 70 -9 c39 -4 80 -11 93 -15
22 -7 32 8 12 20 -6 4 -8 11 -5 16 4 5 -1 9 -10 9 -10 0 -15 -6 -12 -13z"/>
<path d="M2818 834 c-5 -4 -8 -19 -8 -34 0 -14 -5 -31 -12 -38 -9 -9 -9 -12 0
-12 17 0 34 37 30 66 -2 14 -6 22 -10 18z"/>
<path d="M4030 820 c0 -5 5 -10 11 -10 5 0 7 5 4 10 -3 6 -8 10 -11 10 -2 0
-4 -4 -4 -10z"/>
<path d="M1624 811 c18 -7 16 -9 -12 -22 -53 -23 -37 -44 21 -28 38 10 72 37
62 48 -4 3 -12 -2 -19 -11 -7 -9 -25 -20 -42 -23 -28 -6 -28 -6 -10 9 11 9 23
16 28 16 4 0 8 5 8 10 0 6 -12 10 -27 9 -24 0 -25 -2 -9 -8z"/>
<path d="M2500 799 c-19 -34 1 -38 60 -12 50 22 44 24 -19 7 -16 -5 -22 -4
-17 4 3 6 2 13 -3 17 -6 3 -15 -4 -21 -16z"/>
<path d="M1560 800 c-18 -12 -2 -12 25 0 13 6 15 9 5 9 -8 0 -22 -4 -30 -9z"/>
<path d="M3663 770 c-13 -21 -23 -41 -23 -44 0 -12 33 -5 83 16 72 30 82 42
16 19 -29 -11 -55 -18 -57 -16 -2 2 1 12 7 23 29 54 4 55 -26 2z"/>
<path d="M3824 781 c6 -9 -24 -38 -67 -65 -38 -23 -28 -31 15 -13 54 23 96 87
57 87 -6 0 -8 -4 -5 -9z"/>
<path d="M2377 746 c-20 -51 6 -61 44 -19 13 15 16 21 6 14 -15 -12 -19 -12
-31 4 -12 17 -13 17 -19 1z"/>
<path d="M2220 678 c-1 -21 22 -58 35 -58 12 0 13 3 5 13 -6 6 -17 21 -25 32
-8 11 -15 17 -15 13z"/>
</g>
</svg>
