<?xml version="1.0" standalone="no"?>
<!DOCTYPE svg PUBLIC "-//W3C//DTD SVG 20010904//EN"
 "http://www.w3.org/TR/2001/REC-SVG-20010904/DTD/svg10.dtd">
<svg version="1.0" xmlns="http://www.w3.org/2000/svg"
 width="535.000000pt" height="467.000000pt" viewBox="0 0 535.000000 467.000000"
 preserveAspectRatio="xMidYMid meet">

<g transform="translate(0.000000,467.000000) scale(0.100000,-0.100000)"
fill="#fff" stroke="white" stroke-width="4">
<path d="M2296 3721 c-3 -5 23 -6 59 -3 l65 5 60 -60 c33 -33 60 -57 60 -53 0
4 -25 33 -56 64 l-56 56 -63 0 c-35 0 -66 -4 -69 -9z"/>
<path d="M2208 3703 c7 -3 16 -2 19 1 4 3 -2 6 -13 5 -11 0 -14 -3 -6 -6z"/>
<path d="M2132 3673 c-24 -14 -52 -42 -66 -66 -27 -46 -47 -137 -45 -201 1
-28 4 -16 10 34 9 81 32 154 58 184 9 10 36 32 61 47 55 35 41 37 -18 2z"/>
<path d="M2283 3621 c5 -26 2 -33 -28 -51 -77 -47 -156 -163 -154 -225 1 -25
3 -23 9 12 5 23 14 51 19 62 19 34 92 114 131 142 34 25 42 26 80 18 83 -19
170 -80 191 -136 14 -36 12 -40 -19 -35 -20 3 -37 -4 -58 -21 -37 -32 -26 -44
23 -24 42 18 31 23 -14 7 -27 -10 -27 -9 -8 5 35 27 64 29 86 7 10 -12 19 -28
19 -37 0 -17 -25 -21 -35 -5 -3 6 -18 10 -33 10 -21 0 -24 -2 -12 -10 12 -8
10 -10 -8 -10 -21 0 -22 -2 -8 -15 21 -21 36 -19 36 6 0 18 2 19 15 9 8 -7 12
-17 9 -22 -4 -6 4 -5 16 2 22 12 22 12 17 -57 -3 -37 -8 -79 -11 -93 -4 -14 0
-9 8 11 13 34 28 238 15 218 -3 -5 -13 14 -23 42 -27 75 -106 139 -189 154
-28 6 -42 15 -53 36 -19 37 -28 37 -21 0z"/>
<path d="M2541 3585 c0 -5 6 -21 14 -35 8 -14 14 -20 14 -15 0 6 -6 21 -14 35
-8 14 -14 21 -14 15z"/>
<path d="M2571 3494 c0 -11 3 -14 6 -6 3 7 2 16 -1 19 -3 4 -6 -2 -5 -13z"/>
<path d="M2305 3398 c11 -6 23 -16 27 -22 5 -7 8 -8 8 0 0 15 -22 34 -39 34
-12 -1 -11 -4 4 -12z"/>
<path d="M2217 3388 c2 -5 -1 -8 -8 -8 -7 0 -10 -2 -8 -4 2 -2 27 0 54 4 l50
6 -47 5 c-25 2 -44 1 -41 -3z"/>
<path d="M2382 3388 c6 -18 25 -21 25 -3 0 8 -7 15 -14 15 -8 0 -13 -5 -11
-12z"/>
<path d="M2406 3342 c-4 -10 2 -50 13 -89 13 -51 15 -75 8 -82 -8 -8 -7 -11 1
-11 24 0 25 32 4 102 -11 39 -18 77 -15 84 3 8 3 14 0 14 -3 0 -8 -8 -11 -18z"/>
<path d="M2241 3339 c7 -4 4 -9 -6 -13 -9 -3 -21 -4 -26 0 -5 3 -9 0 -9 -7 0
-6 8 -9 20 -6 11 3 23 1 26 -4 9 -15 21 -10 37 14 14 22 14 23 -19 23 -19 0
-29 -3 -23 -7z"/>
<path d="M2004 3325 c-4 -9 -4 -26 -2 -40 3 -14 -1 -30 -8 -36 -8 -6 -14 -18
-14 -27 0 -8 -7 -24 -17 -34 -9 -10 -11 -18 -6 -18 17 0 38 31 35 51 -5 29 17
32 24 2 13 -54 45 -101 65 -96 11 3 19 9 19 14 0 5 -6 6 -13 3 -23 -8 -48 32
-64 101 -12 52 -12 69 -3 80 9 11 9 15 1 15 -6 0 -14 -7 -17 -15z"/>
<path d="M2053 3322 c9 -10 17 -27 17 -37 0 -10 3 -16 6 -12 11 11 -5 55 -23
61 -16 6 -16 6 0 -12z"/>
<path d="M2303 3315 c0 -8 4 -12 9 -9 5 3 6 10 3 15 -9 13 -12 11 -12 -6z"/>
<path d="M2336 3191 c-5 -7 -3 -18 3 -24 14 -14 20 -6 11 17 -5 15 -9 16 -14
7z"/>
<path d="M2380 3160 c20 -13 33 -13 25 0 -3 6 -14 10 -23 10 -15 0 -15 -2 -2
-10z"/>
<path d="M2498 3143 c5 -21 7 -23 10 -9 2 10 0 22 -6 28 -6 6 -7 0 -4 -19z"/>
<path d="M1924 3125 c-20 -30 -15 -59 11 -64 11 -2 23 -8 27 -15 5 -7 8 -5 8
7 0 10 -8 17 -20 17 -28 0 -35 25 -16 55 9 14 14 25 11 25 -2 0 -12 -11 -21
-25z"/>
<path d="M2260 3115 c7 -9 16 -12 19 -7 3 5 13 12 21 15 8 3 0 6 -19 6 -29 1
-32 -1 -21 -14z"/>
<path d="M2395 3120 c-3 -6 1 -7 9 -4 18 7 21 14 7 14 -6 0 -13 -4 -16 -10z"/>
<path d="M2450 3110 c-8 -5 -11 -10 -6 -10 5 0 1 -10 -10 -22 -10 -13 -4 -10
14 6 17 17 32 31 32 33 0 6 -15 3 -30 -7z"/>
<path d="M2505 3077 c-10 -17 -37 -51 -58 -74 -32 -35 -47 -43 -76 -44 -20 -1
-28 -3 -18 -6 9 -2 14 -9 10 -15 -4 -8 0 -9 11 -5 10 4 15 3 11 -4 -4 -5 -14
-7 -23 -5 -13 4 -17 -1 -18 -23 -1 -33 -48 -137 -87 -194 -15 -22 -34 -56 -44
-78 -9 -21 -20 -39 -25 -39 -18 0 -48 47 -57 91 -27 125 -95 222 -171 243 -14
4 -5 -5 20 -19 25 -14 57 -43 71 -63 36 -52 69 -135 69 -172 0 -23 9 -41 33
-64 31 -32 32 -34 20 -77 -6 -24 -12 -73 -12 -107 -1 -48 -6 -71 -22 -93 -11
-16 -15 -29 -9 -29 6 0 14 8 17 18 6 14 8 13 14 -8 4 -15 7 9 8 60 1 47 8 112
16 144 15 55 83 201 91 193 2 -2 -2 -26 -10 -53 -13 -44 -44 -230 -61 -359 -4
-27 -13 -61 -22 -73 -16 -27 -12 -40 6 -18 12 14 45 177 56 281 16 145 87 369
133 420 15 16 28 32 30 34 1 2 5 2 8 -2 3 -3 -1 -40 -11 -82 -9 -41 -15 -81
-13 -87 5 -13 40 129 42 170 1 15 23 58 50 95 27 37 47 70 44 72 -2 2 -13 -10
-23 -28z"/>
<path d="M2073 3025 c0 -33 2 -45 4 -27 2 18 2 45 0 60 -2 15 -4 0 -4 -33z"/>
<path d="M2180 3051 c-1 -37 123 -111 147 -87 4 3 -5 6 -18 6 -32 0 -98 41
-115 71 -7 13 -13 18 -14 10z"/>
<path d="M1923 3014 c-124 -27 -269 -102 -342 -178 -19 -20 -41 -36 -47 -36
-7 0 -16 -5 -20 -12 -5 -7 -3 -8 6 -3 9 6 10 2 4 -16 -28 -76 9 -273 72 -388
41 -75 153 -228 172 -236 7 -2 -11 28 -40 68 -63 85 -81 112 -118 181 -63 116
-99 311 -67 372 20 39 100 113 159 148 61 36 181 82 238 91 46 7 91 25 60 24
-8 -1 -43 -7 -77 -15z"/>
<path d="M1875 2945 c28 -7 51 -12 53 -10 6 5 -61 25 -82 24 -12 0 2 -6 29
-14z"/>
<path d="M2458 2922 c19 -13 33 -72 26 -112 -4 -19 -24 -71 -45 -116 -46 -96
-71 -165 -64 -173 3 -3 9 5 12 18 3 13 25 63 48 111 24 48 48 112 55 142 12
52 14 54 46 55 42 1 42 -5 10 -109 -26 -84 -88 -214 -136 -284 -31 -47 -41
-74 -14 -39 75 96 162 283 179 383 4 23 10 44 15 47 5 3 23 -10 42 -29 184
-189 191 -194 232 -205 33 -8 54 -24 95 -70 l52 -60 -73 -40 c-81 -45 -85 -55
-6 -15 40 21 50 22 45 9 -4 -9 0 -27 8 -39 14 -21 14 -24 0 -30 -31 -12 -133
-6 -147 8 -8 7 -36 19 -64 26 -46 12 -61 11 -150 -11 -55 -13 -104 -24 -110
-24 -7 0 -28 -20 -49 -45 -21 -25 -40 -47 -44 -50 -3 -3 -40 -43 -81 -88 -70
-79 -201 -174 -217 -159 -3 3 -12 73 -20 154 -8 81 -18 152 -22 156 -14 14 10
-253 31 -343 10 -43 17 -53 42 -64 36 -15 206 -42 322 -52 l81 -7 6 -91 c4
-50 9 -103 13 -118 6 -25 3 -27 -32 -34 -56 -10 -358 4 -439 20 -61 13 -75 21
-110 58 -22 24 -48 54 -58 68 -12 17 -16 19 -12 6 11 -39 81 -115 119 -131 41
-17 227 -34 372 -35 l92 0 20 -102 c11 -57 21 -89 21 -73 1 17 -5 62 -13 102
l-13 72 29 6 c20 5 35 2 47 -9 25 -22 42 -20 66 9 l20 25 85 -31 c47 -17 91
-32 98 -34 7 -3 12 -21 12 -42 0 -21 9 -75 20 -121 11 -46 20 -85 20 -86 0 -2
-53 -6 -117 -10 -168 -10 -333 -32 -447 -60 -91 -22 -116 -35 -116 -61 0 -5 4
-4 9 4 7 11 10 9 15 -7 7 -22 99 -63 139 -61 12 0 -7 9 -42 19 -34 10 -70 25
-80 35 -15 15 -14 18 6 34 39 32 286 73 531 86 l112 7 15 -36 c28 -67 23 -36
-10 62 -19 53 -37 127 -40 164 l-7 67 33 -10 c107 -33 155 -38 204 -19 14 5
25 16 25 25 0 10 10 15 29 15 25 0 28 -3 24 -24 -3 -14 -13 -27 -22 -29 -11
-3 -10 -4 4 -3 13 1 22 12 28 33 6 18 17 34 26 37 9 2 -2 2 -24 0 -38 -5 -39
-4 -21 10 11 9 15 16 9 16 -7 0 -14 -4 -18 -10 -3 -5 -12 -7 -20 -3 -9 3 -21
0 -29 -6 -10 -9 -31 -9 -82 -1 -37 6 -72 14 -77 17 -6 3 -7 1 -3 -5 3 -6 28
-14 54 -17 87 -12 91 -16 38 -36 -47 -19 -66 -18 -66 3 0 5 7 7 16 4 8 -3 12
-2 9 4 -10 15 -35 12 -35 -5 0 -8 -1 -15 -2 -15 -2 0 -23 6 -48 14 l-45 14 4
58 c1 33 12 82 22 109 22 58 22 58 10 50 -13 -7 -38 -96 -47 -162 l-6 -51 -99
34 c-62 21 -108 32 -123 28 -31 -7 -40 9 -55 101 -9 52 -9 79 -1 99 10 28 12
28 61 23 48 -6 53 -4 79 25 16 17 43 56 60 87 17 31 42 74 56 96 13 22 24 47
23 55 0 8 -7 -1 -15 -20 -8 -19 -21 -41 -28 -50 -7 -8 -28 -42 -45 -75 -51
-94 -65 -105 -132 -105 -37 0 -59 4 -62 13 -3 9 -9 9 -26 -1 -17 -10 -49 -9
-167 3 -231 25 -266 35 -277 85 -6 24 -1 29 51 53 70 34 105 64 222 195 50 56
104 109 118 116 15 8 68 24 117 36 75 18 97 20 130 11 60 -16 161 -104 196
-170 16 -31 27 -45 23 -31 -9 37 -53 102 -88 130 l-31 25 75 6 c50 4 79 3 87
-5 9 -8 9 -55 3 -189 -7 -143 -13 -186 -29 -223 -18 -40 -24 -45 -43 -40 -13
4 -35 9 -50 12 -29 7 -36 18 -18 29 6 3 10 11 10 17 0 7 -6 6 -15 -2 -22 -18
-19 -50 5 -50 10 0 31 -5 45 -12 26 -12 27 -16 10 -63 -4 -11 3 -5 15 13 12
17 26 32 32 32 5 0 7 4 4 8 -3 5 3 26 14 48 20 40 40 213 40 344 0 67 -11 95
-54 133 -38 34 -8 42 152 42 152 0 262 -10 262 -25 0 -16 -31 -19 -81 -10 -29
6 -111 9 -183 8 l-131 -1 168 -7 c92 -4 170 -9 173 -13 3 -3 0 -15 -6 -27 -8
-14 -12 -89 -13 -214 -2 -179 -1 -194 20 -232 12 -23 33 -54 46 -70 13 -16 41
-60 62 -97 37 -68 38 -70 32 -150 -8 -101 -27 -176 -68 -262 -17 -36 -28 -69
-25 -72 3 -4 6 -1 6 5 0 7 7 12 15 12 8 0 12 6 9 14 -3 8 4 33 16 56 32 64 60
185 60 264 0 85 -14 118 -99 243 l-61 90 0 200 c0 196 0 200 23 221 13 12 29
22 35 22 7 0 12 8 12 19 0 16 -13 21 -82 31 -45 6 -127 11 -182 11 -97 0 -100
1 -135 31 -20 17 -49 49 -64 70 -21 27 -43 43 -80 55 -43 15 -71 37 -164 132
-111 113 -112 114 -152 108 -37 -5 -41 -3 -65 34 -15 21 -32 39 -39 39 -9 0
-9 -2 1 -8z m577 -452 c3 -5 0 -10 -9 -10 -8 0 -23 -3 -33 -6 -16 -6 -16 -5 2
9 24 19 32 21 40 7z m-450 -673 c0 -79 4 -99 26 -145 21 -41 23 -52 11 -50
-22 4 -43 72 -49 159 -5 64 0 129 10 129 1 0 2 -42 2 -93z m582 -203 c-3 -3
-12 -4 -19 -1 -8 3 -5 6 6 6 11 1 17 -2 13 -5z m-41 -40 c-11 -8 -31 -14 -45
-14 -21 0 -23 2 -11 10 8 5 25 10 38 10 12 0 22 5 22 12 0 6 3 8 7 4 5 -4 -1
-14 -11 -22z"/>
<path d="M1744 2828 c-4 -7 -14 -24 -22 -38 -14 -24 -13 -24 3 -5 20 24 37 55
31 55 -3 0 -8 -6 -12 -12z"/>
<path d="M1485 2739 c-9 -17 -15 -34 -13 -39 2 -5 11 9 20 30 20 47 15 53 -7
9z"/>
<path d="M1681 2710 c-7 -21 -8 -88 -4 -202 l6 -170 26 5 c14 3 51 12 81 21
96 28 255 15 306 -25 6 -5 14 -6 17 -2 11 11 8 84 -7 148 -8 33 -21 94 -30
135 -10 41 -23 81 -29 87 -7 7 2 -44 20 -117 31 -128 50 -240 40 -240 -2 0
-26 10 -53 21 -62 28 -206 30 -274 4 -25 -9 -56 -19 -69 -22 -22 -5 -23 -3
-17 20 3 15 2 84 -3 154 -6 77 -7 144 -1 168 11 49 6 57 -9 15z"/>
<path d="M1433 2654 c-9 -14 -26 -30 -37 -34 -21 -9 -21 -9 1 -9 12 -1 30 10
41 25 l19 27 7 -68 c14 -137 77 -266 185 -378 36 -38 74 -73 84 -79 10 -5 -10
19 -46 54 -130 129 -217 307 -217 445 0 49 -12 55 -37 17z"/>
<path d="M1346 2565 c-3 -9 -6 -24 -5 -33 0 -9 5 -4 10 12 9 32 6 48 -5 21z"/>
<path d="M1426 2498 c9 -47 38 -110 73 -162 40 -58 128 -154 155 -168 11 -6
-12 23 -51 65 -91 96 -137 166 -158 240 -18 62 -28 76 -19 25z"/>
<path d="M1331 2494 c0 -11 3 -14 6 -6 3 7 2 16 -1 19 -3 4 -6 -2 -5 -13z"/>
<path d="M1310 2440 c-7 -17 -10 -33 -8 -36 3 -2 11 9 18 26 7 17 10 33 8 36
-3 2 -11 -9 -18 -26z"/>
<path d="M1291 2374 c-1 -14 -10 -24 -26 -28 -17 -4 -33 -22 -50 -59 -26 -52
-14 -45 17 12 9 17 29 33 45 38 25 7 28 11 22 33 -6 22 -7 23 -8 4z"/>
<path d="M3115 2330 c40 -9 112 -13 104 -6 -2 2 -35 6 -74 9 -54 4 -61 4 -30
-3z"/>
<path d="M1771 2280 c-2 -44 29 -213 51 -280 11 -36 34 -91 50 -122 17 -36 24
-58 16 -58 -6 0 -23 -11 -37 -24 -15 -13 -69 -43 -121 -67 -52 -23 -106 -49
-120 -57 -111 -67 -204 -139 -267 -206 -84 -89 -146 -196 -115 -196 5 0 14 17
20 39 14 46 113 167 185 226 90 73 246 163 378 218 l35 14 -7 -45 c-8 -55 -8
-56 -187 -147 l-137 -70 -57 -90 c-62 -98 -118 -227 -118 -273 0 -29 0 -29
-76 -36 -66 -6 -78 -5 -91 11 -13 17 -13 16 -3 -4 9 -20 7 -23 -14 -29 -30 -7
-60 -39 -51 -53 15 -25 -15 -9 -40 21 -19 22 -26 40 -23 59 3 15 1 26 -4 23
-12 -8 -10 -49 4 -79 7 -15 25 -33 40 -41 29 -15 37 -38 16 -48 -7 -3 5 -2 27
2 22 4 119 7 215 6 146 0 163 1 105 9 -38 5 -124 6 -191 4 -110 -4 -122 -3
-132 14 -7 11 -8 19 -2 19 5 0 7 6 4 14 -10 26 41 47 140 58 90 11 176 6 286
-17 14 -2 7 1 -14 8 -35 12 -42 19 -58 68 -27 76 -21 155 15 202 15 19 73 72
129 117 57 46 129 108 160 138 52 51 58 61 73 129 11 47 21 73 30 73 25 0 24
15 -5 77 -39 84 -69 188 -90 313 -10 58 -18 94 -19 80z m-22 -686 c-13 -14
-70 -62 -126 -105 -115 -89 -146 -123 -163 -175 -13 -37 -9 -109 8 -177 9 -33
8 -38 -5 -33 -8 3 -37 6 -64 6 -45 0 -49 2 -49 25 0 39 44 149 91 227 78 129
95 145 209 202 124 62 131 64 99 30z"/>
<path d="M1335 2271 c40 -48 194 -169 248 -195 56 -26 167 -59 174 -52 3 2
-22 11 -54 20 -94 26 -152 57 -238 125 -44 35 -85 68 -90 75 -6 6 -22 20 -35
31 l-25 20 20 -24z"/>
<path d="M1156 2175 c-9 -26 -7 -32 5 -12 6 10 9 21 6 23 -2 3 -7 -2 -11 -11z"/>
<path d="M1142 2100 c-1 -25 5 -58 14 -75 12 -25 13 -26 8 -5 -3 14 -10 48
-14 75 l-7 50 -1 -45z"/>
<path d="M2983 2100 c0 -25 2 -35 4 -22 2 12 2 32 0 45 -2 12 -4 2 -4 -23z"/>
<path d="M2915 2054 c-1 -40 3 -68 7 -61 10 15 10 108 0 124 -4 6 -7 -22 -7
-63z"/>
<path d="M1120 2015 c-9 -11 -9 -21 -1 -42 l11 -28 -5 28 c-3 16 -1 35 6 43 6
8 9 14 6 14 -2 0 -10 -7 -17 -15z"/>
<path d="M2210 2010 c-31 -5 -10 -7 63 -6 l109 1 24 -30 c24 -31 34 -24 10 7
-27 36 -95 45 -206 28z"/>
<path d="M1377 1999 c7 -7 15 -10 18 -7 3 3 -2 9 -12 12 -14 6 -15 5 -6 -5z"/>
<path d="M1170 1985 c0 -25 68 -125 117 -172 44 -44 133 -103 133 -90 0 2 -22
18 -50 36 -47 30 -160 145 -160 162 0 5 -9 23 -20 41 -11 18 -20 29 -20 23z"/>
<path d="M1450 1965 c14 -8 30 -14 35 -14 6 0 -1 6 -15 14 -14 8 -29 14 -35
14 -5 0 1 -6 15 -14z"/>
<path d="M1117 1925 c-4 -11 -10 -27 -13 -35 -3 -8 1 -5 11 8 9 12 15 28 13
34 -3 7 -7 4 -11 -7z"/>
<path d="M1545 1930 c11 -5 29 -8 40 -8 16 0 15 2 -5 8 -34 11 -60 11 -35 0z"/>
<path d="M1260 1927 c0 -21 72 -117 111 -147 l44 -33 -53 55 c-30 30 -64 73
-77 94 -14 22 -25 35 -25 31z"/>
<path d="M1633 1913 c15 -2 37 -2 50 0 12 2 0 4 -28 4 -27 0 -38 -2 -22 -4z"/>
<path d="M1758 1913 c6 -2 18 -2 25 0 6 3 1 5 -13 5 -14 0 -19 -2 -12 -5z"/>
<path d="M3043 1856 c23 -6 36 -14 33 -22 -3 -7 1 -18 9 -24 11 -9 12 -7 8 10
-5 19 -3 20 38 14 57 -9 89 -21 89 -34 0 -5 4 -10 10 -10 5 0 7 6 4 14 -6 17
-54 35 -93 37 -18 1 -12 4 19 11 31 7 50 7 62 -1 10 -6 24 -11 32 -11 8 0 19
-12 24 -27 6 -16 11 -22 11 -15 2 23 -19 52 -37 52 -10 0 -23 5 -29 11 -7 7
-30 8 -71 2 -34 -6 -59 -7 -58 -4 2 3 -17 6 -42 6 l-47 1 38 -10z"/>
<path d="M1095 1833 c4 -16 -1 -26 -20 -39 -14 -9 -25 -22 -25 -29 0 -7 16
-39 35 -71 39 -65 42 -80 18 -106 -10 -11 -12 -18 -4 -18 6 0 17 11 23 26 10
21 8 33 -15 77 -15 29 -32 60 -39 69 -10 15 -8 22 16 47 23 24 26 32 17 48
-11 16 -11 16 -6 -4z"/>
<path d="M3015 1775 c22 -8 49 -14 59 -14 11 -1 16 -4 13 -7 -9 -9 32 -40 63
-48 18 -4 16 -2 -7 9 -57 26 -49 35 31 35 66 0 77 -3 90 -22 11 -16 16 -18 16
-7 0 20 -20 39 -41 39 -9 0 -22 7 -29 15 -7 8 -20 14 -29 14 -13 -1 -13 -2 2
-6 28 -7 20 -23 -12 -23 -16 0 -65 7 -108 15 -92 18 -102 18 -48 0z"/>
<path d="M3292 1766 c7 -8 15 -12 17 -11 5 6 -10 25 -20 25 -5 0 -4 -6 3 -14z"/>
<path d="M1887 1750 c5 -8 34 -89 62 -180 29 -91 60 -187 69 -215 8 -27 23
-86 33 -130 15 -69 18 -74 18 -38 1 66 -146 534 -177 563 -14 13 -15 13 -5 0z"/>
<path d="M3325 1741 c3 -5 -5 -12 -17 -14 -19 -3 -18 -5 6 -6 29 -1 29 -1 10
-23 l-19 -22 25 17 c13 9 43 18 65 18 l40 2 -44 7 c-25 4 -47 12 -49 18 -2 7
-8 12 -13 12 -6 0 -8 -4 -4 -9z"/>
<path d="M3193 1699 c9 -5 17 -14 17 -19 0 -14 -33 -12 -114 5 -76 16 -102 13
-38 -4 26 -7 42 -18 45 -31 4 -17 13 -20 59 -18 l53 1 -49 6 c-71 9 -74 32 -4
25 71 -8 77 -10 88 -36 l9 -23 0 23 c1 12 -3 22 -9 22 -5 0 -10 5 -10 10 0 6
6 10 14 10 8 0 16 7 20 15 4 12 2 13 -13 3 -14 -9 -23 -8 -42 5 -13 10 -28 17
-34 17 -5 0 -2 -5 8 -11z"/>
<path d="M1150 1681 c19 -11 44 -20 55 -20 15 0 12 3 -11 13 -56 25 -82 28
-44 7z"/>
<path d="M1951 1685 c0 -5 20 -48 44 -95 24 -47 44 -80 44 -75 0 6 -20 48 -44
95 -24 47 -44 81 -44 75z"/>
<path d="M1405 1670 c-3 -5 -1 -10 4 -10 6 0 11 5 11 10 0 6 -2 10 -4 10 -3 0
-8 -4 -11 -10z"/>
<path d="M3280 1671 c0 -5 7 -11 15 -15 8 -3 15 -17 15 -31 0 -16 -6 -25 -15
-25 -8 0 -15 -5 -15 -11 0 -14 21 -7 33 13 13 19 2 64 -18 72 -8 3 -15 1 -15
-3z"/>
<path d="M1052 1650 c-55 -52 -64 -102 -21 -115 12 -4 27 -21 34 -38 11 -23
14 -27 14 -12 1 25 -7 36 -41 58 -37 23 -35 39 8 87 39 43 42 53 6 20z"/>
<path d="M1268 1653 c23 -2 61 -2 85 0 23 2 4 4 -43 4 -47 0 -66 -2 -42 -4z"/>
<path d="M1400 1634 c-24 -9 -29 -13 -14 -13 11 -1 29 6 40 14 22 17 20 17
-26 -1z"/>
<path d="M1338 1613 c7 -3 16 -2 19 1 4 3 -2 6 -13 5 -11 0 -14 -3 -6 -6z"/>
<path d="M1283 1603 c9 -2 23 -2 30 0 6 3 -1 5 -18 5 -16 0 -22 -2 -12 -5z"/>
<path d="M1228 1593 c6 -2 18 -2 25 0 6 3 1 5 -13 5 -14 0 -19 -2 -12 -5z"/>
<path d="M2086 1572 c18 -12 70 -94 103 -162 17 -36 29 -54 26 -40 -16 64
-105 210 -129 210 -8 0 -8 -3 0 -8z"/>
<path d="M2267 1558 c24 -28 40 -67 52 -128 l9 -45 0 40 c2 66 -40 155 -71
155 -6 0 -1 -10 10 -22z"/>
<path d="M2427 1505 c9 -19 18 -33 21 -31 4 5 -26 66 -33 66 -3 0 3 -16 12
-35z"/>
<path d="M2046 1485 c3 -11 16 -49 29 -85 12 -37 33 -111 45 -165 12 -55 26
-104 31 -109 19 -21 -60 274 -91 338 -11 23 -17 32 -14 21z"/>
<path d="M1032 1457 c-15 -16 -22 -36 -22 -64 0 -58 37 -172 64 -197 47 -43
76 -64 76 -55 0 12 -37 49 -50 49 -17 0 -42 49 -61 118 -24 85 -24 113 2 146
25 32 20 34 -9 3z"/>
<path d="M3548 1303 c23 -2 61 -2 85 0 23 2 4 4 -43 4 -47 0 -66 -2 -42 -4z"/>
<path d="M3758 1293 c17 -2 47 -2 65 0 17 2 3 4 -33 4 -36 0 -50 -2 -32 -4z"/>
<path d="M3926 1280 c72 -11 149 -38 168 -59 16 -18 15 -20 -10 -40 -15 -11
-22 -21 -15 -21 6 0 20 9 32 21 23 23 24 23 38 -11 6 -15 10 -19 10 -9 1 23
-36 67 -72 86 -45 23 -125 43 -167 42 -29 -1 -26 -3 16 -9z"/>
<path d="M2905 1260 c-13 -6 -15 -9 -5 -9 8 0 22 4 30 9 18 12 2 12 -25 0z"/>
<path d="M3463 1247 c5 -25 -145 -32 -435 -20 -87 3 -155 10 -152 15 3 4 -2 8
-11 8 -9 0 -15 -6 -13 -12 3 -8 34 -16 79 -21 91 -10 527 -4 552 7 23 11 22
22 -3 29 -11 3 -18 0 -17 -6z"/>
<path d="M2705 1229 c-4 -6 -5 -12 -2 -15 2 -3 7 2 10 11 7 17 1 20 -8 4z"/>
<path d="M3608 1221 c20 -18 21 -20 5 -24 -16 -4 -16 -5 -1 -6 29 -2 29 16 0
33 l-27 17 23 -20z"/>
<path d="M783 1213 c26 -2 68 -2 95 0 26 2 4 3 -48 3 -52 0 -74 -1 -47 -3z"/>
<path d="M648 1196 c-21 -8 -50 -21 -64 -31 l-26 -17 22 -23 c15 -16 21 -32
18 -49 -5 -25 -3 -26 41 -24 43 1 44 2 9 5 -35 4 -38 7 -38 34 0 17 -6 32 -15
35 -41 16 9 51 107 74 27 7 29 8 8 9 -14 0 -42 -6 -62 -13z"/>
<path d="M943 1203 c9 -2 25 -2 35 0 9 3 1 5 -18 5 -19 0 -27 -2 -17 -5z"/>
<path d="M1015 1190 c11 -5 27 -9 35 -9 13 -1 13 0 0 9 -8 5 -24 9 -35 9 l-20
0 20 -9z"/>
<path d="M2748 1193 c6 -2 18 -2 25 0 6 3 1 5 -13 5 -14 0 -19 -2 -12 -5z"/>
<path d="M803 1183 c26 -2 68 -2 95 0 26 2 4 3 -48 3 -52 0 -74 -1 -47 -3z"/>
<path d="M2858 1183 c17 -2 47 -2 65 0 17 2 3 4 -33 4 -36 0 -50 -2 -32 -4z"/>
<path d="M3538 1183 c6 -2 18 -2 25 0 6 3 1 5 -13 5 -14 0 -19 -2 -12 -5z"/>
<path d="M703 1173 c9 -2 23 -2 30 0 6 3 -1 5 -18 5 -16 0 -22 -2 -12 -5z"/>
<path d="M2240 1149 c0 -23 -6 -39 -15 -43 -8 -3 -15 -15 -15 -26 0 -25 41
-44 113 -55 l49 -8 -4 -58 c-2 -33 0 -59 5 -59 4 0 7 27 7 61 l0 61 28 -6 c44
-9 167 -19 162 -13 -3 2 -68 12 -145 21 -148 18 -205 31 -205 47 0 6 9 5 22
-2 22 -12 311 -50 481 -64 61 -5 85 -11 78 -18 -7 -7 -36 -7 -93 1 -46 7 -94
12 -108 11 -22 -1 4 -7 108 -25 l33 -5 -23 -20 c-23 -19 -23 -19 12 -1 19 11
57 25 83 32 58 16 47 25 -38 33 -188 18 -437 47 -480 57 -51 11 -51 11 -47 46
3 28 8 34 21 28 36 -14 54 -14 21 1 -19 9 -38 21 -42 28 -4 7 -8 -4 -8 -24z"/>
<path d="M3077 1173 c18 -2 50 -2 70 0 21 2 7 4 -32 4 -38 0 -55 -2 -38 -4z"/>
<path d="M3428 1173 c12 -2 30 -2 40 0 9 3 -1 5 -23 4 -22 0 -30 -2 -17 -4z"/>
<path d="M632 1158 c6 -18 84 -27 154 -18 54 7 51 7 -46 9 -72 1 -100 4 -90
11 13 8 12 10 -3 10 -11 0 -17 -6 -15 -12z"/>
<path d="M3995 1145 c-40 -19 -16 -19 26 0 19 8 27 14 19 14 -8 0 -28 -7 -45
-14z"/>
<path d="M4100 1130 c-10 -6 -11 -10 -2 -10 6 0 12 -8 12 -18 0 -16 -17 -23
-97 -40 -87 -19 -212 -44 -283 -55 -14 -3 0 -3 32 -1 49 3 221 35 343 64 79
18 44 1 -69 -34 -120 -38 -293 -66 -405 -66 -41 0 -61 -4 -53 -9 10 -6 3 -10
-23 -15 -20 -4 -35 -9 -33 -11 2 -2 40 2 83 10 44 8 113 14 153 15 40 0 71 4
68 9 -3 5 22 12 57 15 34 4 72 10 85 13 19 5 22 1 22 -27 0 -26 -3 -31 -17
-26 -9 4 -38 9 -63 12 -38 3 -35 2 18 -10 35 -8 73 -18 85 -21 12 -4 17 -3 11
2 -6 4 -14 23 -17 41 -5 26 -3 34 11 38 9 3 28 11 42 18 14 8 42 19 62 25 46
15 58 45 29 72 -23 21 -30 23 -51 9z m44 -31 c-6 -11 -24 -2 -24 11 0 5 7 7
15 4 8 -4 12 -10 9 -15z"/>
<path d="M2338 1123 c7 -3 16 -2 19 1 4 3 -2 6 -13 5 -11 0 -14 -3 -6 -6z"/>
<path d="M2438 1123 c6 -2 18 -2 25 0 6 3 1 5 -13 5 -14 0 -19 -2 -12 -5z"/>
<path d="M3928 1123 c7 -3 16 -2 19 1 4 3 -2 6 -13 5 -11 0 -14 -3 -6 -6z"/>
<path d="M633 1113 c9 -2 23 -2 30 0 6 3 -1 5 -18 5 -16 0 -22 -2 -12 -5z"/>
<path d="M818 1113 c7 -3 16 -2 19 1 4 3 -2 6 -13 5 -11 0 -14 -3 -6 -6z"/>
<path d="M1938 1113 c12 -2 32 -2 45 0 12 2 2 4 -23 4 -25 0 -35 -2 -22 -4z"/>
<path d="M2415 1104 c28 -7 59 -13 70 -13 11 0 -5 7 -35 14 -72 18 -100 17
-35 -1z"/>
<path d="M2550 1104 c41 -7 91 -13 110 -12 19 0 -3 6 -50 14 -47 7 -96 13
-110 12 -14 0 9 -6 50 -14z"/>
<path d="M3863 1113 c9 -2 23 -2 30 0 6 3 -1 5 -18 5 -16 0 -22 -2 -12 -5z"/>
<path d="M4040 1105 c-14 -8 -20 -14 -15 -14 6 0 21 6 35 14 14 8 21 14 15 14
-5 0 -21 -6 -35 -14z"/>
<path d="M1838 1103 c12 -2 32 -2 45 0 12 2 2 4 -23 4 -25 0 -35 -2 -22 -4z"/>
<path d="M2038 1103 c12 -2 32 -2 45 0 12 2 2 4 -23 4 -25 0 -35 -2 -22 -4z"/>
<path d="M3760 1100 c-34 -7 -34 -7 -5 -8 17 0 44 4 60 8 27 7 27 8 5 8 -14
-1 -41 -4 -60 -8z"/>
<path d="M1773 1093 c9 -2 23 -2 30 0 6 3 -1 5 -18 5 -16 0 -22 -2 -12 -5z"/>
<path d="M2118 1093 c6 -2 18 -2 25 0 6 3 1 5 -13 5 -14 0 -19 -2 -12 -5z"/>
<path d="M3645 1089 c-28 -6 -26 -7 13 -8 42 -1 53 3 30 11 -7 2 -26 1 -43 -3z"/>
<path d="M2173 1073 c18 -20 17 -21 -9 -42 -15 -11 -36 -22 -48 -22 -17 -1
-17 -2 -3 -6 9 -2 17 -12 17 -22 0 -9 7 -26 16 -37 14 -18 15 -18 8 6 -4 14
-8 30 -11 35 -2 6 10 24 27 40 36 34 37 41 8 56 -23 12 -23 11 -5 -8z"/>
<path d="M2518 1083 c6 -2 18 -2 25 0 6 3 1 5 -13 5 -14 0 -19 -2 -12 -5z"/>
<path d="M2723 1083 c15 -2 39 -2 55 0 15 2 2 4 -28 4 -30 0 -43 -2 -27 -4z"/>
<path d="M3988 1083 c7 -3 16 -2 19 1 4 3 -2 6 -13 5 -11 0 -14 -3 -6 -6z"/>
<path d="M1213 1069 c-38 -11 -45 -22 -8 -13 14 3 49 10 78 14 l52 8 -45 0
c-25 0 -60 -4 -77 -9z"/>
<path d="M1423 1073 c9 -2 23 -2 30 0 6 3 -1 5 -18 5 -16 0 -22 -2 -12 -5z"/>
<path d="M1684 1058 l-19 -23 25 20 c14 11 27 21 29 22 2 2 0 3 -6 3 -5 0 -18
-10 -29 -22z"/>
<path d="M1753 1069 c-18 -5 -34 -13 -37 -18 -3 -5 13 -2 36 6 46 16 327 15
363 -1 17 -8 18 -7 7 5 -16 17 -318 24 -369 8z"/>
<path d="M2578 1073 c6 -2 18 -2 25 0 6 3 1 5 -13 5 -14 0 -19 -2 -12 -5z"/>
<path d="M2895 1067 c104 -10 539 -10 635 0 48 5 -68 8 -320 8 -253 0 -366 -3
-315 -8z"/>
<path d="M3880 1064 l-55 -13 49 5 c27 3 58 9 70 14 31 13 -1 10 -64 -6z"/>
<path d="M753 1063 c9 -2 23 -2 30 0 6 3 -1 5 -18 5 -16 0 -22 -2 -12 -5z"/>
<path d="M2645 1060 c17 -4 44 -8 60 -8 25 0 24 2 -10 9 -51 10 -92 10 -50 -1z"/>
<path d="M843 1053 c9 -2 23 -2 30 0 6 3 -1 5 -18 5 -16 0 -22 -2 -12 -5z"/>
<path d="M538 1043 c7 -3 16 -2 19 1 4 3 -2 6 -13 5 -11 0 -14 -3 -6 -6z"/>
<path d="M1438 1043 c6 -2 18 -2 25 0 6 3 1 5 -13 5 -14 0 -19 -2 -12 -5z"/>
<path d="M2778 1043 c12 -2 30 -2 40 0 9 3 -1 5 -23 4 -22 0 -30 -2 -17 -4z"/>
<path d="M3753 1043 c9 -2 25 -2 35 0 9 3 1 5 -18 5 -19 0 -27 -2 -17 -5z"/>
<path d="M453 1030 c-32 -13 -29 -21 5 -10 56 18 58 18 37 19 -11 0 -30 -4
-42 -9z"/>
<path d="M921 1037 c2 -1 13 -9 24 -17 19 -14 19 -14 6 3 -7 9 -18 17 -24 17
-6 0 -8 -1 -6 -3z"/>
<path d="M1233 1033 c26 -2 67 -2 90 0 23 2 2 3 -48 3 -49 0 -68 -1 -42 -3z"/>
<path d="M1530 1030 c-17 -5 -19 -8 -7 -9 9 -1 17 -5 17 -10 0 -5 3 -16 6 -25
4 -11 0 -16 -12 -16 -12 -1 -7 -6 14 -15 35 -16 51 -40 34 -57 -6 -6 -50 -21
-99 -34 -48 -13 -79 -23 -68 -23 11 -1 45 6 75 14 30 8 56 15 58 15 9 0 -1
-69 -10 -73 -7 -3 -3 -6 9 -6 16 -1 20 3 16 19 -3 10 4 39 16 63 26 53 26 62
3 79 -23 16 -35 58 -20 75 12 14 5 15 -32 3z"/>
<path d="M2065 1025 c-22 -8 -31 -14 -20 -14 11 0 34 6 50 14 38 17 22 17 -30
0z"/>
<path d="M2908 1033 c17 -2 47 -2 65 0 17 2 3 4 -33 4 -36 0 -50 -2 -32 -4z"/>
<path d="M3431 1029 c-69 -5 -130 -11 -135 -14 -12 -5 161 3 319 15 l100 7
-80 0 c-44 0 -136 -4 -204 -8z"/>
<path d="M553 1020 c-39 -4 -76 -11 -82 -15 -17 -10 -3 -25 22 -24 21 0 21 1
2 8 -18 7 -17 9 10 14 105 21 413 18 360 -4 -13 -5 -15 -8 -5 -8 21 -1 46 16
37 25 -10 11 -260 14 -344 4z"/>
<path d="M3053 1023 c26 -2 67 -2 90 0 23 2 2 3 -48 3 -49 0 -68 -1 -42 -3z"/>
<path d="M1198 1013 c12 -2 32 -2 45 0 12 2 2 4 -23 4 -25 0 -35 -2 -22 -4z"/>
<path d="M1388 1013 c18 -2 45 -2 60 0 15 2 0 4 -33 4 -33 0 -45 -2 -27 -4z"/>
<path d="M1670 1001 c0 -3 7 -15 15 -25 8 -11 16 -29 16 -40 1 -17 2 -17 6 -4
2 9 -1 26 -7 38 -11 20 -10 21 27 14 55 -11 292 -8 333 4 29 9 25 10 -25 4
-79 -9 -270 -5 -323 6 -23 6 -42 7 -42 3z"/>
<path d="M1988 1003 c6 -2 18 -2 25 0 6 3 1 5 -13 5 -14 0 -19 -2 -12 -5z"/>
<path d="M2903 1003 c9 -2 23 -2 30 0 6 3 -1 5 -18 5 -16 0 -22 -2 -12 -5z"/>
<path d="M3093 1003 c9 -2 23 -2 30 0 6 3 -1 5 -18 5 -16 0 -22 -2 -12 -5z"/>
<path d="M939 987 c-9 -7 -16 -31 -18 -58 -2 -36 3 -52 22 -75 32 -38 57 -88
57 -113 0 -11 -14 -35 -31 -53 -43 -45 -69 -89 -68 -113 0 -13 7 -5 19 23 11
24 42 65 70 92 28 28 45 47 37 44 -10 -3 -16 5 -20 29 -3 19 -21 56 -41 82
-39 51 -45 87 -20 123 19 27 16 35 -7 19z"/>
<path d="M3187 983 c61 -26 70 -38 50 -61 -9 -10 -17 -32 -16 -48 1 -29 1 -29
9 5 13 56 23 60 175 70 l140 10 -147 -5 c-81 -2 -149 0 -152 5 -7 11 75 21
189 22 50 0 128 5 175 9 54 5 -1 6 -150 3 -281 -7 -249 -7 -285 1 -22 5 -19 2
12 -11z"/>
<path d="M419 967 c7 -10 17 -32 21 -50 l8 -32 -1 36 c-1 25 -7 41 -21 49 -19
12 -20 12 -7 -3z"/>
<path d="M3083 973 c9 -2 25 -2 35 0 9 3 1 5 -18 5 -19 0 -27 -2 -17 -5z"/>
<path d="M838 953 c6 -2 18 -2 25 0 6 3 1 5 -13 5 -14 0 -19 -2 -12 -5z"/>
<path d="M1038 943 c-30 -35 -30 -43 2 -80 32 -36 35 -57 15 -108 -7 -19 -7
-19 10 -3 11 10 18 31 18 57 0 23 5 41 11 42 6 0 -6 7 -26 16 -45 18 -49 43
-12 72 17 13 21 21 12 21 -8 0 -22 -8 -30 -17z"/>
<path d="M1167 951 c-56 -12 -57 -22 -1 -14 62 10 231 10 304 1 44 -6 49 -5
25 3 -38 13 -278 21 -328 10z"/>
<path d="M3190 950 c-9 -6 -10 -10 -3 -10 6 0 15 5 18 10 8 12 4 12 -15 0z"/>
<path d="M763 943 c9 -2 25 -2 35 0 9 3 1 5 -18 5 -19 0 -27 -2 -17 -5z"/>
<path d="M603 933 c26 -2 67 -2 90 0 23 2 2 3 -48 3 -49 0 -68 -1 -42 -3z"/>
<path d="M3123 933 c9 -2 23 -2 30 0 6 3 -1 5 -18 5 -16 0 -22 -2 -12 -5z"/>
<path d="M1092 913 c2 -9 10 -18 18 -20 12 -4 13 -3 1 5 -7 5 -10 15 -7 21 4
6 2 11 -4 11 -6 0 -10 -8 -8 -17z"/>
<path d="M1530 921 c0 -6 -10 -16 -22 -21 -16 -6 -18 -9 -7 -9 19 -1 45 26 35
36 -3 3 -6 1 -6 -6z"/>
<path d="M3672 923 c37 -2 100 -2 140 0 40 1 10 3 -67 3 -77 0 -110 -1 -73 -3z"/>
<path d="M2128 913 c23 -2 59 -2 80 0 20 2 1 4 -43 4 -44 0 -61 -2 -37 -4z"/>
<path d="M2700 911 c0 -7 12 -22 26 -34 20 -15 25 -27 22 -49 -4 -25 -2 -27
16 -21 12 4 41 13 66 20 l45 13 -42 -5 c-23 -3 -48 -7 -56 -11 -10 -3 -16 3
-19 20 -5 24 -3 26 36 27 38 2 38 2 -13 8 -35 5 -58 13 -67 26 -8 11 -14 14
-14 6z"/>
<path d="M3545 910 c-9 -15 4 -30 23 -29 15 1 15 2 0 6 -10 2 -18 8 -18 13 0
5 8 11 18 13 15 4 15 5 0 6 -9 0 -20 -3 -23 -9z"/>
<path d="M3903 913 c9 -2 23 -2 30 0 6 3 -1 5 -18 5 -16 0 -22 -2 -12 -5z"/>
<path d="M4059 901 c17 -13 22 -25 18 -40 -3 -11 -1 -19 4 -15 23 14 -7 74
-37 74 -5 0 2 -9 15 -19z"/>
<path d="M1672 874 c-12 -19 -20 -34 -18 -34 7 0 49 61 44 65 -2 2 -13 -12
-26 -31z"/>
<path d="M2048 903 c7 -3 16 -2 19 1 4 3 -2 6 -13 5 -11 0 -14 -3 -6 -6z"/>
<path d="M2283 903 c9 -2 25 -2 35 0 9 3 1 5 -18 5 -19 0 -27 -2 -17 -5z"/>
<path d="M2008 893 c7 -3 16 -2 19 1 4 3 -2 6 -13 5 -11 0 -14 -3 -6 -6z"/>
<path d="M2143 883 c15 -2 37 -2 50 0 12 2 0 4 -28 4 -27 0 -38 -2 -22 -4z"/>
<path d="M1936 865 c-11 -8 -17 -17 -14 -20 2 -3 13 4 23 15 21 23 18 25 -9 5z"/>
<path d="M2033 873 c9 -2 23 -2 30 0 6 3 -1 5 -18 5 -16 0 -22 -2 -12 -5z"/>
<path d="M2330 864 c88 -18 118 -38 79 -53 -13 -5 -19 -10 -12 -10 22 -2 43
11 43 26 0 20 -54 40 -125 47 -60 6 -60 6 15 -10z"/>
<path d="M2450 876 c0 -2 7 -7 16 -10 8 -3 12 -2 9 4 -6 10 -25 14 -25 6z"/>
<path d="M3108 873 c6 -2 18 -2 25 0 6 3 1 5 -13 5 -14 0 -19 -2 -12 -5z"/>
<path d="M3630 868 c56 -8 223 -8 310 1 38 4 -21 6 -145 6 -115 0 -190 -3
-165 -7z"/>
<path d="M4568 873 c12 -2 32 -2 45 0 12 2 2 4 -23 4 -25 0 -35 -2 -22 -4z"/>
<path d="M4778 873 c18 -2 45 -2 60 0 15 2 0 4 -33 4 -33 0 -45 -2 -27 -4z"/>
<path d="M1985 860 c-3 -6 1 -7 9 -4 18 7 21 14 7 14 -6 0 -13 -4 -16 -10z"/>
<path d="M2960 861 c0 -6 -19 -11 -42 -13 -24 -2 27 -3 112 -4 85 0 133 2 105
4 -27 2 -54 7 -59 13 -13 12 -116 12 -116 0z"/>
<path d="M3460 866 c0 -2 8 -10 18 -17 15 -13 16 -12 3 4 -13 16 -21 21 -21
13z"/>
<path d="M4518 863 c7 -3 16 -2 19 1 4 3 -2 6 -13 5 -11 0 -14 -3 -6 -6z"/>
<path d="M4910 855 c24 -8 46 -13 48 -11 5 5 -59 26 -77 25 -9 0 4 -7 29 -14z"/>
<path d="M330 841 c-47 -10 -101 -26 -120 -35 -19 -9 -26 -14 -16 -11 143 41
188 48 311 49 72 1 155 -2 185 -6 44 -6 49 -5 25 3 -16 6 -91 13 -165 15 -106
3 -153 0 -220 -15z"/>
<path d="M4460 843 c-30 -21 -40 -33 -39 -53 0 -8 4 -5 9 7 5 13 24 32 42 43
18 11 28 20 23 20 -6 0 -22 -8 -35 -17z"/>
<path d="M1143 843 c15 -2 37 -2 50 0 12 2 0 4 -28 4 -27 0 -38 -2 -22 -4z"/>
<path d="M2491 834 c0 -11 3 -14 6 -6 3 7 2 16 -1 19 -3 4 -6 -2 -5 -13z"/>
<path d="M4653 843 c42 -2 112 -2 155 0 42 1 7 3 -78 3 -85 0 -120 -2 -77 -3z"/>
<path d="M3208 833 c6 -2 18 -2 25 0 6 3 1 5 -13 5 -14 0 -19 -2 -12 -5z"/>
<path d="M3509 788 c2 -35 6 -47 12 -36 9 16 1 88 -10 88 -3 0 -4 -23 -2 -52z"/>
<path d="M4523 833 c9 -2 23 -2 30 0 6 3 -1 5 -18 5 -16 0 -22 -2 -12 -5z"/>
<path d="M4915 826 c28 -12 29 -13 10 -24 -11 -6 -15 -11 -10 -12 6 0 17 5 25
10 13 9 12 12 -4 25 -11 8 -27 15 -35 15 -9 -1 -3 -7 14 -14z"/>
<path d="M775 811 c17 -10 32 -16 35 -14 8 7 -32 33 -49 33 -9 0 -3 -8 14 -19z"/>
<path d="M1640 823 c0 -6 -12 -14 -27 -16 -16 -2 31 -4 102 -3 104 0 111 1 35
3 -59 3 -97 8 -102 16 -6 9 -8 9 -8 0z"/>
<path d="M3295 808 c22 -13 41 -31 43 -39 4 -23 -39 -47 -121 -69 -40 -10 -60
-19 -46 -19 14 -1 51 8 82 18 l56 20 -6 -29 c-7 -40 2 -73 27 -88 26 -16 26
-8 -1 17 -18 16 -21 27 -16 57 3 20 13 44 22 54 33 36 10 76 -55 94 -16 5 -11
-1 15 -16z"/>
<path d="M3563 823 c9 -2 25 -2 35 0 9 3 1 5 -18 5 -19 0 -27 -2 -17 -5z"/>
<path d="M3870 820 l-75 -6 70 -1 c39 0 84 3 100 7 26 7 27 8 5 7 -14 0 -59
-3 -100 -7z"/>
<path d="M4480 815 c0 -8 2 -15 4 -15 2 0 6 7 10 15 3 8 1 15 -4 15 -6 0 -10
-7 -10 -15z"/>
<path d="M341 809 c-30 -5 -57 -12 -60 -16 -3 -3 12 -2 34 2 22 4 110 11 195
15 l155 7 -135 0 c-74 0 -159 -3 -189 -8z"/>
<path d="M2935 810 c-48 -5 -34 -7 71 -8 72 -1 153 -4 180 -7 47 -4 47 -4 9 4
-62 13 -193 19 -260 11z"/>
<path d="M3638 813 c12 -2 32 -2 45 0 12 2 2 4 -23 4 -25 0 -35 -2 -22 -4z"/>
<path d="M2465 798 c-11 -7 -36 -18 -55 -25 -19 -6 -27 -12 -17 -13 10 0 27 5
38 10 16 9 19 7 19 -14 0 -13 3 -31 6 -40 5 -13 -4 -16 -52 -18 -53 -1 -54 -2
-15 -5 25 -3 54 -2 67 1 19 5 21 11 17 46 -4 25 -1 46 7 55 15 18 12 18 -15 3z"/>
<path d="M1873 793 c9 -2 23 -2 30 0 6 3 -1 5 -18 5 -16 0 -22 -2 -12 -5z"/>
<path d="M2303 793 c15 -2 37 -2 50 0 12 2 0 4 -28 4 -27 0 -38 -2 -22 -4z"/>
<path d="M2700 785 c-8 -9 -9 -28 -5 -56 5 -30 3 -44 -6 -51 -11 -7 -9 -8 6
-6 13 3 20 11 19 26 0 13 5 22 15 23 10 0 8 4 -6 9 -27 11 -30 38 -5 56 9 7
12 14 6 14 -6 0 -17 -7 -24 -15z"/>
<path d="M2838 793 c6 -2 18 -2 25 0 6 3 1 5 -13 5 -14 0 -19 -2 -12 -5z"/>
<path d="M126 769 c-32 -25 -33 -42 -2 -62 36 -24 51 -78 32 -115 -8 -16 -25
-36 -38 -44 -62 -41 -118 -117 -117 -158 0 -19 5 -12 19 25 14 36 40 68 91
116 74 69 80 83 55 140 -5 12 0 15 31 12 21 -1 29 0 18 3 -54 13 -105 37 -105
49 0 7 15 22 33 34 17 11 27 21 21 21 -6 0 -23 -9 -38 -21z"/>
<path d="M221 777 c-77 -39 5 -62 184 -52 225 12 239 22 24 17 -151 -4 -208
-2 -213 7 -5 7 5 17 26 26 18 8 26 14 18 14 -8 1 -26 -5 -39 -12z"/>
<path d="M1488 783 c7 -3 16 -2 19 1 4 3 -2 6 -13 5 -11 0 -14 -3 -6 -6z"/>
<path d="M1960 775 c24 -8 46 -13 48 -11 5 5 -59 26 -77 25 -9 0 4 -7 29 -14z"/>
<path d="M2780 780 c-24 -15 -7 -18 20 -3 14 7 18 13 10 13 -8 0 -22 -4 -30
-10z"/>
<path d="M3248 783 c7 -3 16 -2 19 1 4 3 -2 6 -13 5 -11 0 -14 -3 -6 -6z"/>
<path d="M4755 780 l-80 -6 70 -2 c39 0 88 3 110 7 49 10 21 11 -100 1z"/>
<path d="M794 771 c-5 -5 -31 -19 -59 -30 -27 -11 -44 -20 -37 -20 7 -1 29 6
49 14 45 19 46 19 33 -4 -15 -29 -12 -77 5 -95 21 -20 19 -23 -17 -29 -18 -3
-100 -17 -183 -32 -85 -14 -193 -26 -250 -27 -89 -2 -95 -3 -57 -11 48 -11
232 10 420 48 l112 22 70 -74 c104 -112 127 -188 94 -315 -16 -62 -33 -96 -68
-135 -11 -13 -17 -23 -13 -23 15 0 51 49 78 105 24 50 29 73 29 135 0 99 -26
153 -119 250 -98 102 -105 116 -85 175 16 46 16 62 -2 46z"/>
<path d="M1440 770 c-8 -5 -10 -10 -5 -10 6 0 17 5 25 10 8 5 11 10 5 10 -5 0
-17 -5 -25 -10z"/>
<path d="M1520 764 l-45 -13 60 7 c75 9 188 9 285 0 l75 -6 -60 13 c-76 18
-256 17 -315 -1z"/>
<path d="M3943 763 c26 -2 67 -2 90 0 23 2 2 3 -48 3 -49 0 -68 -1 -42 -3z"/>
<path d="M4430 766 c0 -2 7 -7 16 -10 8 -3 12 -2 9 4 -6 10 -25 14 -25 6z"/>
<path d="M1394 746 c-10 -8 -17 -16 -14 -19 3 -2 14 4 24 14 23 22 18 25 -10
5z"/>
<path d="M2048 739 c38 -25 39 -33 10 -53 -12 -9 -17 -16 -11 -16 13 0 43 27
43 40 0 11 -50 50 -64 50 -6 0 4 -10 22 -21z"/>
<path d="M2298 753 c12 -2 32 -2 45 0 12 2 2 4 -23 4 -25 0 -35 -2 -22 -4z"/>
<path d="M3828 753 c7 -3 16 -2 19 1 4 3 -2 6 -13 5 -11 0 -14 -3 -6 -6z"/>
<path d="M4128 753 c6 -2 18 -2 25 0 6 3 1 5 -13 5 -14 0 -19 -2 -12 -5z"/>
<path d="M1460 735 c0 -8 4 -15 10 -15 5 0 7 7 4 15 -4 8 -8 15 -10 15 -2 0
-4 -7 -4 -15z"/>
<path d="M2153 743 c20 -2 54 -2 75 0 20 2 3 4 -38 4 -41 0 -58 -2 -37 -4z"/>
<path d="M2783 738 c7 -4 82 -7 167 -6 169 2 147 6 -52 10 -69 2 -121 0 -115
-4z"/>
<path d="M3750 740 c-11 -8 -7 -9 15 -4 37 8 45 14 19 14 -10 0 -26 -5 -34
-10z"/>
<path d="M4203 743 c9 -2 23 -2 30 0 6 3 -1 5 -18 5 -16 0 -22 -2 -12 -5z"/>
<path d="M4952 721 c-1 -16 2 -41 7 -55 8 -20 7 -26 -7 -30 -34 -10 -290 -25
-363 -21 l-74 4 75 -10 c51 -7 119 -7 211 1 75 5 143 9 150 7 8 -2 10 -2 6 1
-4 2 -1 9 8 16 13 9 14 17 6 39 -6 16 -8 39 -5 53 3 13 2 24 -3 24 -5 0 -10
-13 -11 -29z"/>
<path d="M4251 736 c2 -2 22 -6 44 -9 28 -5 34 -4 20 3 -19 8 -73 14 -64 6z"/>
<path d="M4898 733 c7 -3 16 -2 19 1 4 3 -2 6 -13 5 -11 0 -14 -3 -6 -6z"/>
<path d="M3958 723 c34 -2 88 -2 120 0 31 2 3 3 -63 3 -66 0 -92 -1 -57 -3z"/>
<path d="M4838 723 c6 -2 18 -2 25 0 6 3 1 5 -13 5 -14 0 -19 -2 -12 -5z"/>
<path d="M590 708 c-30 -5 -89 -13 -130 -18 l-75 -9 95 5 c52 2 120 11 150 18
63 16 41 18 -40 4z"/>
<path d="M1513 713 c9 -2 25 -2 35 0 9 3 1 5 -18 5 -19 0 -27 -2 -17 -5z"/>
<path d="M3446 680 c-20 -22 -36 -48 -35 -58 0 -12 3 -9 10 8 6 14 24 40 42
58 17 17 28 32 25 32 -3 0 -22 -18 -42 -40z"/>
<path d="M4163 713 c9 -2 23 -2 30 0 6 3 -1 5 -18 5 -16 0 -22 -2 -12 -5z"/>
<path d="M4349 706 c20 -24 2 -56 -42 -78 -23 -11 -32 -17 -20 -15 20 5 22 2
16 -21 -3 -15 -11 -31 -17 -35 -7 -5 3 -19 29 -40 22 -17 62 -53 88 -80 43
-43 46 -49 32 -63 -9 -9 -15 -33 -15 -58 0 -65 71 -135 96 -94 5 8 2 9 -10 5
-12 -5 -26 3 -47 25 -36 40 -39 86 -6 115 21 20 94 47 147 56 22 4 22 4 -5 5
-16 1 -55 -7 -85 -18 -40 -14 -56 -16 -59 -7 -5 16 -81 91 -105 104 -28 15
-14 74 25 107 17 14 25 26 19 26 -18 0 -56 -47 -67 -82 l-11 -33 -1 31 c-1 19
10 48 29 75 34 50 38 74 14 83 -14 5 -15 4 -5 -8z"/>
<path d="M4593 713 c32 -2 81 -2 110 0 29 2 3 3 -58 3 -60 0 -84 -1 -52 -3z"/>
<path d="M1380 702 c0 -7 11 -18 25 -24 56 -25 44 -90 -29 -164 -97 -95 -154
-228 -142 -330 11 -99 21 -93 21 14 0 86 4 115 19 147 32 64 69 117 103 148
46 41 76 94 75 132 l-1 33 37 -9 c20 -5 57 -8 82 -8 35 1 25 4 -42 15 -87 13
-126 27 -140 48 -5 8 -8 7 -8 -2z"/>
<path d="M1678 703 c46 -2 118 -2 160 0 42 1 5 3 -83 3 -88 0 -123 -2 -77 -3z"/>
<path d="M4240 701 c14 -5 24 -14 22 -22 -3 -11 -1 -12 10 -1 11 11 10 14 -2
22 -8 5 -24 9 -35 9 -16 -1 -15 -2 5 -8z"/>
<path d="M2541 696 c2 -2 31 -6 64 -9 37 -3 51 -2 35 3 -25 8 -107 13 -99 6z"/>
<path d="M4432 669 c-17 -21 -19 -27 -7 -23 15 6 40 43 33 49 -2 1 -13 -11
-26 -26z"/>
<path d="M2298 683 c6 -2 18 -2 25 0 6 3 1 5 -13 5 -14 0 -19 -2 -12 -5z"/>
<path d="M328 673 c6 -2 18 -2 25 0 6 3 1 5 -13 5 -14 0 -19 -2 -12 -5z"/>
<path d="M3690 676 c0 -2 8 -10 18 -17 15 -13 16 -12 3 4 -13 16 -21 21 -21
13z"/>
<path d="M1950 655 c-30 -7 -44 -14 -30 -14 14 -1 40 3 58 8 33 10 33 10 27
-20 -7 -31 26 -99 47 -99 6 0 3 9 -8 21 -14 15 -19 35 -18 70 0 29 -4 48 -10
48 -6 -1 -36 -7 -66 -14z"/>
<path d="M2285 655 l-40 -14 40 7 c52 9 246 9 310 0 42 -6 45 -6 20 3 -51 18
-284 21 -330 4z"/>
<path d="M2745 653 c17 -8 38 -22 48 -31 9 -8 17 -11 17 -5 0 10 -71 53 -86
53 -5 -1 5 -8 21 -17z"/>
<path d="M3933 663 c48 -2 125 -2 170 0 45 1 6 3 -88 3 -93 0 -130 -2 -82 -3z"/>
<path d="M2165 650 c-3 -6 1 -7 9 -4 18 7 21 14 7 14 -6 0 -13 -4 -16 -10z"/>
<path d="M5108 643 c12 -2 32 -2 45 0 12 2 2 4 -23 4 -25 0 -35 -2 -22 -4z"/>
<path d="M5308 643 c6 -2 18 -2 25 0 6 3 1 5 -13 5 -14 0 -19 -2 -12 -5z"/>
<path d="M1818 633 c12 -2 32 -2 45 0 12 2 2 4 -23 4 -25 0 -35 -2 -22 -4z"/>
<path d="M2197 624 c-16 -9 -27 -18 -24 -20 3 -3 20 4 38 15 39 24 28 28 -14
5z"/>
<path d="M2658 633 c7 -3 16 -2 19 1 4 3 -2 6 -13 5 -11 0 -14 -3 -6 -6z"/>
<path d="M1728 623 c6 -2 18 -2 25 0 6 3 1 5 -13 5 -14 0 -19 -2 -12 -5z"/>
<path d="M3795 611 c19 -9 93 -15 84 -7 -2 2 -26 6 -54 10 -34 4 -43 3 -30 -3z"/>
<path d="M3618 603 c12 -2 30 -2 40 0 9 3 -1 5 -23 4 -22 0 -30 -2 -17 -4z"/>
<path d="M4228 603 c6 -2 18 -2 25 0 6 3 1 5 -13 5 -14 0 -19 -2 -12 -5z"/>
<path d="M5108 603 c28 -2 76 -2 105 0 28 2 5 3 -53 3 -58 0 -81 -1 -52 -3z"/>
<path d="M3483 593 c9 -2 23 -2 30 0 6 3 -1 5 -18 5 -16 0 -22 -2 -12 -5z"/>
<path d="M3738 593 c6 -2 18 -2 25 0 6 3 1 5 -13 5 -14 0 -19 -2 -12 -5z"/>
<path d="M3903 593 c9 -2 25 -2 35 0 9 3 1 5 -18 5 -19 0 -27 -2 -17 -5z"/>
<path d="M4168 593 c6 -2 18 -2 25 0 6 3 1 5 -13 5 -14 0 -19 -2 -12 -5z"/>
<path d="M4998 593 c6 -2 18 -2 25 0 6 3 1 5 -13 5 -14 0 -19 -2 -12 -5z"/>
<path d="M2166 577 c6 -18 50 -34 61 -23 4 3 -2 6 -12 6 -10 0 -27 8 -37 17
-18 16 -18 16 -12 0z"/>
<path d="M3388 583 c6 -2 18 -2 25 0 6 3 1 5 -13 5 -14 0 -19 -2 -12 -5z"/>
<path d="M3810 580 c34 -11 60 -11 35 0 -11 5 -29 8 -40 8 -16 0 -15 -2 5 -8z"/>
<path d="M4867 572 c-21 -23 -21 -41 0 -64 9 -10 16 -33 15 -50 -1 -28 1 -30
9 -15 6 10 8 25 5 33 -7 17 -9 17 61 -1 31 -8 71 -14 88 -14 22 1 17 4 -20 10
-132 25 -179 55 -149 97 18 27 13 29 -9 4z"/>
<path d="M4935 576 c-18 -13 -17 -14 8 -31 14 -9 32 -15 39 -12 7 2 1 8 -14
12 -34 9 -36 22 -5 35 13 5 16 9 6 9 -8 1 -24 -5 -34 -13z"/>
<path d="M2613 563 c9 -2 25 -2 35 0 9 3 1 5 -18 5 -19 0 -27 -2 -17 -5z"/>
<path d="M2786 551 c-10 -11 -29 -22 -43 -26 -14 -3 -23 -8 -21 -11 3 -2 17 0
32 5 l26 11 0 -53 c0 -58 1 -60 50 -102 l35 -30 -32 35 c-40 43 -50 88 -33
141 15 46 10 57 -14 30z"/>
<path d="M3318 563 c7 -3 16 -2 19 1 4 3 -2 6 -13 5 -11 0 -14 -3 -6 -6z"/>
<path d="M3488 553 c29 -2 74 -2 100 0 26 2 2 3 -53 3 -55 0 -76 -1 -47 -3z"/>
<path d="M2120 535 c14 -17 58 -31 120 -40 33 -4 41 -3 30 4 -8 6 -31 11 -50
11 -20 0 -53 9 -73 19 -24 12 -34 14 -27 6z"/>
<path d="M3223 530 c-46 -27 -41 -34 5 -8 46 27 48 28 36 28 -5 0 -24 -9 -41
-20z"/>
<path d="M3340 535 c-45 -17 -29 -18 40 0 39 9 46 13 25 13 -16 0 -46 -6 -65
-13z"/>
<path d="M3695 544 c109 -15 223 -37 254 -50 l36 -15 -35 -19 c-19 -11 -31
-19 -27 -20 4 0 22 7 39 16 l32 17 -22 18 c-29 23 -148 50 -237 54 -38 1 -56
1 -40 -1z"/>
<path d="M3968 533 c75 -37 78 -100 6 -140 -21 -13 -33 -23 -26 -23 9 0 11
-10 6 -34 -12 -67 26 -125 146 -220 19 -16 43 -42 52 -60 15 -28 17 -29 18 -8
0 14 -15 36 -42 60 -23 20 -68 63 -101 95 l-59 59 4 56 c3 48 9 62 36 89 18
17 32 41 32 54 0 25 -63 89 -88 89 -9 0 -2 -8 16 -17z"/>
<path d="M3270 513 c-34 -13 -39 -43 -10 -60 23 -15 252 -43 335 -42 l60 2
-80 8 c-44 5 -124 13 -178 19 -54 5 -107 15 -118 20 -25 14 -24 34 4 48 23 11
13 15 -13 5z"/>
<path d="M5278 513 c12 -2 32 -2 45 0 12 2 2 4 -23 4 -25 0 -35 -2 -22 -4z"/>
<path d="M1457 499 c16 -16 128 -29 243 -27 105 1 105 1 -40 9 -80 4 -158 12
-173 18 -35 14 -44 14 -30 0z"/>
<path d="M2668 503 c6 -2 18 -2 25 0 6 3 1 5 -13 5 -14 0 -19 -2 -12 -5z"/>
<path d="M1923 493 c9 -2 25 -2 35 0 9 3 1 5 -18 5 -19 0 -27 -2 -17 -5z"/>
<path d="M2603 493 c9 -2 25 -2 35 0 9 3 1 5 -18 5 -19 0 -27 -2 -17 -5z"/>
<path d="M1848 483 c12 -2 30 -2 40 0 9 3 -1 5 -23 4 -22 0 -30 -2 -17 -4z"/>
<path d="M2166 467 c10 -43 -12 -79 -74 -126 -31 -24 -71 -62 -88 -85 -38 -50
-74 -155 -73 -210 1 -38 2 -37 13 19 23 116 47 166 105 220 129 120 131 122
131 151 0 16 -5 36 -10 44 -8 11 -9 8 -4 -13z"/>
<path d="M2488 483 c18 -2 45 -2 60 0 15 2 0 4 -33 4 -33 0 -45 -2 -27 -4z"/>
<path d="M3182 470 c0 -14 2 -19 5 -12 2 6 2 18 0 25 -3 6 -5 1 -5 -13z"/>
<path d="M2938 433 c23 -2 61 -2 85 0 23 2 4 4 -43 4 -47 0 -66 -2 -42 -4z"/>
<path d="M3228 402 c39 -36 42 -44 42 -90 0 -62 -26 -96 -105 -141 -65 -37
-135 -104 -135 -128 0 -11 8 -4 23 19 25 41 49 61 122 103 91 52 130 119 106
186 -9 28 -9 30 7 24 21 -8 299 -55 326 -55 44 0 4 10 -99 25 -148 21 -264 51
-300 76 -19 14 -15 7 13 -19z"/>
<path d="M3888 433 c7 -3 16 -2 19 1 4 3 -2 6 -13 5 -11 0 -14 -3 -6 -6z"/>
<path d="M3805 420 c-27 -7 -27 -8 -5 -8 14 0 36 4 50 8 20 6 21 8 5 8 -11 0
-33 -4 -50 -8z"/>
<path d="M4933 423 c9 -2 23 -2 30 0 6 3 -1 5 -18 5 -16 0 -22 -2 -12 -5z"/>
<path d="M5028 413 c7 -3 16 -2 19 1 4 3 -2 6 -13 5 -11 0 -14 -3 -6 -6z"/>
<path d="M2293 363 c9 -2 25 -2 35 0 9 3 1 5 -18 5 -19 0 -27 -2 -17 -5z"/>
<path d="M2558 363 c6 -2 18 -2 25 0 6 3 1 5 -13 5 -14 0 -19 -2 -12 -5z"/>
<path d="M4758 363 c18 -2 45 -2 60 0 15 2 0 4 -33 4 -33 0 -45 -2 -27 -4z"/>
<path d="M2393 353 c26 -2 67 -2 90 0 23 2 2 3 -48 3 -49 0 -68 -1 -42 -3z"/>
<path d="M4653 353 c9 -2 25 -2 35 0 9 3 1 5 -18 5 -19 0 -27 -2 -17 -5z"/>
<path d="M4908 353 c12 -2 30 -2 40 0 9 3 -1 5 -23 4 -22 0 -30 -2 -17 -4z"/>
<path d="M2875 344 c6 -5 26 -23 45 -39 l35 -30 -25 28 c-14 16 -34 33 -45 39
-11 6 -15 6 -10 2z"/>
<path d="M4598 343 c7 -3 16 -2 19 1 4 3 -2 6 -13 5 -11 0 -14 -3 -6 -6z"/>
<path d="M4545 324 c-14 -14 -14 -19 -3 -29 7 -7 24 -16 38 -19 16 -4 12 0
-10 10 l-35 16 24 19 c13 10 19 19 13 19 -6 0 -18 -7 -27 -16z"/>
<path d="M5098 333 c7 -3 16 -2 19 1 4 3 -2 6 -13 5 -11 0 -14 -3 -6 -6z"/>
<path d="M3090 320 l-75 -6 70 -1 c39 0 84 3 100 7 26 7 27 8 5 7 -14 0 -59
-3 -100 -7z"/>
<path d="M5138 323 c7 -3 16 -2 19 1 4 3 -2 6 -13 5 -11 0 -14 -3 -6 -6z"/>
<path d="M5240 296 c0 -2 8 -10 18 -17 15 -13 16 -12 3 4 -13 16 -21 21 -21
13z"/>
<path d="M2973 223 c16 -37 22 -68 22 -130 0 -49 3 -76 8 -67 5 9 7 42 5 75
l-3 59 35 6 c62 10 66 13 15 11 l-50 -1 -22 47 c-13 26 -25 47 -27 47 -3 0 5
-21 17 -47z"/>
<path d="M3310 251 c8 -5 33 -12 55 -15 28 -4 33 -3 15 2 -46 16 -86 23 -70
13z"/>
<path d="M4683 253 c9 -2 23 -2 30 0 6 3 -1 5 -18 5 -16 0 -22 -2 -12 -5z"/>
<path d="M4753 243 c9 -2 25 -2 35 0 9 3 1 5 -18 5 -19 0 -27 -2 -17 -5z"/>
<path d="M4838 233 c12 -2 30 -2 40 0 9 3 -1 5 -23 4 -22 0 -30 -2 -17 -4z"/>
<path d="M5193 233 c9 -2 25 -2 35 0 9 3 1 5 -18 5 -19 0 -27 -2 -17 -5z"/>
<path d="M3433 223 c15 -2 39 -2 55 0 15 2 2 4 -28 4 -30 0 -43 -2 -27 -4z"/>
<path d="M3693 223 c15 -2 37 -2 50 0 12 2 0 4 -28 4 -27 0 -38 -2 -22 -4z"/>
<path d="M4953 223 c9 -2 23 -2 30 0 6 3 -1 5 -18 5 -16 0 -22 -2 -12 -5z"/>
<path d="M3553 213 c20 -2 54 -2 75 0 20 2 3 4 -38 4 -41 0 -58 -2 -37 -4z"/>
<path d="M4560 205 c19 -7 42 -13 50 -13 8 0 -1 6 -20 13 -19 7 -42 13 -50 13
-8 0 1 -6 20 -13z"/>
<path d="M4481 178 c0 -14 -4 -35 -7 -45 -5 -17 -5 -17 6 0 6 10 9 30 7 45
l-4 27 -2 -27z"/>
<path d="M4698 173 c6 -2 18 -2 25 0 6 3 1 5 -13 5 -14 0 -19 -2 -12 -5z"/>
<path d="M4748 163 c6 -2 18 -2 25 0 6 3 1 5 -13 5 -14 0 -19 -2 -12 -5z"/>
<path d="M5298 163 c7 -3 16 -2 19 1 4 3 -2 6 -13 5 -11 0 -14 -3 -6 -6z"/>
<path d="M4813 153 c9 -2 23 -2 30 0 6 3 -1 5 -18 5 -16 0 -22 -2 -12 -5z"/>
<path d="M5233 153 c9 -2 25 -2 35 0 9 3 1 5 -18 5 -19 0 -27 -2 -17 -5z"/>
<path d="M4973 143 c37 -2 97 -2 135 0 37 2 6 3 -68 3 -74 0 -105 -1 -67 -3z"/>
<path d="M5332 110 c0 -19 2 -27 5 -17 2 9 2 25 0 35 -3 9 -5 1 -5 -18z"/>
<path d="M4417 65 c-26 -25 -47 -51 -47 -57 0 -6 1 -9 3 -7 1 2 24 28 52 57
61 64 56 68 -8 7z"/>
<path d="M1260 75 c0 -13 32 -66 36 -62 6 6 -23 67 -31 67 -3 0 -5 -2 -5 -5z"/>
</g>
</svg>
