<?xml version="1.0" standalone="no"?>
<!DOCTYPE svg PUBLIC "-//W3C//DTD SVG 20010904//EN"
 "http://www.w3.org/TR/2001/REC-SVG-20010904/DTD/svg10.dtd">
<svg version="1.0" xmlns="http://www.w3.org/2000/svg"
 width="645.000000pt" height="387.000000pt" viewBox="0 0 645.000000 387.000000"
 preserveAspectRatio="xMidYMid meet">

<g transform="translate(0.000000,387.000000) scale(0.100000,-0.100000)"
fill="#fff" stroke="white" stroke-width="4">
<path d="M2727 3526 c-68 -25 -96 -62 -115 -152 -13 -58 0 -130 21 -117 8 5 8
8 -1 11 -7 2 -12 10 -12 18 0 10 5 12 13 8 7 -5 6 0 -3 10 -24 30 2 126 34
126 8 0 38 -18 67 -40 30 -22 64 -40 76 -40 25 0 63 -32 63 -54 0 -7 7 -20 16
-27 13 -11 17 -10 25 4 15 26 39 21 39 -7 0 -32 -20 -45 -21 -14 0 22 -1 22
-8 3 -5 -11 -4 -23 2 -26 13 -9 -2 -32 -17 -26 -15 6 -5 -88 13 -121 10 -19 7
-23 -21 -38 -18 -9 -63 -19 -100 -22 -56 -4 -68 -2 -68 11 0 9 13 17 35 21 19
4 37 11 40 16 4 6 -4 6 -20 0 -46 -18 -82 -12 -104 16 -27 34 -26 44 2 44 18
0 19 -2 7 -10 -13 -9 -13 -10 0 -10 8 0 20 8 26 18 10 15 7 17 -30 17 -40 0
-41 1 -58 50 -12 35 -17 42 -17 25 -1 -35 43 -125 74 -155 41 -37 27 -58 -60
-90 -123 -45 -130 -56 -166 -275 -11 -69 -29 -161 -41 -205 -26 -104 -21 -233
16 -354 14 -47 26 -104 26 -127 0 -24 5 -46 11 -50 7 -4 10 -24 6 -53 -2 -25
-2 -85 2 -133 4 -57 3 -88 -4 -88 -5 0 -46 11 -90 25 -49 15 -83 21 -89 15
-11 -11 10 -20 119 -51 66 -19 75 -25 75 -46 0 -12 4 -23 9 -23 5 0 7 9 4 20
-7 25 -10 25 87 -6 46 -14 78 -29 74 -35 -9 -15 16 -39 42 -39 22 0 74 -42 74
-60 0 -24 52 -34 189 -36 234 -4 199 19 352 -226 106 -169 138 -213 163 -223
17 -7 121 -50 231 -96 l200 -83 250 28 c328 36 315 33 315 61 0 26 -14 32
-220 102 -99 34 -140 53 -112 53 6 0 53 -14 104 -32 77 -26 107 -32 173 -30
72 1 89 -2 171 -38 50 -21 131 -50 180 -65 49 -15 117 -35 150 -46 59 -18 317
-49 416 -49 33 0 146 -34 399 -120 193 -67 355 -119 360 -118 4 2 -142 54
-324 117 -183 62 -342 117 -354 122 l-22 8 28 30 c44 47 96 156 137 286 38
119 38 121 39 295 0 194 -7 231 -58 306 -61 89 -199 139 -278 99 -48 -24 -78
-54 -96 -95 -21 -47 -27 -201 -15 -385 5 -82 6 -160 1 -171 -9 -26 -39 -31
-161 -26 l-87 4 -7 36 c-10 51 8 127 52 225 46 100 56 197 30 273 -9 26 -16
54 -16 61 0 20 34 16 63 -7 l26 -21 35 68 c37 75 105 156 179 214 l48 38 72
-51 c116 -82 196 -152 237 -207 87 -115 139 -327 210 -843 11 -80 20 -161 20
-180 0 -18 5 -40 11 -48 11 -17 10 0 -15 185 -9 61 -20 151 -26 200 -16 134
-77 432 -104 513 -56 164 -121 243 -301 368 -46 33 -84 64 -85 69 0 6 -9 21
-19 34 -22 29 -16 66 25 155 21 45 25 67 20 99 -21 151 -34 182 -105 265 -53
62 -137 113 -183 113 -100 0 -169 -9 -218 -28 -30 -12 -81 -29 -113 -38 -100
-27 -149 -100 -102 -152 46 -50 45 -49 29 -95 -10 -30 -13 -59 -8 -96 5 -44 3
-60 -17 -98 l-24 -46 23 -15 c14 -10 22 -26 22 -44 0 -15 6 -32 13 -36 6 -4
13 -17 14 -28 8 -63 17 -96 29 -106 8 -6 46 -11 93 -10 77 1 80 0 105 -30 31
-37 31 -40 6 -81 -11 -18 -20 -42 -19 -53 l0 -20 8 20 c8 19 8 19 16 -5 4 -14
17 -35 29 -48 18 -21 21 -36 21 -115 0 -83 -3 -98 -32 -153 -47 -90 -66 -167
-60 -236 3 -32 2 -58 -1 -58 -4 -1 -26 -5 -50 -9 -26 -5 -76 -3 -135 5 -171
25 -154 16 -159 84 -3 44 -12 72 -36 110 -18 28 -30 56 -26 61 3 5 22 18 42
28 60 31 165 120 194 165 54 82 121 176 125 173 2 -2 -4 -39 -13 -83 -14 -64
-16 -115 -11 -271 6 -212 9 -202 -61 -238 -19 -9 -32 -19 -29 -21 7 -7 61 21
81 42 13 12 17 13 20 2 12 -38 16 -39 11 -3 -3 22 -8 119 -11 215 -7 204 9
328 54 422 32 64 23 69 -10 5 -11 -23 -26 -46 -33 -52 -19 -17 -90 -117 -120
-169 -18 -30 -56 -70 -104 -108 -72 -57 -151 -105 -151 -93 0 4 29 48 65 100
36 51 79 129 97 173 22 56 37 82 51 86 17 4 19 11 15 50 -6 52 -41 104 -97
144 -33 24 -36 29 -38 81 -1 31 -2 65 -3 76 -1 11 2 40 5 65 5 33 1 61 -14
104 -12 33 -21 74 -21 93 0 40 -20 93 -43 112 -10 7 -17 24 -17 36 0 76 -70
172 -147 201 -131 50 -348 -37 -386 -154 -25 -76 -31 -128 -16 -137 9 -6 8
-10 -7 -16 -17 -7 -17 -8 -1 -8 10 -1 17 -9 17 -20 0 -29 -18 -35 -23 -9 -2
13 -5 6 -6 -17 0 -23 -7 -47 -13 -54 -11 -10 -9 -15 8 -29 16 -12 23 -33 28
-77 7 -64 16 -75 59 -75 33 0 33 -3 3 -43 -23 -30 -86 -150 -86 -162 0 -3 14
-11 31 -17 l32 -11 -38 -35 -38 -36 6 -95 c5 -107 34 -206 93 -322 54 -108 51
-76 -5 42 -56 120 -70 170 -78 286 l-6 84 46 47 46 47 -30 1 c-16 1 -32 4 -35
7 -18 18 86 199 117 205 24 4 32 -53 15 -109 -38 -125 -47 -489 -16 -627 17
-76 23 -58 8 26 l-12 70 56 64 c31 36 93 93 137 128 67 52 80 67 75 84 -3 12
-10 25 -15 30 -18 19 -8 26 36 26 38 0 46 4 58 28 17 32 47 149 47 180 0 12 2
22 4 22 2 0 26 -15 53 -32 27 -18 70 -46 96 -63 42 -26 107 -103 107 -126 0
-4 -18 -5 -40 -2 -54 7 -165 -29 -233 -76 -60 -42 -90 -92 -138 -226 -17 -49
-41 -107 -51 -128 -11 -22 -17 -41 -14 -44 7 -7 30 43 64 139 38 108 87 206
116 230 39 34 161 87 211 94 53 6 95 -12 81 -34 -11 -18 -26 -14 -19 5 4 10 2
14 -4 10 -6 -4 -14 -24 -18 -44 -11 -60 -59 -156 -125 -252 -60 -86 -64 -89
-123 -109 -34 -11 -78 -27 -97 -35 -54 -23 -247 -41 -294 -28 -32 8 -50 7
-102 -10 -35 -11 -66 -25 -70 -30 -3 -5 -11 -9 -18 -9 -9 0 -16 22 -20 67 -9
86 -38 232 -71 353 -34 125 -36 224 -6 273 33 54 120 112 196 132 17 4 25 9
19 12 -25 9 -126 -41 -178 -88 -47 -43 -58 -61 -80 -127 -38 -112 -96 -209
-161 -271 l-57 -54 -162 6 c-89 4 -177 10 -195 13 -29 6 -32 10 -27 33 23 109
29 248 18 387 l-11 148 39 34 c93 79 115 168 107 426 -8 260 -32 309 -177 365
-56 22 -80 38 -102 67 -35 46 -36 64 -3 64 19 0 65 14 83 26 2 1 -1 12 -7 23
-10 17 -8 23 9 33 31 19 25 55 -12 78 -26 15 -35 17 -47 7 -14 -10 -14 -10 -4
3 18 23 7 96 -21 144 -42 72 -143 109 -219 82z m118 -13 c32 -9 84 -52 101
-84 17 -34 16 -125 -2 -122 -7 1 -20 -7 -30 -18 -17 -19 -18 -19 -38 18 -15
27 -33 42 -59 50 -20 7 -60 28 -88 48 -28 19 -57 35 -65 35 -21 0 -17 14 15
44 43 41 89 49 166 29z m177 -240 c24 -21 23 -40 -3 -53 -16 -9 -19 -18 -15
-36 5 -20 2 -26 -19 -34 -15 -6 -37 -10 -51 -10 -33 0 -32 39 1 70 14 13 25
31 25 40 0 18 19 40 34 40 5 0 18 -7 28 -17z m-64 -247 c3 -11 -10 -23 -43
-37 -89 -39 -212 -34 -203 9 2 9 11 15 19 13 32 -10 108 -1 155 17 56 23 68
22 72 -2z m132 -59 c81 -40 105 -82 121 -213 13 -104 7 -338 -11 -407 -16 -62
-76 -129 -188 -209 -48 -34 -110 -81 -139 -105 l-51 -43 -31 35 c-17 19 -38
49 -46 65 -17 33 -22 27 77 84 65 36 171 127 214 184 l36 47 -7 75 c-4 41 -10
122 -14 180 -4 58 -9 87 -11 65 -4 -54 -2 -92 12 -206 10 -92 10 -99 -10 -130
-11 -19 -46 -58 -76 -88 l-55 -54 -158 16 c-173 17 -219 29 -228 58 -4 10 3
57 15 104 19 75 20 95 11 175 -6 50 -8 96 -6 103 2 7 6 28 9 47 5 27 4 32 -6
22 -12 -12 -14 -67 -8 -212 2 -59 -2 -102 -14 -139 -20 -67 -20 -105 -2 -124
8 -7 21 -49 30 -93 8 -43 18 -89 22 -101 5 -17 1 -22 -25 -28 -16 -3 -42 -15
-56 -26 l-25 -20 0 20 c0 11 -11 55 -25 98 -35 105 -44 238 -21 315 9 31 27
123 41 205 41 244 43 248 153 293 65 26 75 28 89 15 35 -36 143 -32 220 9 56
29 74 27 163 -17z m1240 -248 c60 -27 79 -45 106 -104 41 -87 30 -173 -36
-275 -46 -71 -93 -95 -70 -35 6 15 8 36 5 46 -8 25 -47 24 -70 -1 -29 -32 -58
-25 -91 23 -23 31 -28 47 -21 58 12 19 -35 99 -58 99 -7 0 -21 10 -30 23 -10
12 -15 15 -13 7 2 -8 19 -24 36 -35 17 -11 31 -24 32 -29 0 -5 7 -18 16 -28
13 -14 14 -21 5 -32 -14 -17 -11 -24 32 -78 33 -43 62 -48 97 -18 13 11 29 20
35 20 16 0 26 -25 19 -44 -8 -22 -73 -68 -84 -61 -6 3 -10 1 -10 -4 0 -16 21
-13 40 4 8 8 25 12 37 9 16 -5 22 -16 26 -56 8 -64 -10 -101 -172 -347 -109
-166 -129 -201 -117 -201 2 0 23 33 47 73 23 39 75 119 115 177 40 58 90 138
111 178 l40 72 33 -41 c31 -39 32 -44 26 -100 -3 -33 -16 -85 -28 -117 -23
-56 -24 -57 -66 -60 -33 -2 -47 1 -58 15 -21 29 -16 7 12 -48 14 -28 24 -52
22 -53 -63 -45 -138 -109 -191 -164 -60 -63 -68 -68 -72 -49 -9 36 2 347 15
412 11 59 30 97 30 62 0 -9 4 -17 9 -17 6 0 7 11 1 28 -4 15 -11 47 -13 71 -5
37 -2 44 14 48 10 3 19 9 19 14 0 5 -12 4 -26 -1 -37 -15 -134 -13 -138 3 -19
59 -17 67 14 67 16 0 30 4 30 8 0 4 -12 8 -27 7 -35 0 -41 22 -9 35 27 10 33
24 16 35 -6 4 -9 1 -8 -7 4 -15 -31 -22 -51 -9 -11 7 -9 19 14 65 27 55 27 57
9 77 -18 20 -18 22 0 92 25 97 63 138 175 183 72 30 159 31 221 3z m832 -42
c65 -37 141 -122 162 -181 8 -23 20 -73 27 -113 12 -71 11 -74 -16 -135 -16
-35 -31 -76 -35 -92 -6 -31 -17 -37 -111 -56 -51 -10 -89 -4 -89 14 0 7 -16
29 -35 50 -19 21 -35 43 -35 48 0 16 -38 84 -54 97 -17 14 -66 7 -66 -10 0 -6
6 -6 19 1 26 13 46 5 60 -26 16 -37 14 -69 -10 -109 -16 -27 -27 -35 -41 -32
-16 5 -17 3 -7 -9 18 -22 25 -18 53 31 26 44 27 45 51 29 14 -9 25 -23 25 -30
0 -8 7 -17 15 -20 8 -4 15 -12 15 -20 0 -23 38 -36 88 -28 l47 6 -66 -63 c-36
-35 -91 -93 -123 -128 -32 -35 -61 -60 -64 -54 -36 52 -53 84 -48 91 3 5 -30
7 -74 4 -110 -6 -130 0 -130 41 0 18 -5 38 -12 45 -9 9 -9 15 0 24 17 17 15
25 -9 31 -21 6 -22 16 -4 59 5 13 2 15 -12 12 -11 -3 -25 2 -33 11 -11 14 -9
22 17 58 24 34 27 46 19 60 -8 13 -8 20 2 26 11 7 11 9 -2 14 -19 8 -20 29 -4
74 13 37 28 44 28 13 0 -10 14 -35 30 -53 17 -19 30 -42 30 -51 0 -9 4 -24 9
-34 16 -31 31 -88 31 -115 0 -24 2 -25 30 -16 28 10 29 13 23 55 -5 38 -2 49
18 71 l24 27 -25 -16 c-21 -13 -25 -23 -25 -64 0 -45 -8 -63 -27 -64 -5 0 -8
10 -8 22 0 23 -16 81 -31 110 -5 10 -9 23 -9 29 0 6 -11 24 -25 41 -13 16 -29
47 -35 68 -6 22 -20 44 -30 50 -11 6 -20 17 -20 24 0 8 -7 16 -15 20 -9 3 -15
18 -14 38 0 46 41 76 147 105 47 14 96 30 109 36 12 7 64 13 115 14 88 2 96 1
150 -30z m-663 -206 c6 -10 13 -38 16 -62 3 -24 15 -77 27 -117 19 -64 20 -78
9 -122 -9 -35 -10 -54 -2 -69 13 -23 14 -71 3 -88 -6 -9 -22 -3 -59 22 -81 54
-92 76 -95 186 -2 88 -1 97 24 133 15 22 33 61 39 88 14 52 23 59 38 29z
m-1697 -226 c48 -4 85 -11 82 -16 -3 -5 -41 -30 -85 -55 -62 -36 -79 -50 -73
-63 16 -39 13 -47 -24 -73 -31 -22 -45 -26 -68 -19 -19 5 -28 13 -26 24 1 9
-4 29 -12 45 -15 28 -47 178 -40 185 2 2 39 -2 81 -9 43 -6 117 -15 165 -19z
m1583 -8 c4 -24 5 -55 3 -68 -3 -22 -4 -22 -25 14 -33 55 -30 92 9 96 4 1 10
-19 13 -42z m-1304 -322 c1 -117 -4 -201 -13 -240 -13 -58 -14 -60 -43 -56
-16 1 -57 13 -90 26 -33 12 -77 25 -98 29 -39 7 -185 -10 -200 -24 -15 -14
-130 25 -138 46 -4 10 -8 72 -8 137 -1 96 2 117 13 117 23 0 46 -40 40 -69
-10 -46 11 -79 57 -91 37 -10 43 -9 61 9 10 12 27 21 38 21 29 0 73 58 65 88
-7 27 27 72 54 72 8 0 31 15 51 34 19 19 71 60 115 91 l80 57 8 -34 c4 -18 8
-114 8 -213z m2239 155 c0 -3 -31 -32 -70 -63 -69 -57 -142 -148 -176 -219
-15 -33 -20 -36 -38 -26 -11 6 -30 14 -43 17 -23 6 -23 6 -6 39 26 48 195 225
249 261 45 29 49 30 66 14 10 -9 18 -19 18 -23z m-2725 -10 c3 -5 -1 -10 -11
-10 -27 0 2 -27 44 -41 34 -10 132 -93 132 -111 0 -17 -24 -6 -56 26 -33 33
-43 32 -24 -3 5 -10 24 -24 42 -32 l33 -14 -34 -5 c-38 -6 -52 -25 -24 -34 10
-3 1 -3 -20 0 -26 4 -37 2 -32 -5 8 -14 2 -14 -29 1 -14 6 -28 20 -32 30 -3
11 -26 49 -51 86 -49 71 -49 85 -2 109 29 15 56 16 64 3z m181 -35 l27 -35
-28 -26 -27 -25 -32 28 c-17 15 -33 30 -36 31 -4 3 59 62 67 62 1 0 14 -16 29
-35z m-278 -46 c12 -18 11 -20 -5 -17 -10 2 -19 11 -21 21 -5 23 10 21 26 -4z
m72 -108 c0 -6 -4 -13 -10 -16 -5 -3 -10 1 -10 9 0 9 5 16 10 16 6 0 10 -4 10
-9z m1144 -159 l26 -102 -49 -73 c-61 -91 -67 -96 -138 -109 -56 -10 -63 -9
-216 41 -152 49 -187 58 -187 46 0 -4 7 -20 16 -36 15 -30 15 -31 -8 -23 -13
4 -85 8 -160 8 -132 1 -171 7 -129 21 12 3 21 11 21 17 0 18 -32 48 -51 48
-10 0 -21 5 -24 10 -3 6 -1 10 5 10 6 0 8 5 5 10 -12 20 39 9 71 -15 18 -14
38 -25 45 -25 7 0 -8 13 -32 30 -35 23 -55 30 -96 30 -52 0 -77 13 -47 24 9 3
31 6 50 6 20 0 44 5 54 10 14 8 29 6 55 -4 66 -28 199 -47 371 -53 l171 -6 64
64 c45 45 76 89 104 146 37 75 41 79 47 55 3 -15 18 -73 32 -130z m-1094 96
c0 -5 -7 -8 -15 -8 -8 0 -15 4 -15 10 0 5 -7 7 -15 4 -16 -7 -18 -3 -9 20 5
14 9 14 30 -2 13 -9 24 -20 24 -24z m2353 25 c2 -5 -2 -26 -8 -48 -11 -37 -13
-38 -19 -17 -13 39 11 95 27 65z m451 -13 c72 -27 129 -89 153 -167 14 -46 18
-92 18 -218 0 -151 -2 -166 -33 -275 -37 -131 -88 -241 -137 -297 l-33 -38
-115 3 c-161 3 -159 2 -185 109 -12 49 -22 114 -22 145 0 59 8 68 68 68 37 0
41 32 30 261 -15 293 1 362 93 407 55 27 93 28 163 2z m-2584 -160 c30 -9 16
-16 -50 -25 -124 -17 -152 -17 -148 -3 3 7 33 18 74 24 83 14 92 14 124 4z
m-130 -69 c0 -5 -6 -14 -14 -20 -11 -9 -16 -9 -21 0 -4 6 -1 15 6 20 18 11 29
11 29 0z m60 -22 c0 -5 -14 -9 -31 -9 -26 0 -29 3 -20 14 12 14 51 10 51 -5z
m989 -40 c20 -93 34 -233 28 -269 -7 -33 -10 -36 -41 -36 -31 0 -36 5 -72 73
-37 70 -41 74 -94 92 -54 18 -54 19 -25 26 70 16 88 29 132 97 25 37 49 68 54
68 4 0 12 -23 18 -51z m-940 15 c41 -9 40 -24 -3 -24 -40 0 -66 8 -66 21 0 11
25 12 69 3z m45 -47 c-11 -6 -22 -15 -26 -21 -5 -8 -13 -8 -23 -1 -26 16 -19
29 17 36 41 6 57 0 32 -14z m583 -77 c97 -33 177 -61 179 -62 2 -2 62 -112
134 -243 73 -132 136 -246 142 -253 6 -7 9 -14 7 -16 -5 -5 -430 172 -447 186
-16 14 -292 456 -292 468 0 11 47 -3 277 -80z m1049 -72 c30 -49 39 -75 42
-122 4 -53 3 -58 -13 -53 -9 4 -31 7 -50 7 -32 0 -33 1 -39 52 -9 67 -30 112
-62 128 -24 13 -24 14 23 31 27 9 51 18 55 18 4 1 24 -27 44 -61z m-136 7 c38
-20 57 -57 61 -120 l4 -50 -50 1 c-42 0 -254 11 -263 13 -1 1 2 11 8 24 11 21
10 21 -4 3 -13 -16 -27 -19 -70 -17 -48 2 -55 0 -73 -25 -12 -16 -25 -24 -31
-20 -21 13 -13 34 22 54 35 21 66 62 46 62 -5 0 -10 -6 -10 -14 0 -8 -18 -25
-40 -37 -42 -24 -55 -61 -25 -73 19 -7 11 -51 -13 -79 -15 -16 -14 -18 6 -24
12 -3 22 -9 22 -13 0 -12 49 -30 65 -24 8 4 15 1 15 -5 0 -19 26 -12 50 14 13
14 31 25 41 25 17 0 288 -93 316 -109 19 -10 9 -12 -291 -46 -169 -20 -231
-24 -240 -15 -26 26 -183 325 -173 332 21 13 52 -10 62 -45 6 -20 18 -45 28
-54 18 -17 19 -17 38 5 10 13 24 42 31 64 7 24 21 45 37 53 14 8 20 14 12 15
-15 0 -51 -28 -51 -41 0 -4 -9 -29 -20 -55 -27 -62 -41 -46 -28 31 20 111 79
163 161 142 47 -12 243 7 291 28 17 7 32 14 34 14 2 1 16 -6 32 -14z m-518
-95 c-41 -38 -42 -38 -42 -15 0 18 10 30 38 44 20 10 39 17 42 14 2 -2 -15
-22 -38 -43z m-8 -62 c-9 -60 -23 -83 -24 -38 0 44 10 80 21 80 5 0 6 -19 3
-42z m189 -13 c-23 -16 -43 -70 -43 -117 0 -33 -16 -37 -25 -7 -17 52 26 139
68 139 l21 0 -21 -15z m312 -9 c77 -4 216 -18 309 -32 93 -13 177 -22 187 -19
14 5 19 -1 24 -32 4 -21 17 -74 30 -118 12 -44 21 -83 19 -87 -8 -12 -130 23
-266 78 -153 60 -192 71 -202 55 -12 -18 -49 -13 -166 24 -61 19 -118 35 -126
35 -8 0 -31 -16 -53 -35 -42 -39 -51 -42 -51 -20 0 24 58 82 100 99 22 9 40
18 40 21 0 2 -12 0 -27 -6 -15 -6 -42 -8 -59 -4 -46 8 -65 -13 -76 -89 -2 -11
-9 -21 -15 -24 -33 -10 -4 135 30 154 17 10 96 10 302 0z m727 -121 c4 -49 14
-110 22 -134 21 -57 20 -81 -1 -81 -39 0 -143 23 -151 33 -13 16 -60 184 -64
227 -3 31 0 35 27 41 17 4 59 6 95 6 l65 -2 7 -90z m-972 68 c-1 -5 -14 -24
-30 -43 -22 -25 -30 -30 -30 -17 0 24 29 67 46 67 8 0 14 -3 14 -7z m380 -213
c0 -11 -20 -15 -250 -40 -307 -34 -300 -34 -300 -22 0 6 24 13 53 17 502 60
497 60 497 45z"/>
<path d="M4102 2624 c-44 -28 -78 -43 -89 -40 -10 3 -25 1 -33 -4 -11 -7 -6
-10 21 -10 25 0 55 12 100 41 35 23 68 45 74 50 20 20 -5 7 -73 -37z"/>
<path d="M4005 2391 c17 -10 32 -17 34 -15 7 7 -33 33 -49 34 -8 0 -1 -8 15
-19z"/>
<path d="M3987 2364 c3 -7 9 -14 14 -14 14 0 10 17 -5 23 -10 4 -13 1 -9 -9z"/>
<path d="M4950 2235 c10 -12 9 -20 -4 -40 -9 -14 -12 -25 -6 -25 15 0 34 46
27 64 -4 9 -12 16 -18 16 -8 0 -8 -4 1 -15z"/>
<path d="M3846 1081 c5 -5 20 -12 34 -15 l25 -7 -25 15 c-28 17 -50 21 -34 7z"/>
<path d="M4085 1002 c6 -5 32 -18 59 -28 49 -18 49 -18 20 -25 -16 -4 -82 -13
-147 -19 -65 -7 -116 -15 -113 -17 2 -3 77 3 165 13 89 10 158 21 154 25 -5 5
-40 20 -78 34 -39 15 -65 22 -60 17z"/>
<path d="M2971 3475 c7 -7 49 -13 91 -14 l38 -1 3 -217 2 -218 3 221 2 222
-31 6 c-37 7 -114 8 -108 1z"/>
<path d="M1640 3233 c0 -131 -2 -346 -4 -478 -3 -166 -2 -211 4 -145 4 52 8
265 9 472 l1 378 478 3 477 2 -482 3 -483 2 0 -237z"/>
<path d="M2723 3303 c9 -2 23 -2 30 0 6 3 -1 5 -18 5 -16 0 -22 -2 -12 -5z"/>
<path d="M2720 3270 c0 -5 5 -10 11 -10 5 0 7 5 4 10 -3 6 -8 10 -11 10 -2 0
-4 -4 -4 -10z"/>
<path d="M2646 3224 c-12 -32 -7 -45 19 -41 14 2 25 6 25 10 0 4 0 10 0 13 0
4 -7 1 -15 -6 -15 -13 -19 -8 -16 23 3 21 -5 22 -13 1z"/>
<path d="M1810 3015 l0 -165 38 0 c20 0 170 -3 332 -7 269 -6 294 -5 282 10
-10 12 -12 43 -6 136 l7 120 81 4 81 3 -82 2 c-81 2 -83 3 -83 27 0 23 3 24
68 28 37 2 -110 4 -325 5 l-393 2 0 -165z m210 130 l0 -25 -100 0 -100 0 0 25
0 25 100 0 100 0 0 -25z m210 0 c0 -25 0 -25 -95 -25 -95 0 -95 0 -95 25 0 25
0 25 95 25 95 0 95 0 95 -25z m215 0 c0 -19 -8 -20 -102 -23 l-103 -3 0 26 0
26 103 -3 c94 -3 102 -4 102 -23z m-425 -160 l0 -125 -100 0 -100 0 0 118 c0
65 3 122 7 125 3 4 48 7 100 7 l93 0 0 -125z m210 0 l0 -125 -95 0 -95 0 0
125 0 125 95 0 95 0 0 -125z m213 118 c2 -5 2 -63 -1 -131 l-5 -124 -96 4 -96
3 -3 128 -3 127 100 0 c55 0 102 -3 104 -7z"/>
<path d="M922 2978 c-60 -24 -109 -78 -123 -136 -26 -111 13 -282 82 -357 18
-20 17 -21 -62 -80 -109 -80 -172 -151 -190 -212 -25 -89 -8 -252 51 -482 17
-63 30 -115 30 -117 0 -2 -107 -5 -237 -7 -131 -1 37 -3 372 -4 336 0 653 3
705 7 74 7 52 8 -102 5 -109 -1 -198 -1 -198 2 0 2 18 22 40 45 l40 42 6 -32
c4 -18 10 -32 15 -32 7 0 -5 58 -16 68 -2 3 11 24 30 48 20 24 51 66 69 94 19
28 36 47 39 42 4 -4 11 -60 18 -123 6 -63 16 -121 21 -129 7 -11 8 -8 4 10 -3
14 -10 75 -16 135 -6 61 -15 114 -19 118 -10 10 15 83 36 109 8 9 30 40 48 70
l34 53 -27 21 -26 21 33 52 c31 47 33 57 29 113 -4 52 -1 64 17 84 12 13 27
24 32 24 5 0 18 7 29 15 21 16 16 16 -153 16 -84 0 -133 -17 -133 -47 0 -18
-10 -17 -34 1 -10 8 -43 19 -72 26 -52 12 -52 12 -37 35 8 13 35 33 59 43 53
24 54 28 29 100 -15 40 -14 45 1 63 17 18 16 20 -24 61 -23 23 -44 56 -48 72
-7 37 -19 53 -66 89 -21 15 -40 36 -43 46 -7 22 -95 51 -152 49 -21 -1 -62
-10 -91 -21z m177 -4 l53 -15 -45 -30 c-54 -36 -63 -54 -41 -86 9 -15 13 -35
10 -48 -3 -13 -1 -35 6 -49 16 -37 -16 -96 -52 -96 -33 0 -50 -17 -50 -51 0
-32 14 -44 61 -53 26 -5 40 -2 49 9 7 9 8 15 2 15 -6 0 -12 -5 -14 -10 -2 -7
-17 -8 -43 -2 -31 6 -41 13 -43 30 -4 30 14 52 43 52 16 0 31 12 46 36 19 31
21 41 11 68 -6 17 -9 41 -6 53 4 13 0 33 -9 47 -14 21 -14 26 -1 45 8 11 27
27 42 35 25 13 30 11 79 -26 43 -31 55 -47 64 -82 7 -28 24 -57 50 -82 37 -37
38 -38 18 -52 -16 -11 -23 -11 -34 -2 -12 10 -15 10 -15 0 0 -6 9 -14 19 -17
30 -8 35 -34 9 -41 l-23 -6 24 -6 c13 -3 29 -13 35 -23 16 -25 -3 -49 -55 -68
-24 -9 -44 -21 -44 -25 -3 -36 -55 -144 -71 -144 -16 0 -98 54 -143 96 -23 20
-39 30 -35 21 8 -22 99 -90 160 -121 l50 -25 -10 -45 -10 -45 -26 16 c-52 31
-155 119 -187 161 -38 50 -42 72 -13 72 11 0 23 7 26 15 3 8 14 17 25 20 10 4
19 11 19 16 0 11 -40 -8 -55 -27 -13 -16 -65 -21 -86 -9 -31 18 -88 178 -89
247 0 124 39 190 136 228 60 24 95 24 163 4z m-81 -629 c157 -141 238 -259
226 -326 -6 -33 -68 -109 -89 -109 -5 0 -34 47 -63 103 -29 57 -73 129 -97
160 -79 100 -181 140 -268 104 -34 -15 -68 -47 -48 -47 6 0 11 4 11 8 0 15 70
42 107 42 54 0 116 -34 170 -94 61 -67 176 -276 166 -302 -19 -51 184 152 260
259 33 46 45 56 61 51 25 -7 126 -72 126 -80 0 -16 -66 -114 -77 -114 -7 0
-34 14 -60 30 -26 17 -54 30 -62 30 -9 0 11 -15 44 -34 33 -18 61 -40 63 -50
6 -27 -52 -129 -131 -233 -42 -55 -86 -108 -98 -119 -31 -28 -93 -23 -170 13
-113 53 -398 284 -414 335 -4 11 -9 17 -12 14 -10 -10 48 -85 101 -129 111
-94 273 -211 323 -233 29 -13 53 -26 53 -29 0 -3 -94 -5 -208 -5 l-209 0 -26
98 c-39 144 -67 315 -67 404 0 131 31 180 189 299 l106 79 19 -37 c10 -20 44
-60 74 -88z m504 103 c-21 -21 -13 -29 12 -13 31 21 80 16 84 -7 2 -11 -3 -18
-13 -18 -13 0 -15 -11 -9 -78 6 -74 5 -79 -20 -109 -14 -17 -26 -36 -26 -42 0
-16 -16 -14 -59 9 -38 19 -39 20 -34 64 4 34 1 51 -14 73 -11 15 -23 41 -27
56 -8 34 4 60 15 31 7 -17 8 -17 8 4 1 24 32 44 39 24 2 -8 8 -7 19 3 8 8 20
15 26 15 8 0 7 -4 -1 -12z m-216 -21 c1 -1 12 -18 24 -37 20 -32 21 -28 3 17
-6 15 -2 15 28 -3 19 -11 34 -24 34 -29 0 -4 -22 -16 -49 -25 -28 -9 -52 -22
-54 -28 -5 -16 1 -15 66 5 l54 17 19 -23 c28 -35 24 -82 -11 -126 -16 -21 -31
-36 -31 -34 -1 2 -7 36 -15 74 l-13 70 6 -69 c3 -38 7 -75 10 -82 5 -13 -93
-134 -114 -141 -7 -3 -4 18 9 59 17 55 18 73 9 149 -5 47 -19 109 -30 138 -25
66 -19 85 22 77 17 -3 31 -7 33 -9z m-56 -100 c0 -15 -3 -16 -20 -7 -19 10
-27 49 -13 64 9 8 32 -32 33 -57z m4 -50 c16 -22 18 -32 10 -45 -28 -44 -69
-10 -58 48 8 36 20 35 48 -3z m-46 -88 c4 -20 2 -21 -13 -9 -9 7 -20 21 -26
31 -8 16 -7 17 13 10 13 -5 25 -18 26 -32z m67 -66 c-3 -24 -10 -45 -16 -48
-11 -7 -29 36 -36 87 -5 32 -3 37 18 40 31 4 42 -23 34 -79z"/>
<path d="M1219 2780 c-31 -26 -15 -26 18 0 14 11 21 20 15 20 -5 0 -20 -9 -33
-20z"/>
<path d="M1236 2754 c-8 -20 -4 -25 11 -16 7 4 9 13 4 21 -6 10 -10 9 -15 -5z"/>
<path d="M1021 2598 c-1 -22 9 -27 34 -17 19 7 19 8 -2 8 -12 1 -24 7 -26 14
-3 7 -6 6 -6 -5z"/>
<path d="M1560 1904 c0 -10 160 -404 194 -480 l33 -70 242 -69 242 -69 267 37
c146 21 269 40 274 43 14 9 9 33 -10 43 -11 6 -121 37 -246 71 -191 50 -238
60 -297 58 l-71 -3 -74 179 c-41 99 -75 181 -77 182 -1 1 -99 18 -217 38 -118
20 -225 39 -237 41 -13 3 -23 3 -23 -1z m257 -50 c202 -35 212 -38 223 -63 30
-64 229 -556 226 -559 -4 -3 -404 110 -450 128 -30 11 -28 8 -146 295 -93 227
-96 235 -78 235 7 0 108 -16 225 -36z m698 -444 c105 -28 207 -55 229 -61 21
-6 36 -12 34 -14 -6 -7 -360 -57 -365 -52 -2 3 22 9 54 13 32 3 67 10 78 14
20 7 20 7 0 13 -162 48 -308 87 -312 83 -4 -4 18 -11 182 -57 44 -12 83 -25
88 -29 4 -4 -30 -12 -75 -19 -46 -7 -94 -15 -108 -18 -23 -6 -23 -7 -5 -14 15
-6 12 -8 -14 -6 -32 2 -34 5 -67 86 -19 47 -34 88 -34 92 0 7 19 10 105 17 11
1 106 -21 210 -48z m290 -99 c-12 -11 -500 -85 -518 -78 -22 8 12 16 238 51
233 36 295 42 280 27z m-412 -38 c-7 -2 -21 -2 -30 0 -10 3 -4 5 12 5 17 0 24
-2 18 -5z"/>
<path d="M2203 1793 c43 -2 110 -2 150 0 40 1 5 3 -78 3 -82 0 -115 -2 -72 -3z"/>
<path d="M1415 1720 c6 -49 25 -114 31 -107 2 2 -5 37 -16 78 -15 56 -19 63
-15 29z"/>
<path d="M2258 1593 c61 -2 163 -2 225 0 61 1 11 3 -113 3 -124 0 -174 -2
-112 -3z"/>
</g>
</svg>
