<?xml version="1.0" standalone="no"?>
<!DOCTYPE svg PUBLIC "-//W3C//DTD SVG 20010904//EN"
 "http://www.w3.org/TR/2001/REC-SVG-20010904/DTD/svg10.dtd">
<svg version="1.0" xmlns="http://www.w3.org/2000/svg"
 width="200.000000pt" height="200.000000pt" viewBox="0 0 500.000000 500.000000"
 preserveAspectRatio="xMidYMid meet">

<g transform="translate(0.000000,500.000000) scale(0.100000,-0.100000)"
fill="#fff" stroke="none">
<path d="M1431 4489 c-55 -11 -88 -32 -109 -71 -10 -16 -47 -49 -84 -73 -37
-24 -75 -56 -85 -71 -23 -36 -23 -95 1 -165 l19 -57 -40 -83 c-23 -46 -46
-102 -52 -124 -37 -135 19 -226 152 -250 29 -6 37 -4 37 8 0 10 -15 16 -50 21
-95 13 -146 93 -121 193 72 287 380 532 731 584 177 25 307 -19 361 -123 47
-91 11 -175 -108 -259 -42 -29 -55 -49 -31 -49 22 0 122 86 150 129 23 37 28
56 28 107 0 84 -41 146 -125 189 -56 29 -64 30 -194 31 -89 0 -144 5 -159 13
-37 20 -110 39 -195 50 -43 6 -79 11 -80 10 -1 -1 -22 -5 -46 -10z m218 -40
c42 -12 80 -25 84 -29 5 -4 -34 -22 -85 -39 -155 -52 -334 -167 -422 -274
l-33 -40 -17 48 c-9 27 -16 68 -16 91 0 36 6 49 37 79 20 19 42 35 50 35 15 0
113 94 113 108 0 5 15 17 33 26 47 23 164 21 256 -5z"/>
<path d="M1765 4184 c-146 -21 -326 -106 -409 -193 -17 -17 -36 -31 -44 -31
-47 0 -55 -99 -16 -193 23 -54 26 -72 22 -143 -4 -69 -9 -90 -39 -145 -28 -51
-41 -65 -62 -67 -25 -3 -67 -47 -67 -70 0 -19 -60 -91 -82 -97 -43 -13 -182
-87 -253 -133 -101 -67 -169 -135 -194 -193 -53 -122 -47 -346 14 -586 27
-104 123 -326 200 -463 27 -49 45 -94 49 -128 14 -109 42 -160 130 -244 l81
-76 -18 -84 c-80 -371 -85 -397 -118 -600 l-23 -138 -358 0 c-313 0 -358 -2
-358 -15 0 -13 45 -15 372 -13 363 3 371 3 373 23 13 154 57 386 161 853 l27
122 32 0 c41 0 92 18 191 68 133 66 386 238 504 342 36 31 85 70 110 85 25 16
69 46 98 68 30 21 56 37 58 34 7 -7 42 -375 46 -483 l4 -101 -180 -7 c-98 -3
-240 -6 -313 -6 l-135 0 6 -28 c44 -209 83 -488 94 -666 5 -70 13 -131 19
-137 18 -18 481 -23 585 -7 97 15 89 20 103 -51 l7 -33 337 7 c185 3 673 10
1084 14 411 5 751 11 754 15 4 3 3 9 0 12 -4 4 -372 2 -819 -5 -447 -6 -931
-11 -1075 -11 -240 0 -262 1 -267 18 -6 18 -28 126 -77 362 -32 156 -70 372
-66 376 21 21 168 90 252 119 161 55 228 88 284 140 62 58 98 128 110 216 12
89 53 188 117 285 53 80 94 169 94 203 0 14 140 191 197 249 7 8 25 29 40 49
20 26 24 36 14 43 -7 4 -63 15 -125 24 -61 9 -158 24 -214 33 l-104 17 -46
-50 c-26 -27 -66 -71 -90 -97 l-43 -47 -47 32 c-45 31 -52 33 -161 37 -66 2
-130 -1 -151 -8 -20 -6 -84 -42 -141 -81 l-104 -70 -12 98 c-17 133 -42 268
-55 297 -6 14 -26 34 -44 44 -30 18 -32 22 -27 59 l5 39 -122 74 c-190 115
-202 134 -89 141 65 3 74 7 96 33 19 25 23 40 22 85 -1 30 1 72 6 93 7 36 7
37 -23 37 -16 0 -40 9 -53 20 l-24 19 53 1 c66 0 94 14 90 43 -2 17 3 23 25
25 43 5 47 27 28 127 -17 85 -17 90 0 120 17 28 17 36 4 128 -16 106 -31 137
-72 156 -29 13 -130 22 -178 15z m168 -40 c34 -18 45 -45 59 -146 10 -69 9
-82 -7 -112 -17 -32 -17 -36 0 -121 16 -74 16 -88 4 -96 -19 -12 -79 -11 -79
1 0 6 -4 10 -10 10 -18 0 -11 -29 10 -40 56 -30 -11 -61 -86 -40 -25 7 -48 10
-51 6 -14 -14 26 -62 69 -84 l44 -22 -2 -76 c-1 -63 -5 -80 -23 -98 -27 -27
-106 -28 -171 -2 -64 26 -158 95 -162 119 -2 11 -16 28 -33 37 -40 22 -42 42
-11 95 33 55 33 78 -1 103 -26 19 -27 21 -15 72 18 76 15 104 -11 128 -31 29
-41 17 -15 -18 15 -21 19 -36 13 -57 -12 -46 -17 -133 -8 -133 4 0 16 -7 27
-15 18 -13 17 -15 -8 -61 -36 -64 -35 -109 3 -128 16 -9 31 -26 35 -39 6 -24
77 -78 154 -116 35 -18 42 -26 37 -42 -4 -12 -10 -42 -14 -67 l-7 -47 -44 1
c-35 0 -56 8 -95 36 -27 19 -88 55 -134 79 -46 24 -99 58 -119 75 l-36 30 36
60 c45 74 58 120 58 206 0 63 1 68 21 65 12 -1 24 4 26 11 3 7 -4 12 -15 12
-52 0 -104 147 -69 195 12 16 18 16 47 6 39 -13 53 -5 26 15 -19 13 -18 15 10
40 68 59 178 124 237 138 32 8 34 -2 8 -35 -25 -32 -30 -51 -20 -70 7 -13 1
-21 -26 -33 -57 -27 -68 -61 -57 -174 l10 -97 46 -40 c25 -22 46 -48 46 -57 0
-13 8 -18 30 -18 20 0 30 -5 30 -15 0 -29 48 -18 65 15 10 20 23 30 38 30 33
0 67 11 67 21 0 5 -19 9 -41 9 -35 0 -47 -6 -75 -37 -30 -33 -34 -35 -34 -15
0 18 -6 22 -30 22 -20 0 -30 5 -30 15 0 8 -17 26 -39 39 -48 30 -61 66 -60
160 1 89 7 105 50 125 30 15 34 21 31 50 -2 23 5 41 22 62 14 16 23 36 20 43
-4 10 9 17 48 25 29 6 62 13 73 15 31 7 107 -4 138 -20z m-643 -835 c30 -20
88 -54 128 -75 40 -21 76 -42 79 -47 3 -4 -2 -16 -11 -26 -8 -9 -28 -45 -44
-79 l-28 -62 -39 40 c-21 22 -44 40 -50 40 -5 0 -15 8 -22 19 -18 28 -123 229
-123 235 0 2 7 12 16 21 15 15 17 14 28 -6 6 -12 36 -39 66 -60z m-91 -46 c12
-27 61 -116 107 -199 46 -83 84 -155 84 -160 0 -5 9 -20 19 -33 l19 -24 113
11 c63 6 153 14 202 18 48 3 87 10 87 14 0 5 -29 70 -65 145 -36 76 -65 145
-65 155 0 64 61 -13 165 -209 41 -78 92 -168 112 -199 43 -68 120 -219 125
-246 2 -14 -5 -21 -24 -27 -14 -4 -62 -25 -105 -47 -43 -22 -118 -57 -167 -78
-49 -21 -110 -54 -135 -73 -25 -19 -66 -45 -91 -57 -50 -24 -251 -86 -258 -80
-2 2 6 38 17 79 36 132 46 245 33 357 -21 168 -78 321 -189 508 l-73 123 26
35 c15 19 29 34 33 34 4 0 17 -21 30 -47z m-38 -154 c77 -130 115 -213 157
-349 23 -76 26 -101 26 -240 0 -131 -3 -168 -23 -240 -13 -47 -25 -95 -28
-107 -5 -21 -28 -37 -42 -29 -10 6 -66 218 -85 321 -66 353 -112 479 -192 534
-34 24 -102 44 -116 35 -15 -9 3 -24 28 -24 14 0 37 -6 52 -14 85 -44 132
-160 193 -476 12 -63 36 -167 52 -230 17 -63 31 -132 31 -152 0 -21 2 -38 6
-38 3 0 37 13 75 29 39 15 97 36 130 45 113 32 196 68 244 106 42 33 169 100
190 100 8 0 67 -99 112 -190 18 -36 37 -67 41 -70 4 -3 -14 -20 -40 -37 -26
-17 -70 -51 -97 -75 -28 -25 -113 -90 -191 -146 -333 -239 -502 -308 -616
-253 -85 41 -220 255 -338 537 -83 197 -120 364 -120 544 0 205 39 279 204
393 49 33 259 147 271 147 2 0 36 -55 76 -121z m430 -12 c19 -37 54 -195 46
-204 -3 -2 -49 -8 -102 -12 -111 -8 -95 -18 -159 103 -19 38 -34 71 -32 73 2
2 15 -12 30 -32 35 -45 53 -44 72 3 27 66 38 87 63 114 24 27 25 27 44 10 10
-9 28 -34 38 -55z m294 12 c94 -56 98 -60 89 -83 -5 -14 -9 -13 -31 4 -27 21
-53 26 -53 10 0 -5 10 -14 21 -21 12 -6 48 -31 79 -56 63 -49 70 -63 89 -198
17 -117 19 -142 9 -125 -70 115 -179 308 -202 355 -16 33 -44 84 -62 113 -19
28 -32 52 -29 52 3 0 43 -23 90 -51z m-151 -65 c21 -43 45 -94 52 -111 l14
-33 -60 0 c-33 0 -63 -1 -67 -2 -4 -2 -11 17 -14 42 -4 25 -16 75 -27 112
l-20 67 32 4 c48 6 49 6 90 -79z m1336 -280 c58 -8 137 -20 175 -25 39 -6 73
-14 78 -18 4 -4 -26 -45 -65 -92 -40 -46 -86 -100 -102 -119 -25 -30 -29 -32
-38 -17 -12 23 -37 21 -63 -3 l-22 -21 -6 41 c-6 45 -30 88 -54 97 -31 12 -43
-25 -44 -131 l0 -101 -18 52 c-25 72 -47 103 -75 103 -44 0 -51 -22 -37 -118
24 -157 25 -176 12 -168 -6 4 -25 33 -41 64 -40 79 -63 105 -86 100 -21 -4
-25 -48 -10 -125 l8 -42 -74 6 c-40 3 -90 8 -111 12 l-38 6 67 75 c37 41 83
93 103 116 20 22 94 106 166 187 102 115 134 145 150 142 11 -3 67 -12 125
-21z m-415 -117 c54 -30 70 -46 58 -58 -8 -8 -20 -6 -42 6 -18 9 -50 15 -74
14 -24 -2 -48 1 -54 4 -7 4 -15 2 -19 -4 -4 -6 0 -16 9 -20 9 -5 34 -28 56
-51 43 -46 45 -75 2 -34 -15 14 -30 26 -34 26 -14 0 -6 -28 13 -45 20 -18 27
-45 12 -45 -4 0 -15 9 -25 20 -10 12 -22 18 -28 14 -7 -4 -2 -15 12 -30 l22
-24 -54 -62 c-30 -35 -62 -72 -71 -82 -10 -11 -18 -23 -18 -27 0 -11 28 -19
64 -19 24 0 36 -7 49 -27 9 -16 35 -48 58 -73 58 -64 66 -90 37 -114 -42 -34
-122 -64 -227 -85 -57 -12 -114 -21 -126 -21 -23 0 -42 -16 -32 -27 5 -4 184
26 255 44 21 5 22 2 22 -49 0 -70 38 -130 115 -184 31 -21 52 -41 48 -45 -11
-11 -129 -55 -211 -79 -35 -11 -97 -37 -137 -60 -41 -22 -79 -40 -85 -40 -5 0
-10 21 -10 48 0 26 -4 52 -9 57 -5 6 -12 66 -16 135 -3 69 -12 181 -20 250
-27 244 -27 227 2 254 19 18 24 30 20 48 -5 19 -1 26 25 37 17 8 59 35 93 61
34 26 67 50 72 53 16 10 73 -13 73 -29 0 -8 7 -14 15 -14 8 0 15 5 15 12 0 19
-32 48 -54 48 -12 0 -28 4 -35 9 -11 7 -25 1 -50 -21 -46 -40 -150 -108 -167
-108 -7 0 -34 39 -59 86 -38 69 -45 88 -34 95 8 4 52 33 99 63 175 114 180
117 305 113 80 -2 118 -7 140 -20z m-8 -69 c15 -7 29 -13 31 -14 7 -5 -19 -44
-29 -44 -11 0 -58 50 -59 63 0 11 25 9 57 -5z m351 -49 c8 -27 12 -85 11 -151
-3 -119 13 -149 21 -41 5 64 27 124 51 138 19 13 20 -2 3 -76 -13 -56 -32 -97
-81 -175 -35 -55 -77 -135 -93 -177 -60 -157 -87 -186 -155 -173 -49 10 -75
43 -75 95 0 73 -16 112 -75 181 -66 77 -72 95 -22 68 12 -6 38 -24 57 -40 36
-29 78 -36 97 -17 8 8 5 25 -12 62 -27 59 -50 145 -42 153 11 11 26 -7 66 -80
50 -89 63 -102 82 -80 10 13 11 35 1 123 -19 170 -16 194 20 154 25 -28 50
-112 55 -185 3 -38 9 -68 12 -68 16 0 44 172 38 236 -8 109 15 140 41 53z
m-894 -110 c20 -33 36 -62 36 -65 0 -2 11 -22 25 -44 14 -22 25 -46 25 -54 0
-15 -134 -126 -151 -126 -5 0 -24 31 -43 68 -19 38 -50 95 -70 127 -22 37 -32
63 -26 69 10 10 151 85 161 86 4 0 23 -27 43 -61z m606 -218 c14 -28 -3 -35
-39 -16 -45 23 -47 35 -7 35 25 0 38 -6 46 -19z m-60 -231 c0 -38 28 -89 59
-104 38 -20 94 -20 131 -1 18 9 30 11 30 5 0 -20 -50 -109 -81 -145 -49 -55
-64 -60 -107 -33 -98 60 -142 123 -142 203 0 39 3 43 48 68 57 32 62 33 62 7z
m-1660 -331 c29 -34 51 -50 86 -60 l46 -14 -6 -49 c-3 -27 -7 -51 -10 -53 -8
-8 -120 89 -144 124 -21 31 -52 114 -52 138 1 6 10 -1 21 -15 11 -14 37 -46
59 -71z m1230 -142 c0 -55 33 -241 105 -582 13 -66 25 -125 25 -132 0 -17 -22
-22 -170 -32 -119 -9 -463 -1 -474 10 -2 2 -9 67 -16 144 -13 164 -31 297 -64
490 -13 77 -23 141 -22 142 1 2 137 6 302 10 197 5 302 5 306 -2 4 -5 8 -27 8
-48z"/>
<path d="M1773 3933 c-29 -11 -10 -23 28 -17 32 5 46 3 69 -14 15 -12 30 -18
34 -15 29 30 -79 68 -131 46z"/>
<path d="M1331 3866 c-9 -11 -8 -22 6 -50 28 -61 42 -38 17 28 -4 11 -1 16 10
16 9 0 16 5 16 10 0 15 -36 12 -49 -4z"/>
<path d="M1812 3829 c-7 -12 -11 -23 -8 -27 9 -8 46 29 40 39 -8 14 -18 10
-32 -12z"/>
</g>
</svg>
