<?xml version="1.0" standalone="no"?>
<!DOCTYPE svg PUBLIC "-//W3C//DTD SVG 20010904//EN"
 "http://www.w3.org/TR/2001/REC-SVG-20010904/DTD/svg10.dtd">
<svg version="1.0" xmlns="http://www.w3.org/2000/svg"
 width="200.000000pt" height="200.000000pt" viewBox="0 0 500.000000 500.000000"
 preserveAspectRatio="xMidYMid meet">

<g transform="translate(0.000000,500.000000) scale(0.100000,-0.100000)"
fill="#fff" stroke="none">
<path d="M1990 3921 c0 -5 -21 -12 -46 -16 -25 -3 -48 -13 -51 -21 -3 -8 -18
-28 -33 -43 -37 -36 -51 -93 -49 -189 1 -44 -4 -88 -11 -104 -11 -23 -10 -31
4 -53 9 -14 21 -25 26 -25 6 0 10 -7 10 -15 0 -33 35 -84 77 -111 40 -25 44
-31 41 -63 l-3 -35 -90 -23 c-112 -28 -170 -50 -185 -69 -10 -12 -63 -14 -311
-14 l-299 0 0 -290 0 -290 156 0 156 0 -7 -42 c-11 -72 -14 -76 -72 -102 -38
-18 -54 -30 -50 -40 8 -20 1 -21 -123 -18 l-110 3 0 30 c0 24 4 29 25 29 14 0
25 3 25 8 0 4 -45 6 -100 4 l-100 -3 0 30 0 31 100 0 c60 0 100 4 100 10 0 6
-100 10 -280 10 l-280 0 0 -40 c0 -38 -2 -40 -30 -40 -28 0 -30 -2 -30 -39 0
-37 -2 -40 -29 -39 -39 1 -51 -8 -51 -43 0 -21 7 -32 24 -40 13 -6 27 -21 30
-33 3 -11 6 -274 6 -583 l0 -563 50 0 50 0 2 568 3 567 183 3 182 2 0 -569 0
-570 54 -6 c48 -6 61 -3 140 34 50 24 86 47 86 55 0 8 10 16 21 18 18 2 26 20
50 108 16 58 38 139 50 180 11 41 46 172 78 290 l57 215 80 3 79 3 -3 -381
c-2 -380 -2 -380 19 -388 18 -7 14 -12 -39 -40 -72 -39 -90 -57 -75 -80 19
-32 68 -26 155 18 46 23 84 37 86 31 8 -24 45 -61 61 -61 21 0 61 40 61 62 0
9 -7 21 -15 28 -24 20 -17 30 20 30 40 0 41 -2 18 -36 -15 -24 -15 -27 4 -52
25 -34 49 -39 74 -16 20 18 26 69 9 79 -28 17 -1 25 85 25 52 0 95 -2 95 -5 0
-3 -7 -17 -17 -31 -15 -24 -15 -27 4 -52 19 -26 24 -27 127 -30 l106 -3 0 389
c0 371 1 390 18 395 37 9 37 118 1 138 -17 8 -19 22 -19 114 l0 105 135 0 135
0 0 -570 0 -570 90 0 90 0 0 570 0 570 235 0 234 0 -24 -24 c-39 -39 -45 -85
-45 -371 0 -148 -3 -320 -7 -381 l-6 -112 -59 -28 c-32 -15 -66 -36 -74 -46
-23 -24 -11 -48 25 -48 40 0 212 87 218 111 3 11 9 19 13 19 7 0 28 164 55
435 14 147 27 215 41 215 10 0 14 -15 14 -54 0 -45 4 -58 22 -70 12 -9 35 -16
50 -16 15 0 29 -4 32 -9 6 -9 116 -486 116 -500 0 -3 -26 -19 -58 -36 -74 -39
-94 -59 -87 -88 4 -15 1 -28 -9 -36 -25 -21 -20 -68 9 -87 30 -19 57 -12 75
21 11 20 10 28 -4 49 -22 34 -21 36 19 36 34 0 46 -12 25 -25 -20 -12 -11 -64
15 -81 30 -19 57 -12 75 21 11 20 10 28 -4 49 -9 14 -16 28 -16 31 0 3 43 5
95 5 86 0 113 -8 85 -25 -20 -12 -11 -64 15 -81 30 -19 57 -12 75 21 11 20 10
28 -4 49 -21 33 -20 36 8 36 23 0 25 -3 24 -48 -1 -27 2 -54 6 -60 4 -7 29
-12 57 -12 l49 0 0 385 c0 312 3 385 14 392 42 25 48 103 11 137 -23 22 -25
29 -25 125 l0 101 175 0 175 0 0 -570 0 -570 50 0 50 0 0 583 0 583 33 9 c28
9 32 14 32 45 0 32 -3 35 -40 42 -22 5 -145 8 -273 6 l-234 -3 6 29 c3 16 6
32 6 37 0 5 29 9 64 9 91 0 97 8 141 175 20 77 42 158 49 180 15 46 7 78 -23
94 -11 6 -78 11 -155 11 l-135 0 -3 283 -3 282 -28 36 c-15 20 -55 55 -89 78
-56 37 -67 41 -125 41 -110 0 -178 -52 -209 -158 -22 -76 -14 -161 25 -246
l30 -66 -410 0 -409 0 0 -290 0 -290 155 0 c141 0 155 -2 155 -17 -1 -37 -36
-188 -43 -185 -4 1 -77 2 -162 2 l-155 0 0 30 c0 27 3 30 30 30 29 0 30 2 30
45 l0 45 -139 0 c-77 0 -142 4 -145 8 -2 4 13 70 34 147 22 77 39 152 40 167
0 39 -33 58 -101 58 l-56 0 -16 101 c-12 76 -23 111 -42 140 -31 44 -28 43
-175 83 l-115 31 -3 37 c-3 34 1 39 37 62 38 24 71 69 71 97 0 6 12 25 26 42
19 23 24 37 19 56 -3 14 -7 76 -8 136 -3 143 -18 179 -97 217 -56 27 -160 46
-160 29z m164 -49 c49 -28 68 -64 73 -135 6 -73 -3 -157 -18 -157 -5 0 -9 17
-9 38 0 45 -21 107 -44 130 -13 13 -40 18 -125 20 -70 3 -117 0 -131 -8 -30
-16 -62 -96 -58 -142 2 -21 0 -38 -4 -38 -5 0 -8 39 -8 88 0 106 16 142 85
191 39 27 54 32 81 28 19 -3 37 -1 40 5 9 14 81 2 118 -20z m-20 -136 c26 -16
46 -81 46 -148 0 -36 4 -58 11 -58 6 0 9 -9 6 -20 -3 -11 -1 -20 4 -20 9 0 13
14 10 40 -2 13 -1 13 9 0 10 -12 11 -11 7 8 -3 12 -1 20 4 16 24 -14 -7 -74
-38 -74 -10 0 -12 -6 -8 -20 10 -31 -21 -76 -75 -109 -66 -41 -101 -40 -172 4
-61 38 -89 85 -67 111 9 11 7 14 -10 14 -29 0 -56 43 -42 67 8 14 11 15 12 3
1 -8 3 -19 4 -25 2 -5 3 -16 4 -22 0 -7 6 -13 12 -13 6 0 9 7 6 15 -4 8 -1 17
5 21 6 4 8 27 4 63 -8 75 11 131 52 152 36 18 184 15 216 -5z m1737 -165 c23
-19 24 -20 8 -63 l-16 -43 -71 4 c-114 5 -168 -24 -197 -106 l-14 -38 -1 47
c0 87 49 174 115 204 47 21 148 18 176 -5z m77 -53 c35 -39 48 -93 43 -195 -2
-47 -28 -43 -41 6 -5 21 -24 55 -40 76 -17 21 -30 42 -30 46 0 16 32 89 39 89
4 0 17 -10 29 -22z m-62 -115 c39 -46 57 -99 44 -124 -13 -24 -13 -76 1 -84
19 -13 -35 -77 -95 -112 -12 -7 -36 -12 -55 -13 -38 0 -101 34 -101 56 0 8 -6
14 -14 14 -8 0 -24 20 -36 45 -28 58 -30 146 -5 195 29 58 62 71 160 65 66 -4
71 -6 101 -42z m-1806 -135 c0 -27 4 -38 15 -38 8 0 15 -9 15 -20 0 -58 -98
-82 -145 -35 -29 28 -31 43 -10 51 9 4 15 19 15 38 0 18 2 35 4 37 2 2 27 4
55 4 l51 0 0 -37z m1910 -12 c0 -28 -12 -46 -31 -46 -11 0 -19 7 -19 18 0 14
2 15 10 2 9 -13 11 -13 20 0 6 10 6 16 0 18 -16 6 -12 22 5 22 8 0 15 -6 15
-14z m28 -332 c-2 -1 -25 7 -51 19 l-47 22 0 78 c0 85 11 112 65 158 l30 27 3
-150 c1 -83 1 -152 0 -154z m-2056 222 c29 -20 107 -21 136 -1 12 9 26 30 31
48 8 28 9 29 10 7 1 -49 -43 -80 -114 -80 -25 0 -55 5 -66 10 -20 11 -50 61
-48 82 0 7 7 -1 15 -19 7 -17 24 -39 36 -47z m-59 29 l17 -36 -67 3 c-54 2
-68 6 -71 20 -2 12 10 20 45 31 26 8 51 15 54 16 3 1 13 -15 22 -34z m326 15
c23 -6 41 -12 41 -14 0 -1 -7 -24 -16 -51 -14 -38 -16 -72 -11 -171 l5 -124
-154 0 -154 0 0 145 c0 145 0 146 21 135 26 -14 95 -15 130 -2 32 13 69 58 69
84 0 13 5 18 14 15 8 -3 33 -11 55 -17z m-461 -37 c2 -9 -8 -13 -35 -13 -36 1
-37 1 -18 16 22 17 46 15 53 -3z m580 1 c36 -25 55 -72 73 -184 12 -77 13
-107 5 -113 -18 -12 -139 -48 -144 -43 -25 25 -29 258 -6 316 18 44 36 50 72
24z m-428 -304 l0 -270 -189 0 -189 0 -6 118 c-8 145 -14 166 -46 170 -14 1
-31 -1 -37 -6 -7 -4 -25 -70 -40 -145 l-26 -137 -149 0 -148 0 0 270 0 270
415 0 415 0 0 -270z m1740 0 l0 -270 -188 0 -189 0 -7 126 c-7 138 -15 164
-50 164 -42 0 -48 -16 -90 -252 l-7 -38 -149 0 -150 0 0 270 0 270 415 0 415
0 0 -270z m68 171 c-2 -29 -8 -37 -25 -39 -22 -3 -23 0 -23 53 l0 55 26 -16
c20 -14 24 -24 22 -53z m172 16 c0 -61 -5 -70 -31 -56 -22 11 -27 77 -7 97 26
26 38 13 38 -41z m-56 -67 c7 0 20 -6 29 -12 15 -12 15 -17 0 -69 -15 -55 -18
-58 -72 -82 -56 -25 -56 -25 -86 -7 -28 18 -30 24 -33 86 -3 72 3 84 46 84 19
0 22 5 22 39 0 39 1 40 38 43 l37 3 3 -42 c2 -26 8 -43 16 -43z m138 -57 c9
-8 25 -38 36 -66 59 -152 112 -301 112 -315 0 -36 -113 -182 -141 -182 -25 0
-22 12 31 118 l37 76 -50 96 c-28 52 -64 114 -80 137 -25 35 -28 48 -23 78 16
86 32 97 78 58z m-1467 -59 c8 -9 14 -24 11 -33 -3 -9 -15 -53 -27 -99 -12
-45 -24 -80 -26 -78 -8 8 -22 196 -17 211 8 20 38 19 59 -1z m63 4 c7 -7 12
-20 12 -29 0 -19 -77 -309 -84 -316 -3 -3 -9 -2 -15 2 -19 11 -12 66 24 194
26 92 32 128 24 142 -8 15 -6 19 9 19 10 0 23 -5 30 -12z m1677 -4 c9 -10 14
-24 12 -33 -14 -48 -69 -253 -79 -295 -8 -31 -20 -54 -35 -63 -31 -21 -38 -12
-19 26 18 33 21 72 8 86 -10 12 -102 267 -102 284 0 7 32 11 99 11 79 0 103
-3 116 -16z m65 1 c16 -19 11 -47 -41 -234 -31 -112 -47 -155 -61 -162 -11 -6
-22 -8 -25 -6 -2 3 18 88 46 190 27 102 47 195 44 206 -6 25 18 29 37 6z
m-2809 -70 c4 -33 10 -144 13 -247 l7 -188 -80 0 c-95 0 -91 -9 -62 138 11 54
29 149 41 212 28 152 28 152 53 148 19 -3 23 -11 28 -63z m1740 7 c4 -28 10
-140 14 -246 l7 -195 -81 1 c-70 0 -81 2 -81 18 0 9 15 95 34 191 19 96 37
194 41 219 8 52 22 72 44 68 11 -2 18 -19 22 -56z m-817 6 c6 -43 26 -248 26
-270 0 -16 -12 -18 -105 -18 l-105 0 0 -38 0 -39 -112 -7 c-62 -3 -142 -13
-178 -22 -36 -8 -84 -18 -108 -21 -41 -5 -42 -4 -34 18 11 31 60 48 137 48 43
1 93 12 175 41 63 22 134 44 158 50 50 13 50 13 27 156 -9 53 -15 97 -13 98 7
5 104 34 115 35 7 1 14 -14 17 -31z m1504 -78 c17 -30 19 -46 13 -110 -5 -51
-3 -94 6 -134 23 -99 29 -96 -173 -96 l-174 0 0 27 c0 14 5 55 11 90 10 57 13
63 35 63 24 0 24 0 24 115 0 63 3 115 8 115 4 0 17 -7 30 -15 20 -15 27 -14
89 12 l68 29 22 -31 c12 -16 31 -46 41 -65z m-1671 74 c12 -11 16 -37 17 -97
l1 -82 -172 -3 -173 -2 0 100 0 100 156 0 c128 0 158 -3 171 -16z m1742 -202
l24 -50 -23 -48 c-20 -40 -25 -45 -31 -28 -10 26 -11 186 -1 180 4 -2 18 -27
31 -54z m-1721 -14 c-3 -7 -58 -32 -124 -56 -92 -34 -140 -45 -214 -51 -65 -6
-108 -15 -137 -30 -23 -11 -45 -21 -48 -21 -3 0 -5 32 -5 70 l0 70 85 0 c67 0
87 3 91 15 5 13 35 15 181 15 135 0 174 -3 171 -12z m-698 -38 c-32 -25 -50
-25 -50 0 0 16 7 20 38 20 l37 0 -25 -20z m135 -12 c18 -44 3 -61 -84 -89 -36
-12 -72 -24 -78 -27 -9 -3 -13 8 -13 37 0 38 4 43 52 76 68 46 104 46 123 3z
m1707 20 c5 -15 76 -14 91 1 16 16 87 14 86 -1 0 -7 -6 -47 -13 -88 l-12 -75
-147 -3 -147 -3 0 44 c0 24 -3 65 -6 91 l-7 46 76 0 c50 0 77 -4 79 -12z
m-2582 -88 l0 -30 -160 0 -160 0 0 30 0 30 160 0 160 0 0 -30z m1740 0 l0 -30
-90 0 -90 0 0 30 0 30 90 0 90 0 0 -30z m200 0 l0 -31 -87 3 c-88 3 -88 3 -91
31 l-3 27 90 0 91 0 0 -30z m-422 3 c-16 -2 -40 -2 -55 0 -16 2 -3 4 27 4 30
0 43 -2 28 -4z m-631 -79 c-2 -3 -47 -3 -98 -2 l-94 3 85 28 c47 16 90 33 95
38 7 7 11 -2 13 -26 2 -21 1 -39 -1 -41z m-947 4 l0 -33 -157 2 c-135 2 -158
5 -161 18 -9 42 1 45 163 45 l155 0 0 -32z m220 2 c0 -17 -5 -30 -12 -31 -7 0
-51 -1 -98 -1 -72 0 -86 2 -88 16 -8 41 4 46 103 46 l95 0 0 -30z m336 -26
c-3 -8 -17 -14 -32 -14 -26 0 -27 0 -9 20 10 11 14 20 9 20 -5 0 0 7 11 16 18
14 20 13 23 -6 2 -12 1 -28 -2 -36z m1189 21 l0 -30 -92 -2 -93 -1 0 34 0 35
93 -3 92 -3 0 -30z m200 0 l0 -30 -87 0 -88 0 0 33 0 33 88 -3 87 -3 0 -30z
m-545 10 c0 -12 -19 -15 -107 -15 -113 0 -128 7 -41 20 94 14 148 12 148 -5z
m123 -12 c-13 -2 -35 -2 -50 0 -16 2 -5 4 22 4 28 0 40 -2 28 -4z m-290 -30
c-83 -2 -223 -2 -310 0 -87 1 -18 3 152 3 171 0 242 -2 158 -3z m1605 0 c-10
-2 -28 -2 -40 0 -13 2 -5 4 17 4 22 1 32 -1 23 -4z m260 0 c-10 -2 -26 -2 -35
0 -10 3 -2 5 17 5 19 0 27 -2 18 -5z m-1778 -48 l0 -25 -854 0 c-735 0 -855 2
-866 15 -6 8 -9 19 -5 25 4 7 279 10 866 10 l859 0 0 -25z m1834 16 c4 -5 3
-16 0 -25 -6 -15 -90 -16 -908 -14 l-901 3 -3 23 -3 22 905 0 c532 0 907 -4
910 -9z m669 -5 c13 -33 -14 -36 -330 -36 l-313 0 0 25 0 25 319 0 c262 0 320
-2 324 -14z m-2870 -63 c-237 -2 -629 -2 -870 0 -241 1 -46 2 432 2 479 0 676
-1 438 -2z m1805 0 c-252 -2 -664 -2 -915 0 -252 1 -46 2 457 2 503 0 709 -1
458 -2z m865 0 c-73 -2 -193 -2 -265 0 -73 1 -14 3 132 3 146 0 205 -2 133 -3z
m-3893 -568 l0 -545 -35 0 -35 0 0 545 0 545 35 0 35 0 0 -545z m460 0 l0
-545 -30 0 -30 0 0 545 0 545 30 0 30 0 0 -545z m315 518 c-34 -35 -51 -67
-59 -118 -4 -22 -16 -76 -26 -120 -11 -44 -37 -161 -59 -260 -22 -99 -54 -240
-71 -313 -16 -73 -30 -137 -30 -141 0 -4 10 -12 22 -18 20 -9 19 -11 -21 -31
-23 -12 -44 -22 -46 -22 -8 0 -6 1036 2 1043 3 4 76 7 161 7 l155 0 -28 -27z
m873 -80 l-3 -108 -176 -3 c-136 -2 -180 -6 -188 -16 -8 -9 -15 -130 -22 -363
-6 -191 -13 -358 -15 -371 -4 -22 -8 -23 -77 -20 l-72 3 3 435 c1 273 6 447
13 467 21 65 45 72 245 76 99 1 205 4 237 5 l58 2 -3 -107z m92 -438 l0 -545
-35 0 -35 0 0 545 0 545 35 0 35 0 0 -545z m90 0 l0 -545 -35 0 -35 0 0 545 0
545 35 0 35 0 0 -545z m370 0 l0 -545 -30 0 -30 0 0 545 0 545 30 0 30 0 0
-545z m80 0 l0 -545 -30 0 -30 0 0 538 c0 296 3 542 7 545 3 4 17 7 30 7 l23
0 0 -545z m850 532 c-14 -6 -43 -19 -65 -29 -50 -22 -65 -46 -72 -114 l-6 -54
-58 0 c-33 0 -59 -4 -59 -10 0 -13 -58 -546 -65 -597 l-6 -43 -45 0 -44 0 6
368 c3 202 10 383 15 403 18 74 59 87 269 87 123 1 150 -2 130 -11z m199 -23
c13 -13 28 -24 33 -24 4 0 14 -11 20 -25 17 -37 65 -35 74 3 10 46 12 48 13
14 1 -45 -21 -94 -54 -120 -25 -20 -40 -22 -138 -22 l-110 0 6 -57 c4 -32 18
-157 32 -278 14 -121 28 -246 32 -277 l6 -58 -42 0 c-22 0 -41 2 -41 4 0 5
-106 472 -131 572 -41 174 -24 221 99 269 97 37 163 37 201 -1z m111 -9 c0
-37 -3 -45 -19 -45 -13 0 -20 10 -25 31 -10 51 -8 59 19 59 23 0 25 -4 25 -45z
m130 -500 l0 -545 -35 0 -35 0 0 538 c0 296 3 542 7 545 3 4 19 7 35 7 l28 0
0 -545z m450 0 l0 -545 -30 0 -30 0 0 545 0 545 30 0 30 0 0 -545z m-2896 518
c-26 -26 -44 -78 -44 -125 0 -24 -4 -48 -8 -55 -5 -7 -39 -13 -87 -15 l-80 -3
-17 -55 c-20 -67 -52 -185 -118 -435 -28 -104 -55 -203 -59 -220 -5 -16 -12
-42 -15 -57 l-6 -26 -67 20 c-38 11 -69 21 -71 23 -6 6 200 892 213 911 28 44
70 54 228 54 140 0 147 -1 131 -17z m2330 -168 c-4 -8 -11 -15 -16 -15 -6 0
-5 6 2 15 7 8 14 15 16 15 2 0 1 -7 -2 -15z m-1808 -153 c-3 -2 -12 1 -21 8
-22 18 -21 97 3 102 14 3 17 -5 20 -50 2 -30 1 -57 -2 -60z m229 58 c0 -22 -6
-45 -13 -52 -9 -9 -12 1 -12 52 0 51 3 61 12 52 7 -7 13 -30 13 -52z m1131 0
c7 -30 13 -56 14 -57 0 -6 -49 -3 -64 3 -12 4 -16 20 -16 53 0 54 6 63 34 59
15 -2 23 -16 32 -58z m329 0 l0 -60 -66 0 -66 0 -7 46 c-10 78 -13 74 67 74
l72 0 0 -60z m145 0 l0 -60 -53 0 c-62 0 -77 11 -77 60 0 49 15 60 77 60 l53
0 0 -60z m140 4 c0 -29 -10 -54 -21 -54 -5 0 -9 26 -9 58 1 52 2 55 15 38 8
-11 15 -30 15 -42z m-2030 7 c0 -22 3 -46 6 -55 5 -14 -12 -16 -150 -16 l-156
0 0 48 c0 27 3 52 7 55 3 4 71 7 150 7 l143 0 0 -39z m-100 -290 c0 -123 -4
-202 -10 -206 -5 -3 -10 -46 -10 -96 l0 -89 -106 0 -106 0 6 48 c3 26 8 151
11 277 4 127 9 238 11 248 5 15 19 17 105 17 l99 0 0 -199z m70 -1 l0 -200
-25 0 -25 0 0 200 0 200 25 0 25 0 0 -200z m90 -95 l0 -295 -25 0 c-25 0 -25
1 -25 89 0 50 -4 93 -10 96 -6 4 -10 83 -10 206 l0 199 35 0 35 0 0 -295z
m1579 203 c-2 -83 -2 -88 -9 -43 -12 72 -12 135 0 135 6 0 9 -37 9 -92z m71
-108 l0 -200 -25 0 -25 0 0 200 0 200 25 0 25 0 0 -200z m180 -95 l0 -295 -70
0 -70 0 0 95 c0 57 -4 95 -10 95 -6 0 -10 73 -10 200 l0 200 80 0 80 0 0 -295z
m-1905 -210 l0 -80 -40 0 -40 0 -3 69 c-4 91 -1 98 45 94 l38 -3 0 -80z m1743
-2 l3 -83 -42 0 c-40 0 -41 1 -34 28 4 15 9 53 12 85 5 56 6 58 31 55 27 -3
27 -4 30 -85z m-573 -13 c-12 -19 -95 -62 -112 -58 -12 3 1 14 42 36 64 33 80
38 70 22z m431 -19 c-8 -13 -72 -41 -93 -41 -12 1 -5 9 22 25 39 24 82 34 71
16z m39 -41 c-3 -5 -13 -10 -21 -10 -8 0 -12 5 -9 10 3 6 13 10 21 10 8 0 12
-4 9 -10z m-600 -16 c13 -5 14 -8 3 -15 -18 -12 -58 -11 -58 0 0 9 15 18 32
20 3 1 14 -2 23 -5z m453 -1 c30 -8 10 -23 -32 -23 -24 0 -27 2 -16 15 14 17
16 17 48 8z m-1778 -33 c0 -11 -4 -20 -10 -20 -5 0 -10 9 -10 20 0 11 5 20 10
20 6 0 10 -9 10 -20z m95 10 c-3 -5 -22 -10 -41 -10 -19 0 -34 5 -34 10 0 6
18 10 41 10 24 0 38 -4 34 -10z m35 -10 c0 -11 -4 -20 -10 -20 -5 0 -10 9 -10
20 0 11 5 20 10 20 6 0 10 -9 10 -20z m210 10 c0 -6 -38 -10 -95 -10 -57 0
-95 4 -95 10 0 6 38 10 95 10 57 0 95 -4 95 -10z m1526 -27 c-11 -11 -19 6
-11 24 8 17 8 17 12 0 3 -10 2 -21 -1 -24z m214 27 c0 -6 -38 -10 -95 -10 -57
0 -95 4 -95 10 0 6 38 10 95 10 57 0 95 -4 95 -10z m40 -10 c0 -11 -4 -20 -10
-20 -5 0 -10 9 -10 20 0 11 5 20 10 20 6 0 10 -9 10 -20z m70 10 c0 -5 -11
-10 -25 -10 -14 0 -25 5 -25 10 0 6 11 10 25 10 14 0 25 -4 25 -10z m-2226
-29 c3 -4 -3 -16 -14 -26 -19 -18 -20 -17 -20 8 0 26 22 38 34 18z m-615 -22
c-16 -10 -23 -4 -14 10 3 6 11 8 17 5 6 -4 5 -9 -3 -15z m553 -1 c-7 -7 -12
-8 -12 -2 0 14 12 26 19 19 2 -3 -1 -11 -7 -17z m122 -24 c13 -33 -24 -65 -50
-43 -19 16 -17 46 3 57 20 12 39 6 47 -14z m1740 0 c13 -33 -24 -65 -50 -43
-19 16 -17 46 3 57 20 12 39 6 47 -14z m131 -26 c-13 -33 -57 -32 -70 0 -4 11
2 23 16 35 22 17 23 17 41 -1 11 -10 16 -25 13 -34z m250 0 c-11 -27 -37 -30
-59 -8 l-21 21 24 20 c24 20 25 20 43 1 11 -10 16 -25 13 -34z m-1991 27 c15
-40 -27 -66 -58 -36 -16 17 -17 22 -6 35 16 20 56 21 64 1z m206 -17 c0 -30
-1 -31 -17 -16 -13 14 -14 20 -3 32 18 22 20 20 20 -16z m-614 -23 c18 -14 18
-14 -8 -15 -18 0 -28 5 -28 15 0 19 11 19 36 0z"/>
<path d="M1895 3630 c-4 -6 12 -10 39 -10 25 0 46 5 46 10 0 6 -18 10 -39 10
-22 0 -43 -4 -46 -10z"/>
<path d="M2070 3630 c0 -5 21 -10 46 -10 27 0 43 4 39 10 -3 6 -24 10 -46 10
-21 0 -39 -4 -39 -10z"/>
<path d="M1936 3593 c-12 -12 -6 -43 9 -43 8 0 15 9 15 19 0 21 -13 34 -24 24z"/>
<path d="M1983 3540 c-10 -65 1 -101 27 -85 10 6 9 10 -3 16 -12 7 -13 17 -6
46 11 49 11 83 0 83 -4 0 -13 -27 -18 -60z"/>
<path d="M2094 3586 c-6 -17 2 -36 17 -36 12 0 12 37 -1 45 -6 3 -13 -1 -16
-9z"/>
<path d="M2022 3420 c-42 -5 -43 -5 -22 -22 26 -23 33 -22 55 2 23 25 20 27
-33 20z"/>
<path d="M3633 3352 c-7 -4 8 -7 33 -7 24 0 44 3 44 8 0 9 -61 9 -77 -1z"/>
<path d="M3800 3353 c0 -5 20 -8 44 -8 25 0 40 3 33 7 -16 10 -77 10 -77 1z"/>
<path d="M3666 3304 c-7 -18 0 -34 15 -34 12 0 12 37 0 44 -5 3 -12 -1 -15
-10z"/>
<path d="M3820 3290 c0 -11 7 -20 15 -20 8 0 15 9 15 20 0 11 -7 20 -15 20 -8
0 -15 -9 -15 -20z"/>
<path d="M3724 3255 c-38 -34 -38 -35 -20 -50 22 -17 76 -20 76 -5 0 6 -13 10
-28 10 -43 0 -45 11 -10 41 18 15 30 30 27 33 -3 3 -23 -10 -45 -29z"/>
<path d="M3707 3173 c-3 -5 -1 -18 4 -30 6 -17 16 -23 37 -23 29 0 82 33 82
51 0 11 -117 12 -123 2z m78 -23 c-3 -5 -17 -10 -31 -10 -13 0 -24 5 -24 10 0
6 14 10 31 10 17 0 28 -4 24 -10z"/>
</g>
</svg>
