<?xml version="1.0" standalone="no"?>
<!DOCTYPE svg PUBLIC "-//W3C//DTD SVG 20010904//EN"
 "http://www.w3.org/TR/2001/REC-SVG-20010904/DTD/svg10.dtd">
<svg version="1.0" xmlns="http://www.w3.org/2000/svg"
 width="612.000000pt" height="408.000000pt" viewBox="0 0 612.000000 408.000000"
 preserveAspectRatio="xMidYMid meet">

<g transform="translate(0.000000,408.000000) scale(0.100000,-0.100000)"
fill="#fff" stroke="none">
<path d="M1609 3614 c-46 -30 -64 -71 -64 -151 0 -39 -3 -75 -7 -79 -13 -12
-9 -68 5 -89 8 -11 15 -45 16 -75 1 -30 4 -67 7 -82 6 -33 -11 -68 -33 -68 -9
0 -25 -8 -36 -17 -10 -10 -38 -25 -60 -33 -35 -13 -53 -32 -118 -125 -43 -61
-80 -121 -84 -135 -3 -14 -13 -40 -23 -57 l-17 -33 -294 0 -294 0 6 -39 c3
-28 1 -41 -8 -45 -14 -5 -15 -42 -1 -64 4 -7 4 -18 0 -24 -5 -7 -9 -19 -10
-28 -1 -8 -6 -25 -9 -37 -6 -19 -3 -23 13 -23 26 0 33 -11 36 -60 2 -25 -2
-44 -10 -51 -19 -16 -17 -26 6 -32 12 -3 20 -14 20 -26 0 -20 -5 -21 -125 -21
l-125 0 0 -45 0 -45 60 0 60 0 0 -224 c0 -139 4 -227 10 -231 6 -4 10 -218 10
-611 l0 -604 35 0 35 0 0 610 0 610 45 0 45 0 2 -597 3 -598 30 0 30 0 5 595
5 595 300 0 300 0 3 -38 c2 -26 -1 -39 -12 -43 -11 -4 -16 -20 -16 -50 0 -38
4 -46 25 -54 15 -6 23 -15 19 -23 -6 -17 14 -34 46 -39 l25 -3 32 -265 c17
-146 32 -281 32 -301 l1 -36 -77 -22 c-43 -12 -102 -29 -130 -37 l-53 -15 0
-45 c0 -37 -4 -46 -23 -53 -19 -7 -24 -17 -25 -49 -3 -70 40 -92 91 -47 31 27
33 43 12 71 -8 10 -15 34 -15 52 l0 32 80 0 80 0 0 -38 c0 -31 -5 -41 -23 -49
-34 -16 -37 -85 -5 -107 29 -21 31 -20 67 10 36 30 39 54 11 79 -14 13 -20 31
-20 62 0 39 2 43 24 43 23 0 25 -4 31 -74 7 -71 6 -76 -20 -110 -15 -20 -31
-36 -36 -36 -5 0 -9 -9 -9 -20 0 -17 7 -20 49 -20 27 0 63 3 81 7 l33 6 -6
104 -6 103 51 0 50 0 -7 -100 -7 -100 27 -10 c14 -5 51 -10 81 -10 48 0 54 2
54 20 0 11 -6 23 -13 26 -8 3 -24 19 -36 35 -20 27 -22 37 -16 105 l7 74 43 0
c42 0 43 -1 47 -36 4 -30 0 -37 -22 -49 -37 -19 -41 -86 -8 -109 30 -21 41
-20 72 9 31 29 33 55 6 80 -14 13 -20 31 -20 62 l0 43 80 0 c78 0 80 -1 80
-24 0 -13 -8 -30 -19 -37 -29 -21 -35 -75 -11 -99 27 -27 43 -25 80 8 27 25
30 32 21 55 -6 15 -15 27 -21 27 -5 0 -10 24 -10 54 0 43 -4 56 -17 60 -10 3
-74 21 -143 41 -69 21 -129 40 -133 44 -4 4 4 105 18 224 14 119 25 221 25
227 0 5 25 -1 56 -15 56 -25 85 -25 64 0 -6 7 -26 15 -46 18 -50 8 -64 23 -64
67 0 63 6 70 61 70 47 0 50 2 55 29 4 21 13 31 28 33 17 2 22 11 24 47 4 49
-6 61 -52 61 -24 0 -28 3 -22 23 3 12 6 30 6 40 0 16 22 17 315 17 l315 0 2
-597 3 -598 30 0 30 0 3 598 2 598 53 -3 52 -3 3 -608 2 -607 30 0 30 0 0 603
c0 380 4 607 10 613 5 5 11 103 12 229 l3 220 58 3 57 3 0 44 0 45 -92 0 c-81
0 -90 2 -73 14 19 14 19 15 1 35 -29 32 -99 55 -133 44 -24 -9 -35 -5 -71 19
-24 17 -46 28 -48 25 -3 -2 18 -19 45 -36 43 -28 53 -31 72 -21 29 16 87 -1
119 -35 l23 -25 -24 0 c-14 0 -34 7 -45 15 -27 21 -57 18 -89 -7 l-28 -22 7
28 c5 19 3 26 -4 21 -6 -4 -38 3 -71 15 -52 20 -59 25 -59 50 l0 28 192 1
c106 1 196 5 201 10 4 4 6 155 5 337 l-3 329 -500 3 c-437 2 -500 0 -508 -13
-5 -10 -17 -13 -33 -10 -13 3 -35 7 -49 10 -49 10 -73 105 -35 140 11 10 25
35 32 56 6 21 19 46 30 55 23 21 25 92 3 100 -11 5 -15 24 -15 80 0 89 -12
118 -59 140 -52 25 -169 29 -202 8z m182 -104 c23 -13 44 -53 53 -101 5 -31
10 -36 26 -32 17 5 20 0 20 -31 0 -26 -6 -40 -23 -51 -13 -8 -28 -30 -35 -49
-16 -44 -84 -106 -117 -106 -32 0 -88 50 -110 98 -10 20 -29 46 -42 57 -29 24
-30 82 -2 77 12 -1 19 10 25 40 8 39 12 43 46 49 20 3 54 17 75 32 43 29 56
32 84 17z m-116 -366 c24 -15 40 -15 91 1 19 6 22 2 27 -37 4 -30 14 -50 33
-67 l28 -23 -25 -18 c-13 -10 -47 -33 -76 -50 l-52 -32 -35 21 c-53 33 -59 44
-41 77 8 16 15 55 15 87 0 31 2 57 5 57 3 0 17 -7 30 -16z m1255 -434 l0 -330
-192 2 -193 2 180 6 180 5 0 315 0 315 -465 0 -465 0 0 -315 0 -315 145 -5
145 -6 -157 -2 -158 -2 0 330 0 330 490 0 490 0 0 -330z m-1293 237 c28 -20
56 -37 63 -37 7 0 51 25 98 56 73 49 88 56 111 48 l26 -9 3 -318 2 -317 31 0
30 0 -3 -57 -3 -58 -155 1 c-200 1 -240 11 -353 95 l-86 64 -1 158 0 159 -43
-47 c-39 -43 -45 -47 -65 -36 -25 13 -52 60 -52 90 0 20 94 166 147 229 15 18
46 39 67 46 36 12 44 12 86 -8 25 -12 69 -38 97 -59z m1258 -235 l0 -303 -175
-2 -175 -2 -11 115 c-7 63 -12 127 -13 142 -2 45 -27 61 -88 56 -29 -3 -56 -7
-59 -11 -3 -3 -29 -72 -57 -153 l-52 -148 -140 1 -140 0 -3 294 c-1 162 0 299
2 305 3 9 124 11 458 10 l453 -1 0 -303z m-1620 -61 l28 -21 -38 -45 c-39 -48
-58 -53 -63 -17 -2 12 -10 22 -17 22 -11 0 -10 10 6 47 28 66 41 80 50 55 4
-10 20 -29 34 -41z m115 -76 c0 -93 -3 -117 -15 -121 -12 -5 -41 10 -128 67
-6 4 -3 16 7 30 22 33 119 137 129 138 4 1 7 -51 7 -114z m1107 103 c9 -11 43
-339 43 -405 0 -22 -3 -23 -101 -23 l-102 0 6 58 c3 31 11 124 18 205 8 101
17 153 26 163 18 17 97 19 110 2z m-1707 -53 l0 -35 -72 0 c-69 0 -71 -1 -50
-16 19 -13 31 -14 67 -5 24 6 47 11 50 11 3 0 5 -21 3 -47 l-3 -47 -62 3 c-38
1 -63 -2 -63 -8 0 -16 21 -24 33 -12 14 14 27 14 27 1 0 -5 -7 -10 -15 -10 -8
0 -15 -4 -15 -10 0 -5 -17 -10 -39 -10 -34 0 -38 3 -38 25 0 15 5 25 13 25 17
0 19 17 3 22 -7 2 -13 18 -15 36 -3 24 0 32 12 32 12 0 14 5 9 18 -26 61 -25
62 69 62 l86 0 0 -35z m390 16 c0 -11 -4 -23 -10 -26 -16 -10 -12 -35 5 -35
22 0 15 -51 -10 -72 -20 -17 -20 -17 4 -18 15 0 21 -5 18 -14 -3 -7 1 -23 9
-35 14 -20 14 -21 -8 -21 -27 0 -56 -49 -37 -61 8 -5 8 -13 -1 -29 -10 -19
-10 -25 3 -35 14 -10 13 -13 -4 -23 -14 -9 -18 -19 -14 -32 6 -19 1 -20 -164
-20 l-171 0 0 220 0 220 190 0 c181 0 190 -1 190 -19z m1163 -166 c-7 -56 -12
-70 -27 -73 -36 -7 -36 13 -4 106 37 102 45 93 31 -33z m-1630 98 c-7 -2 -19
-2 -25 0 -7 3 -2 5 12 5 14 0 19 -2 13 -5z m576 -92 c42 -28 81 -47 90 -44 11
3 12 2 4 -4 -16 -11 185 -163 215 -163 11 0 27 -3 35 -6 14 -5 13 -8 -1 -25
-9 -10 -24 -19 -32 -19 -9 0 -96 41 -193 91 -181 94 -207 115 -207 171 0 10
-5 18 -11 18 -8 0 -8 5 1 15 7 8 15 15 19 15 3 0 39 -22 80 -49z m-499 -80 l0
-69 -71 -4 c-53 -2 -73 0 -77 11 -3 7 1 17 9 22 11 6 11 11 1 21 -17 17 -15
28 6 29 15 0 14 2 -3 10 -16 7 -13 8 11 4 16 -3 41 -1 55 4 20 8 21 10 5 10
-36 2 6 26 52 30 8 1 12 -19 12 -68z m-173 23 c-3 -3 -12 -4 -19 -1 -8 3 -5 6
6 6 11 1 17 -2 13 -5z m621 -36 c39 -21 42 -26 42 -64 0 -23 3 -56 6 -73 l7
-31 -72 0 c-65 0 -71 2 -71 20 0 11 7 23 15 26 16 6 21 34 6 34 -7 0 -8 51 -2
103 2 13 25 8 69 -15z m1080 -5 c-10 -2 -26 -2 -35 0 -10 3 -2 5 17 5 19 0 27
-2 18 -5z m-180 -52 c2 -19 1 -44 -2 -57 -6 -22 -12 -24 -66 -24 l-60 0 0 60
0 61 63 -3 62 -3 3 -34z m192 -5 c0 -64 -7 -76 -45 -76 -20 0 -35 -6 -39 -15
-3 -9 -18 -15 -36 -15 -20 0 -30 5 -30 15 0 8 -7 15 -15 15 -12 0 -15 13 -15
60 l0 60 90 0 90 0 0 -44z m-980 4 c38 -19 40 -23 40 -65 l0 -45 -44 0 c-42 0
-44 1 -50 38 -9 56 -7 92 4 92 6 0 29 -9 50 -20z m-630 -20 c0 -5 -7 -10 -15
-10 -8 0 -15 5 -15 10 0 6 7 10 15 10 8 0 15 -4 15 -10z m-15 -13 c11 0 35 4
53 8 l32 8 0 -47 0 -46 -66 0 c-60 0 -65 1 -59 20 4 13 0 23 -14 32 -15 9 -17
15 -9 26 6 7 18 10 27 6 9 -4 25 -7 36 -7z m773 -35 c34 -18 62 -34 62 -37 0
-3 -31 -5 -70 -5 l-70 0 0 41 c0 22 3 39 8 37 4 -2 35 -18 70 -36z m1192 -23
c0 -14 -7 -19 -25 -19 -16 0 -25 6 -25 15 0 10 -10 15 -29 15 -20 0 -30 6 -34
19 -7 29 -1 30 58 8 40 -14 55 -25 55 -38z m120 6 c17 -9 30 -18 30 -20 0 -3
-28 -5 -62 -5 -60 0 -61 0 -43 20 22 24 36 25 75 5z m-620 -15 c0 -6 -95 -10
-265 -10 -170 0 -265 4 -265 10 0 6 95 10 265 10 170 0 265 -4 265 -10z m348
-7 c-49 -2 -127 -2 -175 0 -49 1 -9 3 87 3 96 0 136 -2 88 -3z m492 -48 l0
-35 -1300 0 -1300 0 0 35 0 35 1300 0 1300 0 0 -35z m-120 -265 l0 -220 -1180
0 -1180 0 0 220 0 220 1180 0 1180 0 0 -220z m-2295 -835 l0 -600 -22 -3 -23
-3 0 599 c0 329 3 602 7 606 4 4 14 5 23 4 13 -3 15 -69 15 -603z m163 12 l2
-587 -25 0 -25 0 0 583 c0 321 3 587 7 591 4 4 14 5 23 4 13 -3 15 -70 18
-591z m675 586 c3 -5 7 -28 8 -53 4 -42 2 -45 -21 -45 -23 0 -25 4 -28 53 -3
46 -1 52 17 52 11 0 22 -3 24 -7z m170 -1 c3 -4 10 -228 16 -497 6 -270 13
-528 16 -575 l5 -85 -23 27 c-12 16 -27 28 -33 28 -6 0 -20 86 -33 203 -13
111 -40 352 -62 536 -21 184 -39 343 -39 353 0 16 9 18 74 18 41 0 77 -3 79
-8z m155 -44 l-3 -53 -65 0 -65 0 -3 39 c-5 62 0 66 73 66 l66 0 -3 -52z m172
25 c0 -14 -20 -198 -44 -407 -25 -210 -53 -447 -62 -528 -12 -107 -21 -148
-30 -148 -7 0 -18 -9 -24 -20 -13 -25 -33 -27 -26 -2 2 9 10 262 16 562 6 300
13 551 15 558 3 8 28 12 80 12 75 0 75 0 75 -27z m64 18 c3 -4 2 -28 -2 -52
-6 -35 -12 -45 -30 -47 -20 -3 -22 1 -22 46 0 27 3 52 7 55 9 10 41 9 47 -2z
m704 -584 l2 -587 -25 0 -25 0 0 583 c0 321 3 587 7 591 4 4 14 5 23 4 13 -3
15 -70 18 -591z m172 -12 c0 -598 0 -605 -20 -605 -20 0 -20 7 -20 605 0 598
0 605 20 605 20 0 20 -7 20 -605z m-800 499 c0 -2 -16 -4 -36 -4 -19 0 -33 4
-30 8 5 8 66 4 66 -4z m-618 -44 c5 -30 4 -30 -44 -30 -47 0 -48 1 -48 30 0
29 2 30 44 30 41 0 44 -2 48 -30z m308 0 l0 -30 -70 0 c-67 0 -70 1 -70 23 0
34 6 37 77 37 l63 0 0 -30z m310 0 l0 -30 -70 0 -70 0 0 30 0 30 70 0 70 0 0
-30z m-612 -67 c3 -19 -1 -23 -22 -23 -21 0 -26 5 -26 26 0 21 4 25 23 22 14
-2 23 -11 25 -25z m300 0 c3 -22 0 -23 -62 -23 -65 0 -83 9 -72 36 4 12 20 14
68 12 57 -3 63 -5 66 -25z m252 2 c0 -23 -4 -25 -45 -25 -37 0 -45 3 -45 18 0
27 9 32 52 32 34 0 38 -3 38 -25z m-252 -62 c-3 -27 -6 -28 -64 -31 -59 -3
-62 -2 -66 22 -3 14 -3 28 0 31 3 3 34 5 69 5 64 0 64 0 61 -27z m-98 -268 c0
-124 -4 -225 -9 -225 -13 0 -21 108 -21 286 0 139 2 164 15 164 13 0 15 -32
15 -225z m88 3 l-3 -223 -37 -3 -38 -3 0 225 0 226 40 0 40 0 -2 -222z m-8
-253 c0 -11 -12 -15 -45 -15 -33 0 -45 4 -45 15 0 11 12 15 45 15 33 0 45 -4
45 -15z m0 -115 l0 -90 -45 0 -45 0 0 90 0 90 45 0 45 0 0 -90z m181 34 c30
-8 91 -26 137 -40 l82 -25 0 -39 c0 -22 -4 -40 -10 -40 -5 0 -10 14 -10 30 l0
30 -85 0 c-68 0 -85 3 -85 15 0 8 -22 26 -50 40 -27 14 -50 30 -50 35 0 13 7
13 71 -6z m-381 -6 c0 -7 -16 -23 -35 -36 -19 -12 -35 -27 -35 -32 0 -6 -36
-10 -85 -10 l-85 0 0 -36 c0 -21 -4 -33 -10 -29 -5 3 -10 24 -10 45 l0 39 73
21 c39 12 90 27 112 35 51 17 75 18 75 3z m357 -33 c46 -28 58 -51 21 -41 -13
3 -35 6 -50 6 -24 0 -28 4 -28 30 0 17 3 30 7 30 3 0 26 -11 50 -25z m-357
-14 c0 -11 -9 -21 -22 -25 -36 -9 -44 10 -12 28 36 19 34 19 34 -3z m-246
-158 c10 -26 -23 -48 -42 -29 -8 8 -12 22 -9 30 8 21 43 20 51 -1z m844 -7 c4
-21 -14 -37 -35 -29 -14 5 -18 35 -6 47 12 12 38 1 41 -18z m-643 -31 c0 -22
-31 -33 -47 -17 -17 17 -1 44 24 40 15 -2 23 -10 23 -23z m450 0 c0 -23 -34
-33 -45 -14 -13 20 1 40 24 37 13 -2 21 -10 21 -23z m-345 -30 c7 -9 10 -18 6
-22 -9 -10 -58 16 -51 27 9 15 31 12 45 -5z m225 5 c7 -11 -42 -37 -51 -27 -9
9 15 37 32 37 7 0 16 -4 19 -10z m-217 -33 c17 0 32 -4 32 -7 0 -9 -62 -20
-109 -20 -34 0 -34 0 -15 21 13 14 24 18 39 13 11 -4 35 -7 53 -7z m257 -7
c18 -20 17 -20 -16 -20 -51 0 -109 11 -109 21 0 5 13 6 29 3 16 -3 37 -1 48 5
25 14 27 14 48 -9z"/>
<path d="M1728 3315 c-3 -14 -1 -25 3 -25 5 0 9 11 9 25 0 14 -2 25 -4 25 -2
0 -6 -11 -8 -25z"/>
<path d="M1740 3260 c-8 -5 -24 -7 -35 -4 -18 4 -18 4 -3 -6 16 -10 58 1 58
15 0 7 -3 6 -20 -5z"/>
<path d="M904 2593 c4 -5 41 -15 82 -24 68 -15 79 -15 115 -1 21 8 39 19 39
24 0 4 -55 8 -122 8 -67 0 -118 -3 -114 -7z m182 -18 c-12 -9 -30 -12 -50 -8
-57 10 -52 23 10 23 53 -1 57 -2 40 -15z"/>
<path d="M810 2482 c0 -4 36 -15 79 -24 73 -16 83 -16 120 -1 23 9 41 19 41
24 0 4 -54 7 -120 8 -66 0 -120 -3 -120 -7z m190 -13 c0 -12 -30 -18 -60 -12
-44 8 -36 18 15 18 25 0 45 -3 45 -6z"/>
<path d="M915 2410 c11 -4 49 -14 86 -20 60 -12 68 -11 105 8 l39 21 -125 0
c-76 0 -117 -4 -105 -9z m170 -10 c-7 -12 -49 -12 -85 0 -19 6 -11 8 33 9 36
1 56 -3 52 -9z"/>
<path d="M845 2310 c11 -4 49 -14 86 -20 60 -12 68 -11 105 8 l39 21 -125 0
c-76 0 -117 -4 -105 -9z m170 -10 c-7 -12 -49 -12 -85 0 -19 6 -11 8 33 9 36
1 56 -3 52 -9z"/>
<path d="M4304 3612 c-45 -29 -66 -81 -63 -155 1 -37 -3 -73 -11 -90 -12 -25
-12 -33 5 -63 18 -33 18 -37 1 -89 -9 -30 -28 -68 -43 -85 -14 -17 -24 -33
-21 -35 2 -2 24 -12 48 -23 l44 -19 -49 -12 c-110 -27 -128 -41 -205 -156 -40
-59 -76 -121 -81 -137 -10 -35 9 -80 41 -101 27 -16 26 -23 -17 -75 l-37 -45
30 -23 c16 -13 32 -24 37 -24 4 0 7 -22 7 -50 0 -28 -5 -50 -10 -50 -10 0
-111 50 -139 69 -13 8 -13 12 0 27 11 13 11 18 2 21 -15 5 -18 43 -4 43 6 0 9
8 9 18 -1 9 16 45 36 80 21 35 36 66 33 68 -3 3 -22 -26 -44 -65 l-38 -71
-310 -2 -310 -3 -3 -42 c-2 -24 -7 -43 -13 -43 -12 0 -12 -87 1 -95 6 -3 10
-21 10 -40 0 -19 -4 -37 -10 -40 -5 -3 -10 -24 -10 -45 l0 -39 -47 -3 -48 -3
0 -45 0 -45 58 -3 57 -3 1 -212 c1 -117 1 -216 0 -220 -1 -4 6 -10 14 -13 13
-5 15 -81 15 -610 l0 -604 30 0 30 0 0 605 0 605 50 0 50 0 0 -596 0 -595 33
3 32 3 3 593 2 592 299 0 299 0 4 -35 c3 -24 -1 -39 -14 -49 -30 -26 -17 -106
17 -106 7 0 15 -10 17 -22 2 -18 11 -24 35 -26 28 -3 32 -7 37 -40 13 -81 66
-565 62 -569 -2 -2 -60 -20 -130 -40 l-126 -36 0 -48 c0 -42 -3 -49 -19 -49
-35 0 -49 -57 -24 -97 19 -32 53 -29 86 7 l29 30 -20 32 c-11 18 -19 44 -18
58 3 24 5 25 84 28 l82 3 0 -46 c0 -38 -3 -45 -19 -45 -35 0 -49 -57 -24 -97
19 -32 53 -29 86 7 29 31 29 39 -5 76 -28 31 -22 98 9 102 25 4 28 -5 38 -98
5 -53 4 -56 -35 -98 -55 -59 -47 -76 34 -67 95 10 94 8 88 125 l-5 100 47 0
46 0 0 -104 c0 -117 -5 -111 89 -122 81 -9 89 9 34 69 -39 43 -39 43 -32 102
4 33 8 68 8 78 1 13 10 17 46 17 l45 0 0 -44 c0 -39 -3 -45 -22 -48 -20 -3
-23 -9 -23 -53 0 -45 3 -50 27 -59 21 -7 32 -5 56 15 38 30 40 53 6 84 -20 19
-25 31 -22 62 l3 38 83 3 82 3 0 -30 c0 -22 -6 -30 -24 -35 -21 -5 -24 -11
-22 -51 2 -68 52 -89 94 -40 27 31 28 57 2 80 -11 10 -20 26 -19 34 1 9 1 30
0 47 -1 33 2 32 -233 99 -57 16 -58 17 -57 53 0 57 44 410 51 417 4 4 28 -3
53 -14 56 -25 65 -26 65 -7 0 15 -10 19 -68 31 -41 8 -53 31 -44 86 l7 44 50
5 c42 4 50 8 53 28 2 13 10 22 21 22 28 0 43 25 39 67 -3 36 -5 38 -40 41 -37
3 -38 4 -38 43 l0 39 320 0 320 0 0 -595 0 -595 30 0 30 0 0 595 0 595 55 0
55 0 0 -605 0 -605 35 0 35 0 0 605 c0 397 3 605 10 605 6 0 10 82 10 225 l0
225 60 0 60 0 0 50 0 50 -440 0 -440 0 0 24 c0 13 3 43 6 68 6 41 9 46 55 67
57 26 84 67 75 115 -3 17 -33 78 -66 135 -33 57 -60 111 -60 120 0 9 -34 66
-75 126 -82 118 -107 139 -187 150 -27 4 -50 10 -53 14 -2 4 18 18 45 30 28
13 50 26 50 31 0 4 -11 27 -24 51 -34 62 -42 112 -22 141 21 30 20 75 -1 89
-15 9 -17 22 -15 73 7 122 -32 162 -167 172 -54 4 -72 2 -97 -14z m179 -93
c42 -19 60 -63 52 -127 l-7 -57 19 24 c22 27 43 21 43 -10 0 -27 -18 -59 -33
-59 -7 0 -20 -20 -30 -45 -24 -58 -78 -105 -119 -105 -38 0 -100 60 -117 113
-7 19 -20 37 -30 40 -23 6 -36 54 -20 73 8 10 16 11 29 4 13 -7 20 -6 24 5 3
8 1 15 -4 15 -6 0 -10 8 -10 18 0 13 12 22 39 31 22 6 61 29 88 51 26 21 49
39 50 39 1 1 13 -4 26 -10z m-66 -389 c17 0 35 5 38 10 12 20 21 9 34 -40 8
-32 22 -56 38 -68 l25 -19 -73 -46 c-40 -26 -78 -47 -85 -47 -13 0 -137 95
-142 109 -2 5 10 13 26 19 22 8 33 20 42 49 6 21 13 44 16 51 3 11 8 10 26 -2
12 -9 37 -16 55 -16z m-166 -116 c26 -32 128 -104 146 -104 11 0 55 24 98 54
84 58 104 61 167 30 38 -19 178 -224 178 -261 0 -30 -24 -73 -41 -73 -5 0 -9
34 -9 75 l0 75 -400 0 -399 0 -3 -82 -3 -83 -22 25 c-41 43 -32 79 54 206 71
106 80 115 127 133 63 25 90 26 107 5z m-229 -474 c-2 -165 -6 -259 -12 -255
-16 10 -13 515 3 515 9 0 11 -57 9 -260z m758 5 c0 -140 -3 -255 -7 -255 -5 0
-8 115 -8 255 0 140 3 255 8 255 4 0 7 -115 7 -255z m-22 -2 l-3 -238 -362 -3
-363 -2 0 240 0 240 365 0 365 0 -2 -237z m150 69 c60 -106 70 -143 47 -178
-15 -23 -128 -84 -155 -84 -5 0 -10 24 -10 53 l0 53 46 22 45 22 -18 24 c-10
13 -31 40 -47 60 l-28 36 26 31 c14 17 26 35 26 40 0 26 23 0 68 -79z m-920
-97 c-3 -25 -3 -25 -30 -7 l-27 18 27 34 27 35 3 -28 c2 -15 2 -38 0 -52z
m845 29 c16 -19 27 -37 25 -38 -10 -9 -48 -26 -57 -26 -6 0 -11 21 -11 50 0
28 3 50 8 50 4 0 20 -16 35 -36z m-1593 -24 c0 -22 -4 -40 -10 -40 -5 0 -10
18 -10 40 0 22 5 40 10 40 6 0 10 -18 10 -40z m140 0 l0 -40 -45 0 -45 0 0 40
0 40 45 0 45 0 0 -40z m40 5 l0 -35 208 -3 207 -3 -220 1 -220 0 -3 23 c-4 29
4 52 18 52 5 0 10 -16 10 -35z m-140 -5 c0 -16 -5 -30 -10 -30 -14 0 -24 26
-16 45 10 26 26 16 26 -15z m540 0 c0 -19 -7 -20 -195 -20 -188 0 -195 1 -195
20 0 19 7 20 195 20 188 0 195 -1 195 -20z m-600 -91 c0 -24 -4 -38 -10 -34
-5 3 -10 22 -10 41 0 19 5 34 10 34 6 0 10 -18 10 -41z m138 4 c-3 -37 -4 -38
-45 -41 l-43 -3 0 40 0 41 46 0 45 0 -3 -37z m42 3 c0 -24 5 -36 18 -40 9 -2
4 -4 -13 -3 -27 2 -30 6 -33 40 -2 28 0 37 12 37 11 0 16 -10 16 -34z m-140
-1 c0 -16 -6 -25 -15 -25 -9 0 -15 9 -15 25 0 16 6 25 15 25 9 0 15 -9 15 -25z
m535 0 c0 -19 -8 -20 -192 -23 l-193 -2 0 25 0 25 193 -2 c184 -3 192 -4 192
-23z m108 -33 l77 -43 0 -70 0 -69 -73 0 c-96 0 -122 24 -77 72 13 15 17 25
10 32 -13 13 -13 43 0 48 6 2 2 13 -10 25 -19 21 -28 58 -12 51 4 -1 42 -22
85 -46z m-181 -9 c-51 -2 -132 -2 -180 0 -48 1 -6 3 93 3 99 0 138 -2 87 -3z
m-482 -48 c0 -19 -4 -35 -10 -35 -5 0 -10 16 -10 35 0 19 5 35 10 35 6 0 10
-16 10 -35z m140 0 c0 -35 0 -35 -45 -35 -45 0 -45 0 -45 35 0 35 0 35 45 35
45 0 45 0 45 -35z m42 0 c3 -29 1 -35 -14 -35 -14 0 -18 8 -18 35 0 23 5 35
14 35 8 0 15 -14 18 -35z m-142 0 c0 -16 -6 -25 -15 -25 -9 0 -15 9 -15 25 0
16 6 25 15 25 9 0 15 -9 15 -25z m538 3 c-3 -23 -4 -23 -193 -23 -189 0 -190
0 -193 23 l-3 22 196 0 196 0 -3 -22z m1015 -70 c-5 -48 -9 -58 -24 -58 -12 0
-19 7 -19 20 0 16 -7 20 -32 21 l-33 1 30 7 c22 4 31 13 33 31 4 27 32 55 43
43 4 -5 4 -34 2 -65z m-1613 -18 c0 -22 -4 -40 -10 -40 -11 0 -14 63 -3 73 11
12 13 8 13 -33z m138 -2 l3 -38 -45 0 c-45 0 -46 0 -46 33 0 43 6 49 50 45 33
-3 35 -5 38 -40z m44 2 c3 -33 0 -40 -14 -40 -14 0 -18 8 -18 33 0 60 26 66
32 7z m-142 0 c0 -20 -5 -30 -15 -30 -15 0 -21 40 -8 53 14 15 23 6 23 -23z
m1458 2 c2 -15 -2 -22 -12 -22 -11 0 -16 9 -16 26 0 31 23 28 28 -4z m-918 -2
c0 -19 -7 -20 -195 -20 -188 0 -195 1 -195 20 0 19 7 20 195 20 188 0 195 -1
195 -20z m260 4 c0 -2 -16 -4 -35 -4 -19 0 -35 4 -35 8 0 4 16 6 35 4 19 -2
35 -6 35 -8z m40 -4 c0 -11 -7 -20 -15 -20 -8 0 -15 9 -15 20 0 11 7 20 15 20
8 0 15 -9 15 -20z m128 3 c-21 -2 -57 -2 -80 0 -24 2 -7 4 37 4 44 0 63 -2 43
-4z m375 0 c-46 -2 -120 -2 -165 0 -46 1 -9 3 82 3 91 0 128 -2 83 -3z m-543
-23 c0 -5 9 -10 19 -10 11 0 23 5 26 10 4 6 112 10 291 10 183 0 284 -4 284
-10 0 -5 9 -10 19 -10 11 0 23 5 26 10 10 16 55 12 55 -5 0 -13 -50 -15 -390
-15 -340 0 -390 2 -390 15 0 10 10 15 30 15 17 0 30 -4 30 -10z m1648 -67 l-3
-38 -1300 0 -1300 0 -3 23 c-8 56 -100 52 1308 52 l1301 0 -3 -37z m-120 -270
l-3 -218 -1177 -3 -1178 -2 0 220 0 220 1180 0 1180 0 -2 -217z m-2298 -833
c0 -593 0 -600 -20 -600 -20 0 -20 7 -20 600 0 593 0 600 20 600 20 0 20 -7
20 -600z m168 13 l-3 -588 -22 -3 -23 -3 0 590 0 591 25 0 25 0 -2 -587z m676
565 c3 -13 6 -35 6 -50 0 -23 -4 -28 -24 -28 -18 0 -25 7 -30 31 -11 57 -8 69
18 69 16 0 26 -7 30 -22z m179 -335 c4 -197 10 -457 14 -578 l6 -220 -32 34
-32 35 -35 300 c-50 445 -84 727 -89 759 l-4 27 83 0 83 0 6 -357z m145 310
l-3 -48 -67 -3 -68 -3 0 51 0 50 71 0 70 0 -3 -47z m172 40 c0 -5 -20 -177
-44 -383 -25 -206 -52 -447 -62 -535 -18 -159 -18 -160 -52 -195 l-34 -35 6
165 c5 132 26 900 26 973 0 15 10 17 80 17 44 0 80 -3 80 -7z m60 -38 c0 -45
0 -45 35 -45 19 0 35 -4 35 -8 0 -7 -53 -8 -70 -2 -3 1 -18 1 -34 0 -27 -2
-29 0 -22 30 3 18 6 41 6 51 0 14 7 19 25 19 23 0 25 -4 25 -45z m700 -545 c0
-583 0 -590 -20 -590 -20 0 -20 7 -20 590 0 583 0 590 20 590 20 0 20 -7 20
-590z m180 -10 l0 -600 -25 0 -25 0 0 600 0 600 25 0 25 0 0 -600z m-1490 506
c0 -3 -4 -8 -10 -11 -5 -3 -10 -1 -10 4 0 6 5 11 10 11 6 0 10 -2 10 -4z m70
-57 c0 -29 -1 -30 -42 -27 -39 3 -43 6 -46 31 -3 26 -2 27 42 27 45 0 46 -1
46 -31z m310 17 c0 -39 -11 -46 -76 -46 l-64 0 0 30 0 30 70 0 c54 0 70 -3 70
-14z m308 -13 c-3 -27 -5 -28 -67 -31 -71 -3 -83 3 -75 36 6 20 12 22 76 22
l69 0 -3 -27z m-608 -63 c0 -16 -7 -20 -30 -20 -23 0 -30 4 -30 20 0 16 7 20
30 20 23 0 30 -4 30 -20z m290 0 c0 -18 -7 -20 -65 -20 -58 0 -65 2 -65 20 0
18 7 20 65 20 58 0 65 -2 65 -20z m260 0 c0 -17 -7 -20 -45 -20 -38 0 -45 3
-45 20 0 17 7 20 45 20 38 0 45 -3 45 -20z m-260 -60 l0 -30 -65 0 c-61 0 -65
1 -65 23 0 34 7 37 72 37 58 0 58 0 58 -30z m-92 -264 c1 -137 -1 -223 -8
-230 -5 -5 -11 -8 -13 -5 -3 2 -7 107 -10 232 -6 211 -5 228 11 225 15 -3 17
-25 20 -222z m90 179 c2 -22 1 -122 -3 -222 l-7 -183 -34 0 -34 0 0 226 0 225
38 -3 c35 -3 37 -5 40 -43z m257 -45 c3 -5 2 -10 -4 -10 -5 0 -13 5 -16 10 -3
6 -2 10 4 10 5 0 13 -4 16 -10z m-267 -387 c2 -9 -11 -13 -47 -13 -48 0 -61 7
-44 24 12 11 86 2 91 -11z m2 -97 c0 -100 -3 -106 -56 -106 l-44 0 0 83 c0 46
3 87 7 90 3 4 26 7 50 7 l43 0 0 -74z m179 15 c36 -11 99 -29 139 -41 l72 -21
-2 -47 c-1 -43 -2 -44 -5 -9 l-4 37 -85 0 c-67 0 -86 3 -91 15 -3 9 -27 27
-54 41 -27 13 -49 29 -49 34 0 13 3 13 79 -9z m-389 -6 c0 -9 -13 -24 -30 -33
-16 -9 -30 -22 -30 -29 0 -8 -27 -13 -87 -15 l-88 -3 -6 -35 c-6 -33 -6 -33
-8 12 l-1 47 58 16 c31 9 84 25 117 35 76 23 75 23 75 5z m398 -65 c4 -10 -7
-11 -44 -5 -27 4 -50 8 -51 8 -1 1 1 15 4 30 l5 28 41 -25 c23 -13 43 -29 45
-36z m-390 13 c-2 -11 -14 -19 -31 -21 -30 -4 -36 12 -9 27 26 16 44 13 40 -6z
m-253 -163 c0 -16 -6 -26 -18 -28 -19 -4 -32 20 -23 44 9 25 41 13 41 -16z
m839 24 c21 -8 20 -40 -1 -48 -9 -4 -23 0 -31 8 -13 12 -13 18 -2 30 14 18 13
18 34 10z m-636 -48 c5 -24 -10 -38 -31 -30 -17 6 -23 35 -10 48 12 12 38 1
41 -18z m452 8 c11 -12 11 -18 -2 -30 -18 -18 -48 -8 -48 15 0 33 28 42 50 15z
m-345 -44 c17 -19 17 -20 -1 -20 -27 0 -48 16 -40 29 10 16 20 14 41 -9z m230
10 c7 -11 -42 -37 -51 -27 -9 9 15 37 32 37 7 0 16 -4 19 -10z m-222 -34 c20
0 37 -3 37 -7 0 -11 -40 -19 -94 -19 -49 0 -49 0 -31 20 12 13 24 18 34 13 9
-4 33 -7 54 -7z m236 -24 c-40 -4 -99 6 -99 17 0 4 13 6 29 3 16 -2 37 1 48 6
13 8 23 6 37 -6 18 -16 17 -17 -15 -20z"/>
<path d="M4340 3400 c-12 -8 -10 -10 8 -10 13 0 20 4 17 10 -7 12 -6 12 -25 0z"/>
<path d="M4455 3400 c-3 -5 3 -10 15 -10 12 0 18 5 15 10 -3 6 -10 10 -15 10
-5 0 -12 -4 -15 -10z"/>
<path d="M4394 3381 c7 -10 31 -9 42 2 4 4 -5 7 -20 7 -15 0 -25 -4 -22 -9z"/>
<path d="M4460 3360 c0 -5 5 -10 10 -10 6 0 10 5 10 10 0 6 -4 10 -10 10 -5 0
-10 -4 -10 -10z"/>
<path d="M4428 3307 c-3 -19 -2 -25 4 -19 6 6 8 18 6 28 -3 14 -5 12 -10 -9z"/>
<path d="M4375 3261 c-3 -6 3 -15 14 -20 23 -13 76 3 66 19 -8 13 -72 13 -80
1z m45 -11 c0 -5 -2 -10 -4 -10 -3 0 -8 5 -11 10 -3 6 -1 10 4 10 6 0 11 -4
11 -10z"/>
</g>
</svg>
