<?xml version="1.0" standalone="no"?>
<!DOCTYPE svg PUBLIC "-//W3C//DTD SVG 20010904//EN"
 "http://www.w3.org/TR/2001/REC-SVG-20010904/DTD/svg10.dtd">
<svg version="1.0" xmlns="http://www.w3.org/2000/svg"
 width="305.000000pt" height="213.000000pt" viewBox="0 0 605.000000 413.000000"
 preserveAspectRatio="none">

<g transform="translate(0.000000,413.000000) scale(0.100000,-0.100000)"
fill="#fff" stroke="none">
<path d="M1754 3079 c-16 -17 -49 -41 -74 -54 -25 -13 -58 -38 -74 -55 -16
-17 -56 -50 -90 -73 -33 -22 -68 -49 -76 -59 -8 -10 -55 -38 -105 -62 -49 -25
-99 -52 -110 -60 -11 -9 30 9 90 40 61 31 124 68 140 83 17 15 49 39 73 55 24
15 61 45 83 67 23 23 56 47 74 55 19 7 49 30 68 49 19 19 41 35 49 35 8 0 33
-14 54 -31 22 -17 58 -40 82 -50 23 -10 45 -26 48 -34 7 -16 102 -70 110 -62
3 2 -10 10 -27 17 -18 8 -52 31 -76 52 -24 21 -49 38 -54 38 -6 0 -36 18 -66
40 -31 22 -64 40 -73 40 -9 0 -29 -14 -46 -31z"/>
<path d="M1781 3064 c0 -11 3 -14 6 -6 3 7 2 16 -1 19 -3 4 -6 -2 -5 -13z"/>
<path d="M1761 3022 c-17 -33 -13 -62 14 -94 53 -63 40 -97 -59 -147 -36 -18
-62 -42 -89 -81 -46 -66 -60 -90 -52 -90 3 0 26 31 50 69 37 58 54 74 98 94
100 48 117 90 62 155 -27 32 -32 71 -13 90 6 6 9 14 6 18 -4 3 -11 -3 -17 -14z"/>
<path d="M1666 2975 c-27 -19 -57 -42 -65 -51 -9 -9 14 5 52 31 37 26 67 48
67 51 0 6 -1 5 -54 -31z"/>
<path d="M1860 2960 c8 -5 20 -10 25 -10 6 0 3 5 -5 10 -8 5 -19 10 -25 10 -5
0 -3 -5 5 -10z"/>
<path d="M1615 2900 c-38 -27 -66 -50 -62 -50 5 0 25 12 45 27 l37 27 -25 -28
c-19 -22 -21 -28 -7 -23 44 17 51 17 27 0 -13 -10 -36 -28 -50 -41 l-25 -23
35 6 c26 5 31 4 20 -4 -8 -6 -10 -11 -5 -11 17 1 45 27 37 35 -4 5 -1 5 5 1 7
-4 29 5 50 20 62 45 61 48 -4 15 -35 -17 -63 -36 -63 -41 0 -5 -7 -7 -16 -3
-14 5 -11 11 16 33 23 19 29 29 21 35 -9 5 -3 17 20 41 47 48 25 42 -56 -16z"/>
<path d="M1912 2940 c9 -6 35 -32 58 -58 23 -26 36 -36 28 -23 -16 29 -79 90
-93 90 -5 0 -2 -4 7 -9z"/>
<path d="M1698 2903 c-21 -8 -35 -19 -32 -24 6 -10 59 14 69 31 8 12 8 12 -37
-7z"/>
<path d="M2151 2891 c24 -15 55 -41 69 -56 29 -31 81 -59 157 -86 30 -10 66
-27 81 -38 16 -11 41 -23 58 -26 20 -5 25 -4 15 3 -11 8 -2 16 40 37 30 15 65
36 78 46 13 11 32 19 41 19 10 0 41 16 70 35 l52 35 44 -39 c25 -22 64 -49 87
-61 23 -11 67 -34 97 -50 30 -16 60 -29 65 -29 6 0 -3 7 -19 16 -28 15 -29 16
-11 29 26 19 36 18 28 -3 -4 -13 3 -10 24 10 16 15 33 27 38 27 5 0 -2 -12
-16 -27 l-24 -28 31 28 c16 15 34 27 40 27 5 0 33 -22 62 -50 29 -27 60 -50
69 -50 9 0 47 -16 84 -35 38 -19 78 -35 89 -35 12 0 34 -8 48 -19 15 -10 43
-21 62 -24 19 -3 44 -8 55 -11 11 -4 7 0 -10 8 -16 8 -39 15 -50 16 -11 0 -33
9 -50 20 -16 11 -40 20 -53 20 -12 0 -46 13 -75 29 -28 16 -71 34 -94 41 -24
6 -43 15 -43 19 0 5 -22 27 -49 50 l-48 41 -64 -22 c-35 -11 -69 -25 -75 -29
-18 -15 -169 69 -204 114 -12 15 -26 27 -31 27 -5 0 -32 -16 -60 -35 -28 -19
-59 -35 -68 -35 -9 0 -29 -9 -46 -21 -16 -11 -57 -34 -89 -50 l-59 -31 -26 20
c-14 10 -51 27 -81 37 -76 25 -141 58 -165 85 -26 29 -95 80 -108 80 -6 0 9
-13 34 -29z"/>
<path d="M2025 2873 c10 -3 31 -12 45 -20 l25 -15 -25 21 c-14 11 -34 20 -45
20 -20 -1 -20 -1 0 -6z"/>
<path d="M1685 2805 c-38 -19 -75 -33 -82 -31 -6 3 -19 -4 -29 -15 -17 -19
-17 -20 1 -13 14 6 16 4 10 -6 -5 -8 9 -3 31 10 21 13 63 37 92 52 28 16 52
31 52 34 0 6 -1 6 -75 -31z"/>
<path d="M2795 2820 c-3 -11 -4 -24 -1 -29 8 -12 -21 -41 -39 -41 -8 0 -21
-10 -29 -22 -9 -12 -26 -28 -38 -35 -13 -7 -17 -12 -10 -13 7 0 25 12 40 27
15 15 40 34 57 43 24 12 30 22 31 53 1 42 -2 46 -11 17z"/>
<path d="M1919 2787 l21 -38 -21 12 c-11 6 -23 9 -25 6 -3 -2 14 -12 38 -22
24 -9 52 -27 63 -39 11 -12 16 -15 10 -6 -5 8 -21 26 -35 40 -14 14 -36 39
-48 55 l-24 30 21 -38z"/>
<path d="M2697 2774 c-15 -8 -25 -19 -22 -24 4 -6 3 -10 -2 -10 -4 0 -19 -9
-33 -20 -14 -11 6 -5 44 15 76 39 94 52 57 40 -16 -5 -21 -4 -17 4 9 14 7 14
-27 -5z"/>
<path d="M1463 2759 c3 -10 -6 -28 -24 -45 -23 -22 -29 -36 -27 -65 1 -31 -4
-41 -36 -70 -21 -19 -49 -40 -62 -47 -13 -7 -24 -15 -24 -18 0 -10 46 20 92
60 40 35 46 44 41 69 -5 23 1 35 27 62 27 28 30 36 20 52 -8 13 -10 14 -7 2z"/>
<path d="M1397 2729 c-9 -6 -14 -15 -11 -21 5 -7 2 -9 -9 -5 -12 4 -15 1 -12
-14 2 -11 0 -17 -5 -14 -6 3 -18 1 -27 -4 -13 -7 -14 -10 -4 -11 8 0 11 -3 8
-7 -4 -3 -2 -12 4 -19 8 -10 3 -17 -20 -29 -17 -8 -31 -18 -31 -20 0 -8 78 33
85 45 3 5 -2 10 -11 10 -16 0 -16 1 2 14 10 8 16 18 11 22 -4 4 3 15 15 23 13
9 24 22 26 29 2 14 2 14 -21 1z"/>
<path d="M1579 2705 c-19 -14 -32 -28 -29 -30 3 -2 -5 -15 -18 -28 -27 -29
-14 -46 15 -19 10 9 13 13 6 8 -8 -5 -16 -6 -19 -3 -3 3 6 13 20 22 14 10 24
21 21 25 -3 5 7 18 22 29 16 11 25 21 22 21 -3 0 -21 -11 -40 -25z"/>
<path d="M2874 2721 c12 -19 97 -71 115 -70 9 0 3 5 -13 11 -21 8 -25 13 -15
19 10 6 8 9 -9 9 -13 0 -38 10 -55 22 -17 12 -27 16 -23 9z"/>
<path d="M2646 2695 c-11 -8 -15 -15 -9 -15 6 0 16 7 23 15 16 19 11 19 -14 0z"/>
<path d="M864 2678 l-19 -23 23 19 c21 18 27 26 19 26 -2 0 -12 -10 -23 -22z"/>
<path d="M2160 2685 c25 -8 49 -20 55 -27 29 -38 156 -100 171 -85 3 2 -15 9
-40 16 -24 6 -67 29 -95 51 -53 42 -90 60 -119 59 -9 0 3 -7 28 -14z"/>
<path d="M809 2688 c-7 -25 -7 -48 0 -43 6 3 9 14 8 25 -1 17 -5 26 -8 18z"/>
<path d="M1160 2680 c-9 -6 -10 -10 -3 -10 6 0 15 5 18 10 8 12 4 12 -15 0z"/>
<path d="M3210 2683 c0 -6 8 -17 18 -24 16 -13 16 -13 2 6 -8 11 -16 22 -17
24 -2 2 -3 0 -3 -6z"/>
<path d="M2356 2663 c-5 -6 117 -54 134 -52 4 0 -120 59 -125 59 -1 0 -5 -3
-9 -7z"/>
<path d="M2588 2658 c6 -6 18 -8 28 -6 14 3 12 5 -9 10 -19 3 -25 2 -19 -4z"/>
<path d="M745 2650 c-3 -5 -2 -10 4 -10 5 0 13 5 16 10 3 6 2 10 -4 10 -5 0
-13 -4 -16 -10z"/>
<path d="M1830 2638 c13 -13 37 -30 54 -38 46 -23 40 -49 -18 -79 -28 -14 -51
-31 -53 -37 -2 -6 13 -21 33 -34 24 -13 33 -16 25 -6 -7 8 -22 18 -33 22 -18
6 -19 7 -2 25 9 10 23 19 30 19 7 0 27 12 44 26 l31 27 -22 23 c-12 13 -28 24
-34 24 -6 0 -22 11 -35 25 -13 14 -28 25 -34 25 -5 0 1 -10 14 -22z"/>
<path d="M115 2639 c-4 -6 -17 -14 -29 -19 l-21 -9 23 0 c12 -1 22 4 22 10 0
7 10 9 25 7 30 -6 32 -2 6 12 -14 7 -22 7 -26 -1z"/>
<path d="M2648 2643 c6 -2 18 -2 25 0 6 3 1 5 -13 5 -14 0 -19 -2 -12 -5z"/>
<path d="M1310 2625 c-14 -16 -3 -20 19 -6 8 5 9 11 3 15 -5 3 -15 -1 -22 -9z"/>
<path d="M1775 2614 c-29 -25 -29 -25 -5 -19 25 7 25 7 -5 -25 -24 -26 -26
-31 -10 -26 11 5 27 10 35 13 8 4 -6 -11 -32 -31 -73 -56 -57 -52 22 6 39 28
69 53 67 55 -2 2 -17 -1 -33 -7 l-29 -10 24 20 23 20 -22 0 c-19 0 -20 2 -10
15 18 22 9 18 -25 -11z"/>
<path d="M2735 2625 c27 -8 51 -12 53 -10 5 5 -69 25 -88 24 -8 0 7 -7 35 -14z"/>
<path d="M5 2610 c-3 -6 1 -7 9 -4 18 7 21 14 7 14 -6 0 -13 -4 -16 -10z"/>
<path d="M680 2613 c-8 -3 -35 -15 -60 -26 -77 -34 -95 -37 -108 -16 -15 23
-45 25 -62 4 -11 -14 -17 -13 -47 5 -43 25 -59 25 -108 0 -22 -11 -47 -17 -58
-14 -10 3 -24 1 -32 -6 -14 -12 -31 3 -21 19 3 5 0 14 -7 20 -11 8 -13 4 -9
-19 5 -36 18 -46 37 -30 17 14 45 6 45 -12 1 -7 8 -22 18 -33 19 -24 90 -31
107 -11 5 7 32 29 58 50 47 38 77 42 77 11 0 -17 38 -35 76 -35 16 0 24 -6 24
-17 0 -10 15 -26 32 -36 32 -18 33 -18 49 2 10 12 23 21 30 21 6 0 18 8 25 18
12 16 14 16 46 -2 18 -11 37 -25 41 -33 9 -15 36 -17 57 -3 11 8 8 9 -12 4
-18 -4 -32 0 -46 13 -54 49 -71 54 -92 28 -7 -8 -18 -15 -25 -15 -7 0 -19 -10
-27 -22 -14 -20 -15 -20 -40 -4 -14 9 -28 26 -31 36 -4 14 -14 20 -35 20 -38
0 -50 16 -19 24 28 7 156 65 142 65 -5 0 -17 -3 -25 -6z m-285 -40 c33 -16 34
-18 18 -35 -9 -10 -22 -18 -28 -18 -7 0 -15 -6 -18 -14 -4 -9 -19 -14 -41 -13
-38 1 -43 6 -26 23 7 7 4 10 -11 10 -37 -2 -32 22 8 43 47 25 54 25 98 4z"/>
<path d="M730 2585 c-9 -11 -6 -13 14 -11 34 4 42 12 17 19 -11 3 -25 -1 -31
-8z"/>
<path d="M1324 2578 c-41 -30 -52 -42 -29 -30 26 15 72 51 64 52 -4 0 -19 -10
-35 -22z"/>
<path d="M2840 2589 c26 -17 70 -40 70 -35 0 5 -69 46 -78 46 -4 0 0 -5 8 -11z"/>
<path d="M1100 2580 c8 -5 20 -10 25 -10 6 0 3 5 -5 10 -8 5 -19 10 -25 10 -5
0 -3 -5 5 -10z"/>
<path d="M4215 2569 c-22 -12 -58 -27 -80 -34 -22 -8 -31 -14 -20 -14 11 0 49
12 84 28 69 31 80 31 124 -6 28 -23 40 -27 65 -24 7 1 30 -8 50 -19 l37 -22
-30 26 c-18 16 -42 26 -61 26 -20 0 -45 11 -69 30 -45 36 -49 36 -100 9z"/>
<path d="M1835 2540 c-3 -6 1 -7 9 -4 18 7 21 14 7 14 -6 0 -13 -4 -16 -10z"/>
<path d="M3478 2543 c7 -3 16 -2 19 1 4 3 -2 6 -13 5 -11 0 -14 -3 -6 -6z"/>
<path d="M4033 2542 c-8 -5 2 -8 25 -9 28 0 32 1 17 7 -26 11 -28 11 -42 2z"/>
<path d="M1562 2528 c-5 -7 -16 -26 -25 -43 -8 -16 -25 -40 -37 -52 -11 -13
-17 -23 -12 -23 13 0 34 27 66 83 26 45 30 61 8 35z"/>
<path d="M3288 2533 c6 -2 18 -2 25 0 6 3 1 5 -13 5 -14 0 -19 -2 -12 -5z"/>
<path d="M3518 2533 c7 -3 16 -2 19 1 4 3 -2 6 -13 5 -11 0 -14 -3 -6 -6z"/>
<path d="M4261 2518 c0 -16 -8 -29 -19 -32 -10 -4 -34 -23 -53 -43 -33 -36
-14 -28 27 12 11 11 28 25 38 30 12 7 17 18 13 35 -4 25 -4 25 -6 -2z"/>
<path d="M1765 2495 c-72 -50 -102 -75 -88 -75 22 0 43 12 36 23 -3 6 -1 7 5
3 17 -10 16 -13 -25 -41 -21 -14 -34 -25 -30 -25 13 0 129 81 124 87 -3 2 -15
-1 -27 -7 -46 -24 -39 -3 9 28 44 29 59 42 48 42 -1 0 -25 -16 -52 -35z"/>
<path d="M3365 2516 l40 -13 -30 -4 c-20 -3 3 -10 70 -21 55 -9 101 -15 103
-13 5 5 -191 65 -208 64 -8 0 3 -6 25 -13z m68 -23 c-7 -2 -19 -2 -25 0 -7 3
-2 5 12 5 14 0 19 -2 13 -5z"/>
<path d="M3576 2516 c50 -22 82 -27 39 -7 -22 11 -47 20 -55 20 -8 0 -1 -6 16
-13z"/>
<path d="M3730 2509 c59 -30 163 -30 235 0 28 11 44 20 37 21 -7 0 -28 -6 -47
-14 -59 -25 -135 -30 -185 -11 -73 27 -88 28 -40 4z"/>
<path d="M4163 2520 c-30 -12 -29 -15 8 -16 17 -1 25 2 19 6 -9 6 -9 9 1 13 8
3 10 5 4 6 -5 0 -20 -4 -32 -9z"/>
<path d="M3105 2511 c-15 -7 -6 -10 38 -16 32 -4 61 -5 64 -1 4 3 -11 7 -33 8
-28 1 -21 3 26 8 l65 7 -70 1 c-38 0 -79 -3 -90 -7z"/>
<path d="M3288 2503 c12 -2 30 -2 40 0 9 3 -1 5 -23 4 -22 0 -30 -2 -17 -4z"/>
<path d="M4132 2470 c-37 -35 -35 -37 15 -10 21 11 45 20 53 21 10 0 9 3 -5 9
-29 13 -29 13 -63 -20z"/>
<path d="M3228 2483 c7 -3 16 -2 19 1 4 3 -2 6 -13 5 -11 0 -14 -3 -6 -6z"/>
<path d="M3955 2482 c-18 -13 -15 -32 6 -32 13 0 18 -4 13 -12 -5 -8 0 -7 11
2 18 14 17 15 -4 18 -22 3 -22 4 -4 17 14 11 15 14 3 15 -8 0 -19 -4 -25 -8z"/>
<path d="M4602 2468 c-20 -20 -25 -21 -54 -9 -56 22 -75 24 -30 2 45 -22 50
-31 27 -55 -8 -8 -15 -24 -15 -35 0 -15 -6 -21 -23 -21 -24 0 -57 -27 -57 -47
0 -21 -35 -41 -65 -36 -21 3 -34 14 -45 36 -13 28 -19 32 -50 29 -19 -2 -39
-9 -45 -16 -5 -7 -17 -15 -25 -19 -12 -4 -11 -6 3 -6 10 -1 20 5 23 13 3 8 13
15 22 15 9 0 26 1 37 3 15 2 22 -5 30 -29 8 -28 14 -33 38 -33 25 0 29 -3 24
-22 -5 -18 1 -15 28 15 19 21 35 44 35 51 0 18 20 33 50 38 16 2 26 10 28 24
2 11 22 42 46 68 l43 48 37 -17 c25 -12 40 -15 47 -8 7 7 20 6 40 -4 28 -14
33 -27 30 -65 -1 -10 7 -18 21 -20 21 -3 23 -8 22 -50 -2 -43 1 -48 20 -48 19
0 46 -37 46 -63 0 -6 6 -15 14 -21 18 -13 6 -93 -15 -107 -18 -11 28 -22 72
-16 31 3 30 4 -9 5 -38 2 -42 4 -38 25 16 79 17 97 1 103 -8 3 -15 15 -15 25
0 10 -4 19 -9 19 -5 0 -11 9 -14 20 -3 12 -14 20 -26 20 -28 0 -26 16 4 44 14
13 25 28 25 35 0 17 57 13 64 -4 9 -23 35 -18 46 10 5 14 16 25 24 25 8 0 18
9 21 20 3 11 12 20 19 20 7 0 21 9 31 20 10 11 13 20 8 20 -6 0 -13 -7 -17
-15 -3 -8 -12 -15 -20 -15 -9 0 -20 -9 -26 -20 -14 -26 -25 -25 -84 6 -35 19
-55 24 -75 18 -48 -13 -75 -13 -91 -1 -33 26 -57 35 -72 26 -10 -6 -26 -4 -44
6 -37 19 -35 19 -62 -7z m343 -53 c33 -20 42 -30 38 -45 -6 -24 -28 -26 -37
-5 -8 23 -67 20 -73 -4 -3 -11 -13 -21 -24 -24 -14 -4 -18 0 -16 16 1 16 -4
23 -19 25 -33 5 -20 42 15 42 14 0 33 5 41 10 21 14 27 13 75 -15z"/>
<path d="M401 2467 c0 -10 7 -20 17 -23 9 -3 25 -10 34 -15 10 -5 23 -9 30 -9
7 0 0 7 -16 15 -15 8 -34 15 -41 15 -8 0 -16 8 -18 18 -4 16 -5 16 -6 -1z"/>
<path d="M3278 2473 c7 -3 16 -2 19 1 4 3 -2 6 -13 5 -11 0 -14 -3 -6 -6z"/>
<path d="M5730 2465 c-7 -8 -20 -15 -29 -15 -10 0 -28 -11 -41 -25 -13 -14
-18 -25 -12 -25 6 0 16 9 22 21 7 12 18 18 26 15 8 -3 22 3 31 14 22 25 27 25
64 -2 19 -14 41 -22 60 -20 25 3 29 0 29 -22 0 -14 5 -26 10 -26 6 0 15 -11
20 -24 6 -17 15 -23 27 -20 12 3 21 -3 28 -17 6 -12 17 -25 25 -29 8 -4 25
-12 38 -19 12 -6 22 -7 22 -2 0 5 -16 15 -36 21 -22 8 -39 21 -45 37 -7 19
-15 24 -29 20 -15 -4 -20 0 -20 13 0 10 -6 20 -14 23 -8 3 -16 16 -18 29 -2
19 -11 24 -45 29 -23 3 -51 13 -61 22 -23 21 -36 21 -52 2z"/>
<path d="M919 2455 c5 -12 21 -27 36 -35 22 -12 28 -12 42 3 10 9 12 17 6 17
-6 0 -13 -5 -15 -11 -4 -13 -43 5 -66 31 -11 13 -12 12 -3 -5z"/>
<path d="M1420 2460 c-12 -8 -12 -10 5 -11 11 0 1 -7 -24 -16 -31 -11 -39 -18
-30 -24 8 -5 10 -9 4 -9 -5 0 -27 -4 -48 -9 -35 -8 -41 -7 -64 19 -21 24 -32
28 -72 27 -27 -1 -55 -8 -65 -16 -13 -11 -19 -11 -31 -1 -8 7 -21 10 -30 7 -8
-4 -17 -2 -20 3 -4 6 -11 10 -18 10 -6 0 -2 -6 8 -14 11 -8 23 -12 27 -10 4 3
17 0 28 -6 16 -9 25 -8 36 1 9 7 36 14 61 15 40 1 50 -3 73 -28 17 -18 32 -26
42 -23 9 4 19 2 23 -4 3 -6 22 -11 41 -11 19 0 34 -5 34 -10 0 -12 29 -24 78
-33 21 -4 31 -3 27 3 -3 6 -19 10 -35 10 -16 0 -41 11 -57 24 -21 17 -37 23
-58 19 -22 -3 -26 -2 -15 5 26 17 63 25 56 13 -9 -14 -9 -14 38 3 36 13 37 13
12 18 -14 3 -23 1 -20 -3 6 -10 -4 -10 -29 0 -14 5 -4 11 40 25 47 15 54 20
38 27 -27 10 -37 10 -55 -1z"/>
<path d="M3328 2463 c7 -3 16 -2 19 1 4 3 -2 6 -13 5 -11 0 -14 -3 -6 -6z"/>
<path d="M5133 2456 c2 -6 17 -11 34 -11 39 0 34 11 -7 17 -19 3 -29 1 -27 -6z"/>
<path d="M3375 2450 c27 -12 43 -12 25 0 -8 5 -22 9 -30 9 -10 0 -8 -3 5 -9z"/>
<path d="M7 2443 c-13 -12 -7 -25 7 -14 10 9 17 7 27 -5 9 -11 23 -14 46 -11
18 3 35 1 38 -4 4 -5 11 -9 18 -9 6 0 2 6 -8 14 -12 9 -32 12 -52 9 -24 -4
-34 -1 -39 11 -6 16 -25 21 -37 9z"/>
<path d="M1723 2397 c-34 -23 -60 -43 -58 -45 4 -4 125 78 125 84 0 6 -2 5
-67 -39z"/>
<path d="M4110 2425 c-14 -8 -20 -14 -15 -14 6 0 21 6 35 14 14 8 21 14 15 14
-5 0 -21 -6 -35 -14z"/>
<path d="M4395 2414 c39 -13 75 -24 80 -23 6 0 -3 5 -20 11 -16 6 -37 16 -45
23 -8 7 -31 13 -50 13 -30 0 -25 -3 35 -24z"/>
<path d="M5190 2421 c0 -5 7 -14 15 -21 8 -7 15 -21 15 -32 0 -16 5 -19 25
-14 18 5 27 1 35 -14 6 -11 8 -25 5 -30 -4 -6 -3 -19 0 -30 5 -15 14 -19 45
-17 21 1 36 5 33 9 -2 5 -18 7 -36 5 -40 -3 -51 28 -15 42 16 7 18 10 6 10 -9
1 -23 10 -32 22 -10 15 -20 19 -35 14 -16 -5 -21 -2 -21 12 0 10 -9 26 -20 36
-11 9 -20 13 -20 8z"/>
<path d="M2782 2413 c155 -4 170 -10 148 -63 -24 -59 -127 -128 -262 -175
l-76 -27 -162 26 c-89 14 -171 26 -183 25 -12 0 59 -14 158 -30 99 -16 222
-35 274 -44 95 -15 140 -14 60 2 l-43 9 80 41 c87 46 180 128 190 170 4 14 2
34 -4 44 -11 17 -6 18 66 22 42 1 -26 3 -153 3 -126 0 -169 -2 -93 -3z m143
-108 c-46 -56 -81 -83 -172 -130 -45 -23 -82 -35 -100 -33 -23 2 -15 8 52 36
114 46 200 104 227 152 13 22 25 35 26 29 2 -5 -13 -30 -33 -54z"/>
<path d="M2453 2403 c26 -2 68 -2 95 0 26 2 4 3 -48 3 -52 0 -74 -1 -47 -3z"/>
<path d="M3148 2403 c17 -2 47 -2 65 0 17 2 3 4 -33 4 -36 0 -50 -2 -32 -4z"/>
<path d="M1740 2369 l-35 -30 38 26 c33 24 43 35 34 35 -1 0 -18 -14 -37 -31z"/>
<path d="M2145 2384 c-183 -19 -306 -36 -301 -41 2 -3 60 2 128 10 67 9 182
21 253 27 72 7 135 14 140 15 24 8 -110 1 -220 -11z"/>
<path d="M3315 2390 c28 -5 73 -8 100 -8 l50 1 -60 7 c-33 4 -78 8 -100 8 -38
-1 -38 -1 10 -8z"/>
<path d="M5583 2390 c-12 -5 -24 -18 -28 -30 -5 -17 -12 -20 -43 -15 l-37 5
33 -10 c30 -10 35 -8 67 25 20 19 34 35 33 34 -2 0 -13 -4 -25 -9z"/>
<path d="M1785 2370 c-16 -11 -25 -20 -20 -20 10 0 64 39 55 40 -3 0 -18 -9
-35 -20z"/>
<path d="M3545 2365 c44 -7 103 -16 130 -19 44 -5 42 -4 -15 9 -36 7 -94 16
-130 19 l-65 5 80 -14z"/>
<path d="M4100 2344 c-19 -6 -36 -18 -38 -27 -5 -23 -67 -26 -151 -5 -42 10
-87 18 -101 17 -14 0 16 -9 65 -20 118 -25 125 -28 104 -39 -9 -5 -22 -23 -29
-40 -14 -34 -16 -35 -52 -16 -40 21 -107 10 -120 -20 -6 -13 -15 -24 -20 -24
-4 0 -8 -5 -8 -12 0 -6 9 -3 20 7 11 10 20 24 20 30 0 14 81 26 90 14 3 -3 19
-9 35 -13 28 -6 32 -4 45 29 7 19 19 35 26 35 6 0 15 7 18 15 4 10 16 15 33
13 22 -2 29 2 31 17 3 23 63 47 84 34 7 -5 23 -9 35 -9 12 0 24 -6 26 -12 4
-10 6 -10 6 0 1 7 -5 14 -11 16 -7 2 -26 7 -43 12 -20 7 -42 6 -65 -2z"/>
<path d="M213 2343 c119 -2 315 -2 435 0 119 1 21 2 -218 2 -239 0 -337 -1
-217 -2z"/>
<path d="M1008 2333 c23 -2 61 -2 85 0 23 2 4 4 -43 4 -47 0 -66 -2 -42 -4z"/>
<path d="M1783 2333 c9 -2 23 -2 30 0 6 3 -1 5 -18 5 -16 0 -22 -2 -12 -5z"/>
<path d="M3743 2333 c9 -2 23 -2 30 0 6 3 -1 5 -18 5 -16 0 -22 -2 -12 -5z"/>
<path d="M5447 2333 c-5 -7 -31 -14 -60 -15 l-52 -1 45 -4 c69 -6 74 -9 48
-35 -13 -13 -29 -22 -36 -20 -11 3 -11 -1 -2 -19 10 -19 9 -25 -13 -43 -14
-11 -28 -37 -31 -56 -4 -19 -15 -45 -26 -58 -17 -20 -26 -23 -67 -18 -39 4
-36 2 17 -9 56 -12 106 -16 195 -15 11 1 88 -2 170 -6 83 -3 148 -4 145 -1 -4
4 -266 19 -315 18 -131 -4 -160 4 -134 36 26 33 39 62 33 77 -4 11 3 19 20 26
15 5 26 17 26 28 0 11 12 31 26 47 16 18 24 36 22 54 -2 17 -6 22 -11 14z"/>
<path d="M1230 2319 c41 -5 161 -18 265 -29 105 -12 206 -24 225 -27 l35 -5
-52 -24 c-78 -34 -64 -36 20 -3 93 36 131 37 52 0 -56 -26 -125 -83 -125 -104
0 -5 17 9 38 31 39 43 139 92 188 92 61 0 12 9 -106 20 -182 16 -190 20 -90
40 105 22 86 25 -30 6 -105 -18 -143 -18 -300 0 -69 8 -141 13 -160 13 -19 -1
-1 -5 40 -10z"/>
<path d="M4520 2271 c0 -5 5 -13 10 -16 6 -4 7 -12 4 -18 -5 -9 -4 -9 6 0 10
9 10 15 -4 28 -9 9 -16 12 -16 6z"/>
<path d="M4992 2248 c-2 -32 1 -38 18 -38 13 0 20 -7 20 -20 0 -11 7 -23 15
-25 8 -3 23 -8 33 -12 9 -4 32 -7 51 -8 25 -2 29 0 17 7 -9 5 -25 7 -35 3 -11
-3 -22 -1 -26 5 -3 5 -15 10 -26 10 -13 0 -19 7 -19 21 0 12 -8 23 -19 26 -13
3 -21 16 -24 37 -4 29 -4 29 -5 -6z"/>
<path d="M4657 2247 c3 -4 12 -6 20 -3 8 3 21 -1 30 -9 8 -8 18 -13 22 -10 5
2 21 9 36 15 15 6 25 13 22 16 -3 3 -18 -1 -35 -10 -22 -12 -32 -12 -41 -3
-14 14 -62 17 -54 4z"/>
<path d="M1971 2235 c36 -7 93 -16 125 -19 36 -3 18 2 -46 14 -58 11 -114 19
-125 19 -11 -1 10 -7 46 -14z"/>
<path d="M5718 2230 c14 -16 75 -23 66 -8 -4 5 -16 7 -27 4 -12 -3 -28 0 -36
6 -14 10 -14 10 -3 -2z"/>
<path d="M5814 2229 c-3 -6 -3 -13 0 -16 3 -4 6 -1 6 6 0 9 8 11 24 7 14 -3
27 -3 29 1 3 5 -8 9 -24 10 -15 1 -31 -2 -35 -8z"/>
<path d="M4530 2211 c0 -10 19 -25 25 -20 1 2 -3 10 -11 17 -8 7 -14 8 -14 3z"/>
<path d="M5530 2208 c0 -9 5 -20 10 -23 6 -3 10 -15 10 -25 0 -10 4 -21 9 -24
12 -8 0 46 -15 69 -12 16 -14 17 -14 3z"/>
<path d="M2173 2203 c9 -2 25 -2 35 0 9 3 1 5 -18 5 -19 0 -27 -2 -17 -5z"/>
<path d="M4387 2192 c-20 -22 -12 -58 15 -65 20 -6 20 -5 -1 14 -25 24 -26 27
-4 51 9 10 14 18 11 18 -3 0 -12 -8 -21 -18z"/>
<path d="M4576 2197 c7 -21 44 -38 77 -36 13 1 5 5 -17 10 -21 5 -45 17 -53
27 -12 16 -13 16 -7 -1z"/>
<path d="M1596 2166 c-18 -19 -41 -55 -51 -79 -16 -42 -16 -49 -2 -98 17 -55
15 -69 -8 -69 -8 0 -17 -5 -20 -11 -4 -5 10 -3 31 6 20 8 52 16 70 18 17 1 30
6 27 10 -2 4 -19 5 -37 1 -36 -6 -41 -1 -56 64 -12 48 6 98 52 148 48 52 44
59 -6 10z"/>
<path d="M470 2170 c-9 -6 -10 -10 -3 -10 6 0 15 5 18 10 8 12 4 12 -15 0z"/>
<path d="M420 2150 c-8 -5 -10 -10 -5 -10 6 0 17 5 25 10 8 5 11 10 5 10 -5 0
-17 -5 -25 -10z"/>
<path d="M3980 2139 c0 -5 8 -9 18 -9 9 0 35 -7 58 -15 35 -12 46 -12 80 0 32
12 35 14 14 15 -15 0 -31 -5 -38 -12 -8 -8 -15 -8 -26 1 -7 6 -18 11 -22 10
-5 -1 -16 0 -24 4 -32 12 -60 15 -60 6z"/>
<path d="M3730 2130 c-9 -6 -10 -10 -3 -10 6 0 15 5 18 10 8 12 4 12 -15 0z"/>
<path d="M5600 2133 c8 -4 20 -13 26 -21 7 -10 19 -13 37 -8 14 3 29 2 32 -4
8 -12 42 -13 49 -1 3 4 -5 6 -18 4 -13 -3 -27 0 -30 6 -4 6 -19 8 -35 5 -20
-4 -30 -1 -34 10 -4 9 -14 16 -24 15 -14 0 -15 -2 -3 -6z"/>
<path d="M245 2120 c-3 -6 1 -7 9 -4 18 7 21 14 7 14 -6 0 -13 -4 -16 -10z"/>
<path d="M300 2100 c-30 -16 -50 -29 -45 -29 6 0 35 13 65 29 30 16 51 29 45
29 -5 0 -35 -13 -65 -29z"/>
<path d="M3673 2111 c-3 -11 -15 -22 -28 -25 -13 -3 -33 -22 -45 -41 -19 -31
-27 -35 -63 -36 -23 -1 -53 -5 -67 -10 -21 -7 -20 -8 9 -4 18 3 59 5 90 6 31
0 49 3 39 7 -15 6 -14 10 5 33 12 15 32 31 43 37 19 10 41 52 27 52 -3 0 -7
-9 -10 -19z"/>
<path d="M120 2062 c-72 -38 -128 -72 -115 -72 6 0 21 8 34 17 13 9 54 31 90
49 36 19 62 33 56 34 -5 0 -35 -13 -65 -28z"/>
<path d="M2938 2083 c6 -2 18 -2 25 0 6 3 1 5 -13 5 -14 0 -19 -2 -12 -5z"/>
<path d="M4838 2073 c7 -3 16 -2 19 1 4 3 -2 6 -13 5 -11 0 -14 -3 -6 -6z"/>
<path d="M1650 2067 c0 -34 113 -118 178 -133 15 -3 -5 10 -44 29 -43 21 -83
50 -102 73 -18 21 -32 35 -32 31z"/>
<path d="M4128 2063 c6 -2 18 -2 25 0 6 3 1 5 -13 5 -14 0 -19 -2 -12 -5z"/>
<path d="M4263 2063 c26 -2 67 -2 90 0 23 2 2 3 -48 3 -49 0 -68 -1 -42 -3z"/>
<path d="M4458 2063 c7 -3 16 -2 19 1 4 3 -2 6 -13 5 -11 0 -14 -3 -6 -6z"/>
<path d="M4583 2063 c20 -2 54 -2 75 0 20 2 3 4 -38 4 -41 0 -58 -2 -37 -4z"/>
<path d="M4712 2061 c-8 -5 8 -6 40 -4 73 6 83 11 23 12 -27 0 -56 -3 -63 -8z"/>
<path d="M5046 2061 c7 -8 93 -10 98 -3 2 4 -20 7 -50 7 -29 1 -51 -1 -48 -4z"/>
<path d="M5178 2063 c7 -3 16 -2 19 1 4 3 -2 6 -13 5 -11 0 -14 -3 -6 -6z"/>
<path d="M305 2050 c-3 -6 1 -7 9 -4 18 7 21 14 7 14 -6 0 -13 -4 -16 -10z"/>
<path d="M4049 2056 c-2 -3 -45 -7 -94 -11 -49 -3 -91 -8 -94 -11 -8 -7 180 5
219 15 l35 9 -31 1 c-17 1 -33 -1 -35 -3z"/>
<path d="M138 2029 c-21 -11 -38 -21 -38 -24 0 -6 49 15 75 32 28 19 6 14 -37
-8z"/>
<path d="M3220 2030 c0 -5 5 -10 11 -10 5 0 7 5 4 10 -3 6 -8 10 -11 10 -2 0
-4 -4 -4 -10z"/>
<path d="M5854 2028 c-18 -7 -18 -8 1 -6 11 1 57 -4 103 -11 45 -8 85 -11 88
-9 9 9 -174 34 -192 26z"/>
<path d="M3760 2020 c-25 -5 -54 -6 -65 -4 -11 3 -32 1 -45 -4 -31 -12 118 -5
170 7 45 12 4 12 -60 1z"/>
<path d="M3303 2013 c9 -2 17 -9 17 -15 0 -6 -10 -8 -21 -5 -12 3 -18 2 -13
-2 5 -5 41 -6 79 -3 69 6 69 6 25 13 -25 3 -58 9 -75 11 -16 3 -22 3 -12 1z"/>
<path d="M45 1984 c-31 -16 -54 -34 -43 -34 3 0 26 11 49 25 48 27 43 35 -6 9z"/>
<path d="M100 1944 c-41 -25 -82 -53 -90 -62 -13 -13 -12 -13 10 1 14 9 48 30
75 46 51 30 94 60 85 60 -3 0 -39 -20 -80 -45z"/>
<path d="M2996 1979 c-38 -4 -107 -10 -155 -14 -47 -3 -104 -12 -126 -20 -39
-14 -39 -14 55 -13 93 1 93 2 30 8 l-65 7 50 3 c28 2 57 4 65 5 8 1 59 5 113
10 53 4 100 11 103 16 3 5 4 8 2 8 -2 -1 -34 -5 -72 -10z"/>
<path d="M3115 1980 c-13 -6 -2 -7 30 -3 28 3 52 7 54 9 9 8 -65 2 -84 -6z"/>
<path d="M735 1955 c-27 -13 -45 -23 -40 -24 6 0 33 11 60 24 28 13 46 23 40
24 -5 0 -32 -11 -60 -24z"/>
<path d="M135 1895 c-55 -31 -109 -65 -120 -77 -22 -23 -1 -15 30 12 11 10 63
41 115 69 52 28 90 51 85 51 -6 0 -55 -25 -110 -55z"/>
<path d="M800 1940 c-13 -9 -13 -10 0 -10 8 -1 -2 -10 -22 -21 -53 -28 -47
-33 7 -7 27 13 40 25 33 29 -7 4 -4 9 8 12 12 3 13 5 4 6 -8 0 -22 -4 -30 -9z"/>
<path d="M630 1910 c-19 -11 -30 -19 -25 -19 6 0 26 8 45 19 19 11 31 19 25
19 -5 0 -26 -8 -45 -19z"/>
<path d="M1670 1919 c-19 -6 -15 -7 16 -3 32 4 43 2 47 -10 4 -9 15 -16 26
-16 11 0 23 -5 26 -10 4 -6 21 -8 41 -4 22 4 34 2 34 -5 0 -6 4 -11 10 -11 5
0 7 7 3 16 -4 12 -14 15 -39 11 -32 -5 -87 13 -99 34 -7 11 -31 10 -65 -2z"/>
<path d="M1868 1923 c7 -3 16 -2 19 1 4 3 -2 6 -13 5 -11 0 -14 -3 -6 -6z"/>
<path d="M2618 1923 c12 -2 30 -2 40 0 9 3 -1 5 -23 4 -22 0 -30 -2 -17 -4z"/>
<path d="M2958 1923 c17 -2 47 -2 65 0 17 2 3 4 -33 4 -36 0 -50 -2 -32 -4z"/>
<path d="M700 1900 c-19 -11 -30 -19 -25 -19 6 0 26 8 45 19 19 11 31 19 25
19 -5 0 -26 -8 -45 -19z"/>
<path d="M1901 1917 c3 -4 52 -15 110 -27 57 -11 106 -20 109 -21 3 -1 -13 -7
-35 -15 -39 -14 -39 -14 -5 -8 19 4 53 9 75 13 36 5 26 9 -85 30 -69 12 -136
25 -150 28 -14 3 -23 3 -19 0z"/>
<path d="M2445 1909 c-27 -5 -90 -13 -138 -18 -49 -5 -90 -11 -92 -13 -2 -1
69 -3 158 -3 89 -1 155 0 147 1 -8 2 -33 6 -55 10 -39 8 -37 8 40 20 59 8 68
11 35 11 -25 0 -67 -4 -95 -8z"/>
<path d="M3081 1916 c2 -2 38 -6 79 -9 44 -3 65 -2 50 3 -24 8 -137 14 -129 6z"/>
<path d="M3300 1890 c108 -14 190 -20 151 -10 -19 4 -75 11 -125 13 -81 5 -84
5 -26 -3z"/>
<path d="M1397 1883 c-9 -3 -24 -18 -32 -34 -13 -23 -22 -29 -49 -29 -21 0
-36 -6 -40 -15 -3 -8 -12 -15 -20 -15 -8 0 -21 -12 -28 -27 -7 -15 -24 -33
-38 -40 -13 -7 -30 -19 -36 -27 -10 -15 -24 -19 -122 -36 -29 -5 -56 -11 -61
-14 -9 -6 -79 -16 -140 -20 -19 -2 -37 -8 -39 -14 -2 -7 -13 -13 -25 -13 -18
-1 -19 -2 -4 -6 10 -3 24 0 32 7 7 6 35 13 62 16 43 4 135 23 218 43 42 10 53
4 47 -25 -3 -16 -16 -29 -37 -38 -40 -17 -79 -70 -72 -98 3 -11 1 -28 -5 -38
-9 -14 -7 -23 10 -45 12 -15 22 -24 22 -20 0 5 -7 16 -16 26 -12 14 -13 22 -4
39 6 11 8 29 5 40 -9 28 21 66 66 84 30 12 39 21 39 40 0 16 7 27 20 31 13 4
19 14 17 28 -1 14 4 23 16 25 24 5 57 38 57 57 0 8 6 15 14 15 7 0 19 7 26 15
17 21 43 19 57 -5 11 -16 10 -21 -4 -28 -18 -11 -30 -92 -13 -92 6 0 10 -8 10
-19 0 -10 7 -24 15 -31 13 -10 19 -10 33 4 23 20 32 20 32 2 0 -26 15 -25 16
0 2 18 -3 24 -18 24 -12 0 -26 -7 -33 -17 -14 -18 -39 -8 -31 13 3 7 -1 19 -7
26 -19 19 -15 65 7 81 15 11 17 17 7 35 -10 18 -9 23 3 28 8 3 17 16 20 29 7
28 31 35 88 25 46 -9 68 -5 24 5 -51 10 -71 12 -89 8z"/>
<path d="M2593 1863 c15 -2 37 -2 50 0 12 2 0 4 -28 4 -27 0 -38 -2 -22 -4z"/>
<path d="M3620 1839 c58 -16 117 -29 133 -29 15 0 35 -4 45 -9 9 -5 37 -14 62
-21 25 -7 52 -18 60 -25 17 -14 81 -37 87 -31 3 2 -13 10 -34 16 -21 7 -45 18
-53 25 -8 7 -35 18 -60 25 -25 7 -53 16 -62 21 -10 5 -29 9 -42 9 -13 0 -67
11 -120 25 -53 14 -102 25 -109 24 -6 0 35 -14 93 -30z"/>
<path d="M1897 1842 c5 -19 10 -22 31 -17 16 4 31 0 42 -10 10 -9 27 -15 37
-12 14 4 14 5 -4 6 -35 2 -27 19 10 24 17 3 3 4 -33 3 -49 -2 -68 2 -77 13
-10 14 -11 12 -6 -7z"/>
<path d="M2680 1851 c8 -5 42 -11 75 -14 40 -4 50 -3 30 3 -44 12 -123 20
-105 11z"/>
<path d="M4870 1825 c-9 -10 -9 -15 -1 -15 6 0 11 5 11 11 0 6 7 8 16 5 8 -3
12 -2 9 4 -9 14 -21 12 -35 -5z"/>
<path d="M5005 1830 c-19 -8 -19 -9 3 -9 12 -1 22 4 22 9 0 6 -1 10 -2 9 -2 0
-12 -4 -23 -9z"/>
<path d="M2822 1826 c9 -10 118 -35 113 -26 -3 4 -22 11 -42 14 -21 4 -47 10
-58 13 -11 3 -17 2 -13 -1z"/>
<path d="M2036 1789 c3 -5 11 -9 17 -9 7 0 25 -14 41 -32 l28 -33 -20 35 c-12
19 -32 38 -47 41 -14 4 -23 3 -19 -2z"/>
<path d="M3196 1785 c3 -8 21 -17 39 -21 19 -3 36 -12 39 -20 3 -8 18 -13 33
-13 27 2 27 2 3 6 -14 3 -29 11 -33 19 -4 8 -16 14 -27 14 -10 0 -25 7 -34 15
-19 19 -27 19 -20 0z"/>
<path d="M1480 1781 c0 -6 6 -14 14 -18 8 -4 14 -17 13 -27 -1 -10 5 -21 13
-23 12 -4 13 -3 1 5 -7 5 -10 15 -6 22 4 6 -2 20 -14 31 -12 11 -21 15 -21 10z"/>
<path d="M2981 1780 c25 -14 181 -71 185 -67 4 4 -181 77 -194 77 -4 0 0 -5 9
-10z"/>
<path d="M5346 1763 c-7 -8 -12 -9 -53 -11 -13 -1 -23 -6 -23 -11 0 -4 33 -8
73 -9 61 0 68 2 47 11 -14 6 -28 15 -31 19 -3 5 -9 5 -13 1z"/>
<path d="M5207 1753 c-4 -3 -7 -11 -7 -17 0 -6 5 -5 12 2 6 6 9 14 7 17 -3 3
-9 2 -12 -2z"/>
<path d="M1552 1711 c9 -15 22 -19 60 -17 27 1 54 9 61 16 9 10 9 11 -1 6 -6
-4 -33 -9 -58 -11 -33 -3 -47 0 -51 11 -3 8 -9 14 -14 14 -5 0 -4 -9 3 -19z"/>
<path d="M3348 1723 c6 -2 18 -2 25 0 6 3 1 5 -13 5 -14 0 -19 -2 -12 -5z"/>
<path d="M3189 1707 c7 -10 19 -17 25 -17 6 0 24 -7 40 -15 16 -9 31 -13 34
-11 2 3 -13 13 -34 22 -22 9 -48 21 -59 27 -18 9 -19 8 -6 -6z"/>
<path d="M3428 1709 c22 -6 32 -16 32 -29 0 -17 6 -20 38 -18 33 1 34 2 7 5
-20 3 -34 12 -40 26 -7 15 -20 23 -40 24 l-30 2 33 -10z"/>
<path d="M3615 1705 c17 -8 41 -14 55 -14 l25 1 -25 7 c-14 4 -38 11 -55 14
l-30 6 30 -14z"/>
<path d="M4059 1695 c23 -14 49 -25 55 -25 15 0 71 -26 106 -50 32 -22 63 -33
55 -20 -3 6 -13 10 -21 10 -8 0 -14 4 -14 9 0 5 -8 11 -17 15 -10 3 -25 10
-33 15 -8 5 -26 13 -40 18 -14 6 -46 20 -73 32 -64 28 -72 27 -18 -4z"/>
<path d="M2116 1699 c3 -5 15 -9 28 -9 15 0 27 -9 35 -26 10 -23 9 -29 -14
-50 -14 -13 -34 -24 -44 -24 -30 0 -78 -29 -84 -50 -3 -11 -1 -20 4 -20 5 0 9
6 9 14 0 19 44 46 76 46 15 0 32 7 39 16 13 19 55 11 55 -11 0 -7 7 -15 15
-19 13 -5 13 -2 -1 19 -9 14 -20 25 -25 25 -5 0 -9 10 -9 23 -1 31 -30 64 -62
69 -15 3 -25 1 -22 -3z"/>
<path d="M3700 1685 c0 -13 193 -145 249 -171 22 -11 41 -25 41 -33 0 -8 3
-12 6 -8 9 9 64 -48 64 -66 0 -8 7 -20 15 -27 8 -7 15 -18 15 -24 0 -7 6 -20
13 -31 13 -17 14 -17 20 4 3 11 1 19 -3 16 -4 -3 -13 9 -19 25 -5 17 -15 30
-20 30 -6 0 -11 11 -11 25 0 14 -5 25 -10 25 -11 0 -70 53 -70 64 0 13 21 5
37 -14 10 -11 23 -20 30 -20 7 0 13 -5 13 -11 0 -5 5 -7 10 -4 6 3 10 2 10 -4
0 -14 77 -91 84 -84 3 4 6 13 5 22 0 12 -3 11 -9 -4 -6 -15 -9 -16 -9 -4 -1
21 -36 61 -46 51 -4 -4 -4 4 0 17 5 15 4 21 -3 17 -6 -3 -13 -2 -17 4 -4 6
-11 8 -16 5 -5 -4 -9 -1 -9 4 0 6 -6 11 -14 11 -8 0 -28 13 -45 29 -18 17 -33
29 -34 28 -1 0 -42 18 -90 41 -49 23 -93 42 -98 42 -6 0 -25 11 -43 25 -32 24
-46 30 -46 20z m212 -112 c71 -35 88 -51 62 -60 -5 -2 -20 6 -32 17 -12 12
-26 18 -31 15 -5 -3 -16 3 -23 14 -8 10 -29 26 -48 34 -19 9 -28 16 -20 16 8
1 50 -16 92 -36z"/>
<path d="M3321 1641 c25 -19 82 -35 73 -20 -3 5 -13 9 -23 9 -9 0 -26 7 -37
15 -10 8 -23 15 -28 15 -5 0 2 -8 15 -19z"/>
<path d="M3550 1640 c6 -11 23 -22 38 -25 80 -17 87 -21 84 -43 -2 -12 1 -22
6 -22 5 0 12 -9 15 -20 3 -11 11 -20 19 -20 11 0 10 2 -1 9 -7 5 -11 13 -7 19
3 5 -1 13 -10 16 -13 5 -14 9 -4 21 10 13 7 17 -23 30 -20 8 -45 15 -56 15
-30 0 -51 11 -51 26 0 8 -5 14 -10 14 -7 0 -7 -6 0 -20z"/>
<path d="M1830 1615 c-14 -8 -33 -14 -42 -15 -10 0 -18 -7 -18 -15 0 -19 -86
-17 -102 2 -14 18 -35 16 -42 -3 -4 -10 -14 -14 -26 -11 -11 3 -18 1 -14 -4 8
-14 25 -11 47 8 17 16 19 16 28 1 11 -20 104 -24 116 -4 5 7 23 18 41 25 18 8
35 18 38 22 7 12 4 11 -26 -6z"/>
<path d="M4033 1602 c21 -10 37 -24 37 -33 0 -12 12 -19 40 -24 22 -4 40 -11
40 -16 0 -5 16 -17 35 -26 19 -9 36 -23 38 -32 4 -13 5 -13 6 1 1 10 -13 24
-31 34 -18 9 -36 22 -40 29 -4 7 -24 16 -43 19 -21 4 -35 13 -35 21 0 15 -49
45 -72 44 -7 0 4 -8 25 -17z"/>
<path d="M1458 1603 c7 -3 16 -2 19 1 4 3 -2 6 -13 5 -11 0 -14 -3 -6 -6z"/>
<path d="M3415 1600 c3 -6 11 -10 17 -10 5 0 22 -9 38 -20 15 -11 29 -17 32
-15 8 9 128 -116 134 -140 6 -23 34 -44 34 -25 0 6 -4 10 -10 10 -5 0 -10 7
-10 15 0 8 -13 29 -30 47 -16 17 -30 35 -30 39 0 5 -5 9 -11 9 -6 0 -24 14
-41 32 -16 18 -39 33 -51 35 -11 2 -25 7 -31 12 -18 14 -48 22 -41 11z"/>
<path d="M4318 1570 c18 -16 37 -30 43 -30 5 0 26 -16 46 -35 20 -19 44 -37
53 -40 18 -6 80 -87 80 -103 0 -7 7 -12 15 -12 8 0 15 -6 15 -12 0 -21 20 14
20 36 0 15 -3 16 -15 6 -12 -10 -15 -9 -15 6 0 16 -2 16 -10 4 -7 -11 -11 -8
-21 15 -7 17 -12 33 -11 37 1 4 -7 10 -18 13 -11 4 -20 13 -20 21 0 8 -4 13
-8 10 -5 -3 -22 4 -38 15 -16 10 -44 29 -61 40 -18 12 -33 24 -33 27 0 4 -12
13 -28 20 -26 12 -25 11 6 -18z"/>
<path d="M645 1569 c-44 -10 -116 -26 -160 -35 -44 -9 -93 -22 -110 -30 -16
-8 -74 -25 -128 -39 -129 -34 -230 -75 -243 -98 -6 -9 -4 -9 7 -1 8 6 37 19
64 29 28 10 55 22 60 26 6 4 57 19 115 34 58 15 110 30 115 35 10 8 106 31
275 66 41 9 81 20 90 24 20 12 11 11 -85 -11z"/>
<path d="M1124 1530 c1 -9 13 -16 29 -18 23 -3 26 -7 21 -27 -5 -19 0 -27 23
-39 19 -9 34 -11 44 -5 8 5 28 7 44 4 29 -5 29 -5 5 5 -13 6 -35 8 -48 5 -40
-10 -63 3 -60 33 3 23 -1 28 -24 30 -15 2 -29 9 -31 15 -2 7 -3 5 -3 -3z"/>
<path d="M2233 1533 c-4 -9 -1 -19 5 -21 21 -7 -41 -59 -78 -66 -41 -8 -49 -8
-75 -4 -12 2 -23 -5 -29 -18 -10 -23 -87 -51 -107 -39 -14 9 -90 -14 -104 -31
-6 -6 -19 -14 -30 -17 -18 -4 -17 -5 3 -6 12 0 25 6 28 14 4 8 17 15 29 15 13
0 27 5 31 11 3 6 20 8 38 5 42 -8 108 16 118 43 9 24 12 25 40 10 14 -8 23 -8
31 0 6 6 22 11 37 11 28 0 98 64 81 74 -6 4 -8 13 -4 21 3 8 2 15 -1 15 -4 0
-10 -8 -13 -17z"/>
<path d="M5761 1503 c-1 -33 -15 -44 -24 -20 -3 6 -6 2 -6 -9 -1 -24 25 -40
33 -21 3 9 5 9 5 0 1 -7 6 -13 12 -13 7 0 8 7 4 18 -4 9 -11 31 -15 47 l-8 30
-1 -32z"/>
<path d="M3769 1498 c25 -7 31 -12 23 -20 -14 -14 2 -38 25 -38 8 0 25 -12 39
-27 l26 -28 -13 28 c-7 15 -16 27 -20 27 -4 0 -20 5 -34 10 -22 8 -25 13 -15
24 9 12 7 17 -9 25 -11 6 -28 11 -38 10 -10 0 -3 -5 16 -11z"/>
<path d="M5797 1488 c-3 -10 -4 -25 -1 -33 9 -22 39 -18 41 5 1 11 -2 20 -8
20 -5 0 -9 -6 -10 -12 -1 -7 -4 -2 -8 12 -6 21 -8 22 -14 8z"/>
<path d="M5696 1457 c3 -10 9 -15 12 -12 3 3 0 11 -7 18 -10 9 -11 8 -5 -6z"/>
<path d="M5855 1459 c-4 -6 -5 -12 -2 -15 2 -3 7 2 10 11 7 17 1 20 -8 4z"/>
<path d="M5885 1459 c-6 -8 2 -11 21 -8 4 0 11 -5 15 -13 6 -9 9 -8 9 7 0 22
-34 32 -45 14z"/>
<path d="M4255 1451 c42 -13 84 -41 87 -58 3 -17 4 -17 10 -1 5 13 -4 23 -37
42 -24 14 -52 26 -62 25 -16 -1 -16 -2 2 -8z"/>
<path d="M2557 1411 c-3 -13 -10 -20 -16 -16 -6 3 -11 2 -11 -3 0 -6 7 -12 15
-16 8 -3 15 -1 15 5 0 6 5 7 10 4 12 -7 12 2 1 29 -7 19 -8 19 -14 -3z"/>
<path d="M1420 1400 c0 -11 4 -20 9 -20 5 0 7 9 4 20 -3 11 -7 20 -9 20 -2 0
-4 -9 -4 -20z"/>
<path d="M2613 1405 c-11 -19 -8 -21 30 -22 38 -2 40 0 23 12 -10 8 -22 12
-27 10 -4 -3 -9 1 -11 7 -3 9 -8 6 -15 -7z"/>
<path d="M1075 1400 c-17 -8 -17 -9 7 -7 15 1 24 5 22 9 -3 4 -6 8 -7 7 -1 0
-11 -4 -22 -9z"/>
<path d="M4117 1395 c-4 -8 -2 -17 3 -20 6 -4 10 3 10 14 0 25 -6 27 -13 6z"/>
<path d="M2470 1381 c0 -6 4 -13 10 -16 6 -3 7 1 4 9 -7 18 -14 21 -14 7z"/>
<path d="M2715 1379 c4 -6 20 -9 36 -7 16 3 29 2 29 -1 0 -3 16 -6 35 -6 54 0
26 13 -43 19 -46 5 -62 3 -57 -5z"/>
<path d="M1111 1370 c-1 -17 73 -54 92 -47 6 3 2 6 -9 6 -12 1 -27 8 -34 16
-7 8 -18 15 -25 15 -8 0 -16 6 -18 13 -4 8 -6 7 -6 -3z"/>
<path d="M1455 1363 c6 -21 3 -23 -34 -23 -23 0 -41 5 -41 10 0 16 -38 11 -48
-6 -7 -13 -20 -16 -62 -12 -30 3 -46 2 -38 -3 22 -15 90 -10 110 7 14 13 21
14 32 5 8 -7 36 -11 63 -10 26 2 62 -1 79 -5 22 -5 34 -3 44 9 10 12 16 13 27
4 11 -10 12 -9 7 5 -8 20 -33 21 -41 0 -8 -21 -62 -9 -86 19 l-18 22 6 -22z"/>
<path d="M4186 1364 c-4 -9 -4 -19 -1 -22 3 -3 5 0 5 7 0 7 4 9 10 6 6 -3 7 1
4 9 -8 20 -10 20 -18 0z"/>
<path d="M4374 1368 c19 -10 19 -11 1 -24 -17 -13 -17 -15 -2 -32 22 -24 21
-30 -5 -34 -38 -5 -26 -30 22 -45 82 -26 77 -23 58 -34 -28 -16 -21 -28 28
-50 47 -19 47 -20 28 -41 -19 -21 -19 -21 4 -7 33 21 27 35 -23 55 -44 16 -60
34 -30 34 8 0 15 7 15 14 0 10 -22 21 -60 32 -58 16 -80 34 -41 34 10 0 24 6
30 14 10 12 8 17 -10 27 -22 11 -22 12 -4 25 15 11 16 16 5 29 -7 8 -18 15
-24 15 -6 0 -2 -6 8 -12z"/>
<path d="M3656 1298 c1 -40 0 -84 -3 -97 -5 -22 -7 -22 -18 -8 -10 15 -13 10
-19 -30 -6 -49 -1 -68 11 -37 4 10 15 28 25 38 10 11 18 31 18 45 0 14 3 37 7
50 4 17 3 22 -6 17 -9 -6 -10 5 -5 43 4 31 3 51 -3 51 -6 0 -9 -31 -7 -72z"/>
<path d="M1712 1335 c-7 -8 -8 -15 -3 -15 5 0 13 5 17 11 3 6 15 9 25 6 11 -3
17 -1 13 4 -8 14 -37 10 -52 -6z"/>
<path d="M1650 1330 c8 -5 20 -10 25 -10 6 0 3 5 -5 10 -8 5 -19 10 -25 10 -5
0 -3 -5 5 -10z"/>
<path d="M4201 1313 c-1 -35 13 -52 23 -27 9 23 7 36 -3 29 -5 -3 -12 3 -14
12 -3 10 -5 4 -6 -14z"/>
<path d="M4591 1322 c0 -13 4 -33 10 -44 11 -21 12 -21 26 -2 13 18 14 17 7
-10 -5 -22 -4 -27 6 -21 9 5 10 2 6 -12 -4 -13 1 -30 15 -46 25 -32 39 -34 39
-6 0 11 -4 17 -10 14 -5 -3 -10 2 -10 12 0 15 -2 16 -10 3 -9 -14 -14 15 -13
83 0 11 -6 16 -14 13 -7 -3 -13 0 -13 6 0 7 -4 7 -14 -1 -12 -10 -15 -8 -19
11 l-4 23 -2 -23z"/>
<path d="M4966 1323 c-6 -14 -9 -15 -15 -4 -7 10 -9 10 -14 -1 -3 -8 4 -20 14
-26 16 -10 19 -9 20 5 0 16 2 15 9 -2 8 -18 9 -17 9 7 1 32 -14 45 -23 21z"/>
<path d="M4128 1313 c-3 -12 0 -20 8 -20 16 0 17 6 5 25 -6 11 -9 9 -13 -5z"/>
<path d="M5022 1318 c-14 -14 -16 -32 -3 -24 5 4 12 0 14 -6 3 -7 6 -1 6 15 1
31 0 32 -17 15z"/>
<path d="M4150 1268 c0 -9 5 -20 10 -23 13 -8 13 5 0 25 -8 13 -10 13 -10 -2z"/>
<path d="M3894 1261 c14 -5 16 -10 8 -15 -16 -10 -15 -36 1 -36 7 0 22 -6 32
-14 17 -12 16 -14 -21 -26 -21 -7 -43 -17 -49 -22 -13 -12 13 -28 45 -26 24 1
24 1 -2 5 -40 6 -34 21 12 33 48 13 50 24 10 48 -21 13 -26 22 -19 29 14 14 3
33 -19 32 -14 0 -14 -2 2 -8z"/>
<path d="M80 1220 c0 -32 -1 -33 -15 -14 -14 18 -14 18 -15 -4 0 -13 -4 -20
-10 -17 -11 7 -13 -6 -4 -29 5 -14 8 -14 21 -1 8 9 18 13 23 10 13 -8 23 66
11 78 -8 8 -11 1 -11 -23z"/>
<path d="M4200 1229 c0 -18 2 -19 15 -5 8 8 15 17 15 20 0 3 -7 6 -15 6 -9 0
-15 -9 -15 -21z"/>
<path d="M113 1213 c-17 -37 -16 -51 2 -27 14 18 14 18 15 -5 0 -15 4 -21 9
-15 10 10 3 74 -8 74 -3 0 -12 -12 -18 -27z"/>
<path d="M156 1222 c-8 -25 -4 -35 19 -38 11 -2 15 7 15 29 0 22 -3 28 -9 18
-7 -11 -9 -11 -13 0 -3 9 -8 6 -12 -9z"/>
<path d="M4140 1215 c0 -8 9 -19 20 -25 17 -9 20 -8 20 10 0 12 -4 18 -10 15
-5 -3 -10 -1 -10 4 0 6 -4 11 -10 11 -5 0 -10 -7 -10 -15z"/>
<path d="M240 1200 c-6 -11 -8 -20 -6 -20 3 0 10 9 16 20 6 11 8 20 6 20 -3 0
-10 -9 -16 -20z"/>
<path d="M215 1199 c-4 -6 -5 -12 -2 -15 2 -3 7 2 10 11 7 17 1 20 -8 4z"/>
<path d="M2907 1187 c-10 -35 13 -120 24 -91 7 16 8 15 9 -6 l1 -25 12 23 c8
18 8 25 -2 31 -8 5 -10 18 -6 37 5 22 4 25 -4 14 -6 -8 -11 -24 -12 -35 -1
-11 -5 3 -8 30 -6 45 -7 47 -14 22z"/>
<path d="M2840 1180 c0 -3 4 -21 10 -40 7 -24 6 -36 -1 -41 -12 -7 -4 -29 10
-29 19 0 18 54 0 84 -10 17 -19 29 -19 26z"/>
<path d="M2971 1152 c-10 -18 -4 -72 8 -72 4 0 12 5 19 12 9 9 12 9 12 -3 0
-16 36 -23 45 -8 4 5 -4 13 -17 18 -13 6 -19 10 -15 10 4 1 2 7 -5 15 -11 11
-15 11 -26 -3 -12 -14 -13 -12 -8 17 6 36 2 41 -13 14z"/>
<path d="M4150 1148 c0 -16 5 -28 10 -28 13 0 13 20 0 40 -8 12 -10 9 -10 -12z"/>
<path d="M4191 1154 c0 -11 3 -14 6 -6 3 7 2 16 -1 19 -3 4 -6 -2 -5 -13z"/>
<path d="M4707 1145 c-7 -16 -10 -17 -17 -5 -9 13 -10 13 -10 0 1 -8 12 -33
25 -55 14 -22 25 -47 25 -56 0 -9 7 -22 15 -29 9 -8 12 -16 6 -19 -5 -4 -4
-14 5 -25 13 -19 14 -18 14 8 0 17 4 25 11 20 8 -5 8 -1 0 14 -6 12 -19 25
-28 31 -14 8 -15 13 -5 35 9 21 9 26 -2 26 -8 0 -18 17 -23 38 -7 31 -10 34
-16 17z"/>
<path d="M1011 1115 c-12 -28 -14 -28 -21 -10 -7 19 -8 19 -15 2 -6 -14 -10
-15 -21 -6 -11 9 -14 8 -14 -5 0 -19 -11 -21 -27 -5 -9 9 -10 7 -6 -10 6 -23
23 -27 41 -9 9 9 12 9 12 -1 0 -11 3 -11 15 -1 12 10 15 10 15 -1 1 -9 5 -8
15 5 8 11 15 14 15 7 0 -7 5 -9 10 -6 6 3 10 2 10 -3 0 -5 7 -9 15 -9 8 0 15
7 15 14 0 8 -4 11 -10 8 -5 -3 -10 1 -10 10 0 9 -4 14 -9 10 -5 -3 -11 5 -13
17 -3 21 -4 20 -17 -7z"/>
<path d="M2805 1103 c15 -32 25 -42 25 -24 0 5 -9 19 -20 32 l-21 24 16 -32z"/>
<path d="M2886 1113 c-4 -9 -2 -21 4 -27 7 -7 10 -2 10 17 0 31 -5 34 -14 10z"/>
<path d="M1125 1100 c-4 -11 -11 -18 -16 -15 -5 4 -9 -1 -9 -9 0 -18 16 -21
25 -6 4 6 10 8 14 5 5 -2 6 7 3 20 -5 30 -9 31 -17 5z"/>
<path d="M5261 1067 c-12 -48 -12 -61 -1 -82 7 -14 11 -28 8 -31 -3 -3 -16 16
-29 41 -13 26 -27 49 -31 51 -13 9 -8 -20 7 -40 29 -39 14 -39 -20 0 -28 30
-35 34 -30 17 5 -17 3 -21 -7 -18 -16 6 -98 -54 -98 -71 0 -18 23 -33 78 -49
27 -8 53 -22 56 -30 6 -16 93 -75 110 -75 6 1 -5 10 -24 20 -19 11 -46 29 -60
40 -29 24 -36 14 69 90 48 36 54 43 56 82 3 41 3 42 -12 23 -14 -19 -15 -17
-9 23 8 54 -5 48 -28 -13 -18 -46 -36 -60 -36 -27 0 10 5 23 11 29 6 6 9 26 7
44 -3 31 -5 30 -17 -24z m36 -82 c-6 -28 -12 -42 -15 -32 -3 17 17 92 23 85 2
-2 -1 -26 -8 -53z m-91 -16 c29 -16 56 -34 59 -39 3 -5 -12 -18 -33 -29 -36
-18 -43 -19 -92 -6 -77 20 -82 30 -38 71 21 19 41 34 44 34 4 0 31 -14 60 -31z
m115 -2 c-8 -8 -11 -7 -11 4 0 20 13 34 18 19 3 -7 -1 -17 -7 -23z"/>
<path d="M5105 950 c-3 -5 -1 -10 4 -10 6 0 11 5 11 10 0 6 -2 10 -4 10 -3 0
-8 -4 -11 -10z"/>
<path d="M5130 940 c0 -5 9 -10 21 -10 11 0 17 5 14 10 -3 6 -13 10 -21 10 -8
0 -14 -4 -14 -10z"/>
<path d="M1171 1094 c0 -11 3 -14 6 -6 3 7 2 16 -1 19 -3 4 -6 -2 -5 -13z"/>
<path d="M1200 1089 c-7 -11 -10 -23 -7 -25 2 -2 9 7 15 21 14 30 7 33 -8 4z"/>
<path d="M3984 1093 c0 -10 -9 -20 -24 -24 -14 -4 -18 -7 -8 -8 38 -2 65 27
39 43 -5 3 -8 -2 -7 -11z"/>
<path d="M4141 1101 c-7 -5 -10 -14 -6 -20 5 -8 11 -9 19 -2 7 6 16 8 20 4 4
-4 4 0 0 10 -7 19 -13 21 -33 8z"/>
<path d="M3575 1090 c-3 -5 -1 -18 4 -27 9 -16 10 -14 11 10 0 28 -5 34 -15
17z"/>
<path d="M3540 1070 c0 -24 -9 -26 -25 -4 -9 13 -11 9 -7 -22 2 -30 1 -35 -7
-24 -9 12 -11 10 -11 -12 0 -20 4 -26 15 -22 8 4 15 18 15 33 0 16 3 21 8 14
14 -22 46 9 38 35 -9 28 -26 29 -26 2z"/>
<path d="M872 1064 c10 -10 20 -16 22 -13 3 3 -5 11 -17 18 -21 13 -21 12 -5
-5z"/>
<path d="M1216 1063 c-6 -14 -5 -15 5 -6 7 7 10 15 7 18 -3 3 -9 -2 -12 -12z"/>
<path d="M3898 1053 c6 -2 18 -2 25 0 6 3 1 5 -13 5 -14 0 -19 -2 -12 -5z"/>
<path d="M3848 1043 c6 -2 18 -2 25 0 6 3 1 5 -13 5 -14 0 -19 -2 -12 -5z"/>
<path d="M4120 1035 c0 -9 6 -12 15 -9 8 4 12 10 9 15 -8 14 -24 10 -24 -6z"/>
<path d="M3410 1008 c0 -20 5 -49 11 -65 l12 -28 9 33 c5 18 13 30 18 27 6 -4
10 8 9 27 l0 33 -19 -40 -19 -40 0 30 c-1 17 -6 37 -11 45 -7 11 -10 6 -10
-22z"/>
<path d="M3795 1029 c-4 -6 -4 -13 -1 -16 3 -4 6 -1 6 5 0 6 8 13 18 15 15 4
15 5 0 6 -9 0 -20 -4 -23 -10z"/>
<path d="M3843 1000 c21 -6 48 -15 60 -22 l22 -12 -25 -7 c-14 -4 -39 -7 -56
-8 -18 -1 -34 -7 -38 -16 -3 -8 -1 -15 4 -15 6 0 10 4 10 9 0 5 22 11 50 15
27 4 52 11 55 16 9 14 -38 40 -81 45 l-39 5 38 -10z"/>
<path d="M5360 986 c0 -2 37 -14 83 -26 45 -12 87 -26 92 -30 6 -5 36 -15 68
-23 60 -16 107 -41 107 -57 0 -14 -48 -45 -125 -80 -63 -28 -77 -31 -133 -26
-35 3 -78 12 -95 21 -16 8 -32 13 -34 11 -2 -2 13 -12 34 -22 26 -12 61 -18
108 -18 75 -1 141 23 226 79 l43 28 -32 28 c-17 15 -51 33 -74 39 -24 6 -57
17 -73 24 -27 12 -177 56 -190 56 -3 0 -5 -2 -5 -4z"/>
<path d="M631 958 c-18 -50 -19 -64 -6 -93 l15 -30 -6 31 c-2 17 -1 49 5 72
10 45 6 56 -8 20z"/>
<path d="M3380 956 c0 -24 -2 -27 -15 -16 -17 14 -20 3 -5 -20 9 -13 12 -13
24 3 11 14 15 15 19 5 4 -9 6 -9 6 2 0 8 -6 24 -14 34 -14 19 -15 19 -15 -8z"/>
<path d="M4465 973 c11 -2 30 -6 43 -9 14 -3 20 -9 16 -16 -4 -7 -3 -8 5 -4
22 14 -9 36 -48 35 -20 -1 -27 -3 -16 -6z"/>
<path d="M521 943 c1 -27 17 -70 18 -53 1 8 10 -1 21 -20 16 -30 19 -32 20
-12 0 12 -3 22 -8 22 -4 0 -15 18 -25 40 -18 43 -28 51 -26 23z"/>
<path d="M4488 933 c7 -3 16 -2 19 1 4 3 -2 6 -13 5 -11 0 -14 -3 -6 -6z"/>
<path d="M4780 929 c0 -5 -4 -7 -10 -4 -5 3 -10 -3 -10 -15 0 -13 -4 -19 -11
-14 -7 4 -10 1 -7 -7 3 -8 13 -16 23 -18 13 -2 16 1 11 14 -6 16 -5 16 18 1
32 -20 33 -20 39 4 4 15 0 20 -14 20 -10 0 -19 7 -19 15 0 8 -4 15 -10 15 -5
0 -10 -5 -10 -11z"/>
<path d="M651 912 c-6 -12 -7 -30 -1 -48 4 -16 9 -26 9 -22 1 4 12 3 25 -2 26
-9 37 2 29 28 -4 10 -8 8 -18 -5 -12 -16 -13 -14 -9 12 l5 30 -16 -25 -16 -25
5 38 c5 41 2 46 -13 19z"/>
<path d="M5410 910 c14 -12 33 -31 44 -43 16 -20 18 -20 15 -3 -2 10 -22 30
-44 43 -33 20 -36 20 -15 3z"/>
<path d="M581 910 c-1 -24 11 -60 20 -60 5 0 9 9 9 20 0 11 -4 20 -9 20 -5 0
-12 8 -14 18 -3 12 -5 13 -6 2z"/>
<path d="M1996 903 c-3 -10 -1 -43 3 -73 8 -53 9 -53 10 -14 0 23 4 56 7 73 7
33 -11 45 -20 14z"/>
<path d="M3273 908 c-6 -7 -13 -22 -18 -33 -7 -19 -8 -19 -15 5 l-8 25 -1 -27
c-1 -33 -21 -38 -22 -5 0 12 -3 16 -6 9 -2 -6 -9 -10 -14 -7 -5 4 -6 -8 -2
-27 6 -29 5 -32 -10 -20 -13 11 -15 10 -10 -8 4 -16 2 -19 -11 -14 -10 4 -16
1 -16 -8 0 -7 9 -14 20 -14 11 0 20 4 20 8 0 5 11 13 25 18 14 5 25 15 25 22
0 9 3 8 10 -2 8 -12 10 -12 11 5 0 11 3 14 6 7 4 -10 8 -10 19 -1 8 6 14 8 14
4 0 -4 7 -2 15 5 28 24 10 37 -22 17 -16 -10 -17 7 -3 34 12 21 7 26 -7 7z"/>
<path d="M3738 913 c12 -2 30 -2 40 0 9 3 -1 5 -23 4 -22 0 -30 -2 -17 -4z"/>
<path d="M5260 888 c-23 -20 -27 -26 -12 -18 22 11 23 10 17 -10 -6 -20 -5
-21 14 -11 16 9 21 9 21 0 0 -6 9 0 20 14 25 32 25 41 0 27 -11 -6 -18 -15
-15 -20 3 -6 -1 -7 -10 -4 -14 6 -14 9 0 30 21 33 7 29 -35 -8z"/>
<path d="M758 887 c-16 -20 -17 -20 -11 -2 5 18 4 19 -10 5 -11 -10 -14 -23
-10 -39 6 -23 7 -23 20 -6 7 11 13 13 13 7 0 -7 11 -12 25 -12 14 0 25 5 25
10 0 6 -9 10 -20 10 -17 0 -19 5 -14 25 8 30 4 31 -18 2z"/>
<path d="M3672 898 c2 -6 24 -16 49 -23 24 -6 55 -14 69 -18 20 -6 19 -4 -5 8
-16 8 -47 17 -68 21 -27 5 -34 9 -25 15 10 7 8 9 -5 9 -10 0 -17 -5 -15 -12z"/>
<path d="M4394 899 c-3 -6 -2 -15 3 -20 5 -5 9 -1 9 11 0 23 -2 24 -12 9z"/>
<path d="M510 873 c0 -22 20 -55 20 -34 0 10 3 11 14 2 12 -10 14 -9 10 6 -3
11 -14 24 -25 31 -16 10 -19 9 -19 -5z"/>
<path d="M1918 869 c10 -26 3 -86 -8 -69 -5 7 -9 2 -12 -14 -3 -15 1 -34 9
-43 13 -16 14 -15 9 12 l-6 30 21 -35 c11 -19 17 -26 14 -15 -4 11 -9 40 -11
65 l-4 45 22 -62 c24 -64 44 -97 29 -47 -18 59 -53 144 -62 149 -5 4 -5 -3 -1
-16z"/>
<path d="M480 856 c0 -2 8 -10 18 -17 15 -13 16 -12 3 4 -13 16 -21 21 -21 13z"/>
<path d="M5368 854 c-4 -3 -14 -7 -24 -8 -10 -2 -20 -9 -22 -16 -3 -9 1 -11
12 -7 9 4 16 2 16 -4 0 -6 7 -8 16 -5 8 3 13 2 10 -3 -3 -5 3 -11 14 -14 13
-3 20 0 20 10 0 8 -5 11 -12 7 -8 -5 -9 -2 -5 10 6 14 3 17 -9 12 -12 -4 -15
-2 -10 9 6 16 3 19 -6 9z"/>
<path d="M2080 807 c-15 -43 -13 -131 3 -94 4 11 5 23 2 27 -3 5 -1 30 5 56
14 60 9 65 -10 11z"/>
<path d="M2397 841 c61 -5 89 -11 110 -27 15 -11 48 -30 73 -42 25 -11 61 -34
80 -50 l34 -30 -34 -21 c-40 -24 -33 -28 10 -6 17 9 30 19 30 24 0 16 -73 73
-118 93 -24 11 -59 30 -79 44 -31 21 -46 24 -112 22 l-76 -1 82 -6z"/>
<path d="M4770 829 c0 -19 -2 -20 -16 -8 -15 12 -16 11 -10 -9 5 -15 3 -22 -5
-22 -10 0 -10 -3 -2 -11 9 -9 19 -6 39 10 15 12 30 18 33 13 3 -4 13 -7 21 -7
8 0 21 -5 29 -13 7 -7 15 -11 18 -8 9 8 -9 76 -19 70 -5 -3 -7 -13 -3 -21 4
-13 3 -14 -9 -4 -8 7 -20 10 -26 6 -5 -3 -10 0 -10 7 0 9 -3 9 -10 -2 -8 -13
-10 -12 -10 3 0 9 -4 17 -10 17 -5 0 -10 -10 -10 -21z"/>
<path d="M5584 835 c8 -8 17 -15 20 -15 3 0 3 7 0 15 -4 8 -13 15 -21 15 -12
0 -12 -2 1 -15z"/>
<path d="M1982 815 c0 -16 2 -22 5 -12 2 9 2 23 0 30 -3 6 -5 -1 -5 -18z"/>
<path d="M2215 805 c-92 -44 -79 -44 21 0 43 19 72 34 64 34 -8 0 -46 -15 -85
-34z"/>
<path d="M3061 803 c-6 -21 -11 -45 -12 -53 0 -11 -2 -12 -6 -2 -4 10 -9 9
-20 -5 -13 -17 -13 -16 -3 5 7 15 8 28 1 40 -9 14 -10 11 -11 -15 0 -18 -4
-33 -10 -33 -5 0 -6 -7 -3 -17 5 -12 3 -14 -7 -8 -10 6 -12 4 -7 -9 4 -10 7
-21 7 -24 0 -4 11 6 25 22 14 16 25 24 25 17 0 -10 36 -10 60 -1 3 1 8 2 13 1
4 0 7 3 7 8 0 5 3 18 7 28 6 17 5 16 -16 -2 l-22 -19 6 29 6 30 -16 -25 c-16
-25 -16 -24 -11 23 7 57 1 61 -13 10z"/>
<path d="M3834 830 c-5 -5 -45 -11 -89 -13 l-80 -3 80 -2 c72 -2 118 8 104 22
-3 3 -10 1 -15 -4z"/>
<path d="M2033 793 c-25 -38 -28 -60 -12 -83 8 -12 9 -11 4 6 -3 12 -1 32 4
45 8 21 10 18 11 -21 0 -36 3 -42 11 -27 7 12 7 27 1 47 -7 20 -7 30 0 32 6 2
9 11 7 19 -3 12 -11 6 -26 -18z"/>
<path d="M1861 778 c28 -56 29 -57 24 -19 -4 33 -21 61 -36 61 -5 0 0 -19 12
-42z"/>
<path d="M3548 799 c-20 -11 -24 -29 -7 -29 5 0 7 4 4 10 -6 9 14 16 70 23 24
3 22 4 -10 5 -22 1 -48 -3 -57 -9z"/>
<path d="M4500 785 c10 -12 8 -16 -15 -25 -14 -5 -34 -10 -43 -11 -10 0 -12
-3 -5 -6 12 -4 83 14 83 22 0 13 -14 35 -22 35 -6 0 -5 -6 2 -15z"/>
<path d="M2101 772 c-17 -31 -2 -61 35 -71 19 -5 63 -30 98 -55 63 -45 67 -46
138 -46 44 0 96 8 133 20 33 10 53 19 44 19 -9 1 -36 -6 -59 -14 -23 -8 -75
-15 -114 -15 -69 0 -73 2 -144 50 -41 28 -79 50 -87 50 -16 0 -26 48 -11 54 6
2 3 5 -7 5 -10 1 -15 6 -12 11 3 6 4 10 1 10 -3 0 -10 -8 -15 -18z"/>
<path d="M2338 759 c-15 -26 -15 -33 -3 -61 8 -18 14 -26 14 -18 1 8 -3 21 -8
29 -6 10 -4 25 5 44 20 38 13 44 -8 6z"/>
<path d="M2230 771 l-35 -6 30 -12 c62 -23 71 -25 45 -9 l-25 15 30 1 c23 0
27 3 15 10 -8 5 -17 9 -20 9 -3 -1 -21 -5 -40 -8z"/>
<path d="M4808 767 c-5 -10 -8 -30 -8 -45 l0 -25 -26 24 -27 24 13 -24 c8 -16
9 -26 2 -30 -7 -4 -8 -12 -2 -21 5 -8 7 -31 4 -51 -4 -22 -2 -39 5 -43 6 -4
11 -14 11 -22 0 -8 9 -23 19 -33 17 -17 20 -17 25 -4 8 21 7 25 -5 18 -6 -4
-13 2 -16 14 -3 12 -9 21 -14 21 -18 0 -9 80 11 100 18 18 20 18 20 3 0 -15 2
-16 10 -3 12 19 13 43 1 35 -6 -3 -11 14 -13 37 -2 31 -5 38 -10 25z"/>
<path d="M3569 761 c14 -9 10 -12 -51 -25 -16 -4 -28 -13 -28 -21 0 -8 -12
-21 -27 -29 -16 -8 -23 -15 -18 -15 19 0 60 27 60 40 0 7 14 16 31 19 17 4 36
10 43 14 13 9 5 26 -12 26 -8 0 -7 -3 2 -9z"/>
<path d="M2518 740 c42 -26 56 -26 17 0 -16 11 -34 20 -40 20 -5 0 5 -9 23
-20z"/>
<path d="M2185 740 c3 -5 14 -10 23 -11 16 0 16 -1 0 -7 -14 -6 -8 -12 27 -28
26 -12 40 -15 34 -7 -9 10 -7 13 6 13 26 0 18 5 -43 29 -29 12 -51 17 -47 11z"/>
<path d="M4375 730 c-13 -5 -14 -9 -5 -9 8 0 24 4 35 9 13 5 14 9 5 9 -8 0
-24 -4 -35 -9z"/>
<path d="M4848 734 c-4 -6 -4 -22 0 -35 6 -20 14 -24 45 -25 25 -1 37 3 37 13
0 9 -8 12 -25 9 -14 -3 -25 0 -25 5 0 6 -4 8 -9 4 -5 -3 -11 5 -13 17 -2 13
-6 18 -10 12z"/>
<path d="M2877 683 l-14 -47 -11 32 c-14 41 -23 41 -15 0 5 -24 3 -29 -7 -23
-10 6 -12 1 -7 -24 5 -22 3 -30 -4 -25 -7 4 -10 2 -8 -5 6 -18 24 -9 23 11 -1
17 14 18 63 3 6 -2 24 6 39 18 24 18 27 19 21 4 -4 -10 -3 -16 2 -13 12 8 20
56 10 56 -5 0 -9 -4 -9 -9 0 -5 -7 -11 -14 -14 -11 -4 -13 -1 -9 10 4 11 2 14
-5 9 -8 -4 -12 0 -13 11 0 14 -2 14 -9 -4 -15 -36 -23 -27 -16 17 8 54 0 51
-17 -7z"/>
<path d="M195 700 c-17 -10 -29 -24 -27 -33 1 -8 -2 -18 -8 -22 -15 -9 -12
-25 5 -25 11 0 14 -7 11 -25 -6 -31 -45 -87 -55 -80 -5 2 -18 -25 -30 -60 -23
-71 -26 -88 -11 -65 8 12 10 10 10 -10 0 -28 15 -17 25 20 4 17 3 21 -3 11 -8
-11 -11 -11 -18 0 -4 7 -3 14 4 17 7 2 12 11 12 20 0 10 10 28 21 42 l20 25
-15 -37 c-14 -35 -12 -118 3 -118 4 0 7 19 7 43 1 99 25 187 43 158 6 -9 12
-7 22 5 9 12 10 15 2 10 -7 -4 -13 -3 -13 3 0 5 5 13 10 16 6 3 10 11 10 17 0
6 -7 5 -17 -3 -14 -12 -16 -12 -11 1 7 22 33 18 33 -5 1 -53 31 -86 42 -45 3
11 8 18 12 16 10 -6 24 5 39 32 16 28 5 72 -22 92 -23 16 -29 14 -33 -11 -2
-12 4 -15 25 -11 21 3 24 2 16 -8 -16 -16 -49 -8 -48 11 2 28 -28 38 -61 19z
m26 -33 c-7 -7 -17 -7 -33 0 -21 10 -22 11 -4 18 11 5 21 3 27 -6 7 -11 9 -10
10 6 0 12 3 15 6 7 3 -8 0 -19 -6 -25z m-21 -27 c-20 -13 -43 -13 -35 0 3 6
16 10 28 10 18 0 19 -2 7 -10z m120 2 c0 -17 -13 -21 -34 -10 -21 11 -21 11
-2 -11 14 -15 16 -25 9 -32 -14 -14 -37 25 -29 47 6 15 56 20 56 6z m-60 -59
c0 -13 -4 -23 -10 -23 -5 0 -10 17 -10 38 0 27 3 33 10 22 5 -8 10 -25 10 -37z"/>
<path d="M2515 710 c3 -5 -2 -10 -12 -10 -16 -1 -17 -1 -1 -10 17 -10 48 -4
48 10 0 4 -7 11 -16 14 -22 8 -26 8 -19 -4z"/>
<path d="M4336 711 c-4 -6 0 -11 8 -11 30 0 16 -18 -21 -29 l-38 -11 35 5 c46
7 59 21 38 41 -11 11 -18 12 -22 5z"/>
<path d="M1041 683 c-1 -17 4 -33 10 -35 5 -2 7 -11 3 -21 -5 -15 -9 -15 -22
-5 -13 11 -14 9 -8 -15 6 -26 5 -27 -15 -17 -21 12 -21 12 -3 -12 13 -18 21
-22 30 -14 7 6 9 16 6 21 -3 6 2 3 12 -5 18 -14 18 -13 12 20 -5 32 -5 33 5 8
12 -31 39 -46 38 -20 -1 9 -5 28 -9 42 -6 20 -8 21 -9 6 -1 -28 -17 -10 -35
39 l-15 40 0 -32z"/>
<path d="M1130 685 c-5 -14 -12 -38 -15 -53 -4 -23 -4 -24 4 -7 8 16 10 13 10
-19 1 -64 14 -32 15 39 1 36 0 65 -1 65 -2 0 -8 -11 -13 -25z"/>
<path d="M5809 693 c-10 -17 -20 -20 -41 -16 -23 5 -28 2 -28 -15 0 -12 -9
-23 -20 -27 -11 -3 -20 -12 -20 -20 0 -19 37 -25 51 -8 11 12 8 13 -14 8 -32
-8 -35 0 -7 15 15 8 24 6 40 -7 24 -21 25 -36 5 -53 -18 -15 -19 -7 -4 23 11
20 10 20 -12 -2 -14 -15 -24 -20 -27 -13 -2 7 -8 10 -13 6 -14 -8 -11 -24 6
-24 17 0 20 -16 5 -25 -5 -3 -15 -25 -21 -48 -6 -23 -14 -36 -17 -28 -3 10 -8
7 -18 -10 -13 -24 -13 -24 -14 11 0 23 -3 31 -10 24 -6 -6 -7 -29 -4 -55 8
-56 37 -66 50 -16 l8 32 3 -33 c3 -18 9 -30 14 -27 5 4 9 -1 9 -10 0 -9 5 -13
11 -9 6 3 9 14 6 23 -2 11 1 18 9 18 8 0 14 -7 14 -15 0 -8 6 -12 14 -9 8 3
17 1 20 -6 2 -7 5 1 5 17 1 25 -1 27 -15 15 -13 -11 -14 -9 -8 17 l7 29 -23
-20 -23 -20 7 28 c3 15 4 27 2 27 -3 0 -12 -12 -20 -27 l-15 -28 -1 33 c0 39
14 68 46 99 21 19 25 20 33 6 9 -17 31 -10 31 11 0 9 9 12 25 8 19 -3 25 0 25
14 0 9 7 26 17 36 9 10 11 18 5 18 -6 0 -12 -5 -14 -12 -3 -7 -14 -9 -34 -3
l-29 8 25 6 c30 7 37 29 13 38 -10 4 -23 14 -29 22 -10 13 -13 12 -25 -6z m7
-29 c-4 -9 -9 -15 -11 -12 -3 3 -3 13 1 22 4 9 9 15 11 12 3 -3 3 -13 -1 -22z
m-38 -12 c2 -7 -2 -10 -12 -6 -9 3 -16 11 -16 16 0 13 23 5 28 -10z m82 8 c0
-5 -8 -10 -17 -10 -15 0 -16 2 -3 10 19 12 20 12 20 0z m-5 -60 c18 -20 11
-25 -19 -14 -17 6 -23 34 -8 34 5 0 17 -9 27 -20z m-35 -33 c0 -10 -4 -15 -10
-12 -5 3 -10 18 -10 33 0 21 2 24 10 12 5 -8 10 -23 10 -33z"/>
<path d="M3861 656 c-1 -15 -4 -16 -16 -6 -12 10 -15 9 -15 -4 0 -10 -4 -14
-10 -11 -5 3 -10 2 -10 -4 0 -20 22 -23 41 -5 14 12 19 13 19 4 0 -7 2 -11 5
-8 3 3 1 16 -4 29 -8 19 -10 20 -10 5z"/>
<path d="M1855 650 c-3 -5 -12 -7 -20 -3 -9 3 -15 -1 -15 -10 0 -8 -9 -17 -20
-20 -15 -4 -20 -14 -20 -41 0 -29 3 -34 17 -29 11 4 6 -9 -17 -43 -18 -27 -35
-51 -38 -54 -2 -3 -2 23 0 57 5 73 0 74 -18 1 l-12 -53 -2 50 -2 50 -19 -60
c-10 -33 -19 -64 -19 -70 0 -15 18 8 23 30 3 14 5 11 6 -10 2 -29 2 -29 16
-11 13 17 15 17 15 4 0 -9 5 -20 11 -24 12 -7 31 15 23 28 -3 4 4 25 16 46 19
34 25 38 57 35 20 -1 41 1 47 5 6 3 17 7 25 7 8 0 16 5 18 12 3 7 -3 10 -15 6
-11 -2 -23 0 -27 7 -10 17 2 25 18 12 10 -9 18 -8 33 3 18 14 18 16 2 29 -10
7 -18 18 -18 25 0 6 -7 11 -15 11 -8 0 -15 5 -15 10 0 13 -27 13 -35 0z m18
-21 c-6 -20 -4 -20 18 -8 22 11 23 11 10 -4 -15 -19 -20 -20 -39 -9 -7 5 -10
16 -6 25 9 25 23 21 17 -4z m-58 -35 c-19 -16 -19 -16 5 -10 24 7 24 6 6 -8
-27 -22 -34 -20 -31 7 3 28 2 27 23 27 15 -1 15 -2 -3 -16z m120 -4 c3 -5 -3
-10 -14 -10 -12 0 -21 5 -21 10 0 6 6 10 14 10 8 0 18 -4 21 -10z m-60 -31 c9
-29 -4 -38 -21 -15 -12 17 -14 18 -14 3 0 -9 -5 -17 -11 -17 -10 0 -5 13 14
38 14 18 25 15 32 -9z"/>
<path d="M2687 615 c5 -44 4 -48 -8 -32 -13 16 -14 12 -10 -30 3 -26 6 -40 9
-30 2 9 8 15 13 12 5 -4 9 0 9 7 0 9 3 9 10 -2 8 -12 10 -11 10 7 0 12 5 25
10 28 6 3 10 18 10 33 l-1 27 -13 -30 c-14 -31 -14 -32 -34 30 -9 26 -10 23
-5 -20z"/>
<path d="M3892 640 c0 -14 2 -19 5 -12 2 6 2 18 0 25 -3 6 -5 1 -5 -13z"/>
<path d="M4258 653 c7 -3 16 -2 19 1 4 3 -2 6 -13 5 -11 0 -14 -3 -6 -6z"/>
<path d="M1190 625 c-17 -31 -30 -32 -23 -2 3 17 2 19 -5 7 -6 -8 -8 -27 -5
-41 5 -26 16 -31 40 -16 6 4 13 3 15 -3 7 -20 27 6 21 28 -5 22 -6 22 -25 5
-19 -17 -19 -16 -8 11 14 37 7 44 -10 11z"/>
<path d="M2588 643 c6 -2 18 -2 25 0 6 3 1 5 -13 5 -14 0 -19 -2 -12 -5z"/>
<path d="M3916 634 c-3 -9 0 -22 8 -30 17 -16 36 -19 36 -4 0 6 -5 10 -11 10
-6 0 -9 6 -6 14 3 8 0 17 -8 20 -7 2 -16 -2 -19 -10z"/>
<path d="M4182 633 c-11 -10 -35 -26 -53 -36 -46 -25 -25 -41 59 -43 l67 -2
-67 7 c-38 4 -71 10 -74 14 -3 3 13 16 36 29 81 44 86 48 69 48 -9 0 -25 -8
-37 -17z"/>
<path d="M4815 611 c-9 -18 -13 -37 -9 -43 5 -7 13 4 21 27 16 48 10 57 -12
16z"/>
<path d="M5520 630 c0 -6 -9 -10 -20 -10 -30 0 -24 -23 10 -43 17 -10 30 -22
30 -26 0 -13 -29 -47 -30 -34 0 6 5 15 10 18 6 3 10 11 10 17 0 6 -8 4 -18 -5
-23 -21 -39 -22 -22 -2 10 12 10 15 -1 15 -11 0 -11 2 1 10 8 5 10 10 5 10
-19 0 -34 -22 -27 -39 11 -29 39 -54 47 -41 4 6 14 9 22 6 9 -4 21 -2 28 4 10
8 16 2 25 -25 7 -20 10 -45 7 -57 -8 -28 3 -54 14 -36 7 10 9 10 9 1 0 -7 5
-13 10 -13 6 0 10 15 9 33 0 27 -2 29 -9 12 -8 -19 -9 -19 -9 3 -1 13 -8 36
-16 53 -15 28 -14 31 9 56 16 17 22 31 16 38 -5 6 -7 21 -4 33 5 16 1 22 -17
25 -45 8 -89 6 -89 -3z m30 -16 c0 -8 -4 -12 -10 -9 -5 3 -10 10 -10 16 0 5 5
9 10 9 6 0 10 -7 10 -16z m60 -9 c-7 -8 -18 -15 -24 -15 -6 0 -2 7 8 15 25 19
32 19 16 0z m-85 -5 c8 -13 -5 -13 -25 0 -13 8 -13 10 2 10 9 0 20 -4 23 -10z
m101 -31 c5 -8 -1 -10 -20 -7 -21 4 -24 3 -15 -9 7 -7 9 -17 5 -21 -4 -4 -14
2 -22 12 -11 16 -11 21 -1 28 18 11 45 10 53 -3z m-66 -34 c0 -8 -4 -15 -10
-15 -5 0 -7 7 -4 15 4 8 8 15 10 15 2 0 4 -7 4 -15z"/>
<path d="M4845 576 c-18 -27 -10 -63 10 -46 6 5 15 8 18 5 4 -3 5 -2 2 1 -2 4
2 13 10 21 23 23 17 38 -6 17 -21 -19 -22 -19 -15 4 9 29 1 28 -19 -2z"/>
<path d="M535 581 c-17 -3 -30 -13 -30 -21 0 -8 -6 -19 -12 -23 -17 -11 -16
-37 1 -37 8 0 16 -7 20 -15 3 -10 15 -14 35 -11 32 4 47 -8 75 -59 15 -26 16
-27 10 -5 -3 14 -10 29 -14 33 -4 5 -3 21 3 37 12 31 -3 60 -30 60 -8 0 -11 5
-8 10 3 6 13 10 21 10 9 0 12 -5 8 -11 -4 -7 -1 -10 6 -7 28 9 22 28 -9 28
-17 0 -31 5 -31 10 0 11 0 11 -45 1z m27 -23 c-7 -7 -12 -8 -12 -2 0 6 3 14 7
17 3 4 9 5 12 2 2 -3 -1 -11 -7 -17z m-24 -6 c2 -7 -2 -10 -12 -6 -9 3 -16 11
-16 16 0 13 23 5 28 -10z m-4 -39 c4 -9 1 -21 -5 -27 -9 -8 -10 -7 -6 7 5 12
1 17 -14 17 -11 0 -17 5 -14 10 10 16 32 12 39 -7z m23 -25 c-3 -7 -5 -2 -5
12 0 14 2 19 5 13 2 -7 2 -19 0 -25z m50 10 c2 -21 -8 -23 -25 -6 -17 17 -15
27 6 25 10 0 19 -9 19 -19z"/>
<path d="M2747 572 c-9 -10 -17 -27 -17 -38 0 -16 2 -17 10 -4 6 9 10 11 10 3
0 -7 7 -10 15 -7 16 7 19 31 7 52 -7 10 -12 8 -25 -6z"/>
<path d="M3827 577 c-4 -10 -11 -15 -17 -12 -5 3 -10 -3 -10 -15 0 -17 3 -19
19 -10 16 8 21 6 26 -9 3 -11 13 -18 23 -16 9 2 23 4 30 4 6 1 12 8 12 17 0 8
-5 12 -11 8 -7 -4 -9 0 -5 14 5 15 3 20 -8 18 -9 -1 -19 -5 -22 -9 -12 -12
-22 -8 -26 11 -3 16 -4 16 -11 -1z"/>
<path d="M4719 573 c15 -29 14 -36 -4 -30 -12 5 -12 2 -3 -18 8 -18 13 -21 23
-12 7 7 10 17 7 22 -3 6 2 4 11 -4 15 -12 17 -11 17 9 0 13 -3 20 -7 17 -3 -4
-18 3 -31 15 l-25 23 12 -22z"/>
<path d="M35 568 c-7 -20 -8 -58 -5 -133 3 -67 3 -68 10 -25 4 25 12 56 18 70
l11 25 1 -25 c2 -16 5 -10 11 19 11 59 5 62 -20 9 l-21 -43 2 58 c3 57 1 68
-7 45z"/>
<path d="M2573 532 c-6 -26 -7 -54 -3 -62 5 -9 11 7 15 43 9 72 3 81 -12 19z"/>
<path d="M2607 531 c-20 -57 -21 -79 -2 -36 13 27 14 27 15 8 0 -13 4 -23 9
-23 7 0 4 88 -3 97 -1 1 -9 -20 -19 -46z"/>
<path d="M855 561 c-16 -3 -29 -10 -27 -14 1 -4 2 -11 2 -16 0 -5 6 -11 13
-14 6 -2 2 -2 -10 -1 -12 2 -25 0 -28 -6 -3 -5 -1 -10 4 -10 6 0 11 -7 11 -15
0 -8 7 -15 15 -15 21 0 19 -8 -12 -53 -31 -44 -42 -107 -18 -103 8 1 17 5 21
9 4 3 15 2 25 -4 15 -7 19 -6 19 6 0 14 -12 20 -33 16 -5 -1 -5 9 -1 21 6 20
5 21 -10 9 -21 -18 -20 -3 3 35 14 22 30 33 55 38 25 5 34 11 29 21 -7 19 -23
19 -23 0 0 -8 -7 -15 -15 -15 -17 0 -19 9 -6 29 19 30 79 16 67 -16 -8 -21 0
-15 18 12 9 14 13 31 9 38 -4 7 -8 19 -8 27 0 10 -8 14 -22 13 -13 -2 -23 2
-23 7 0 11 -9 11 -55 1z m45 -10 c0 -6 -4 -13 -10 -16 -5 -3 -10 1 -10 9 0 9
5 16 10 16 6 0 10 -4 10 -9z m-35 -11 c3 -5 -1 -10 -9 -10 -9 0 -16 5 -16 10
0 6 4 10 9 10 6 0 13 -4 16 -10z m75 0 c0 -5 -8 -10 -17 -10 -15 0 -16 2 -3
10 19 12 20 12 20 0z m20 -42 c0 -13 -32 -6 -37 9 -3 7 3 9 16 6 12 -3 21 -10
21 -15z m-105 -8 c-3 -5 -11 -10 -16 -10 -6 0 -7 5 -4 10 3 6 11 10 16 10 6 0
7 -4 4 -10z"/>
<path d="M1644 510 c3 -36 2 -57 -1 -47 -7 28 -21 20 -16 -10 l4 -28 -30 35
c-34 38 -39 35 -16 -11 9 -16 20 -27 25 -24 6 4 13 0 16 -9 3 -8 12 -12 19
-10 21 8 26 65 10 119 l-15 50 4 -65z"/>
<path d="M2540 510 c6 -33 5 -40 -6 -36 -15 6 -18 -3 -6 -21 4 -7 13 -9 19 -5
14 9 10 79 -4 93 -7 7 -8 -3 -3 -31z"/>
<path d="M4273 543 c9 -2 23 -2 30 0 6 3 -1 5 -18 5 -16 0 -22 -2 -12 -5z"/>
<path d="M3727 533 c-4 -3 -7 -17 -7 -31 0 -21 -2 -22 -15 -12 -12 10 -15 9
-15 -6 0 -32 13 -42 38 -33 20 8 22 13 16 46 -8 44 -8 45 -17 36z"/>
<path d="M3764 529 c-4 -7 -8 -32 -9 -56 l-2 -45 20 23 c13 17 17 19 13 7 -3
-11 0 -18 8 -18 22 0 46 11 46 21 0 4 -7 5 -17 2 -11 -4 -14 -3 -9 5 4 7 2 12
-4 12 -7 0 -9 7 -6 17 6 15 4 15 -14 -2 -23 -20 -24 -17 -10 19 10 26 -2 37
-16 15z"/>
<path d="M4341 521 l24 -19 -63 -12 c-34 -7 -61 -15 -58 -17 8 -8 115 18 122
29 4 6 -1 17 -11 25 -29 20 -40 15 -14 -6z"/>
<path d="M2640 516 c0 -8 5 -18 10 -21 6 -3 10 3 10 14 0 12 -4 21 -10 21 -5
0 -10 -6 -10 -14z"/>
<path d="M2391 483 c-6 -21 -11 -45 -11 -53 1 -13 2 -13 9 0 9 16 22 90 16 90
-2 0 -9 -17 -14 -37z"/>
<path d="M3298 503 c6 -2 18 -2 25 0 6 3 1 5 -13 5 -14 0 -19 -2 -12 -5z"/>
<path d="M3240 490 c0 -5 4 -10 9 -10 6 0 13 5 16 10 3 6 -1 10 -9 10 -9 0
-16 -4 -16 -10z"/>
<path d="M6 468 c-3 -13 -5 -36 -5 -53 1 -21 4 -15 10 20 8 52 6 72 -5 33z"/>
<path d="M712 448 c-5 -24 -8 -59 -5 -79 4 -29 9 -35 26 -34 17 1 21 9 23 50
l2 49 -20 -34 -19 -35 5 63 c3 34 4 62 2 62 -2 0 -8 -19 -14 -42z"/>
<path d="M1791 468 c-8 -13 -16 -38 -17 -56 -3 -29 -1 -32 12 -21 8 6 12 20 9
30 -3 10 1 30 11 44 9 14 12 25 8 25 -5 0 -15 -10 -23 -22z"/>
<path d="M2355 476 c-17 -54 -16 -53 -30 -26 -12 22 -13 20 -7 -25 5 -46 4
-49 -12 -36 -16 13 -17 12 -10 -15 8 -35 14 -43 14 -20 0 9 5 14 10 11 6 -3
10 -1 10 5 0 6 5 8 12 4 7 -5 9 -2 6 7 -3 8 -2 23 3 34 7 17 8 16 8 -7 1 -16
6 -28 11 -28 7 0 8 19 4 53 -8 59 -11 67 -19 43z"/>
<path d="M2422 456 c-7 -15 -8 -35 -2 -53 4 -15 9 -26 10 -23 3 8 8 100 5 100
-1 0 -7 -11 -13 -24z"/>
<path d="M3225 470 l-40 -7 42 -2 c23 0 45 4 48 9 3 6 3 9 -2 9 -4 -1 -26 -5
-48 -9z"/>
<path d="M3656 455 c-18 -27 -21 -39 -7 -31 5 4 7 -3 4 -14 -6 -24 25 -40 38
-19 5 8 4 15 -1 17 -5 2 -6 10 -3 18 3 8 0 14 -7 14 -7 0 -10 8 -7 20 7 26 3
25 -17 -5z"/>
<path d="M5565 453 c6 -32 -6 -46 -20 -23 -11 18 -26 10 -20 -10 5 -16 3 -19
-12 -14 -12 4 -9 -3 11 -21 33 -30 43 -27 25 7 -12 22 -11 23 8 6 11 -10 22
-18 24 -18 11 0 2 81 -10 92 -11 11 -12 7 -6 -19z"/>
<path d="M4208 463 c7 -3 16 -2 19 1 4 3 -2 6 -13 5 -11 0 -14 -3 -6 -6z"/>
<path d="M4705 404 c2 -36 6 -69 9 -72 3 -3 6 2 6 11 0 19 11 22 27 6 7 -7 12
-4 16 10 3 12 1 21 -4 21 -5 0 -18 20 -29 45 -11 25 -22 45 -24 45 -3 0 -3
-30 -1 -66z"/>
<path d="M4751 452 c-6 -11 -8 -29 -4 -39 6 -14 9 -11 14 17 9 41 5 50 -10 22z"/>
<path d="M186 435 c-7 -27 -9 -28 -16 -10 -7 16 -9 17 -9 3 -1 -9 -3 -23 -6
-31 -4 -8 0 -14 10 -14 8 0 15 4 15 9 0 4 5 8 10 8 6 0 10 -7 10 -16 0 -13 3
-14 13 -5 9 7 17 7 24 0 11 -11 43 -2 43 13 0 6 -6 8 -14 5 -10 -4 -18 4 -24
21 -9 27 -9 27 -16 5 -11 -33 -24 -28 -28 10 l-3 32 -9 -30z"/>
<path d="M661 418 c-1 -27 3 -48 8 -48 5 0 12 -10 16 -22 l8 -23 4 24 c3 13 1
26 -5 30 -5 3 -14 24 -20 46 l-10 40 -1 -47z"/>
<path d="M3160 450 c8 -5 22 -10 30 -10 13 0 13 1 0 10 -8 5 -22 10 -30 10
-13 0 -13 -1 0 -10z"/>
<path d="M4168 453 c7 -3 16 -2 19 1 4 3 -2 6 -13 5 -11 0 -14 -3 -6 -6z"/>
<path d="M4821 442 c-12 -22 -3 -65 11 -56 5 3 7 13 4 21 -3 8 -1 23 4 34 7
12 7 19 1 19 -6 0 -15 -8 -20 -18z"/>
<path d="M4862 443 c-16 -13 -19 -25 -15 -46 4 -22 8 -25 19 -16 8 6 14 8 14
3 0 -15 20 20 20 35 0 11 -4 10 -19 -3 -14 -13 -21 -14 -27 -5 -4 7 -3 10 2 6
5 -3 14 6 21 19 13 29 12 29 -15 7z"/>
<path d="M1819 440 c-11 -6 -15 -18 -11 -35 3 -19 8 -23 17 -15 6 5 14 7 17 5
3 -3 8 3 11 15 6 23 -3 26 -22 8 -11 -11 -11 -9 -2 10 13 25 13 25 -10 12z"/>
<path d="M3613 426 c2 -30 27 -50 27 -22 0 9 -4 16 -9 16 -5 0 -12 8 -15 18
-2 9 -4 4 -3 -12z"/>
<path d="M4118 443 c7 -3 16 -2 19 1 4 3 -2 6 -13 5 -11 0 -14 -3 -6 -6z"/>
<path d="M4663 423 c6 -18 15 -33 19 -33 4 0 5 -7 2 -15 -5 -12 -10 -13 -20
-4 -17 14 -18 5 -4 -21 6 -11 16 -17 23 -14 21 8 16 60 -9 91 l-23 28 12 -32z"/>
<path d="M4782 426 c-7 -15 -9 -39 -6 -53 l7 -26 13 25 c8 16 10 35 6 53 l-8
27 -12 -26z"/>
<path d="M2172 423 c-3 -39 -25 -123 -33 -123 -4 0 -5 19 -3 43 l3 42 -13 -50
c-7 -30 -15 -44 -18 -35 -5 11 -7 10 -7 -5 0 -11 4 -27 9 -35 8 -12 10 -12 10
5 0 16 2 17 10 5 11 -18 15 -14 28 35 l10 40 2 -45 c1 -36 3 -40 9 -20 4 14 4
57 1 95 -4 39 -8 60 -8 48z"/>
<path d="M2447 433 c-4 -6 -3 -21 1 -34 6 -15 11 -18 16 -11 4 7 12 10 17 7
12 -8 11 6 -1 25 -9 13 -10 13 -11 0 0 -10 -3 -9 -8 4 -5 12 -10 16 -14 9z"/>
<path d="M3175 430 l-50 -7 53 -1 c29 -1 52 2 52 8 0 6 -1 9 -2 8 -2 0 -25 -4
-53 -8z"/>
<path d="M3576 410 c7 -32 6 -34 -9 -21 -15 12 -17 11 -17 -7 0 -15 5 -19 20
-15 11 3 21 10 21 17 2 20 -3 41 -12 51 -6 6 -7 -4 -3 -25z"/>
<path d="M4078 433 c7 -3 16 -2 19 1 4 3 -2 6 -13 5 -11 0 -14 -3 -6 -6z"/>
<path d="M4020 420 c-18 -12 -2 -12 25 0 13 6 15 9 5 9 -8 0 -22 -4 -30 -9z"/>
<path d="M601 390 c6 -16 15 -28 19 -25 5 3 16 -7 24 -22 l15 -28 1 25 c0 17
-11 34 -34 53 l-35 27 10 -30z"/>
<path d="M2397 414 c-4 -4 -7 -14 -7 -23 0 -11 3 -12 11 -4 6 6 10 16 7 23 -2
6 -7 8 -11 4z"/>
<path d="M3023 413 c15 -2 37 -2 50 0 12 2 0 4 -28 4 -27 0 -38 -2 -22 -4z"/>
<path d="M2087 400 c-9 -24 -14 -130 -6 -136 9 -5 22 93 17 127 -3 17 -6 20
-11 9z"/>
<path d="M2209 377 c-10 -20 -14 -47 -11 -71 5 -39 5 -39 18 -15 7 13 13 18
14 12 0 -18 27 -16 34 3 9 23 7 36 -4 29 -5 -3 -10 2 -10 12 0 15 -4 14 -21
-7 -17 -21 -19 -22 -15 -5 22 85 21 94 -5 42z"/>
<path d="M2932 403 c-16 -6 -5 -23 16 -23 14 0 14 2 3 9 -11 7 -7 10 15 14 25
3 25 4 4 5 -14 0 -31 -2 -38 -5z"/>
<path d="M3978 399 c-20 -11 -24 -29 -6 -29 6 0 8 3 5 7 -4 3 1 12 11 19 20
16 14 18 -10 3z"/>
<path d="M769 395 c-5 -28 -4 -65 2 -65 13 0 18 30 9 52 -5 13 -10 19 -11 13z"/>
<path d="M2998 373 c7 -3 16 -2 19 1 4 3 -2 6 -13 5 -11 0 -14 -3 -6 -6z"/>
<path d="M2035 353 c3 -10 9 -31 12 -47 5 -25 4 -28 -11 -23 -12 5 -16 3 -14
-5 3 -7 14 -14 25 -16 16 -2 19 2 18 25 -3 32 -21 83 -31 83 -3 0 -3 -8 1 -17z"/>
<path d="M3039 362 c11 -8 11 -10 0 -15 -10 -4 -8 -6 4 -6 21 -1 18 21 -4 27
-12 3 -12 2 0 -6z"/>
<path d="M4028 363 c7 -3 16 -2 19 1 4 3 -2 6 -13 5 -11 0 -14 -3 -6 -6z"/>
<path d="M580 353 c0 -4 9 -19 20 -33 12 -15 18 -18 14 -7 -3 9 -1 17 5 17 6
0 11 8 10 18 0 10 -3 12 -6 5 -3 -9 -10 -10 -24 -3 -10 6 -19 7 -19 3z"/>
<path d="M4083 348 c30 -11 27 -28 -5 -28 -12 0 -19 -3 -15 -6 10 -11 57 6 57
20 0 8 -10 16 -22 20 -36 9 -46 6 -15 -6z"/>
<path d="M1174 335 c-5 -11 -11 -12 -24 -5 -24 13 -30 13 -30 -1 0 -5 4 -8 9
-5 12 8 34 -20 29 -35 -3 -9 -8 -8 -19 3 -13 14 -17 14 -41 -4 -28 -19 -38
-48 -17 -48 6 0 8 -8 5 -18 -5 -14 1 -22 21 -31 24 -11 29 -10 45 11 14 18 18
19 18 7 0 -23 26 -31 40 -13 7 8 19 14 26 14 8 0 14 9 14 20 0 11 7 20 15 20
23 0 18 30 -7 39 -14 5 -17 10 -10 15 24 14 12 29 -18 23 -22 -5 -30 -3 -30 8
0 19 -19 19 -26 0z m13 -27 c-3 -8 -6 -5 -6 6 -1 11 2 17 5 13 3 -3 4 -12 1
-19z m53 2 c-20 -13 -33 -13 -25 0 3 6 14 10 23 10 15 0 15 -2 2 -10z m-114
-45 c-27 -21 -53 -20 -36 0 7 8 22 15 34 15 21 -1 21 -1 2 -15z m139 5 c3 -6
-5 -10 -19 -10 -14 0 -28 5 -31 10 -3 6 5 10 19 10 14 0 28 -4 31 -10z m-65
-51 c0 -11 -4 -19 -9 -19 -10 0 -21 24 -21 47 0 13 3 13 15 3 8 -7 15 -21 15
-31z m-52 -1 c-13 -36 -22 -36 -13 0 5 22 4 25 -6 15 -18 -18 -34 -16 -20 1 7
8 20 14 30 13 16 -1 17 -5 9 -29z m90 13 c3 -8 -1 -12 -9 -9 -7 2 -15 10 -17
17 -3 8 1 12 9 9 7 -2 15 -10 17 -17z"/>
<path d="M1891 305 c-11 -43 -6 -125 8 -125 3 0 6 38 6 85 0 47 0 85 -1 85 -1
0 -7 -20 -13 -45z"/>
<path d="M2793 333 c42 -2 112 -2 155 0 42 1 7 3 -78 3 -85 0 -120 -2 -77 -3z"/>
<path d="M5880 334 c0 -23 31 -114 39 -110 4 3 8 -9 8 -26 0 -18 5 -34 11 -36
6 -2 8 -10 6 -17 -4 -11 -13 -6 -31 16 -32 37 -39 32 -19 -15 l15 -36 -34 26
c-19 15 -35 24 -35 22 0 -12 48 -67 53 -61 4 3 13 0 22 -7 19 -16 19 -12 0 36
l-16 39 20 -25 c11 -14 21 -28 21 -32 0 -5 4 -8 9 -8 5 0 7 10 4 23 -4 22 -4
22 10 -2 13 -22 14 -19 20 51 4 40 3 85 -1 98 -5 18 -8 3 -12 -50 l-5 -75 -28
75 c-29 78 -56 133 -57 114z"/>
<path d="M2635 320 c-14 -7 -8 -8 20 -3 22 3 42 7 44 9 9 8 -45 2 -64 -6z"/>
<path d="M4627 295 c-18 -39 -23 -70 -7 -45 8 13 10 12 11 -5 1 -11 5 2 10 30
4 27 7 51 5 52 -1 2 -10 -13 -19 -32z"/>
<path d="M5127 310 c3 -11 7 -20 9 -20 2 0 4 9 4 20 0 11 -4 20 -9 20 -5 0 -7
-9 -4 -20z"/>
<path d="M5241 279 c-11 -24 -22 -57 -25 -74 -5 -23 -4 -25 3 -10 8 19 9 19
13 -5 3 -14 4 -7 2 15 -2 22 0 33 3 25 4 -8 11 6 19 35 16 64 9 70 -15 14z"/>
<path d="M2585 300 c-7 -12 37 -30 68 -29 12 1 2 6 -22 11 -32 7 -40 12 -30
19 9 5 10 9 2 9 -6 0 -15 -5 -18 -10z"/>
<path d="M3442 293 c-6 -12 -12 -30 -12 -40 0 -15 -4 -14 -20 7 -16 20 -19 21
-13 5 10 -32 33 -62 33 -45 0 13 2 13 9 1 14 -22 28 17 21 59 -5 34 -6 34 -18
13z"/>
<path d="M4018 303 c6 -2 18 -2 25 0 6 3 1 5 -13 5 -14 0 -19 -2 -12 -5z"/>
<path d="M4546 273 c9 -20 13 -45 10 -55 -6 -24 2 -48 16 -48 6 0 8 14 3 36
-4 24 -3 34 4 29 6 -3 11 -15 11 -25 0 -10 5 -22 10 -25 6 -3 10 5 10 19 0 13
-4 26 -8 28 -4 2 -18 20 -31 41 -29 47 -45 48 -25 0z"/>
<path d="M3987 293 c-13 -12 -7 -23 11 -22 10 0 12 3 4 6 -6 2 -10 9 -6 14 6
10 0 12 -9 2z"/>
<path d="M1686 255 c-9 -20 -21 -56 -28 -78 l-13 -42 -6 35 -6 35 -2 -32 c0
-18 -5 -33 -11 -33 -5 0 -10 -9 -10 -19 0 -28 20 -37 21 -9 1 21 2 21 7 3 4
-16 7 -11 17 20 l13 40 1 -39 c1 -30 4 -37 16 -32 8 3 15 0 15 -7 0 -8 4 -6
10 3 5 8 9 24 9 35 l0 20 -10 -20 c-8 -17 -9 -16 -6 7 2 15 0 25 -4 22 -5 -3
-9 -13 -10 -22 -1 -11 -4 -8 -9 8 -10 32 -12 55 -3 46 4 -3 12 15 19 41 15 59
10 67 -10 18z"/>
<path d="M985 268 c-12 -33 -35 -164 -36 -201 l0 -42 -21 60 c-25 75 -35 86
-30 34 3 -29 7 -37 13 -28 6 9 8 -6 5 -41 -4 -38 -3 -44 2 -20 l8 35 7 -32
c11 -56 27 -37 29 35 l2 67 3 -60 c7 -101 19 -82 15 23 -2 53 1 116 6 140 9
39 7 58 -3 30z"/>
<path d="M1845 235 c4 -43 3 -48 -9 -32 -17 22 -25 22 -19 -2 6 -24 34 -36 43
-20 6 8 9 7 13 -2 3 -8 6 1 6 19 1 19 -3 31 -9 27 -5 -3 -14 9 -20 27 -9 30
-10 29 -5 -17z"/>
<path d="M3484 268 c-5 -7 -10 -24 -11 -38 -2 -21 0 -19 12 9 15 34 14 54 -1
29z"/>
<path d="M4514 264 c3 -9 9 -28 13 -42 6 -27 6 -27 -16 -8 -28 26 -32 18 -10
-19 11 -16 19 -24 19 -16 0 11 4 9 15 -5 13 -18 14 -16 11 21 -3 39 -21 85
-32 85 -4 0 -3 -7 0 -16z"/>
<path d="M1918 253 c-8 -29 2 -79 13 -61 5 7 13 14 19 14 5 1 15 2 20 3 6 0
10 8 10 17 0 8 -4 13 -9 10 -5 -4 -12 0 -14 6 -4 10 -8 10 -15 -1 -8 -11 -11
-9 -14 10 -3 23 -4 23 -10 2z"/>
<path d="M2688 263 c6 -2 18 -2 25 0 6 3 1 5 -13 5 -14 0 -19 -2 -12 -5z"/>
<path d="M4030 263 c8 -3 19 -11 23 -17 6 -7 7 -6 4 4 -2 8 -12 16 -23 17 -13
2 -15 1 -4 -4z"/>
<path d="M4665 259 c-10 -15 -12 -79 -3 -79 9 0 9 1 12 53 3 39 1 44 -9 26z"/>
<path d="M273 218 c-7 -26 -12 -57 -12 -70 1 -16 4 -12 9 12 6 28 8 21 10 -40
1 -41 5 -86 9 -100 7 -23 8 -22 14 14 3 22 4 42 2 45 -3 2 -6 -4 -7 -15 -1
-10 -4 31 -7 91 l-6 110 -12 -47z"/>
<path d="M1581 220 c1 -25 -2 -57 -6 -72 -5 -18 -3 -28 4 -28 6 0 11 15 12 33
0 27 2 29 10 12 6 -14 7 -6 3 25 -9 66 -24 85 -23 30z"/>
<path d="M2738 253 c6 -2 18 -2 25 0 6 3 1 5 -13 5 -14 0 -19 -2 -12 -5z"/>
<path d="M4695 250 c-4 -6 -8 -26 -10 -46 -3 -29 -1 -33 11 -23 11 9 14 8 15
-2 1 -16 17 20 18 40 1 11 -2 11 -15 0 -13 -11 -14 -9 -9 14 7 27 2 36 -10 17z"/>
<path d="M4856 253 c-4 -4 -13 -8 -19 -8 -7 0 -13 -4 -15 -10 -2 -5 -11 -18
-20 -28 -10 -11 -12 -21 -7 -25 18 -13 9 -67 -19 -107 -39 -56 -39 -56 -33 5
5 52 4 53 -8 25 -9 -20 -10 -43 -5 -70 4 -22 8 -33 9 -25 1 13 2 13 11 0 9
-13 10 -13 10 0 0 8 14 39 31 69 21 37 34 50 39 41 8 -13 30 -5 30 11 0 6 -5
7 -11 3 -8 -4 -9 0 -4 15 7 23 -4 28 -23 9 -8 -8 -12 -8 -12 -1 0 6 7 17 17
24 13 11 17 11 20 1 3 -6 9 -9 15 -6 6 4 8 -1 4 -14 -8 -24 11 -39 27 -23 6 6
17 11 23 11 7 0 25 11 40 25 22 21 25 27 14 40 -7 8 -19 15 -26 15 -8 0 -14 5
-14 11 0 6 -9 9 -20 6 -11 -3 -23 -1 -26 4 -6 11 -18 12 -28 2z m24 -13 c0 -5
-2 -10 -4 -10 -3 0 -8 5 -11 10 -3 6 -1 10 4 10 6 0 11 -4 11 -10z m-30 -10
c8 -5 11 -10 5 -10 -5 0 -17 5 -25 10 -8 5 -10 10 -5 10 6 0 17 -5 25 -10z
m70 6 c0 -3 -4 -8 -10 -11 -5 -3 -10 -1 -10 4 0 6 5 11 10 11 6 0 10 -2 10 -4z
m39 -25 c19 -13 -4 -24 -32 -15 -19 6 -20 5 -8 -10 19 -23 5 -34 -16 -13 -16
16 -16 18 2 32 23 17 35 18 54 6z m-119 -5 c0 -2 -9 -6 -20 -9 -11 -3 -18 -1
-14 4 5 9 34 13 34 5z m47 -58 c-3 -8 -6 -5 -6 6 -1 11 2 17 5 13 3 -3 4 -12
1 -19z"/>
<path d="M2788 243 c6 -2 18 -2 25 0 6 3 1 5 -13 5 -14 0 -19 -2 -12 -5z"/>
<path d="M3370 244 c1 -19 28 -45 35 -34 4 6 5 12 4 13 -2 2 -12 9 -21 16 -10
7 -18 10 -18 5z"/>
<path d="M5144 208 c1 -26 -1 -53 -6 -60 -6 -10 -8 -10 -8 0 0 6 -5 12 -11 12
-6 0 -9 -7 -5 -15 3 -8 1 -15 -3 -15 -5 0 -19 25 -32 55 -26 63 -34 64 -24 4
4 -25 10 -37 15 -29 5 8 11 3 18 -17 5 -15 17 -37 26 -48 l15 -20 1 20 c0 17
2 17 10 5 8 -12 10 -8 11 15 1 17 3 22 6 13 12 -45 33 10 33 85 0 42 -20 22
-21 -21 -1 -37 -1 -37 -15 13 l-13 50 3 -47z"/>
<path d="M2854 231 c18 -7 18 -8 3 -14 -25 -10 -21 -23 13 -37 16 -7 27 -16
24 -21 -3 -5 0 -9 5 -9 22 0 10 20 -21 36 l-33 17 25 9 c20 7 22 11 10 18 -8
5 -22 9 -30 9 -10 0 -9 -3 4 -8z"/>
<path d="M3251 209 c-14 -41 -14 -61 2 -82 10 -15 12 -7 12 48 0 36 -1 65 -2
65 0 0 -6 -14 -12 -31z"/>
<path d="M1551 185 c0 -42 2 -46 11 -28 7 15 7 30 0 50 -10 26 -10 24 -11 -22z"/>
<path d="M1728 203 c-4 -18 -2 -46 4 -64 10 -29 12 -31 19 -13 7 19 8 19 9 -1
1 -19 2 -19 13 3 7 12 16 19 20 16 4 -4 7 8 7 27 l-1 34 -14 -25 -14 -25 -1
35 -2 35 -12 -40 -13 -40 -4 45 c-4 44 -4 44 -11 13z"/>
<path d="M3960 223 c-17 -6 -73 -63 -62 -63 12 0 29 15 34 29 2 8 20 20 39 27
19 7 27 12 19 12 -8 0 -22 -2 -30 -5z"/>
<path d="M6018 218 c-9 -21 2 -118 13 -118 10 0 23 40 15 47 -3 4 -7 0 -8 -8
-1 -8 -4 11 -7 41 -4 35 -9 49 -13 38z"/>
<path d="M1397 200 c-9 -31 -12 -78 -8 -150 l2 -55 16 50 c12 36 18 44 21 30
3 -14 9 -4 17 30 7 28 12 51 10 53 -2 2 -13 -18 -26 -43 -21 -43 -24 -44 -31
-24 -6 14 -5 25 2 29 7 4 10 28 8 56 -3 40 -5 44 -11 24z"/>
<path d="M4631 193 c0 -25 1 -26 9 -8 12 27 12 35 0 35 -5 0 -10 -12 -9 -27z"/>
<path d="M5265 191 c-17 -34 -10 -88 11 -88 8 0 13 6 10 14 -3 7 -1 13 4 13 6
0 10 10 10 23 -1 21 -1 22 -15 3 -13 -17 -15 -17 -15 -4 0 9 4 28 10 42 13 35
4 33 -15 -3z"/>
<path d="M3306 179 c-3 -17 -2 -38 4 -47 7 -13 9 -5 10 31 0 54 -5 60 -14 16z"/>
<path d="M3196 160 c5 -42 4 -44 -10 -26 -17 21 -20 15 -9 -22 4 -18 8 -20 14
-10 7 10 9 10 9 1 0 -7 3 -13 8 -13 11 0 7 62 -6 90 -10 22 -11 20 -6 -20z"/>
<path d="M3360 183 c0 -15 -2 -16 -10 -3 -8 12 -10 12 -16 -4 -4 -11 -2 -21 7
-27 9 -5 15 -4 18 2 2 7 7 6 12 -2 6 -10 9 -6 9 13 0 15 -4 30 -10 33 -5 3
-10 -2 -10 -12z"/>
<path d="M5991 175 c1 -11 5 -31 9 -45 8 -24 8 -24 9 5 0 17 -4 37 -9 45 -8
12 -10 11 -9 -5z"/>
<path d="M417 124 c-27 -54 -36 -83 -17 -54 7 11 10 4 10 -26 0 -29 4 -41 15
-41 8 0 15 6 15 13 0 7 3 21 6 31 5 16 4 16 -10 -1 -16 -20 -16 -20 -16 0 0
11 6 44 14 74 8 30 13 56 12 57 -1 1 -14 -22 -29 -53z"/>
<path d="M1009 133 c-11 -25 -18 -51 -15 -57 2 -6 5 -2 7 9 1 11 5 -2 8 -30 5
-43 9 -50 29 -51 17 -1 22 4 22 22 0 28 -16 32 -23 6 -4 -15 -5 -15 -6 0 0 9
15 47 34 83 19 37 29 62 21 56 -7 -6 -21 -29 -31 -51 -10 -22 -21 -40 -25 -40
-11 0 -20 28 -11 32 9 3 23 68 15 68 -2 0 -14 -21 -25 -47z"/>
<path d="M1491 175 c1 -18 27 -80 29 -65 0 8 12 -3 25 -25 l25 -40 0 33 c0 18
-4 31 -9 27 -9 -5 -30 17 -58 61 -6 11 -12 15 -12 9z"/>
<path d="M4281 160 c-24 -18 -35 -59 -22 -79 10 -16 80 -22 97 -9 8 6 18 -5
32 -32 12 -24 22 -36 25 -28 4 10 6 10 6 1 2 -29 20 -10 29 30 7 30 10 35 11
16 2 -41 13 -42 32 -2 l18 38 -5 -50 c-4 -39 -3 -46 6 -32 6 9 9 21 6 25 -3 4
0 28 5 51 13 60 5 62 -25 4 l-25 -48 -1 40 c-1 22 -5 49 -10 60 -7 16 -9 12
-10 -20 -2 -22 -6 -53 -10 -70 -7 -27 -8 -28 -9 -6 -1 23 -2 24 -14 7 -13 -17
-14 -17 -30 8 -21 32 -21 33 5 39 17 5 19 9 10 20 -7 8 -9 16 -6 20 9 9 -39
31 -69 32 -15 0 -36 -7 -46 -15z m60 -13 c-10 -9 -11 -8 -5 6 3 10 9 15 12 12
3 -3 0 -11 -7 -18z m-45 -12 c-3 -21 -24 -40 -33 -31 -4 4 -1 11 6 15 7 5 10
14 7 20 -4 6 -1 11 8 11 8 0 13 -7 12 -15z m91 9 c-3 -3 -12 -4 -19 -1 -8 3
-5 6 6 6 11 1 17 -2 13 -5z m6 -31 c-7 -2 -21 -2 -30 0 -10 3 -4 5 12 5 17 0
24 -2 18 -5z m-79 -9 c15 -6 11 -34 -5 -34 -4 0 -6 7 -2 16 5 14 3 15 -18 4
-22 -12 -23 -12 -10 3 15 19 14 19 35 11z"/>
<path d="M3277 163 c-4 -6 -3 -21 1 -34 5 -13 11 -18 15 -12 4 6 3 21 -1 34
-5 13 -11 18 -15 12z"/>
<path d="M5197 157 c-4 -10 -7 -28 -7 -40 1 -20 2 -20 11 -4 6 10 9 28 7 40
-3 20 -4 20 -11 4z"/>
<path d="M5421 95 c-16 -56 -25 -75 -32 -64 -5 8 -9 21 -9 30 0 8 -6 23 -12
32 -11 15 -12 8 -9 -40 3 -45 6 -52 12 -33 7 24 7 24 8 3 1 -18 7 -23 27 -23
22 0 25 4 21 21 -3 11 1 46 9 76 23 87 11 85 -15 -2z"/>
<path d="M161 133 c6 -15 20 -52 31 -82 16 -42 23 -50 29 -38 7 11 0 31 -21
67 -16 28 -30 55 -30 60 0 5 -4 12 -10 15 -6 4 -6 -5 1 -22z m57 -108 c-3 -3
-9 2 -12 12 -6 14 -5 15 5 6 7 -7 10 -15 7 -18z"/>
<path d="M1307 131 c-4 -19 -5 -36 -2 -39 10 -11 16 7 13 40 l-3 33 -8 -34z"/>
<path d="M3037 153 c-3 -5 -8 -33 -12 -63 -3 -30 -9 -63 -11 -72 -3 -10 -1
-18 5 -18 6 0 11 19 12 43 l1 42 10 -45 c9 -37 12 -41 19 -25 l8 20 0 -20 c1
-17 3 -17 11 -5 13 20 13 43 0 35 -5 -3 -10 4 -11 17 -1 23 -1 23 -8 -2 -7
-21 -9 -17 -15 27 -4 29 -5 57 -1 63 3 5 4 10 1 10 -3 0 -7 -3 -9 -7z"/>
<path d="M3845 150 c-13 -6 -15 -9 -5 -9 8 0 22 4 30 9 18 12 2 12 -25 0z"/>
<path d="M325 130 c-8 -25 -8 -120 1 -129 10 -10 11 7 5 51 -5 27 -4 51 2 57
5 5 7 17 5 27 -4 16 -5 15 -13 -6z"/>
<path d="M1234 121 c3 -18 7 -54 7 -80 1 -40 2 -42 8 -16 l7 30 7 -27 c9 -33
27 -37 27 -7 0 11 -4 18 -9 15 -5 -3 -14 15 -20 42 -15 59 -36 93 -27 43z"/>
<path d="M2672 143 c37 -2 100 -2 140 0 40 1 10 3 -67 3 -77 0 -110 -1 -73 -3z"/>
<path d="M3102 108 c-10 -42 -6 -108 7 -108 3 0 7 34 7 75 1 41 0 75 -1 75 -1
0 -7 -19 -13 -42z"/>
<path d="M4623 108 c-7 -26 -12 -62 -11 -80 1 -29 2 -28 8 12 4 28 8 35 8 18
1 -14 5 -34 9 -44 6 -16 7 -16 14 2 7 17 8 17 8 2 1 -10 6 -18 12 -18 6 0 8 9
4 23 -10 30 -25 45 -27 27 -1 -8 -4 12 -7 45 l-6 60 -12 -47z"/>
<path d="M5026 125 c9 -14 19 -23 22 -20 3 2 11 0 19 -6 10 -9 13 -7 13 10 0
12 -4 20 -9 17 -4 -3 -17 1 -27 9 -29 22 -36 18 -18 -10z"/>
<path d="M5221 123 c-1 -18 3 -33 8 -33 12 0 25 39 17 47 -3 4 -6 0 -7 -8 0
-8 -4 -6 -9 6 -7 17 -9 15 -9 -12z"/>
<path d="M2513 133 c15 -2 39 -2 55 0 15 2 2 4 -28 4 -30 0 -43 -2 -27 -4z"/>
<path d="M3224 129 c-3 -6 -1 -16 5 -22 8 -8 11 -5 11 11 0 24 -5 28 -16 11z"/>
<path d="M2380 120 c-27 -6 -29 -8 -10 -8 14 -1 43 3 65 7 33 7 35 9 10 9 -16
-1 -46 -4 -65 -8z"/>
<path d="M3372 83 l-21 -48 -1 39 c0 44 -13 39 -24 -9 -5 -22 -4 -26 4 -15 7
12 10 7 11 -20 l1 -35 19 40 18 40 1 -40 c0 -30 3 -36 10 -25 6 9 10 10 10 3
0 -6 9 -11 20 -10 11 1 20 8 20 15 0 9 -6 12 -16 8 -12 -4 -15 -2 -10 9 19 46
18 49 -3 25 l-22 -25 5 48 c3 26 4 47 2 47 -2 0 -13 -21 -24 -47z"/>
<path d="M4692 88 c-14 -53 -15 -72 -2 -43 7 17 9 14 10 -15 1 -30 2 -32 10
-13 5 11 5 43 1 70 l-7 48 -12 -47z"/>
<path d="M253 85 c0 -22 2 -30 4 -17 2 12 2 30 0 40 -3 9 -5 -1 -4 -23z"/>
<path d="M1095 88 c-4 -18 -9 -42 -12 -53 -3 -13 -2 -17 5 -10 10 10 26 95 18
95 -2 0 -7 -15 -11 -32z"/>
<path d="M5452 73 c-15 -33 -17 -42 -6 -28 16 19 16 19 11 -11 -5 -28 -3 -31
16 -31 19 0 23 5 23 40 1 39 1 40 -13 16 -13 -23 -13 -22 -7 19 3 23 4 42 2
42 -2 0 -14 -21 -26 -47z"/>
<path d="M1338 92 c-8 -27 1 -92 12 -92 9 0 21 42 15 49 -3 2 -6 -2 -7 -10 0
-8 -4 6 -7 31 -5 37 -7 41 -13 22z"/>
<path d="M4536 82 c-11 -21 -13 -37 -6 -58 9 -27 9 -27 8 -4 0 14 4 38 11 54
16 39 6 45 -13 8z"/>
<path d="M1490 92 c1 -14 29 -57 30 -44 0 7 5 10 10 7 12 -7 13 5 2 21 -9 13
-42 26 -42 16z"/>
<path d="M2265 90 c-9 -14 17 -22 57 -17 32 4 31 4 -7 6 -30 1 -36 4 -25 11
13 8 13 10 -2 10 -9 0 -20 -5 -23 -10z"/>
<path d="M3138 69 c-15 -29 -14 -69 1 -69 4 0 12 5 19 12 9 9 12 9 13 -2 0
-10 4 -7 9 5 17 40 10 50 -15 20 -27 -33 -30 -28 -15 24 13 45 7 50 -12 10z"/>
<path d="M1371 74 c0 -11 3 -14 6 -6 3 7 2 16 -1 19 -3 4 -6 -2 -5 -13z"/>
<path d="M845 43 c19 -45 25 -52 25 -28 0 15 2 16 18 4 9 -7 1 4 -17 24 -19
20 -36 37 -38 37 -2 0 4 -17 12 -37z"/>
<path d="M1291 64 c0 -11 3 -14 6 -6 3 7 2 16 -1 19 -3 4 -6 -2 -5 -13z"/>
<path d="M5516 56 c-9 -14 -13 -32 -10 -40 7 -18 20 -21 29 -6 4 6 11 8 16 5
5 -4 9 4 9 16 0 21 0 21 -21 -2 l-20 -24 7 25 c4 14 9 31 11 38 8 20 -4 14
-21 -12z"/>
<path d="M110 65 c1 -21 29 -59 45 -61 14 -2 13 2 -6 24 -13 15 -27 31 -31 37
-5 6 -8 6 -8 0z"/>
<path d="M1175 39 c9 -20 23 -36 31 -36 21 0 17 10 -17 43 l-31 29 17 -36z"/>
<path d="M2368 63 c6 -2 18 -2 25 0 6 3 1 5 -13 5 -14 0 -19 -2 -12 -5z"/>
<path d="M3266 55 c-3 -9 -6 -26 -5 -38 1 -16 4 -12 10 12 10 34 6 55 -5 26z"/>
<path d="M3286 48 c-8 -33 -5 -58 4 -28 l7 25 12 -25 12 -25 -6 25 c-2 14 -5
31 -5 38 0 21 -17 13 -24 -10z"/>
<path d="M346 44 c-3 -9 -2 -23 4 -32 7 -14 9 -10 10 16 0 35 -5 41 -14 16z"/>
<path d="M1446 43 c-6 -15 -8 -15 -16 -3 -8 12 -10 9 -10 -11 0 -33 27 -34 35
-1 7 29 0 40 -9 15z"/>
<path d="M2418 53 c6 -2 18 -2 25 0 6 3 1 5 -13 5 -14 0 -19 -2 -12 -5z"/>
<path d="M376 35 c-3 -9 -6 -22 -5 -28 0 -7 5 -1 10 12 5 13 8 26 5 28 -2 2
-6 -3 -10 -12z"/>
<path d="M2468 43 c6 -2 18 -2 25 0 6 3 1 5 -13 5 -14 0 -19 -2 -12 -5z"/>
<path d="M2990 29 c0 -11 4 -18 10 -14 5 3 7 12 3 20 -7 21 -13 19 -13 -6z"/>
<path d="M4567 27 c3 -13 11 -24 19 -24 19 0 18 11 -5 31 -17 16 -18 16 -14
-7z"/>
<path d="M4782 30 c-15 -25 -15 -27 3 -27 9 0 15 10 15 24 0 28 -2 28 -18 3z"/>
<path d="M237 20 c-3 -11 -1 -20 4 -20 5 0 9 9 9 20 0 11 -2 20 -4 20 -2 0 -6
-9 -9 -20z"/>
<path d="M1317 33 c-4 -3 -7 -13 -7 -22 1 -13 3 -13 11 2 11 19 8 33 -4 20z"/>
<path d="M2528 33 c6 -2 18 -2 25 0 6 3 1 5 -13 5 -14 0 -19 -2 -12 -5z"/>
<path d="M2954 21 c21 -23 26 -26 26 -11 0 5 -10 15 -22 21 -23 12 -23 12 -4
-10z"/>
<path d="M4370 16 c0 -9 5 -16 10 -16 6 0 10 4 10 9 0 6 -4 13 -10 16 -5 3
-10 -1 -10 -9z"/>
<path d="M5326 16 c3 -9 11 -16 16 -16 13 0 5 23 -10 28 -7 2 -10 -2 -6 -12z"/>
<path d="M2630 10 c34 -11 60 -11 35 0 -11 5 -29 8 -40 8 -16 0 -15 -2 5 -8z"/>
<path d="M4305 10 c3 -5 14 -10 23 -10 15 0 15 2 2 10 -20 13 -33 13 -25 0z"/>
</g>
</svg>
