<?xml version="1.0" standalone="no"?>
<!DOCTYPE svg PUBLIC "-//W3C//DTD SVG 20010904//EN"
 "http://www.w3.org/TR/2001/REC-SVG-20010904/DTD/svg10.dtd">
<svg version="1.0" xmlns="http://www.w3.org/2000/svg"
 width="500.000000pt" height="431.000000pt" viewBox="0 0 500.000000 431.000000"
 preserveAspectRatio="xMidYMid meet">

<g transform="translate(0.000000,431.000000) scale(0.100000,-0.100000)"
fill="#000000" stroke="none">
<path d="M0 3755 l0 -555 225 0 225 0 0 -1115 0 -1115 30 0 30 0 0 -94 0 -94
153 0 152 -1 3 -146 3 -145 -411 0 -410 0 0 -55 0 -55 90 0 c53 0 90 -4 90
-10 0 -6 -37 -10 -90 -10 l-90 0 0 -55 0 -55 2110 0 c1512 0 2110 -3 2110 -11
0 -6 -13 -16 -30 -22 -16 -6 -30 -15 -30 -19 0 -18 48 -38 92 -38 45 0 47 -1
50 -33 2 -24 8 -32 23 -32 15 0 21 8 23 33 3 31 5 32 40 27 27 -4 46 0 70 14
35 22 43 51 14 51 -10 0 -27 7 -38 15 -17 13 14 14 274 15 l292 0 0 55 0 55
-85 0 c-50 0 -85 4 -85 10 0 6 35 10 85 10 l85 0 0 55 0 55 -335 0 c-254 0
-335 3 -335 12 0 9 -3 9 -12 0 -9 -9 -216 -12 -870 -12 l-858 0 0 45 0 45
-135 0 -135 0 0 35 c0 34 -1 35 -40 35 -39 0 -40 -1 -40 -35 l0 -35 -155 0
-155 0 0 35 c0 34 -1 35 -40 35 -39 0 -40 -1 -40 -35 l0 -35 -145 0 -146 0 3
100 3 100 1285 3 1285 2 3 93 c3 90 3 92 27 92 l25 0 0 1115 0 1115 405 0 405
0 0 555 0 555 -2500 0 -2500 0 0 -555z m3461 175 l669 0 0 -575 0 -575 -85 0
-85 0 0 185 0 185 -25 0 -25 0 0 -185 0 -185 -150 0 -150 0 0 185 0 185 -25 0
-25 0 0 -185 0 -185 -135 0 c-83 0 -135 4 -135 10 0 6 -9 10 -20 10 -13 0 -20
7 -20 20 0 17 -7 20 -45 20 -43 0 -45 -1 -45 -30 0 -16 -4 -30 -10 -30 -5 0
-10 14 -10 30 0 28 -2 30 -40 30 -37 0 -40 -2 -40 -28 l0 -29 -177 -5 c-98 -3
-239 -2 -313 1 l-135 6 -1 572 -2 572 152 4 c83 2 164 2 180 0 16 -2 329 -3
697 -3z m-1091 -575 l0 -575 -40 0 -40 0 0 260 0 260 -135 0 -135 0 0 -260 0
-260 -30 0 -30 0 -2 258 -3 257 -235 3 c-144 1 -236 6 -240 13 -4 5 3 57 14
114 11 57 17 108 12 112 -12 13 -22 -15 -41 -118 l-18 -99 -89 0 c-48 0 -88
-4 -88 -9 0 -6 -17 -11 -37 -13 l-38 -3 -3 -77 -3 -78 -144 0 -144 0 -4 -42
c-3 -24 -4 12 -2 80 2 113 1 122 -16 122 -18 0 -19 -13 -19 -259 l0 -258 -108
-7 c-60 -4 -139 -4 -175 0 l-67 7 0 573 0 574 930 0 930 0 0 -575z m-120 -115
c0 -6 -38 -10 -95 -10 -57 0 -95 4 -95 10 0 6 38 10 95 10 57 0 95 -4 95 -10z
m-890 -90 c0 -6 -30 -10 -70 -10 -40 0 -70 4 -70 10 0 6 30 10 70 10 40 0 70
-4 70 -10z m410 -179 l0 -188 -94 -7 c-52 -3 -139 -3 -195 0 l-101 7 0 189 0
188 195 0 195 0 0 -189z m160 -1 l0 -190 -70 0 -70 0 0 190 0 190 70 0 70 0 0
-190z m320 120 c0 -6 -39 -10 -96 -10 -61 0 -93 4 -89 10 3 6 46 10 96 10 53
0 89 -4 89 -10z m-942 -272 c35 -2 48 -7 50 -20 3 -16 -5 -18 -67 -18 -64 0
-71 2 -71 20 0 11 7 20 15 20 12 0 15 21 17 123 l2 122 3 -122 4 -122 47 -3z
m-348 67 l0 -105 -35 0 -35 0 0 105 0 105 35 0 35 0 0 -105z m70 0 c0 -98 -1
-105 -20 -105 -19 0 -20 7 -20 105 0 98 1 105 20 105 19 0 20 -7 20 -105z m90
0 l0 -105 -35 0 -35 0 0 105 0 105 35 0 35 0 0 -105z m1130 55 c0 -6 -38 -10
-95 -10 -57 0 -95 4 -95 10 0 6 38 10 95 10 57 0 95 -4 95 -10z m10 -110 l0
-50 -105 0 -105 0 0 50 0 50 105 0 105 0 0 -50z m-1070 -30 c0 -13 -7 -20 -20
-20 -13 0 -20 7 -20 20 0 13 7 20 20 20 13 0 20 -7 20 -20z m640 -265 l0 -55
85 0 85 0 0 -119 c0 -94 -3 -121 -15 -131 -12 -10 -64 -13 -200 -12 l-185 2 0
-225 c0 -193 2 -225 15 -225 11 0 15 12 15 50 l0 50 50 0 50 0 0 -50 0 -49 73
-3 72 -3 0 -110 0 -110 -127 -3 -128 -3 0 -29 0 -30 410 0 410 0 0 30 0 29
-127 3 -128 3 0 110 0 110 73 3 72 3 0 49 0 50 50 0 50 0 0 -50 c0 -36 4 -50
14 -50 18 0 22 53 18 275 l-4 176 -185 -2 c-172 -3 -187 -1 -199 16 -8 10 -14
27 -14 37 0 16 11 18 135 18 l135 0 -3 93 -2 92 583 3 582 2 0 55 0 55 320 0
320 0 0 -810 c0 -803 0 -810 -20 -810 -11 0 -20 -5 -20 -12 0 -9 -3 -9 -12 0
-15 15 -48 16 -48 2 0 -6 -8 -5 -20 2 -15 10 -25 10 -37 2 -13 -8 -23 -8 -35
0 -13 8 -23 8 -35 0 -13 -8 -23 -8 -35 0 -13 8 -23 8 -38 -2 -12 -7 -20 -8
-20 -2 0 13 -37 13 -45 0 -4 -6 -13 -5 -25 3 -15 9 -25 9 -37 1 -13 -8 -23 -8
-35 0 -13 8 -23 8 -38 -2 -12 -7 -20 -8 -20 -2 0 5 -11 10 -25 10 -14 0 -25
-5 -25 -10 0 -6 -8 -5 -20 2 -15 10 -25 10 -37 2 -13 -8 -23 -8 -35 0 -13 8
-23 8 -38 -1 -12 -8 -21 -9 -25 -3 -9 14 -42 12 -49 -2 -5 -10 -7 -10 -12 0
-7 15 -40 16 -49 2 -4 -7 -11 -8 -18 -2 -7 5 -75 10 -152 11 -77 1 -144 6
-149 11 -6 6 -18 10 -28 10 -19 0 -25 29 -8 46 5 5 10 117 11 272 1 276 -2
292 -46 292 -14 0 -16 12 -14 87 3 127 2 124 63 118 47 -6 50 -5 31 9 -11 8
-26 20 -32 26 -9 7 -13 7 -13 0 0 -5 -16 -10 -35 -10 -24 0 -35 5 -35 15 0 8
-9 15 -20 15 -12 0 -20 -7 -20 -16 0 -12 -9 -15 -41 -13 -58 5 -73 -17 -65
-96 3 -33 9 -202 12 -375 5 -261 9 -317 21 -327 8 -6 13 -22 11 -35 l-3 -23
-602 -3 -603 -2 0 205 c0 198 -1 205 -20 205 -19 0 -20 -7 -20 -90 l0 -90 -85
0 -85 0 0 314 c0 199 -4 317 -10 321 -5 3 -10 47 -10 96 0 82 -2 92 -25 114
-17 18 -35 25 -62 25 -31 0 -45 -7 -76 -40 -20 -22 -32 -40 -26 -40 8 0 10
-26 7 -80 l-3 -80 41 0 c38 0 42 -2 48 -31 8 -40 8 -147 0 -176 -5 -17 -14
-23 -33 -23 -14 0 -21 4 -16 8 7 4 9 43 7 100 l-4 92 -68 0 c-38 0 -71 -3 -73
-7 -2 -5 -2 -48 1 -96 3 -65 8 -90 19 -94 8 -3 18 0 23 6 4 7 20 11 36 9 21
-2 29 -8 29 -23 0 -11 -5 -19 -12 -18 -6 1 -14 -16 -18 -40 -6 -31 -23 -59
-71 -115 l-64 -73 0 -108 0 -108 -36 -46 -37 -47 -148 0 -148 0 -3 -32 c-3
-32 -4 -33 -55 -36 l-53 -3 0 810 0 811 660 0 660 0 0 -55z m80 0 c0 -16 -6
-25 -15 -25 -9 0 -15 9 -15 25 0 16 6 25 15 25 9 0 15 -9 15 -25z m60 0 c0
-16 -6 -25 -15 -25 -9 0 -15 9 -15 25 0 16 6 25 15 25 9 0 15 -9 15 -25z m50
0 c0 -16 -6 -25 -15 -25 -9 0 -15 9 -15 25 0 16 6 25 15 25 9 0 15 -9 15 -25z
m50 0 c0 -16 -6 -25 -15 -25 -9 0 -15 9 -15 25 0 16 6 25 15 25 9 0 15 -9 15
-25z m50 0 c0 -16 -6 -25 -15 -25 -9 0 -15 9 -15 25 0 16 6 25 15 25 9 0 15
-9 15 -25z m60 0 c0 -16 -6 -25 -15 -25 -9 0 -15 9 -15 25 0 16 6 25 15 25 9
0 15 -9 15 -25z m50 0 c0 -16 -6 -25 -15 -25 -9 0 -15 9 -15 25 0 16 6 25 15
25 9 0 15 -9 15 -25z m50 0 c0 -16 -6 -25 -15 -25 -9 0 -15 9 -15 25 0 16 6
25 15 25 9 0 15 -9 15 -25z m50 0 c0 -16 -6 -25 -15 -25 -9 0 -15 9 -15 25 0
16 6 25 15 25 9 0 15 -9 15 -25z m50 0 c0 -14 -4 -25 -10 -25 -5 0 -10 11 -10
25 0 14 5 25 10 25 6 0 10 -11 10 -25z m60 0 c0 -16 -6 -25 -15 -25 -9 0 -15
9 -15 25 0 16 6 25 15 25 9 0 15 -9 15 -25z m50 0 c0 -16 -6 -25 -15 -25 -9 0
-15 9 -15 25 0 16 6 25 15 25 9 0 15 -9 15 -25z m50 0 c0 -16 -6 -25 -15 -25
-9 0 -15 9 -15 25 0 16 6 25 15 25 9 0 15 -9 15 -25z m50 0 c0 -14 -4 -25 -10
-25 -5 0 -10 11 -10 25 0 14 5 25 10 25 6 0 10 -11 10 -25z m60 0 c0 -16 -6
-25 -15 -25 -9 0 -15 9 -15 25 0 16 6 25 15 25 9 0 15 -9 15 -25z m50 0 c0
-16 -6 -25 -15 -25 -9 0 -15 9 -15 25 0 16 6 25 15 25 9 0 15 -9 15 -25z m50
0 c0 -16 -6 -25 -15 -25 -9 0 -15 9 -15 25 0 16 6 25 15 25 9 0 15 -9 15 -25z
m60 0 c0 -16 -6 -25 -15 -25 -9 0 -15 9 -15 25 0 16 6 25 15 25 9 0 15 -9 15
-25z m50 0 c0 -16 -6 -25 -15 -25 -9 0 -15 9 -15 25 0 16 6 25 15 25 9 0 15
-9 15 -25z m50 0 c0 -16 -6 -25 -15 -25 -9 0 -15 9 -15 25 0 16 6 25 15 25 9
0 15 -9 15 -25z m50 0 c0 -16 -6 -25 -15 -25 -9 0 -15 9 -15 25 0 16 6 25 15
25 9 0 15 -9 15 -25z m60 0 c0 -16 -6 -25 -15 -25 -9 0 -15 9 -15 25 0 16 6
25 15 25 9 0 15 -9 15 -25z m50 0 c0 -16 -6 -25 -15 -25 -9 0 -15 9 -15 25 0
16 6 25 15 25 9 0 15 -9 15 -25z m50 0 c0 -16 -6 -25 -15 -25 -9 0 -15 9 -15
25 0 16 6 25 15 25 9 0 15 -9 15 -25z m50 0 c0 -16 -6 -25 -15 -25 -9 0 -15 9
-15 25 0 16 6 25 15 25 9 0 15 -9 15 -25z m50 0 c0 -14 -4 -25 -10 -25 -5 0
-10 11 -10 25 0 14 5 25 10 25 6 0 10 -11 10 -25z m60 0 c0 -16 -6 -25 -15
-25 -9 0 -15 9 -15 25 0 16 6 25 15 25 9 0 15 -9 15 -25z m50 0 c0 -16 -6 -25
-15 -25 -9 0 -15 9 -15 25 0 16 6 25 15 25 9 0 15 -9 15 -25z m50 0 c0 -16 -6
-25 -15 -25 -9 0 -15 9 -15 25 0 16 6 25 15 25 9 0 15 -9 15 -25z m60 0 c0
-16 -6 -25 -15 -25 -9 0 -15 9 -15 25 0 16 6 25 15 25 9 0 15 -9 15 -25z
m-1443 -407 l33 -32 33 32 33 32 152 0 152 0 0 -60 c0 -46 -3 -60 -15 -60 -11
0 -15 -16 -17 -67 l-3 -68 -32 -3 c-33 -3 -33 -4 -33 -58 l0 -54 -75 0 -75 0
0 -125 0 -125 -120 0 -120 0 0 125 0 124 -72 3 c-65 3 -73 5 -74 23 -1 11 -2
35 -3 53 -1 30 -3 32 -37 32 l-36 0 2 43 c4 75 1 97 -15 97 -12 0 -15 13 -15
60 l0 60 152 0 152 0 33 -32z m-737 -213 c0 -51 -2 -55 -24 -55 -30 0 -76 52
-76 86 0 22 4 24 50 24 l50 0 0 -55z m-6 -467 c3 -24 4 -88 3 -143 l-2 -100
-92 -3 -93 -3 0 58 c0 58 0 58 75 146 42 48 82 87 90 87 9 0 16 -15 19 -42z
m1606 -182 c0 -139 4 -227 10 -231 6 -3 10 -18 10 -32 0 -19 -4 -24 -16 -19
-9 3 -22 6 -30 6 -16 0 -19 36 -4 45 6 4 10 92 10 231 0 143 4 224 10 224 6 0
10 -81 10 -224z m-1722 -313 l-3 -158 -120 0 -120 0 -3 55 -3 55 83 102 c81
100 84 102 126 103 l43 0 -3 -157z m2157 -33 c3 -5 -1 -10 -10 -10 -9 0 -13 5
-10 10 3 6 8 10 10 10 2 0 7 -4 10 -10z m65 0 c0 -5 -4 -10 -10 -10 -5 0 -10
5 -10 10 0 6 5 10 10 10 6 0 10 -4 10 -10z m65 0 c3 -5 -1 -10 -10 -10 -9 0
-13 5 -10 10 3 6 8 10 10 10 2 0 7 -4 10 -10z m70 0 c3 -5 -1 -10 -10 -10 -9
0 -13 5 -10 10 3 6 8 10 10 10 2 0 7 -4 10 -10z m65 0 c0 -5 -5 -10 -11 -10
-5 0 -7 5 -4 10 3 6 8 10 11 10 2 0 4 -4 4 -10z m65 0 c3 -5 1 -10 -4 -10 -6
0 -11 5 -11 10 0 6 2 10 4 10 3 0 8 -4 11 -10z m70 0 c3 -5 -1 -10 -10 -10 -9
0 -13 5 -10 10 3 6 8 10 10 10 2 0 7 -4 10 -10z m70 0 c3 -5 -1 -10 -10 -10
-9 0 -13 5 -10 10 3 6 8 10 10 10 2 0 7 -4 10 -10z m60 0 c3 -5 1 -10 -4 -10
-6 0 -11 5 -11 10 0 6 2 10 4 10 3 0 8 -4 11 -10z m70 0 c3 -5 -1 -10 -10 -10
-9 0 -13 5 -10 10 3 6 8 10 10 10 2 0 7 -4 10 -10z m70 0 c3 -5 -1 -10 -10
-10 -9 0 -13 5 -10 10 3 6 8 10 10 10 2 0 7 -4 10 -10z m65 0 c0 -5 -5 -10
-11 -10 -5 0 -7 5 -4 10 3 6 8 10 11 10 2 0 4 -4 4 -10z m60 0 c0 -5 -5 -10
-11 -10 -5 0 -7 5 -4 10 3 6 8 10 11 10 2 0 4 -4 4 -10z m-3092 -512 c28 -28
7 -78 -33 -78 -27 0 -45 18 -45 45 0 27 18 45 45 45 12 0 26 -5 33 -12z m410
0 c28 -28 7 -78 -33 -78 -27 0 -45 18 -45 45 0 27 18 45 45 45 12 0 26 -5 33
-12z m551 -10 c17 -45 -39 -87 -75 -58 -17 15 -18 52 -2 68 21 21 68 15 77
-10z m411 1 c9 -16 8 -26 -5 -45 -27 -41 -85 -27 -85 21 0 29 19 45 52 45 17
0 31 -7 38 -21z m-1810 -29 c0 -6 -38 -10 -95 -10 -57 0 -95 4 -95 10 0 6 38
10 95 10 57 0 95 -4 95 -10z m2230 0 c0 -6 -32 -10 -75 -10 -43 0 -75 4 -75
10 0 6 32 10 75 10 43 0 75 -4 75 -10z m370 0 c0 -6 -38 -10 -95 -10 -57 0
-95 4 -95 10 0 6 38 10 95 10 57 0 95 -4 95 -10z m370 0 c0 -6 -38 -10 -95
-10 -57 0 -95 4 -95 10 0 6 38 10 95 10 57 0 95 -4 95 -10z m370 0 c0 -6 -37
-10 -90 -10 -53 0 -90 4 -90 10 0 6 37 10 90 10 53 0 90 -4 90 -10z m335 0
c-3 -5 -37 -10 -76 -10 -39 0 -69 4 -69 10 0 6 32 10 76 10 47 0 73 -4 69 -10z
m415 0 c0 -6 -38 -10 -95 -10 -57 0 -95 4 -95 10 0 6 38 10 95 10 57 0 95 -4
95 -10z"/>
<path d="M3113 3850 c-27 -11 -50 -56 -48 -93 1 -15 12 -41 24 -58 22 -29 22
-31 4 -44 -10 -8 -20 -15 -23 -15 -11 0 -40 -58 -40 -78 0 -10 -14 -50 -31
-87 -16 -37 -29 -68 -27 -69 2 -1 15 -7 31 -14 26 -11 27 -15 27 -77 l0 -66
123 3 122 3 3 73 3 72 34 0 c31 0 35 -3 35 -25 0 -14 5 -25 10 -25 6 0 10 9
10 20 0 11 7 23 15 26 18 7 39 77 25 82 -14 5 -12 38 3 54 18 18 28 48 21 60
-3 5 -12 1 -20 -9 -12 -17 -13 -17 -14 0 0 9 -4 17 -9 17 -12 0 -20 -36 -11
-47 13 -12 0 -63 -16 -63 -8 0 -14 -7 -14 -15 0 -10 -11 -15 -35 -15 l-35 0 0
50 c0 65 -22 116 -59 137 l-29 17 23 31 c14 19 23 46 24 72 1 35 -4 46 -30 67
-32 27 -58 31 -96 16z"/>
<path d="M3580 3750 c0 -13 7 -20 20 -20 13 0 20 7 20 20 0 13 -7 20 -20 20
-13 0 -20 -7 -20 -20z"/>
<path d="M3640 3750 c0 -11 7 -20 15 -20 8 0 15 9 15 20 0 11 -7 20 -15 20 -8
0 -15 -9 -15 -20z"/>
<path d="M3690 3750 c0 -13 7 -20 20 -20 13 0 20 7 20 20 0 13 -7 20 -20 20
-13 0 -20 -7 -20 -20z"/>
<path d="M2640 3565 l0 -45 40 0 40 0 0 45 0 45 -40 0 -40 0 0 -45z"/>
<path d="M851 3783 c-1 -28 2 -33 22 -32 15 1 17 3 5 6 -9 2 -19 16 -21 31 -4
24 -4 24 -6 -5z"/>
<path d="M1009 3631 c-24 -25 -29 -37 -29 -80 0 -39 4 -51 15 -51 10 0 15 10
15 29 0 39 18 49 30 17 11 -31 30 -34 30 -6 0 14 9 21 34 26 19 3 39 4 43 1 5
-3 14 -3 20 1 17 11 -13 67 -43 81 -44 20 -83 13 -115 -18z"/>
<path d="M2069 3632 c6 -11 25 -32 43 -46 41 -31 30 -44 -17 -21 -20 9 -39 14
-43 11 -9 -10 39 -55 62 -58 11 -2 22 -11 24 -20 3 -15 -2 -17 -29 -11 -38 7
-33 -12 7 -27 13 -5 24 -16 24 -25 0 -8 5 -15 10 -15 6 0 10 10 10 22 0 12 16
37 38 57 31 30 34 35 18 39 -10 2 -23 -1 -29 -7 -18 -18 -27 -13 -27 14 0 15
11 36 28 51 25 24 26 25 5 21 -18 -4 -23 -1 -23 14 0 26 -16 24 -23 -3 -6 -20
-8 -21 -24 -6 -10 9 -29 19 -41 23 -21 6 -23 5 -13 -13z"/>
<path d="M1125 3490 c-3 -5 1 -10 9 -10 8 0 18 5 21 10 3 6 -1 10 -9 10 -8 0
-18 -4 -21 -10z"/>
<path d="M2814 2070 c-23 -9 -54 -47 -54 -66 0 -8 32 -12 100 -13 l101 -1 -38
39 c-41 42 -75 55 -109 41z"/>
<path d="M3047 1725 c-9 -56 -9 -85 2 -85 20 0 31 60 17 93 l-13 32 -6 -40z"/>
<path d="M1015 1710 c-3 -11 -2 -28 4 -37 8 -15 10 -11 11 20 0 41 -5 47 -15
17z"/>
</g>
</svg>
